<svg width="236" height="231" viewBox="0 0 236 231" fill="none" xmlns="http://www.w3.org/2000/svg">
<g filter="url(#filter0_ii)">
<path d="M9.62354 85.8764C9.62354 76.9213 16.8831 69.6617 25.8382 69.6617H155.555C164.51 69.6617 171.77 76.9213 171.77 85.8764V193.974C171.77 202.929 164.51 210.189 155.555 210.189H25.8382C16.8831 210.189 9.62354 202.929 9.62354 193.974L9.62354 85.8764Z" fill="#ACACAE"/>
</g>
<path d="M9.62354 85.8764C9.62354 76.9213 16.8831 69.6617 25.8382 69.6617H155.555C164.51 69.6617 171.77 76.9213 171.77 85.8764V193.974C171.77 202.929 164.51 210.189 155.555 210.189H25.8382C16.8831 210.189 9.62354 202.929 9.62354 193.974L9.62354 85.8764Z" stroke="#1F2024" stroke-width="5.40488"/>
<g filter="url(#filter1_i)">
<path d="M77.1846 85.8764C77.1846 76.9213 84.4441 69.6617 93.3992 69.6617H212.307C221.262 69.6617 228.521 76.9213 228.521 85.8764V193.974C228.521 202.929 221.262 210.189 212.307 210.189H93.3992C84.4441 210.189 77.1846 202.929 77.1846 193.974V85.8764Z" fill="#E2E2E2"/>
</g>
<path d="M77.1846 85.8764C77.1846 76.9213 84.4441 69.6617 93.3992 69.6617H212.307C221.262 69.6617 228.521 76.9213 228.521 85.8764V193.974C228.521 202.929 221.262 210.189 212.307 210.189H93.3992C84.4441 210.189 77.1846 202.929 77.1846 193.974V85.8764Z" stroke="#1F2024" stroke-width="5.40488"/>
<path d="M163.663 72.3643H189.336L151.502 207.486H125.829L163.663 72.3643Z" fill="white" fill-opacity="0.5"/>
<path d="M153.528 72.3643H157.582L119.748 207.486H115.694L153.528 72.3643Z" fill="white" fill-opacity="0.5"/>
<g filter="url(#filter2_d)">
<g filter="url(#filter3_i)">
<path d="M10.2993 131.818C10.2993 119.878 19.9787 110.198 31.9188 110.198H42.7286C54.6687 110.198 64.3481 119.878 64.3481 131.818V131.818C64.3481 143.758 54.6687 153.437 42.7286 153.437H31.9188C19.9787 153.437 10.2993 143.758 10.2993 131.818V131.818Z" fill="#E2E2E2"/>
</g>
<path d="M10.2993 131.818C10.2993 119.878 19.9787 110.198 31.9188 110.198H42.7286C54.6687 110.198 64.3481 119.878 64.3481 131.818V131.818C64.3481 143.758 54.6687 153.437 42.7286 153.437H31.9188C19.9787 153.437 10.2993 143.758 10.2993 131.818V131.818Z" stroke="#1F2024" stroke-width="5.40488"/>
<g filter="url(#filter4_ii)">
<path d="M10.2993 131.818C10.2993 119.878 19.9787 110.198 31.9188 110.198V110.198C43.859 110.198 53.5383 119.878 53.5383 131.818V131.818C53.5383 143.758 43.859 153.437 31.9188 153.437V153.437C19.9787 153.437 10.2993 143.758 10.2993 131.818V131.818Z" fill="#ACACAE"/>
</g>
<path d="M10.2993 131.818C10.2993 119.878 19.9787 110.198 31.9188 110.198V110.198C43.859 110.198 53.5383 119.878 53.5383 131.818V131.818C53.5383 143.758 43.859 153.437 31.9188 153.437V153.437C19.9787 153.437 10.2993 143.758 10.2993 131.818V131.818Z" stroke="#1F2024" stroke-width="5.40488"/>
<line x1="37.9993" y1="152.086" x2="37.9993" y2="179.111" stroke="#1F2024" stroke-width="5.40488"/>
<g filter="url(#filter5_ii)">
<path d="M52.6931 185.923C52.3642 185.222 51.6043 184.769 50.7632 184.769H40.9583L49.7751 171.162C50.1558 170.575 50.16 169.848 49.7863 169.257C49.4112 168.666 48.7171 168.301 47.9642 168.301H31.1703C30.4047 168.301 29.6994 168.678 29.3313 169.285L13.9369 194.62C13.58 195.208 13.5912 195.925 13.9691 196.503C14.347 197.082 15.0341 197.436 15.7759 197.436H25.2574L16.6337 216.347C16.2489 217.192 16.582 218.165 17.4273 218.664C17.7799 218.87 18.1774 218.972 18.5748 218.972C19.1304 218.972 19.6832 218.771 20.0905 218.386L52.2788 187.984C52.861 187.434 53.0247 186.623 52.6931 185.923Z" fill="#EDB146"/>
</g>
<path d="M52.6931 185.923C52.3642 185.222 51.6043 184.769 50.7632 184.769H40.9583L49.7751 171.162C50.1558 170.575 50.16 169.848 49.7863 169.257C49.4112 168.666 48.7171 168.301 47.9642 168.301H31.1703C30.4047 168.301 29.6994 168.678 29.3313 169.285L13.9369 194.62C13.58 195.208 13.5912 195.925 13.9691 196.503C14.347 197.082 15.0341 197.436 15.7759 197.436H25.2574L16.6337 216.347C16.2489 217.192 16.582 218.165 17.4273 218.664C17.7799 218.87 18.1774 218.972 18.5748 218.972C19.1304 218.972 19.6832 218.771 20.0905 218.386L52.2788 187.984C52.861 187.434 53.0247 186.623 52.6931 185.923Z" stroke="#1F2024" stroke-width="5.40488"/>
</g>
<path d="M120.585 57.0036C98.6727 60.8673 76.9158 58.492 73.7259 40.4015C70.5361 22.3109 85.7133 4.51352 107.625 0.649866C152.982 -7.34784 186.049 62.9545 120.585 57.0036Z" fill="#1F2024"/>
<path d="M126.655 9.01541C125.234 8.55919 123.712 9.34137 123.256 10.7624C122.799 12.1835 123.581 13.7054 125.003 14.1616L126.655 9.01541ZM142.66 34.2481C142.919 35.718 144.32 36.6999 145.79 36.4411C147.26 36.1824 148.242 34.781 147.983 33.3111L142.66 34.2481ZM146.219 45.1104C146.986 43.8297 146.569 42.1702 145.288 41.4037C144.008 40.6372 142.348 41.0541 141.582 42.3347L146.219 45.1104ZM139.202 44.8829C137.985 45.7471 137.7 47.4341 138.564 48.651C139.428 49.8678 141.115 50.1537 142.332 49.2895L139.202 44.8829ZM125.003 14.1616C134.114 17.0868 141.244 26.2052 142.66 34.2481L147.983 33.3111C146.24 23.4067 137.784 12.5884 126.655 9.01541L125.003 14.1616ZM141.582 42.3347C141.009 43.2916 140.231 44.1526 139.202 44.8829L142.332 49.2895C143.965 48.1296 145.259 46.715 146.219 45.1104L141.582 42.3347Z" fill="white"/>
<g filter="url(#filter6_i)">
<path d="M94.7505 62.2301C94.7505 59.245 97.1703 56.8252 100.155 56.8252H131.233C134.218 56.8252 136.638 59.245 136.638 62.2301V69.6618H94.7505V62.2301Z" fill="#E2E2E2"/>
</g>
<path d="M94.7505 62.2301C94.7505 59.245 97.1703 56.8252 100.155 56.8252H131.233C134.218 56.8252 136.638 59.245 136.638 62.2301V69.6618H94.7505V62.2301Z" stroke="#1F2024" stroke-width="5.40488"/>
<path d="M96.7773 118.306C96.7773 109.351 104.037 102.091 112.992 102.091H192.714C201.669 102.091 208.929 109.351 208.929 118.306V177.759C208.929 186.714 201.669 193.974 192.714 193.974H112.992C104.037 193.974 96.7773 186.714 96.7773 177.759V118.306Z" fill="#D7B184" stroke="#1F2024" stroke-width="5.40488"/>
<path d="M98.1284 185.191C100.435 185.191 102.719 184.737 104.851 183.854C106.982 182.971 108.918 181.677 110.549 180.046C112.18 178.415 113.474 176.479 114.357 174.347C115.24 172.216 115.694 169.932 115.694 167.625C115.694 165.318 115.24 163.034 114.357 160.903C113.474 158.772 112.18 156.835 110.549 155.204C108.918 153.573 106.982 152.279 104.851 151.396C102.719 150.514 100.435 150.059 98.1284 150.059L98.1284 167.625L98.1284 185.191Z" fill="#E36776" fill-opacity="0.5"/>
<path d="M207.577 185.191C205.27 185.191 202.986 184.737 200.855 183.854C198.724 182.971 196.787 181.677 195.156 180.046C193.525 178.415 192.231 176.479 191.348 174.347C190.466 172.216 190.011 169.932 190.011 167.625C190.011 165.318 190.466 163.034 191.348 160.903C192.231 158.772 193.525 156.835 195.156 155.204C196.787 153.573 198.724 152.279 200.855 151.396C202.986 150.514 205.27 150.059 207.577 150.059L207.577 167.625L207.577 185.191Z" fill="#E36776" fill-opacity="0.5"/>
<path d="M170.419 158.167C170.419 159.764 170.104 161.345 169.493 162.821C168.882 164.296 167.986 165.637 166.857 166.766C165.728 167.895 164.387 168.791 162.911 169.402C161.436 170.013 159.855 170.328 158.258 170.328C156.661 170.328 155.079 170.013 153.604 169.402C152.128 168.791 150.788 167.895 149.659 166.766C148.529 165.637 147.634 164.296 147.022 162.821C146.411 161.345 146.097 159.764 146.097 158.167L158.258 158.167H170.419Z" fill="#1F2024"/>
<circle cx="127.18" cy="147.357" r="8.78293" fill="#1F2024"/>
<circle cx="130.22" cy="144.317" r="3.04024" fill="white"/>
<circle cx="183.931" cy="147.357" r="8.78293" fill="#1F2024"/>
<circle cx="186.971" cy="144.317" r="3.04024" fill="white"/>
<g filter="url(#filter7_i)">
<path d="M159.281 108.005L115.019 129.791C118.298 121.076 120.902 108.005 118.298 102.091H189.336C183.864 112.838 174.457 117.908 157.132 124.189C159.154 118.534 159.783 115.08 159.281 108.005Z" fill="#1058C5"/>
</g>
<path d="M159.281 108.005L115.019 129.791C118.298 121.076 120.902 108.005 118.298 102.091H189.336C183.864 112.838 174.457 117.908 157.132 124.189C159.154 118.534 159.783 115.08 159.281 108.005Z" stroke="#1F2024" stroke-width="5.40488" stroke-linejoin="round"/>
<mask id="mask0" mask-type="alpha" maskUnits="userSpaceOnUse" x="94" y="99" width="118" height="98">
<path d="M94.0747 118.306C94.0747 107.858 102.544 99.3887 112.992 99.3887H192.714C203.161 99.3887 211.631 107.858 211.631 118.306V177.759C211.631 188.207 203.161 196.676 192.714 196.676H112.992C102.544 196.676 94.0747 188.207 94.0747 177.759V118.306Z" fill="#C4C4C4"/>
</mask>
<g mask="url(#mask0)">
<g filter="url(#filter8_d)">
<path d="M96.7773 118.306C96.7773 109.351 104.037 102.091 112.992 102.091H192.714C201.669 102.091 208.929 109.351 208.929 118.306V177.759C208.929 186.714 201.669 193.974 192.714 193.974H112.992C104.037 193.974 96.7773 186.714 96.7773 177.759V118.306Z" stroke="#1F2024" stroke-width="5.40488"/>
</g>
</g>
<defs>
<filter id="filter0_ii" x="6.9209" y="66.9594" width="167.551" height="145.932" filterUnits="userSpaceOnUse" color-interpolation-filters="sRGB">
<feFlood flood-opacity="0" result="BackgroundImageFix"/>
<feBlend mode="normal" in="SourceGraphic" in2="BackgroundImageFix" result="shape"/>
<feColorMatrix in="SourceAlpha" type="matrix" values="0 0 0 0 0 0 0 0 0 0 0 0 0 0 0 0 0 0 127 0" result="hardAlpha"/>
<feOffset dy="-10.8098"/>
<feComposite in2="hardAlpha" operator="arithmetic" k2="-1" k3="1"/>
<feColorMatrix type="matrix" values="0 0 0 0 0 0 0 0 0 0 0 0 0 0 0 0 0 0 0.25 0"/>
<feBlend mode="normal" in2="shape" result="effect1_innerShadow"/>
<feColorMatrix in="SourceAlpha" type="matrix" values="0 0 0 0 0 0 0 0 0 0 0 0 0 0 0 0 0 0 127 0" result="hardAlpha"/>
<feOffset dy="10.8098"/>
<feComposite in2="hardAlpha" operator="arithmetic" k2="-1" k3="1"/>
<feColorMatrix type="matrix" values="0 0 0 0 1 0 0 0 0 1 0 0 0 0 1 0 0 0 0.25 0"/>
<feBlend mode="normal" in2="effect1_innerShadow" result="effect2_innerShadow"/>
</filter>
<filter id="filter1_i" x="74.4819" y="66.9594" width="156.741" height="145.932" filterUnits="userSpaceOnUse" color-interpolation-filters="sRGB">
<feFlood flood-opacity="0" result="BackgroundImageFix"/>
<feBlend mode="normal" in="SourceGraphic" in2="BackgroundImageFix" result="shape"/>
<feColorMatrix in="SourceAlpha" type="matrix" values="0 0 0 0 0 0 0 0 0 0 0 0 0 0 0 0 0 0 127 0" result="hardAlpha"/>
<feOffset dx="-16.2146" dy="5.40488"/>
<feComposite in2="hardAlpha" operator="arithmetic" k2="-1" k3="1"/>
<feColorMatrix type="matrix" values="0 0 0 0 1 0 0 0 0 1 0 0 0 0 1 0 0 0 0.25 0"/>
<feBlend mode="normal" in2="shape" result="effect1_innerShadow"/>
</filter>
<filter id="filter2_d" x="-2.5374" y="104.793" width="77.0195" height="119.583" filterUnits="userSpaceOnUse" color-interpolation-filters="sRGB">
<feFlood flood-opacity="0" result="BackgroundImageFix"/>
<feColorMatrix in="SourceAlpha" type="matrix" values="0 0 0 0 0 0 0 0 0 0 0 0 0 0 0 0 0 0 127 0" result="hardAlpha"/>
<feOffset dx="-2.70244" dy="2.70244"/>
<feColorMatrix type="matrix" values="0 0 0 0 0 0 0 0 0 0 0 0 0 0 0 0 0 0 0.25 0"/>
<feBlend mode="normal" in2="BackgroundImageFix" result="effect1_dropShadow"/>
<feBlend mode="normal" in="SourceGraphic" in2="effect1_dropShadow" result="shape"/>
</filter>
<filter id="filter3_i" x="7.59668" y="107.496" width="59.4537" height="48.6439" filterUnits="userSpaceOnUse" color-interpolation-filters="sRGB">
<feFlood flood-opacity="0" result="BackgroundImageFix"/>
<feBlend mode="normal" in="SourceGraphic" in2="BackgroundImageFix" result="shape"/>
<feColorMatrix in="SourceAlpha" type="matrix" values="0 0 0 0 0 0 0 0 0 0 0 0 0 0 0 0 0 0 127 0" result="hardAlpha"/>
<feOffset dx="-16.2146" dy="5.40488"/>
<feComposite in2="hardAlpha" operator="arithmetic" k2="-1" k3="1"/>
<feColorMatrix type="matrix" values="0 0 0 0 1 0 0 0 0 1 0 0 0 0 1 0 0 0 0.25 0"/>
<feBlend mode="normal" in2="shape" result="effect1_innerShadow"/>
</filter>
<filter id="filter4_ii" x="7.59668" y="107.496" width="48.6439" height="48.6439" filterUnits="userSpaceOnUse" color-interpolation-filters="sRGB">
<feFlood flood-opacity="0" result="BackgroundImageFix"/>
<feBlend mode="normal" in="SourceGraphic" in2="BackgroundImageFix" result="shape"/>
<feColorMatrix in="SourceAlpha" type="matrix" values="0 0 0 0 0 0 0 0 0 0 0 0 0 0 0 0 0 0 127 0" result="hardAlpha"/>
<feOffset dy="-10.8098"/>
<feComposite in2="hardAlpha" operator="arithmetic" k2="-1" k3="1"/>
<feColorMatrix type="matrix" values="0 0 0 0 0 0 0 0 0 0 0 0 0 0 0 0 0 0 0.25 0"/>
<feBlend mode="normal" in2="shape" result="effect1_innerShadow"/>
<feColorMatrix in="SourceAlpha" type="matrix" values="0 0 0 0 0 0 0 0 0 0 0 0 0 0 0 0 0 0 127 0" result="hardAlpha"/>
<feOffset dy="10.8098"/>
<feComposite in2="hardAlpha" operator="arithmetic" k2="-1" k3="1"/>
<feColorMatrix type="matrix" values="0 0 0 0 1 0 0 0 0 1 0 0 0 0 1 0 0 0 0.25 0"/>
<feBlend mode="normal" in2="effect1_innerShadow" result="effect2_innerShadow"/>
</filter>
<filter id="filter5_ii" x="10.9746" y="165.598" width="44.5913" height="56.0756" filterUnits="userSpaceOnUse" color-interpolation-filters="sRGB">
<feFlood flood-opacity="0" result="BackgroundImageFix"/>
<feBlend mode="normal" in="SourceGraphic" in2="BackgroundImageFix" result="shape"/>
<feColorMatrix in="SourceAlpha" type="matrix" values="0 0 0 0 0 0 0 0 0 0 0 0 0 0 0 0 0 0 127 0" result="hardAlpha"/>
<feOffset dy="-10.8098"/>
<feComposite in2="hardAlpha" operator="arithmetic" k2="-1" k3="1"/>
<feColorMatrix type="matrix" values="0 0 0 0 0 0 0 0 0 0 0 0 0 0 0 0 0 0 0.25 0"/>
<feBlend mode="normal" in2="shape" result="effect1_innerShadow"/>
<feColorMatrix in="SourceAlpha" type="matrix" values="0 0 0 0 0 0 0 0 0 0 0 0 0 0 0 0 0 0 127 0" result="hardAlpha"/>
<feOffset dy="10.8098"/>
<feComposite in2="hardAlpha" operator="arithmetic" k2="-1" k3="1"/>
<feColorMatrix type="matrix" values="0 0 0 0 1 0 0 0 0 1 0 0 0 0 1 0 0 0 0.25 0"/>
<feBlend mode="normal" in2="effect1_innerShadow" result="effect2_innerShadow"/>
</filter>
<filter id="filter6_i" x="92.0479" y="54.1228" width="47.2927" height="18.2415" filterUnits="userSpaceOnUse" color-interpolation-filters="sRGB">
<feFlood flood-opacity="0" result="BackgroundImageFix"/>
<feBlend mode="normal" in="SourceGraphic" in2="BackgroundImageFix" result="shape"/>
<feColorMatrix in="SourceAlpha" type="matrix" values="0 0 0 0 0 0 0 0 0 0 0 0 0 0 0 0 0 0 127 0" result="hardAlpha"/>
<feOffset dx="-16.2146" dy="5.40488"/>
<feComposite in2="hardAlpha" operator="arithmetic" k2="-1" k3="1"/>
<feColorMatrix type="matrix" values="0 0 0 0 1 0 0 0 0 1 0 0 0 0 1 0 0 0 0.25 0"/>
<feBlend mode="normal" in2="shape" result="effect1_innerShadow"/>
</filter>
<filter id="filter7_i" x="112.316" y="99.3887" width="79.7221" height="33.1049" filterUnits="userSpaceOnUse" color-interpolation-filters="sRGB">
<feFlood flood-opacity="0" result="BackgroundImageFix"/>
<feBlend mode="normal" in="SourceGraphic" in2="BackgroundImageFix" result="shape"/>
<feColorMatrix in="SourceAlpha" type="matrix" values="0 0 0 0 0 0 0 0 0 0 0 0 0 0 0 0 0 0 127 0" result="hardAlpha"/>
<feOffset dx="-10.8098" dy="5.40488"/>
<feComposite in2="hardAlpha" operator="arithmetic" k2="-1" k3="1"/>
<feColorMatrix type="matrix" values="0 0 0 0 0 0 0 0 0 0 0 0 0 0 0 0 0 0 0.16 0"/>
<feBlend mode="normal" in2="shape" result="effect1_innerShadow"/>
</filter>
<filter id="filter8_d" x="91.3723" y="99.3887" width="120.259" height="99.9902" filterUnits="userSpaceOnUse" color-interpolation-filters="sRGB">
<feFlood flood-opacity="0" result="BackgroundImageFix"/>
<feColorMatrix in="SourceAlpha" type="matrix" values="0 0 0 0 0 0 0 0 0 0 0 0 0 0 0 0 0 0 127 0" result="hardAlpha"/>
<feOffset dx="-2.70244" dy="2.70244"/>
<feColorMatrix type="matrix" values="0 0 0 0 0 0 0 0 0 0 0 0 0 0 0 0 0 0 0.16 0"/>
<feBlend mode="normal" in2="BackgroundImageFix" result="effect1_dropShadow"/>
<feBlend mode="normal" in="SourceGraphic" in2="effect1_dropShadow" result="shape"/>
</filter>
</defs>
</svg>
