<svg width="247" height="277" viewBox="0 0 247 277" fill="none" xmlns="http://www.w3.org/2000/svg">
<g filter="url(#filter0_ii)">
<path d="M11.3381 131.876C11.3381 122.921 18.5977 115.662 27.5528 115.662L157.27 115.662C166.225 115.662 173.484 122.921 173.484 131.876V239.974C173.484 248.929 166.225 256.189 157.27 256.189H27.5528C18.5977 256.189 11.3381 248.929 11.3381 239.974L11.3381 131.876Z" fill="#ACACAE"/>
</g>
<path d="M11.3381 131.876C11.3381 122.921 18.5977 115.662 27.5528 115.662L157.27 115.662C166.225 115.662 173.484 122.921 173.484 131.876V239.974C173.484 248.929 166.225 256.189 157.27 256.189H27.5528C18.5977 256.189 11.3381 248.929 11.3381 239.974L11.3381 131.876Z" stroke="#1F2024" stroke-width="5.40488"/>
<g filter="url(#filter1_i)">
<path d="M78.8992 131.876C78.8992 122.921 86.1587 115.662 95.1138 115.662L214.021 115.662C222.976 115.662 230.236 122.921 230.236 131.876V239.974C230.236 248.929 222.976 256.189 214.021 256.189H95.1138C86.1587 256.189 78.8992 248.929 78.8992 239.974V131.876Z" fill="#E2E2E2"/>
</g>
<path d="M78.8992 131.876C78.8992 122.921 86.1587 115.662 95.1138 115.662L214.021 115.662C222.976 115.662 230.236 122.921 230.236 131.876V239.974C230.236 248.929 222.976 256.189 214.021 256.189H95.1138C86.1587 256.189 78.8992 248.929 78.8992 239.974V131.876Z" stroke="#1F2024" stroke-width="5.40488"/>
<path d="M165.377 118.364H191.05L153.216 253.486H127.543L165.377 118.364Z" fill="white" fill-opacity="0.5"/>
<path d="M155.243 118.364H159.297L121.463 253.486H117.409L155.243 118.364Z" fill="white" fill-opacity="0.5"/>
<g filter="url(#filter2_d)">
<path d="M5.93311 153.532C5.93311 150.547 8.35295 148.091 11.338 148.091H97.816C100.801 148.091 103.221 150.511 103.221 153.496V158.578C103.221 161.686 100.606 164.154 97.5032 163.974L11.0252 158.961C8.16645 158.795 5.93311 156.395 5.93311 153.532V153.532Z" fill="#E2E2E2" stroke="#1F2024" stroke-width="5.40488"/>
<path fill-rule="evenodd" clip-rule="evenodd" d="M151.189 148.091H173.484H186.321H238.343C241.328 148.091 243.748 150.511 243.748 153.496V188.628C243.748 191.613 241.328 194.033 238.343 194.033H178.889C175.904 194.033 173.484 191.613 173.484 188.628V175.115C173.484 172.13 171.065 169.711 168.08 169.711V169.711C165.095 169.711 162.675 172.13 162.675 175.115V188.628C162.675 191.613 160.255 194.033 157.27 194.033H97.8163C94.8312 194.033 92.4114 191.613 92.4114 188.628V153.496C92.4114 150.511 94.8312 148.091 97.8163 148.091L151.189 148.091Z" fill="white"/>
<path d="M151.189 148.091L151.189 145.389L151.189 145.389L151.189 148.091ZM97.8163 148.091L97.8163 145.389L97.8163 148.091ZM173.484 145.389H151.189V150.794H173.484V145.389ZM173.484 150.794H186.321V145.389H173.484V150.794ZM186.321 150.794H238.343V145.389H186.321V150.794ZM241.045 153.496V188.628H246.45V153.496H241.045ZM241.045 188.628C241.045 190.12 239.835 191.33 238.343 191.33V196.735C242.821 196.735 246.45 193.105 246.45 188.628H241.045ZM238.343 191.33H178.889V196.735H238.343V191.33ZM178.889 191.33C177.397 191.33 176.187 190.12 176.187 188.628H170.782C170.782 193.105 174.412 196.735 178.889 196.735V191.33ZM176.187 188.628V175.115H170.782V188.628H176.187ZM165.377 188.628V175.115H159.972V188.628H165.377ZM157.27 196.735C161.747 196.735 165.377 193.105 165.377 188.628H159.972C159.972 190.12 158.762 191.33 157.27 191.33V196.735ZM97.8163 196.735H157.27V191.33H97.8163V196.735ZM89.7089 188.628C89.7089 193.105 93.3387 196.735 97.8163 196.735V191.33C96.3237 191.33 95.1138 190.12 95.1138 188.628H89.7089ZM89.7089 153.496V188.628H95.1138V153.496H89.7089ZM151.189 145.389L97.8163 145.389L97.8163 150.794L151.189 150.794L151.189 145.389ZM95.1138 153.496C95.1138 152.003 96.3237 150.794 97.8163 150.794L97.8163 145.389C93.3387 145.389 89.7089 149.018 89.7089 153.496H95.1138ZM168.08 167.008C163.602 167.008 159.972 170.638 159.972 175.115H165.377C165.377 173.623 166.587 172.413 168.08 172.413V167.008ZM176.187 175.115C176.187 170.638 172.557 167.008 168.08 167.008V172.413C169.572 172.413 170.782 173.623 170.782 175.115H176.187ZM238.343 150.794C239.835 150.794 241.045 152.003 241.045 153.496H246.45C246.45 149.018 242.821 145.389 238.343 145.389V150.794Z" fill="#1F2024"/>
<path d="M103.221 158.901C103.221 157.408 104.431 156.198 105.923 156.198H149.162C150.655 156.198 151.865 157.408 151.865 158.901V183.223C151.865 184.715 150.655 185.925 149.162 185.925H105.923C104.431 185.925 103.221 184.715 103.221 183.223V158.901Z" fill="#776FE8"/>
<path d="M129.57 156.198H145.784L134.975 185.925H118.76L129.57 156.198Z" fill="black" fill-opacity="0.16"/>
<path d="M120.787 156.198H126.192L115.382 185.925H109.977L120.787 156.198Z" fill="white" fill-opacity="0.16"/>
<path d="M184.294 158.901C184.294 157.408 185.504 156.198 186.997 156.198H230.236C231.728 156.198 232.938 157.408 232.938 158.901V183.223C232.938 184.715 231.728 185.925 230.236 185.925H186.997C185.504 185.925 184.294 184.715 184.294 183.223V158.901Z" fill="#FF4049"/>
<path d="M210.643 156.198H226.858L216.048 185.925H199.833L210.643 156.198Z" fill="black" fill-opacity="0.16"/>
<path d="M201.86 156.198H207.265L196.455 185.925H191.05L201.86 156.198Z" fill="white" fill-opacity="0.16"/>
</g>
<circle cx="39.7138" cy="195.384" r="24.322" fill="black" fill-opacity="0.16"/>
<g filter="url(#filter3_ii)">
<circle cx="39.038" cy="187.952" r="24.322" fill="#E2E2E2"/>
</g>
<circle cx="39.038" cy="187.952" r="24.322" stroke="#1F2024" stroke-width="5.40488"/>
<g filter="url(#filter4_ii)">
<circle cx="25.5259" cy="187.952" r="16.2146" fill="#CAE9FA"/>
</g>
<circle cx="25.5259" cy="187.952" r="16.2146" stroke="#1F2024" stroke-width="5.40488"/>
<path d="M181.592 206.193C184.577 206.193 187.053 208.624 186.69 211.587C185.181 223.928 177.656 233.218 154.567 233.218C131.479 233.218 123.953 223.928 122.444 211.587C122.082 208.624 124.558 206.193 127.543 206.193H181.592Z" fill="#4A4A4E" stroke="#1F2024" stroke-width="5.40488"/>
<path d="M177.2 228.112C172.242 231.325 164.991 233.218 154.567 233.218C133.646 233.218 125.503 225.59 123.036 214.977C132.61 210.585 166.728 214.977 177.2 228.112Z" fill="#FF3979" stroke="#1F2024" stroke-width="5.40488"/>
<path d="M135.65 208.22C135.65 207.101 136.558 206.193 137.677 206.193H149.838C150.958 206.193 151.865 207.101 151.865 208.22V214.301C151.865 217.286 149.445 219.706 146.46 219.706H141.055C138.07 219.706 135.65 217.286 135.65 214.301V208.22Z" fill="white" stroke="#1F2024" stroke-width="5.40488"/>
<path d="M151.865 208.22C151.865 207.101 152.772 206.193 153.892 206.193H166.053C167.172 206.193 168.08 207.101 168.08 208.22V214.301C168.08 217.286 165.66 219.706 162.675 219.706H157.27C154.285 219.706 151.865 217.286 151.865 214.301V208.22Z" fill="white" stroke="#1F2024" stroke-width="5.40488"/>
<path d="M193.077 2.83496L108.626 107.217H159.972L193.077 2.83496Z" fill="white" stroke="#1F2024" stroke-width="5.40488" stroke-linejoin="round"/>
<mask id="mask0" mask-type="alpha" maskUnits="userSpaceOnUse" x="108" y="2" width="86" height="106">
<path d="M193.077 2.83496L108.626 107.217H159.972L193.077 2.83496Z" fill="#C4C4C4"/>
</mask>
<g mask="url(#mask0)">
<g filter="url(#filter5_i)">
<path d="M109.302 95.4087C110.39 116.628 131.975 126.986 142.632 129.512L157.945 95.4087L128.219 69.3826L109.302 95.4087Z" fill="#9BCEF1"/>
</g>
<path d="M109.302 95.4087C110.39 116.628 131.975 126.986 142.632 129.512L157.945 95.4087L128.219 69.3826L109.302 95.4087Z" stroke="#1F2024" stroke-width="5.40488" stroke-linejoin="round"/>
<g filter="url(#filter6_i)">
<path d="M124.165 75.1404C125.253 96.3601 146.839 106.717 157.495 109.244L172.809 75.1404L143.082 49.1143L124.165 75.1404Z" fill="#FFFDD0"/>
</g>
<path d="M124.165 75.1404C125.253 96.3601 146.839 106.717 157.495 109.244L172.809 75.1404L143.082 49.1143L124.165 75.1404Z" stroke="#1F2024" stroke-width="5.40488" stroke-linejoin="round"/>
<g filter="url(#filter7_i)">
<path d="M139.028 54.872C140.117 76.0918 161.702 86.4491 172.358 88.9752L187.672 54.872L157.945 28.8459L139.028 54.872Z" fill="#ACE5D7"/>
</g>
<path d="M139.028 54.872C140.117 76.0918 161.702 86.4491 172.358 88.9752L187.672 54.872L157.945 28.8459L139.028 54.872Z" stroke="#1F2024" stroke-width="5.40488" stroke-linejoin="round"/>
<g filter="url(#filter8_i)">
<path d="M153.892 34.6037C154.98 55.8235 176.565 66.1807 187.222 68.7069L202.536 34.6037L172.809 8.57764L153.892 34.6037Z" fill="#F9E174"/>
</g>
<path d="M153.892 34.6037C154.98 55.8235 176.565 66.1807 187.222 68.7069L202.536 34.6037L172.809 8.57764L153.892 34.6037Z" stroke="#1F2024" stroke-width="5.40488" stroke-linejoin="round"/>
<g filter="url(#filter9_i)">
<path d="M168.755 14.3354C169.843 35.5552 191.429 45.9124 202.085 48.4386L217.399 14.3354L187.672 -11.6907L168.755 14.3354Z" fill="#FF8BE6"/>
</g>
<path d="M168.755 14.3354C169.843 35.5552 191.429 45.9124 202.085 48.4386L217.399 14.3354L187.672 -11.6907L168.755 14.3354Z" stroke="#1F2024" stroke-width="5.40488" stroke-linejoin="round"/>
</g>
<path d="M193.077 2.83496L108.626 107.217H159.972L193.077 2.83496Z" stroke="#1F2024" stroke-width="5.40488" stroke-linejoin="round"/>
<g filter="url(#filter10_i)">
<path d="M96.4648 112.959C96.4648 109.974 98.8847 107.554 101.87 107.554H165.377C168.362 107.554 170.782 109.974 170.782 112.959V115.662H96.4648V112.959Z" fill="#ADA3EE"/>
</g>
<path d="M96.4648 112.959C96.4648 109.974 98.8847 107.554 101.87 107.554H165.377C168.362 107.554 170.782 109.974 170.782 112.959V115.662H96.4648V112.959Z" stroke="#1F2024" stroke-width="5.40488"/>
<defs>
<filter id="filter0_ii" x="8.63574" y="112.959" width="167.551" height="145.932" filterUnits="userSpaceOnUse" color-interpolation-filters="sRGB">
<feFlood flood-opacity="0" result="BackgroundImageFix"/>
<feBlend mode="normal" in="SourceGraphic" in2="BackgroundImageFix" result="shape"/>
<feColorMatrix in="SourceAlpha" type="matrix" values="0 0 0 0 0 0 0 0 0 0 0 0 0 0 0 0 0 0 127 0" result="hardAlpha"/>
<feOffset dy="-10.8098"/>
<feComposite in2="hardAlpha" operator="arithmetic" k2="-1" k3="1"/>
<feColorMatrix type="matrix" values="0 0 0 0 0 0 0 0 0 0 0 0 0 0 0 0 0 0 0.25 0"/>
<feBlend mode="normal" in2="shape" result="effect1_innerShadow"/>
<feColorMatrix in="SourceAlpha" type="matrix" values="0 0 0 0 0 0 0 0 0 0 0 0 0 0 0 0 0 0 127 0" result="hardAlpha"/>
<feOffset dy="10.8098"/>
<feComposite in2="hardAlpha" operator="arithmetic" k2="-1" k3="1"/>
<feColorMatrix type="matrix" values="0 0 0 0 1 0 0 0 0 1 0 0 0 0 1 0 0 0 0.25 0"/>
<feBlend mode="normal" in2="effect1_innerShadow" result="effect2_innerShadow"/>
</filter>
<filter id="filter1_i" x="76.1968" y="112.959" width="156.741" height="145.932" filterUnits="userSpaceOnUse" color-interpolation-filters="sRGB">
<feFlood flood-opacity="0" result="BackgroundImageFix"/>
<feBlend mode="normal" in="SourceGraphic" in2="BackgroundImageFix" result="shape"/>
<feColorMatrix in="SourceAlpha" type="matrix" values="0 0 0 0 0 0 0 0 0 0 0 0 0 0 0 0 0 0 127 0" result="hardAlpha"/>
<feOffset dx="-16.2146" dy="5.40488"/>
<feComposite in2="hardAlpha" operator="arithmetic" k2="-1" k3="1"/>
<feColorMatrix type="matrix" values="0 0 0 0 1 0 0 0 0 1 0 0 0 0 1 0 0 0 0.25 0"/>
<feBlend mode="normal" in2="shape" result="effect1_innerShadow"/>
</filter>
<filter id="filter2_d" x="0.528274" y="145.389" width="245.922" height="54.0488" filterUnits="userSpaceOnUse" color-interpolation-filters="sRGB">
<feFlood flood-opacity="0" result="BackgroundImageFix"/>
<feColorMatrix in="SourceAlpha" type="matrix" values="0 0 0 0 0 0 0 0 0 0 0 0 0 0 0 0 0 0 127 0" result="hardAlpha"/>
<feOffset dx="-2.70244" dy="2.70244"/>
<feColorMatrix type="matrix" values="0 0 0 0 0 0 0 0 0 0 0 0 0 0 0 0 0 0 0.25 0"/>
<feBlend mode="normal" in2="BackgroundImageFix" result="effect1_dropShadow"/>
<feBlend mode="normal" in="SourceGraphic" in2="effect1_dropShadow" result="shape"/>
</filter>
<filter id="filter3_ii" x="12.0137" y="160.928" width="54.0488" height="54.0488" filterUnits="userSpaceOnUse" color-interpolation-filters="sRGB">
<feFlood flood-opacity="0" result="BackgroundImageFix"/>
<feBlend mode="normal" in="SourceGraphic" in2="BackgroundImageFix" result="shape"/>
<feColorMatrix in="SourceAlpha" type="matrix" values="0 0 0 0 0 0 0 0 0 0 0 0 0 0 0 0 0 0 127 0" result="hardAlpha"/>
<feOffset dx="10.8098"/>
<feComposite in2="hardAlpha" operator="arithmetic" k2="-1" k3="1"/>
<feColorMatrix type="matrix" values="0 0 0 0 0 0 0 0 0 0 0 0 0 0 0 0 0 0 0.25 0"/>
<feBlend mode="normal" in2="shape" result="effect1_innerShadow"/>
<feColorMatrix in="SourceAlpha" type="matrix" values="0 0 0 0 0 0 0 0 0 0 0 0 0 0 0 0 0 0 127 0" result="hardAlpha"/>
<feOffset dx="-16.2146" dy="5.40488"/>
<feComposite in2="hardAlpha" operator="arithmetic" k2="-1" k3="1"/>
<feColorMatrix type="matrix" values="0 0 0 0 1 0 0 0 0 1 0 0 0 0 1 0 0 0 0.25 0"/>
<feBlend mode="normal" in2="effect1_innerShadow" result="effect2_innerShadow"/>
</filter>
<filter id="filter4_ii" x="6.60889" y="169.035" width="37.8341" height="37.8341" filterUnits="userSpaceOnUse" color-interpolation-filters="sRGB">
<feFlood flood-opacity="0" result="BackgroundImageFix"/>
<feBlend mode="normal" in="SourceGraphic" in2="BackgroundImageFix" result="shape"/>
<feColorMatrix in="SourceAlpha" type="matrix" values="0 0 0 0 0 0 0 0 0 0 0 0 0 0 0 0 0 0 127 0" result="hardAlpha"/>
<feOffset dx="10.8098"/>
<feComposite in2="hardAlpha" operator="arithmetic" k2="-1" k3="1"/>
<feColorMatrix type="matrix" values="0 0 0 0 0 0 0 0 0 0 0 0 0 0 0 0 0 0 0.25 0"/>
<feBlend mode="normal" in2="shape" result="effect1_innerShadow"/>
<feColorMatrix in="SourceAlpha" type="matrix" values="0 0 0 0 0 0 0 0 0 0 0 0 0 0 0 0 0 0 127 0" result="hardAlpha"/>
<feOffset dx="-16.2146" dy="5.40488"/>
<feComposite in2="hardAlpha" operator="arithmetic" k2="-1" k3="1"/>
<feColorMatrix type="matrix" values="0 0 0 0 1 0 0 0 0 1 0 0 0 0 1 0 0 0 0.25 0"/>
<feBlend mode="normal" in2="effect1_innerShadow" result="effect2_innerShadow"/>
</filter>
<filter id="filter5_i" x="106.599" y="66.6802" width="54.0489" height="65.5345" filterUnits="userSpaceOnUse" color-interpolation-filters="sRGB">
<feFlood flood-opacity="0" result="BackgroundImageFix"/>
<feBlend mode="normal" in="SourceGraphic" in2="BackgroundImageFix" result="shape"/>
<feColorMatrix in="SourceAlpha" type="matrix" values="0 0 0 0 0 0 0 0 0 0 0 0 0 0 0 0 0 0 127 0" result="hardAlpha"/>
<feOffset dx="8.10732" dy="-5.40488"/>
<feComposite in2="hardAlpha" operator="arithmetic" k2="-1" k3="1"/>
<feColorMatrix type="matrix" values="0 0 0 0 0 0 0 0 0 0 0 0 0 0 0 0 0 0 0.25 0"/>
<feBlend mode="normal" in2="shape" result="effect1_innerShadow"/>
</filter>
<filter id="filter6_i" x="121.463" y="46.4119" width="54.0489" height="65.5345" filterUnits="userSpaceOnUse" color-interpolation-filters="sRGB">
<feFlood flood-opacity="0" result="BackgroundImageFix"/>
<feBlend mode="normal" in="SourceGraphic" in2="BackgroundImageFix" result="shape"/>
<feColorMatrix in="SourceAlpha" type="matrix" values="0 0 0 0 0 0 0 0 0 0 0 0 0 0 0 0 0 0 127 0" result="hardAlpha"/>
<feOffset dx="8.10732" dy="-5.40488"/>
<feComposite in2="hardAlpha" operator="arithmetic" k2="-1" k3="1"/>
<feColorMatrix type="matrix" values="0 0 0 0 0 0 0 0 0 0 0 0 0 0 0 0 0 0 0.25 0"/>
<feBlend mode="normal" in2="shape" result="effect1_innerShadow"/>
</filter>
<filter id="filter7_i" x="136.326" y="26.1436" width="54.0489" height="65.5345" filterUnits="userSpaceOnUse" color-interpolation-filters="sRGB">
<feFlood flood-opacity="0" result="BackgroundImageFix"/>
<feBlend mode="normal" in="SourceGraphic" in2="BackgroundImageFix" result="shape"/>
<feColorMatrix in="SourceAlpha" type="matrix" values="0 0 0 0 0 0 0 0 0 0 0 0 0 0 0 0 0 0 127 0" result="hardAlpha"/>
<feOffset dx="8.10732" dy="-5.40488"/>
<feComposite in2="hardAlpha" operator="arithmetic" k2="-1" k3="1"/>
<feColorMatrix type="matrix" values="0 0 0 0 0 0 0 0 0 0 0 0 0 0 0 0 0 0 0.25 0"/>
<feBlend mode="normal" in2="shape" result="effect1_innerShadow"/>
</filter>
<filter id="filter8_i" x="151.189" y="5.87524" width="54.0489" height="65.5345" filterUnits="userSpaceOnUse" color-interpolation-filters="sRGB">
<feFlood flood-opacity="0" result="BackgroundImageFix"/>
<feBlend mode="normal" in="SourceGraphic" in2="BackgroundImageFix" result="shape"/>
<feColorMatrix in="SourceAlpha" type="matrix" values="0 0 0 0 0 0 0 0 0 0 0 0 0 0 0 0 0 0 127 0" result="hardAlpha"/>
<feOffset dx="8.10732" dy="-5.40488"/>
<feComposite in2="hardAlpha" operator="arithmetic" k2="-1" k3="1"/>
<feColorMatrix type="matrix" values="0 0 0 0 0 0 0 0 0 0 0 0 0 0 0 0 0 0 0.25 0"/>
<feBlend mode="normal" in2="shape" result="effect1_innerShadow"/>
</filter>
<filter id="filter9_i" x="166.053" y="-14.3931" width="54.0489" height="65.5345" filterUnits="userSpaceOnUse" color-interpolation-filters="sRGB">
<feFlood flood-opacity="0" result="BackgroundImageFix"/>
<feBlend mode="normal" in="SourceGraphic" in2="BackgroundImageFix" result="shape"/>
<feColorMatrix in="SourceAlpha" type="matrix" values="0 0 0 0 0 0 0 0 0 0 0 0 0 0 0 0 0 0 127 0" result="hardAlpha"/>
<feOffset dx="8.10732" dy="-5.40488"/>
<feComposite in2="hardAlpha" operator="arithmetic" k2="-1" k3="1"/>
<feColorMatrix type="matrix" values="0 0 0 0 0 0 0 0 0 0 0 0 0 0 0 0 0 0 0.25 0"/>
<feBlend mode="normal" in2="shape" result="effect1_innerShadow"/>
</filter>
<filter id="filter10_i" x="93.7625" y="104.852" width="79.722" height="13.5122" filterUnits="userSpaceOnUse" color-interpolation-filters="sRGB">
<feFlood flood-opacity="0" result="BackgroundImageFix"/>
<feBlend mode="normal" in="SourceGraphic" in2="BackgroundImageFix" result="shape"/>
<feColorMatrix in="SourceAlpha" type="matrix" values="0 0 0 0 0 0 0 0 0 0 0 0 0 0 0 0 0 0 127 0" result="hardAlpha"/>
<feOffset dx="-16.2146" dy="5.40488"/>
<feComposite in2="hardAlpha" operator="arithmetic" k2="-1" k3="1"/>
<feColorMatrix type="matrix" values="0 0 0 0 1 0 0 0 0 1 0 0 0 0 1 0 0 0 0.25 0"/>
<feBlend mode="normal" in2="shape" result="effect1_innerShadow"/>
</filter>
</defs>
</svg>
