<svg width="253" height="260" viewBox="0 0 253 260" fill="none" xmlns="http://www.w3.org/2000/svg">
<g filter="url(#filter0_ii)">
<path d="M24.6455 114.876C24.6455 105.921 31.905 98.6617 40.8601 98.6617H170.577C179.532 98.6617 186.792 105.921 186.792 114.876V222.974C186.792 231.929 179.532 239.189 170.577 239.189H40.8601C31.905 239.189 24.6455 231.929 24.6455 222.974L24.6455 114.876Z" fill="#E4B45D"/>
</g>
<path d="M24.6455 114.876C24.6455 105.921 31.905 98.6617 40.8601 98.6617H170.577C179.532 98.6617 186.792 105.921 186.792 114.876V222.974C186.792 231.929 179.532 239.189 170.577 239.189H40.8601C31.905 239.189 24.6455 231.929 24.6455 222.974L24.6455 114.876Z" stroke="#1F2024" stroke-width="5.40488"/>
<g filter="url(#filter1_i)">
<path d="M92.2065 114.876C92.2065 105.921 99.4661 98.6617 108.421 98.6617H227.328C236.284 98.6617 243.543 105.921 243.543 114.876V222.974C243.543 231.929 236.284 239.189 227.328 239.189H108.421C99.4661 239.189 92.2065 231.929 92.2065 222.974V114.876Z" fill="#F0D07A"/>
</g>
<path d="M92.2065 114.876C92.2065 105.921 99.4661 98.6617 108.421 98.6617H227.328C236.284 98.6617 243.543 105.921 243.543 114.876V222.974C243.543 231.929 236.284 239.189 227.328 239.189H108.421C99.4661 239.189 92.2065 231.929 92.2065 222.974V114.876Z" stroke="#1F2024" stroke-width="5.40488"/>
<path d="M178.685 101.364H204.358L166.524 236.486H140.851L178.685 101.364Z" fill="white" fill-opacity="0.5"/>
<path d="M168.55 101.364H172.604L134.77 236.486H130.716L168.55 101.364Z" fill="white" fill-opacity="0.5"/>
<g filter="url(#filter2_d)">
<g filter="url(#filter3_d)">
<path fill-rule="evenodd" clip-rule="evenodd" d="M214.828 132.086C214.301 131.559 213.445 131.559 212.917 132.086L202.407 142.596L191.898 132.086C191.37 131.559 190.514 131.559 189.987 132.086L180.432 141.641C179.904 142.169 179.904 143.024 180.432 143.552L190.942 154.062L180.432 164.572C179.904 165.1 179.904 165.955 180.432 166.483L189.986 176.037C190.514 176.565 191.37 176.565 191.897 176.037L202.407 165.527L212.918 176.037C213.445 176.565 214.301 176.565 214.828 176.037L224.383 166.483C224.911 165.955 224.911 165.1 224.383 164.572L213.873 154.062L224.383 143.552C224.911 143.024 224.911 142.169 224.383 141.641L214.828 132.086Z" fill="#4A4A4E"/>
<path d="M212.917 132.086L214.828 133.997L214.828 133.997L212.917 132.086ZM214.828 132.086L212.917 133.997L212.917 133.997L214.828 132.086ZM202.407 142.596L200.497 144.507L202.407 146.418L204.318 144.507L202.407 142.596ZM191.898 132.086L193.808 130.175L193.808 130.175L191.898 132.086ZM189.987 132.086L188.076 130.175L188.076 130.175L189.987 132.086ZM180.432 141.641L178.521 139.73L178.521 139.73L180.432 141.641ZM180.432 143.552L178.521 145.463L178.521 145.463L180.432 143.552ZM190.942 154.062L192.853 155.973L194.764 154.062L192.853 152.151L190.942 154.062ZM180.432 164.572L178.521 162.661L178.521 162.661L180.432 164.572ZM180.432 166.483L178.521 168.394L178.521 168.394L180.432 166.483ZM189.986 176.037L188.076 177.948L188.076 177.948L189.986 176.037ZM191.897 176.037L193.808 177.948L193.808 177.948L191.897 176.037ZM202.407 165.527L204.318 163.616L202.407 161.705L200.497 163.616L202.407 165.527ZM214.828 176.037L216.739 177.948L216.739 177.948L214.828 176.037ZM224.383 166.483L226.294 168.394L226.294 168.394L224.383 166.483ZM224.383 164.572L226.294 162.661L226.294 162.661L224.383 164.572ZM213.873 154.062L211.962 152.151L210.051 154.062L211.962 155.973L213.873 154.062ZM224.383 143.552L226.294 145.463L226.294 145.463L224.383 143.552ZM224.383 141.641L226.294 139.73L226.294 139.73L224.383 141.641ZM214.828 133.997C214.301 134.525 213.445 134.525 212.917 133.997L216.739 130.175C215.156 128.592 212.59 128.592 211.007 130.175L214.828 133.997ZM204.318 144.507L214.828 133.997L211.007 130.175L200.497 140.685L204.318 144.507ZM204.318 140.685L193.808 130.175L189.987 133.997L200.497 144.507L204.318 140.685ZM193.808 130.175C192.225 128.592 189.659 128.592 188.076 130.175L191.898 133.997C191.37 134.525 190.514 134.525 189.987 133.997L193.808 130.175ZM188.076 130.175L178.521 139.73L182.343 143.552L191.898 133.997L188.076 130.175ZM178.521 139.73C176.938 141.313 176.938 143.88 178.521 145.463L182.343 141.641C182.871 142.169 182.871 143.024 182.343 143.552L178.521 139.73ZM178.521 145.463L189.031 155.973L192.853 152.151L182.343 141.641L178.521 145.463ZM182.343 166.483L192.853 155.973L189.031 152.151L178.521 162.661L182.343 166.483ZM182.343 164.572C182.87 165.1 182.87 165.955 182.343 166.483L178.521 162.661C176.938 164.244 176.938 166.811 178.521 168.394L182.343 164.572ZM191.897 174.126L182.343 164.572L178.521 168.394L188.076 177.948L191.897 174.126ZM189.986 174.126C190.514 173.599 191.37 173.599 191.897 174.126L188.076 177.948C189.659 179.531 192.225 179.531 193.808 177.948L189.986 174.126ZM200.497 163.616L189.986 174.126L193.808 177.948L204.318 167.438L200.497 163.616ZM200.497 167.438L211.007 177.948L214.828 174.126L204.318 163.616L200.497 167.438ZM211.007 177.948C212.59 179.531 215.156 179.531 216.739 177.948L212.918 174.126C213.445 173.599 214.301 173.599 214.828 174.126L211.007 177.948ZM216.739 177.948L226.294 168.394L222.472 164.572L212.918 174.126L216.739 177.948ZM226.294 168.394C227.877 166.811 227.877 164.244 226.294 162.661L222.472 166.483C221.944 165.955 221.944 165.1 222.472 164.572L226.294 168.394ZM226.294 162.661L215.784 152.151L211.962 155.973L222.472 166.483L226.294 162.661ZM222.472 141.641L211.962 152.151L215.784 155.973L226.294 145.463L222.472 141.641ZM222.472 143.552C221.944 143.024 221.944 142.169 222.472 141.641L226.294 145.463C227.877 143.88 227.877 141.313 226.294 139.73L222.472 143.552ZM212.917 133.997L222.472 143.552L226.294 139.73L216.739 130.175L212.917 133.997Z" fill="#1F2024"/>
</g>
<g filter="url(#filter4_d)">
<path fill-rule="evenodd" clip-rule="evenodd" d="M145.916 132.086C145.388 131.559 144.533 131.559 144.005 132.086L133.495 142.596L122.985 132.086C122.457 131.559 121.602 131.559 121.074 132.086L111.519 141.641C110.992 142.169 110.992 143.024 111.519 143.552L122.029 154.062L111.519 164.572C110.992 165.1 110.992 165.955 111.519 166.483L121.074 176.037C121.602 176.565 122.457 176.565 122.985 176.037L133.495 165.527L144.005 176.037C144.533 176.565 145.388 176.565 145.916 176.037L155.47 166.483C155.998 165.955 155.998 165.1 155.47 164.572L144.96 154.062L155.47 143.552C155.998 143.024 155.998 142.169 155.47 141.641L145.916 132.086Z" fill="#4A4A4E"/>
<path d="M144.005 132.086L145.916 133.997L145.916 133.997L144.005 132.086ZM145.916 132.086L144.005 133.997L144.005 133.997L145.916 132.086ZM133.495 142.596L131.584 144.507L133.495 146.418L135.406 144.507L133.495 142.596ZM122.985 132.086L124.896 130.175L124.896 130.175L122.985 132.086ZM121.074 132.086L119.163 130.175L119.163 130.175L121.074 132.086ZM111.519 141.641L109.609 139.73L109.609 139.73L111.519 141.641ZM111.519 143.552L109.609 145.463L109.609 145.463L111.519 143.552ZM122.029 154.062L123.94 155.973L125.851 154.062L123.94 152.151L122.029 154.062ZM111.519 164.572L109.608 162.661L109.608 162.661L111.519 164.572ZM111.519 166.483L109.608 168.394L109.608 168.394L111.519 166.483ZM121.074 176.037L119.163 177.948L119.163 177.948L121.074 176.037ZM122.985 176.037L124.896 177.948L124.896 177.948L122.985 176.037ZM133.495 165.527L135.406 163.616L133.495 161.705L131.584 163.616L133.495 165.527ZM144.005 176.037L142.094 177.948L142.094 177.948L144.005 176.037ZM155.47 166.483L157.381 168.394L157.381 168.394L155.47 166.483ZM155.47 164.572L157.381 162.661L157.381 162.661L155.47 164.572ZM144.96 154.062L143.049 152.151L141.139 154.062L143.049 155.973L144.96 154.062ZM155.47 143.552L157.381 145.463L157.381 145.463L155.47 143.552ZM155.47 141.641L157.381 139.73L157.381 139.73L155.47 141.641ZM145.916 133.997C145.388 134.525 144.532 134.525 144.005 133.997L147.827 130.175C146.244 128.592 143.677 128.592 142.094 130.175L145.916 133.997ZM135.406 144.507L145.916 133.997L142.094 130.175L131.584 140.685L135.406 144.507ZM135.406 140.685L124.896 130.175L121.074 133.997L131.584 144.507L135.406 140.685ZM124.896 130.175C123.313 128.592 120.746 128.592 119.163 130.175L122.985 133.997C122.457 134.525 121.602 134.525 121.074 133.997L124.896 130.175ZM119.163 130.175L109.609 139.73L113.43 143.552L122.985 133.997L119.163 130.175ZM109.609 139.73C108.025 141.313 108.025 143.88 109.609 145.463L113.43 141.641C113.958 142.169 113.958 143.024 113.43 143.552L109.609 139.73ZM109.609 145.463L120.118 155.973L123.94 152.151L113.43 141.641L109.609 145.463ZM113.43 166.483L123.94 155.973L120.118 152.151L109.608 162.661L113.43 166.483ZM113.43 164.572C113.958 165.1 113.958 165.955 113.43 166.483L109.608 162.661C108.025 164.244 108.025 166.811 109.608 168.394L113.43 164.572ZM122.985 174.126L113.43 164.572L109.608 168.394L119.163 177.948L122.985 174.126ZM121.074 174.126C121.602 173.599 122.457 173.599 122.985 174.126L119.163 177.948C120.746 179.531 123.313 179.531 124.896 177.948L121.074 174.126ZM131.584 163.616L121.074 174.126L124.896 177.948L135.406 167.438L131.584 163.616ZM131.584 167.438L142.094 177.948L145.916 174.126L135.406 163.616L131.584 167.438ZM142.094 177.948C143.677 179.531 146.244 179.531 147.827 177.948L144.005 174.126C144.533 173.599 145.388 173.599 145.916 174.126L142.094 177.948ZM147.827 177.948L157.381 168.394L153.56 164.572L144.005 174.126L147.827 177.948ZM157.381 168.394C158.964 166.811 158.964 164.244 157.381 162.661L153.56 166.483C153.032 165.955 153.032 165.1 153.56 164.572L157.381 168.394ZM157.381 162.661L146.871 152.151L143.049 155.973L153.56 166.483L157.381 162.661ZM153.559 141.641L143.049 152.151L146.871 155.973L157.381 145.463L153.559 141.641ZM153.559 143.552C153.032 143.024 153.032 142.169 153.559 141.641L157.381 145.463C158.964 143.88 158.964 141.313 157.381 139.73L153.559 143.552ZM144.005 133.997L153.559 143.552L157.381 139.73L147.827 130.175L144.005 133.997Z" fill="#1F2024"/>
</g>
</g>
<g filter="url(#filter5_d)">
<g filter="url(#filter6_ii)">
<path fill-rule="evenodd" clip-rule="evenodd" d="M25.1298 160.437C22.4642 156.137 22.9972 150.418 26.7288 146.687C30.4604 142.955 36.1794 142.422 40.4787 145.088C41.6339 140.163 46.0547 136.496 51.332 136.496C56.6092 136.496 61.03 140.163 62.1852 145.088C66.4845 142.422 72.2034 142.955 75.935 146.687C79.6666 150.418 80.1996 156.137 77.534 160.437C82.4589 161.592 86.1259 166.013 86.1259 171.29C86.1259 176.567 82.4588 180.988 77.5338 182.143C80.1994 186.442 79.6664 192.161 75.9348 195.893C72.2033 199.624 66.4845 200.157 62.1852 197.492C61.0299 202.417 56.6092 206.084 51.332 206.084C46.0548 206.084 41.634 202.417 40.4788 197.492C36.1795 200.157 30.4606 199.624 26.729 195.893C22.9974 192.161 22.4644 186.442 25.13 182.143C20.2051 180.988 16.5381 176.567 16.5381 171.29C16.5381 166.013 20.205 161.592 25.1298 160.437Z" fill="#2477D5"/>
</g>
<path d="M25.1298 160.437L25.747 163.068C26.594 162.869 27.2936 162.275 27.6265 161.471C27.9595 160.667 27.8851 159.752 27.4266 159.013L25.1298 160.437ZM26.7288 146.687L24.8179 144.776L24.8179 144.776L26.7288 146.687ZM40.4787 145.088L39.0547 147.385C39.7941 147.843 40.7091 147.918 41.5129 147.585C42.3167 147.252 42.9111 146.552 43.1098 145.705L40.4787 145.088ZM62.1852 145.088L59.5542 145.705C59.7529 146.552 60.3472 147.252 61.151 147.585C61.9549 147.918 62.8698 147.843 63.6093 147.385L62.1852 145.088ZM75.935 146.687L74.0241 148.598L74.0241 148.598L75.935 146.687ZM77.534 160.437L75.2372 159.013C74.7788 159.752 74.7044 160.667 75.0373 161.471C75.3702 162.275 76.0698 162.869 76.9169 163.068L77.534 160.437ZM77.5338 182.143L76.9167 179.512C76.0697 179.711 75.3701 180.305 75.0371 181.109C74.7042 181.913 74.7786 182.828 75.237 183.567L77.5338 182.143ZM62.1852 197.492L63.6092 195.195C62.8697 194.737 61.9548 194.662 61.151 194.995C60.3472 195.328 59.7529 196.028 59.5542 196.875L62.1852 197.492ZM40.4788 197.492L43.1098 196.875C42.9111 196.028 42.3167 195.328 41.5129 194.995C40.7091 194.662 39.7942 194.737 39.0547 195.195L40.4788 197.492ZM26.729 195.893L24.8181 197.804L24.8181 197.804L26.729 195.893ZM25.13 182.143L27.4268 183.567C27.8853 182.828 27.9597 181.913 27.6267 181.109C27.2938 180.305 26.5942 179.711 25.7472 179.512L25.13 182.143ZM16.5381 171.29L13.8356 171.29L16.5381 171.29ZM27.4266 159.013C25.4073 155.756 25.8152 151.422 28.6397 148.598L24.8179 144.776C20.1792 149.415 19.5211 156.519 22.833 161.861L27.4266 159.013ZM28.6397 148.598C31.4642 145.773 35.7978 145.365 39.0547 147.385L41.9028 142.791C36.5611 139.479 29.4566 140.137 24.8179 144.776L28.6397 148.598ZM43.1098 145.705C43.9849 141.974 47.3375 139.198 51.332 139.198V133.794C44.7719 133.794 39.283 138.352 37.8477 144.471L43.1098 145.705ZM51.332 139.198C55.3264 139.198 58.6791 141.974 59.5542 145.705L64.8162 144.471C63.3809 138.352 57.8921 133.794 51.332 133.794V139.198ZM63.6093 147.385C66.8662 145.365 71.1996 145.773 74.0241 148.598L77.8459 144.776C73.2073 140.137 66.1029 139.479 60.7612 142.791L63.6093 147.385ZM74.0241 148.598C76.8486 151.422 77.2565 155.756 75.2372 159.013L79.8308 161.861C83.1427 156.519 82.4846 149.415 77.8459 144.776L74.0241 148.598ZM76.9169 163.068C80.6477 163.943 83.4235 167.295 83.4235 171.29H88.8283C88.8283 164.73 84.2702 159.241 78.1512 157.806L76.9169 163.068ZM83.4235 171.29C83.4235 175.284 80.6476 178.637 76.9167 179.512L78.1509 184.774C84.27 183.339 88.8283 177.85 88.8283 171.29H83.4235ZM75.237 183.567C77.2563 186.824 76.8484 191.158 74.0239 193.982L77.8457 197.804C82.4844 193.165 83.1425 186.061 79.8306 180.719L75.237 183.567ZM74.0239 193.982C71.1995 196.806 66.8661 197.214 63.6092 195.195L60.7612 199.789C66.1029 203.101 73.2071 202.442 77.8457 197.804L74.0239 193.982ZM59.5542 196.875C58.679 200.606 55.3264 203.381 51.332 203.381V208.786C57.892 208.786 63.3808 204.228 64.8162 198.109L59.5542 196.875ZM51.332 203.381C47.3376 203.381 43.9849 200.606 43.1098 196.875L37.8477 198.109C39.2831 204.228 44.7719 208.786 51.332 208.786V203.381ZM39.0547 195.195C35.7978 197.214 31.4644 196.806 28.6399 193.982L24.8181 197.804C29.4568 202.442 36.5611 203.101 41.9028 199.789L39.0547 195.195ZM28.6399 193.982C25.8154 191.157 25.4075 186.824 27.4268 183.567L22.8332 180.719C19.5213 186.061 20.1794 193.165 24.8181 197.804L28.6399 193.982ZM25.7472 179.512C22.0163 178.637 19.2405 175.284 19.2405 171.29L13.8356 171.29C13.8356 177.85 18.3939 183.339 24.5129 184.774L25.7472 179.512ZM19.2405 171.29C19.2405 167.296 22.0162 163.943 25.747 163.068L24.5126 157.806C18.3937 159.241 13.8356 164.73 13.8356 171.29L19.2405 171.29Z" fill="#1F2024"/>
<g filter="url(#filter7_ii)">
<circle cx="50.9944" cy="170.952" r="13.5122" fill="#F9E174"/>
</g>
<circle cx="50.9944" cy="170.952" r="13.5122" stroke="#1F2024" stroke-width="5.40488"/>
</g>
<path d="M175.982 190.545C175.982 191.609 175.773 192.664 175.365 193.647C174.958 194.631 174.36 195.525 173.608 196.277C172.855 197.03 171.961 197.627 170.977 198.035C169.994 198.442 168.94 198.652 167.875 198.652C166.81 198.652 165.756 198.442 164.772 198.035C163.789 197.627 162.895 197.03 162.142 196.277C161.389 195.525 160.792 194.631 160.385 193.647C159.977 192.664 159.768 191.609 159.768 190.545" stroke="#1F2024" stroke-width="8.10732" stroke-linecap="round"/>
<path d="M162.775 3.40076C127.466 3.40076 122.492 29.6784 96.338 48.7925C88.5005 54.5204 79.8087 58.4329 69.569 58.7661C53.955 59.2742 28.6759 53.0727 23.2816 51.6965C22.5809 51.5177 21.8883 51.3676 21.1657 51.3398C11.3956 50.965 3.02588 62.245 3.02588 72.7762C3.02588 94.9445 40.457 98.6617 55.2499 98.6617H221.145C255.171 98.6617 259.538 52.6596 230.205 58.1949C219.059 60.2982 207.41 53.0817 204.79 41.5095C199.721 19.1187 186.649 3.40076 162.775 3.40076Z" fill="#F9E174" stroke="#1F2024" stroke-width="5.40488"/>
<path d="M248.476 80.1304C249.17 73.2002 240.597 70.6835 231.351 72.426C220.944 74.3873 200.761 65.194 198.315 54.4031C194.566 37.8606 188.114 17.7597 168.759 15.7063C155.74 14.3252 142.672 18.2084 132.664 28.3969C129.411 31.7085 126.103 35.3866 122.7 39.1693C108.603 54.8399 92.8898 72.307 72.8365 72.9586C58.3984 73.4279 35.1094 67.7606 29.7693 66.4047C19.9012 63.8991 10.7058 74.2038 10.7058 84.3801C10.7058 95.3198 48.0448 98.6618 55.2499 98.6618H221.145C236.096 98.6618 245.32 89.7022 248.476 80.1304Z" fill="#4A4A4E" stroke="#1F2024" stroke-width="5.40488"/>
<mask id="path-17-outside-1" maskUnits="userSpaceOnUse" x="137.51" y="31.3462" width="60" height="60" fill="black">
<rect fill="white" x="137.51" y="31.3462" width="60" height="60"/>
<path fill-rule="evenodd" clip-rule="evenodd" d="M146.214 42.556C145.951 42.2921 145.523 42.2921 145.259 42.556L143.708 44.1069C143.444 44.3707 143.444 44.7985 143.708 45.0623L148.391 49.7456C148.655 50.0094 149.083 50.0094 149.347 49.7456L150.584 48.5083C150.848 48.2445 151.276 48.2445 151.54 48.5083L154.343 51.3119C154.607 51.5758 155.035 51.5758 155.299 51.3119L157.577 49.0337C157.841 48.7699 157.841 48.3421 157.577 48.0783L154.773 45.2747C154.509 45.0108 154.509 44.583 154.773 44.3192L155.91 43.1828C156.173 42.9189 156.173 42.4912 155.91 42.2273L151.226 37.5441C150.963 37.2802 150.535 37.2802 150.271 37.5441L148.721 39.0944C148.457 39.3583 148.457 39.7861 148.721 40.0499L150.898 42.2273C151.162 42.4912 151.162 42.9189 150.898 43.1828L149.347 44.7334C149.084 44.9973 148.656 44.9973 148.392 44.7334L146.214 42.556ZM188.838 42.556C189.102 42.2922 189.53 42.2922 189.794 42.556L191.344 44.1069C191.608 44.3707 191.608 44.7985 191.344 45.0623L186.661 49.7456C186.397 50.0094 185.97 50.0094 185.706 49.7456L184.469 48.5083C184.205 48.2445 183.777 48.2445 183.513 48.5083L180.709 51.3119C180.446 51.5758 180.018 51.5758 179.754 51.3119L177.476 49.0337C177.212 48.7699 177.212 48.3421 177.476 48.0783L180.279 45.2747C180.543 45.0108 180.543 44.5831 180.279 44.3192L179.143 43.1828C178.879 42.9189 178.879 42.4912 179.143 42.2273L183.826 37.5441C184.09 37.2802 184.518 37.2802 184.782 37.5441L186.332 39.0945C186.596 39.3583 186.596 39.7861 186.332 40.0499L184.155 42.2273C183.891 42.4912 183.891 42.9189 184.155 43.1828L185.705 44.7334C185.969 44.9973 186.397 44.9973 186.661 44.7334L188.838 42.556ZM143.708 77.6622C143.444 77.9261 143.444 78.3538 143.708 78.6177L145.259 80.1686C145.523 80.4324 145.951 80.4324 146.214 80.1686L148.392 77.9911C148.656 77.7273 149.084 77.7273 149.347 77.9911L150.898 79.5418C151.162 79.8056 151.162 80.2334 150.898 80.4972L148.721 82.6747C148.457 82.9385 148.457 83.3663 148.721 83.6301L150.271 85.1805C150.535 85.4443 150.963 85.4443 151.226 85.1805L155.91 80.4972C156.173 80.2334 156.173 79.8056 155.91 79.5418L154.773 78.4054C154.509 78.1415 154.509 77.7137 154.773 77.4499L157.577 74.6463C157.841 74.3824 157.841 73.9547 157.577 73.6908L155.299 71.4126C155.035 71.1488 154.607 71.1488 154.343 71.4126L151.54 74.2162C151.276 74.4801 150.848 74.4801 150.584 74.2162L149.347 72.979C149.083 72.7151 148.655 72.7151 148.391 72.979L143.708 77.6622ZM188.838 80.1686C189.102 80.4324 189.53 80.4324 189.794 80.1686L191.344 78.6177C191.608 78.3538 191.608 77.9261 191.344 77.6622L186.661 72.979C186.397 72.7151 185.97 72.7151 185.706 72.979L184.469 74.2162C184.205 74.4801 183.777 74.4801 183.513 74.2162L180.709 71.4126C180.446 71.1488 180.018 71.1488 179.754 71.4126L177.476 73.6908C177.212 73.9547 177.212 74.3824 177.476 74.6463L180.279 77.4499C180.543 77.7137 180.543 78.1415 180.279 78.4053L179.143 79.5418C178.879 79.8056 178.879 80.2334 179.143 80.4972L183.826 85.1805C184.09 85.4443 184.518 85.4443 184.782 85.1805L186.332 83.6301C186.596 83.3663 186.596 82.9385 186.332 82.6746L184.155 80.4972C183.891 80.2334 183.891 79.8056 184.155 79.5418L185.705 77.9911C185.969 77.7273 186.397 77.7273 186.661 77.9911L188.838 80.1686ZM177.233 51.3691C177.233 50.9959 176.931 50.6935 176.558 50.6935H158.416C158.043 50.6935 157.741 50.9959 157.741 51.3691V62.0608C157.741 62.4339 158.043 62.7364 158.416 62.7364H158.946C159.319 62.7364 159.622 63.0389 159.622 63.412V65.2188C159.622 65.5919 159.924 65.8944 160.297 65.8944H161.685C162.058 65.8944 162.36 65.5919 162.36 65.2188V63.412C162.36 63.0389 162.663 62.7364 163.036 62.7364H163.377C163.75 62.7364 164.053 63.0389 164.053 63.412V65.2188C164.053 65.5919 164.355 65.8944 164.728 65.8944H166.116C166.489 65.8944 166.791 65.5919 166.791 65.2188V63.412C166.791 63.0389 167.094 62.7364 167.467 62.7364H167.807C168.18 62.7364 168.483 63.0389 168.483 63.412V65.2188C168.483 65.5919 168.785 65.8944 169.158 65.8944H170.545C170.919 65.8944 171.221 65.5919 171.221 65.2188V63.412C171.221 63.0389 171.524 62.7364 171.897 62.7364H172.238C172.611 62.7364 172.913 63.0389 172.913 63.412V65.2188C172.913 65.5919 173.216 65.8944 173.589 65.8944H174.976C175.349 65.8944 175.652 65.5919 175.652 65.2188V63.412C175.652 63.0389 175.954 62.7364 176.327 62.7364H176.558C176.931 62.7364 177.233 62.4339 177.233 62.0608V51.3691ZM175.375 69.347C175.375 68.9738 175.073 68.6714 174.7 68.6714H160.102C159.729 68.6714 159.427 68.9738 159.427 69.347V71.5399C159.427 71.913 159.729 72.2155 160.102 72.2155H174.7C175.073 72.2155 175.375 71.913 175.375 71.5399V69.347ZM174.052 54.7472C174.052 54.374 173.749 54.0716 173.376 54.0716H161.794C161.421 54.0716 161.119 54.374 161.119 54.7472V58.6086C161.119 58.9817 161.421 59.2842 161.794 59.2842H173.376C173.749 59.2842 174.052 58.9817 174.052 58.6086V54.7472Z"/>
</mask>
<path fill-rule="evenodd" clip-rule="evenodd" d="M146.214 42.556C145.951 42.2921 145.523 42.2921 145.259 42.556L143.708 44.1069C143.444 44.3707 143.444 44.7985 143.708 45.0623L148.391 49.7456C148.655 50.0094 149.083 50.0094 149.347 49.7456L150.584 48.5083C150.848 48.2445 151.276 48.2445 151.54 48.5083L154.343 51.3119C154.607 51.5758 155.035 51.5758 155.299 51.3119L157.577 49.0337C157.841 48.7699 157.841 48.3421 157.577 48.0783L154.773 45.2747C154.509 45.0108 154.509 44.583 154.773 44.3192L155.91 43.1828C156.173 42.9189 156.173 42.4912 155.91 42.2273L151.226 37.5441C150.963 37.2802 150.535 37.2802 150.271 37.5441L148.721 39.0944C148.457 39.3583 148.457 39.7861 148.721 40.0499L150.898 42.2273C151.162 42.4912 151.162 42.9189 150.898 43.1828L149.347 44.7334C149.084 44.9973 148.656 44.9973 148.392 44.7334L146.214 42.556ZM188.838 42.556C189.102 42.2922 189.53 42.2922 189.794 42.556L191.344 44.1069C191.608 44.3707 191.608 44.7985 191.344 45.0623L186.661 49.7456C186.397 50.0094 185.97 50.0094 185.706 49.7456L184.469 48.5083C184.205 48.2445 183.777 48.2445 183.513 48.5083L180.709 51.3119C180.446 51.5758 180.018 51.5758 179.754 51.3119L177.476 49.0337C177.212 48.7699 177.212 48.3421 177.476 48.0783L180.279 45.2747C180.543 45.0108 180.543 44.5831 180.279 44.3192L179.143 43.1828C178.879 42.9189 178.879 42.4912 179.143 42.2273L183.826 37.5441C184.09 37.2802 184.518 37.2802 184.782 37.5441L186.332 39.0945C186.596 39.3583 186.596 39.7861 186.332 40.0499L184.155 42.2273C183.891 42.4912 183.891 42.9189 184.155 43.1828L185.705 44.7334C185.969 44.9973 186.397 44.9973 186.661 44.7334L188.838 42.556ZM143.708 77.6622C143.444 77.9261 143.444 78.3538 143.708 78.6177L145.259 80.1686C145.523 80.4324 145.951 80.4324 146.214 80.1686L148.392 77.9911C148.656 77.7273 149.084 77.7273 149.347 77.9911L150.898 79.5418C151.162 79.8056 151.162 80.2334 150.898 80.4972L148.721 82.6747C148.457 82.9385 148.457 83.3663 148.721 83.6301L150.271 85.1805C150.535 85.4443 150.963 85.4443 151.226 85.1805L155.91 80.4972C156.173 80.2334 156.173 79.8056 155.91 79.5418L154.773 78.4054C154.509 78.1415 154.509 77.7137 154.773 77.4499L157.577 74.6463C157.841 74.3824 157.841 73.9547 157.577 73.6908L155.299 71.4126C155.035 71.1488 154.607 71.1488 154.343 71.4126L151.54 74.2162C151.276 74.4801 150.848 74.4801 150.584 74.2162L149.347 72.979C149.083 72.7151 148.655 72.7151 148.391 72.979L143.708 77.6622ZM188.838 80.1686C189.102 80.4324 189.53 80.4324 189.794 80.1686L191.344 78.6177C191.608 78.3538 191.608 77.9261 191.344 77.6622L186.661 72.979C186.397 72.7151 185.97 72.7151 185.706 72.979L184.469 74.2162C184.205 74.4801 183.777 74.4801 183.513 74.2162L180.709 71.4126C180.446 71.1488 180.018 71.1488 179.754 71.4126L177.476 73.6908C177.212 73.9547 177.212 74.3824 177.476 74.6463L180.279 77.4499C180.543 77.7137 180.543 78.1415 180.279 78.4053L179.143 79.5418C178.879 79.8056 178.879 80.2334 179.143 80.4972L183.826 85.1805C184.09 85.4443 184.518 85.4443 184.782 85.1805L186.332 83.6301C186.596 83.3663 186.596 82.9385 186.332 82.6746L184.155 80.4972C183.891 80.2334 183.891 79.8056 184.155 79.5418L185.705 77.9911C185.969 77.7273 186.397 77.7273 186.661 77.9911L188.838 80.1686ZM177.233 51.3691C177.233 50.9959 176.931 50.6935 176.558 50.6935H158.416C158.043 50.6935 157.741 50.9959 157.741 51.3691V62.0608C157.741 62.4339 158.043 62.7364 158.416 62.7364H158.946C159.319 62.7364 159.622 63.0389 159.622 63.412V65.2188C159.622 65.5919 159.924 65.8944 160.297 65.8944H161.685C162.058 65.8944 162.36 65.5919 162.36 65.2188V63.412C162.36 63.0389 162.663 62.7364 163.036 62.7364H163.377C163.75 62.7364 164.053 63.0389 164.053 63.412V65.2188C164.053 65.5919 164.355 65.8944 164.728 65.8944H166.116C166.489 65.8944 166.791 65.5919 166.791 65.2188V63.412C166.791 63.0389 167.094 62.7364 167.467 62.7364H167.807C168.18 62.7364 168.483 63.0389 168.483 63.412V65.2188C168.483 65.5919 168.785 65.8944 169.158 65.8944H170.545C170.919 65.8944 171.221 65.5919 171.221 65.2188V63.412C171.221 63.0389 171.524 62.7364 171.897 62.7364H172.238C172.611 62.7364 172.913 63.0389 172.913 63.412V65.2188C172.913 65.5919 173.216 65.8944 173.589 65.8944H174.976C175.349 65.8944 175.652 65.5919 175.652 65.2188V63.412C175.652 63.0389 175.954 62.7364 176.327 62.7364H176.558C176.931 62.7364 177.233 62.4339 177.233 62.0608V51.3691ZM175.375 69.347C175.375 68.9738 175.073 68.6714 174.7 68.6714H160.102C159.729 68.6714 159.427 68.9738 159.427 69.347V71.5399C159.427 71.913 159.729 72.2155 160.102 72.2155H174.7C175.073 72.2155 175.375 71.913 175.375 71.5399V69.347ZM174.052 54.7472C174.052 54.374 173.749 54.0716 173.376 54.0716H161.794C161.421 54.0716 161.119 54.374 161.119 54.7472V58.6086C161.119 58.9817 161.421 59.2842 161.794 59.2842H173.376C173.749 59.2842 174.052 58.9817 174.052 58.6086V54.7472Z" fill="white"/>
<path d="M186.661 77.9911L182.839 81.813L186.661 77.9911ZM184.155 80.4972L187.976 76.6754L184.155 80.4972ZM186.332 82.6746L182.51 86.4965L186.332 82.6746ZM177.476 73.6908L173.654 69.869L177.476 73.6908ZM179.754 71.4126L175.932 67.5908L179.754 71.4126ZM184.469 74.2162L180.647 70.3944L184.469 74.2162ZM185.706 72.979L189.528 76.8008L185.706 72.979ZM188.838 80.1686L192.66 76.3467L188.838 80.1686ZM149.347 72.979L153.169 69.1572L149.347 72.979ZM148.391 72.979L152.213 76.8008L148.391 72.979ZM151.54 74.2162L147.718 70.3944L151.54 74.2162ZM150.584 74.2162L154.406 70.3944L150.584 74.2162ZM154.343 71.4126L158.165 75.2344L154.343 71.4126ZM157.577 73.6908L153.755 77.5126L157.577 73.6908ZM154.773 77.4499L150.951 73.6281L154.773 77.4499ZM155.91 80.4972L159.731 84.3191L155.91 80.4972ZM155.91 79.5418L159.731 75.72L155.91 79.5418ZM150.271 85.1805L146.449 89.0023L150.271 85.1805ZM148.721 82.6747L144.899 78.8528L148.721 82.6747ZM148.721 83.6301L144.899 87.4519L148.721 83.6301ZM150.898 79.5418L154.72 75.7199L150.898 79.5418ZM150.898 80.4972L154.72 84.319L150.898 80.4972ZM148.392 77.9911L152.214 81.813L148.392 77.9911ZM149.347 77.9911L153.169 74.1693L149.347 77.9911ZM143.708 78.6177L147.53 74.7959L143.708 78.6177ZM143.708 77.6622L139.886 73.8404L143.708 77.6622ZM145.259 80.1686L141.437 83.9904L145.259 80.1686ZM146.214 80.1686L142.393 76.3468L146.214 80.1686ZM185.705 44.7334L189.527 40.9116L185.705 44.7334ZM186.661 44.7334L190.483 48.5553L186.661 44.7334ZM184.155 42.2273L187.976 46.0492L184.155 42.2273ZM184.155 43.1828L180.333 47.0046L184.155 43.1828ZM186.332 39.0945L182.51 42.9163L186.332 39.0945ZM183.826 37.5441L180.004 33.7222L183.826 37.5441ZM184.782 37.5441L180.96 41.3659L184.782 37.5441ZM179.143 43.1828L175.321 47.0046L179.143 43.1828ZM179.143 42.2273L175.321 38.4055L179.143 42.2273ZM180.279 45.2747L176.458 41.4529L180.279 45.2747ZM180.279 44.3192L184.101 40.4974L180.279 44.3192ZM177.476 49.0337L181.298 45.2119L177.476 49.0337ZM177.476 48.0783L181.298 51.9001L177.476 48.0783ZM180.709 51.3119L184.531 55.1338L180.709 51.3119ZM179.754 51.3119L175.932 55.1338L179.754 51.3119ZM184.469 48.5083L180.647 52.3302L184.469 48.5083ZM183.513 48.5083L187.335 52.3302L183.513 48.5083ZM186.661 49.7456L182.839 45.9238L186.661 49.7456ZM185.706 49.7456L181.884 53.5674L185.706 49.7456ZM189.794 42.556L185.972 46.3778L189.794 42.556ZM188.838 42.556L185.016 38.7342L188.838 42.556ZM191.344 44.1069L195.166 40.2851L191.344 44.1069ZM191.344 45.0623L195.166 48.8842L191.344 45.0623ZM148.392 44.7334L144.57 48.5552L148.392 44.7334ZM148.721 40.0499L144.899 43.8717L148.721 40.0499ZM150.271 37.5441L146.449 33.7222L150.271 37.5441ZM155.91 43.1828L152.088 39.3609L155.91 43.1828ZM155.91 42.2273L152.088 46.0491L155.91 42.2273ZM154.773 45.2747L150.951 49.0965L154.773 45.2747ZM154.773 44.3192L158.595 48.141L154.773 44.3192ZM157.577 48.0783L161.399 44.2565L157.577 48.0783ZM150.584 48.5083L154.406 52.3301L150.584 48.5083ZM151.54 48.5083L147.718 52.3301L151.54 48.5083ZM149.347 49.7456L145.525 45.9238L149.347 49.7456ZM143.708 44.1069L139.886 40.2851L143.708 44.1069ZM143.708 45.0623L139.886 48.8842L143.708 45.0623ZM147.53 47.9287L149.081 46.3778L141.437 38.7342L139.886 40.2851L147.53 47.9287ZM152.213 45.9238L147.53 41.2405L139.886 48.8842L144.57 53.5674L152.213 45.9238ZM146.762 44.6865L145.525 45.9238L153.169 53.5674L154.406 52.3301L146.762 44.6865ZM158.165 47.4901L155.361 44.6865L147.718 52.3301L150.521 55.1338L158.165 47.4901ZM153.755 45.2119L151.477 47.4901L159.12 55.1338L161.399 52.8556L153.755 45.2119ZM150.951 49.0965L153.755 51.9001L161.399 44.2565L158.595 41.4528L150.951 49.0965ZM152.088 39.3609L150.951 40.4974L158.595 48.141L159.731 47.0046L152.088 39.3609ZM147.405 41.3659L152.088 46.0491L159.731 38.4055L155.048 33.7222L147.405 41.3659ZM152.542 42.9163L154.093 41.3659L146.449 33.7222L144.899 35.2726L152.542 42.9163ZM154.72 38.4055L152.542 36.2281L144.899 43.8717L147.076 46.0492L154.72 38.4055ZM153.169 48.5552L154.72 47.0046L147.076 39.361L145.526 40.9116L153.169 48.5552ZM142.393 46.3778L144.57 48.5552L152.214 40.9116L150.036 38.7342L142.393 46.3778ZM195.166 40.2851L193.615 38.7342L185.972 46.3778L187.523 47.9287L195.166 40.2851ZM190.483 53.5674L195.166 48.8842L187.523 41.2405L182.839 45.9238L190.483 53.5674ZM180.647 52.3302L181.884 53.5674L189.528 45.9238L188.29 44.6865L180.647 52.3302ZM184.531 55.1338L187.335 52.3302L179.691 44.6865L176.888 47.4901L184.531 55.1338ZM173.654 52.8556L175.932 55.1338L183.576 47.4901L181.298 45.2119L173.654 52.8556ZM176.458 41.4529L173.654 44.2565L181.298 51.9001L184.101 49.0965L176.458 41.4529ZM175.321 47.0046L176.458 48.141L184.101 40.4974L182.965 39.3609L175.321 47.0046ZM180.004 33.7222L175.321 38.4055L182.965 46.0491L187.648 41.3659L180.004 33.7222ZM190.154 35.2726L188.603 33.7222L180.96 41.3659L182.51 42.9163L190.154 35.2726ZM187.976 46.0492L190.154 43.8717L182.51 36.2281L180.333 38.4055L187.976 46.0492ZM189.527 40.9116L187.976 39.361L180.333 47.0046L181.883 48.5552L189.527 40.9116ZM185.016 38.7342L182.839 40.9116L190.483 48.5553L192.66 46.3778L185.016 38.7342ZM149.081 76.3468L147.53 74.7959L139.886 82.4395L141.437 83.9904L149.081 76.3468ZM144.57 74.1693L142.393 76.3468L150.036 83.9904L152.214 81.813L144.57 74.1693ZM154.72 75.7199L153.169 74.1693L145.526 81.813L147.076 83.3636L154.72 75.7199ZM152.542 86.4965L154.72 84.319L147.076 76.6754L144.899 78.8528L152.542 86.4965ZM154.093 81.3587L152.542 79.8083L144.899 87.4519L146.449 89.0023L154.093 81.3587ZM152.088 76.6754L147.405 81.3587L155.048 89.0023L159.731 84.3191L152.088 76.6754ZM150.951 82.2272L152.088 83.3636L159.731 75.72L158.595 74.5835L150.951 82.2272ZM153.755 70.8245L150.951 73.6281L158.595 81.2717L161.399 78.4681L153.755 70.8245ZM151.477 75.2344L153.755 77.5126L161.399 69.869L159.12 67.5908L151.477 75.2344ZM155.361 78.0381L158.165 75.2344L150.521 67.5908L147.718 70.3944L155.361 78.0381ZM145.525 76.8008L146.762 78.0381L154.406 70.3944L153.169 69.1572L145.525 76.8008ZM147.53 81.484L152.213 76.8008L144.57 69.1572L139.886 73.8404L147.53 81.484ZM187.523 74.7959L185.972 76.3467L193.615 83.9904L195.166 82.4395L187.523 74.7959ZM182.839 76.8008L187.523 81.484L195.166 73.8404L190.483 69.1572L182.839 76.8008ZM188.29 78.038L189.528 76.8008L181.884 69.1572L180.647 70.3944L188.29 78.038ZM176.888 75.2344L179.691 78.038L187.335 70.3944L184.531 67.5908L176.888 75.2344ZM181.298 77.5126L183.576 75.2344L175.932 67.5908L173.654 69.869L181.298 77.5126ZM184.101 73.6281L181.298 70.8245L173.654 78.4681L176.458 81.2717L184.101 73.6281ZM182.965 83.3636L184.101 82.2272L176.458 74.5835L175.321 75.72L182.965 83.3636ZM187.648 81.3587L182.965 76.6754L175.321 84.3191L180.004 89.0023L187.648 81.3587ZM182.51 79.8083L180.96 81.3587L188.603 89.0023L190.154 87.4519L182.51 79.8083ZM180.333 84.319L182.51 86.4965L190.154 78.8528L187.976 76.6754L180.333 84.319ZM181.883 74.1693L180.333 75.7199L187.976 83.3636L189.527 81.813L181.883 74.1693ZM192.66 76.3467L190.483 74.1693L182.839 81.813L185.016 83.9904L192.66 76.3467ZM158.416 56.0983H176.558V45.2886H158.416V56.0983ZM163.145 62.0608V51.3691H152.336V62.0608H163.145ZM158.946 57.3315H158.416V68.1413H158.946V57.3315ZM165.027 65.2188V63.412H154.217V65.2188H165.027ZM161.685 60.4895H160.297V71.2993H161.685V60.4895ZM156.955 63.412V65.2188H167.765V63.412H156.955ZM163.377 57.3315H163.036V68.1413H163.377V57.3315ZM169.458 65.2188V63.412H158.648V65.2188H169.458ZM166.116 60.4895H164.728V71.2993H166.116V60.4895ZM161.386 63.412V65.2188H172.196V63.412H161.386ZM167.807 57.3315H167.467V68.1413H167.807V57.3315ZM173.887 65.2188V63.412H163.078V65.2188H173.887ZM170.545 60.4895H169.158V71.2993H170.545V60.4895ZM165.816 63.412V65.2188H176.626V63.412H165.816ZM172.238 57.3315H171.897V68.1413H172.238V57.3315ZM178.318 65.2188V63.412H167.508V65.2188H178.318ZM174.976 60.4895H173.589V71.2993H174.976V60.4895ZM170.247 63.412V65.2188H181.057V63.412H170.247ZM176.558 57.3315H176.327V68.1413H176.558V57.3315ZM171.828 51.3691V62.0608H182.638V51.3691H171.828ZM160.102 74.0762H174.7V63.2665H160.102V74.0762ZM164.832 71.5399V69.347H154.022V71.5399H164.832ZM174.7 66.8106H160.102V77.6204H174.7V66.8106ZM169.971 69.347V71.5399H180.78V69.347H169.971ZM161.794 59.4764H173.376V48.6667H161.794V59.4764ZM166.523 58.6086V54.7472H155.714V58.6086H166.523ZM173.376 53.8793H161.794V64.689H173.376V53.8793ZM168.647 54.7472V58.6086H179.457V54.7472H168.647ZM173.376 64.689C176.734 64.689 179.457 61.9667 179.457 58.6086H168.647C168.647 55.9967 170.764 53.8793 173.376 53.8793V64.689ZM155.714 58.6086C155.714 61.9667 158.436 64.689 161.794 64.689V53.8793C164.406 53.8793 166.523 55.9967 166.523 58.6086H155.714ZM173.376 59.4764C170.764 59.4764 168.647 57.3591 168.647 54.7472H179.457C179.457 51.389 176.734 48.6667 173.376 48.6667V59.4764ZM161.794 48.6667C158.436 48.6667 155.714 51.389 155.714 54.7472H166.523C166.523 57.3591 164.406 59.4764 161.794 59.4764V48.6667ZM174.7 77.6204C178.058 77.6204 180.78 74.8981 180.78 71.5399H169.971C169.971 68.928 172.088 66.8106 174.7 66.8106V77.6204ZM154.022 71.5399C154.022 74.8981 156.744 77.6204 160.102 77.6204V66.8106C162.714 66.8106 164.832 68.928 164.832 71.5399H154.022ZM174.7 74.0762C172.088 74.0762 169.971 71.9589 169.971 69.347H180.78C180.78 65.9888 178.058 63.2665 174.7 63.2665V74.0762ZM160.102 63.2665C156.744 63.2665 154.022 65.9888 154.022 69.347H164.832C164.832 71.9589 162.714 74.0762 160.102 74.0762V63.2665ZM176.558 68.1413C179.916 68.1413 182.638 65.419 182.638 62.0608H171.828C171.828 59.4489 173.946 57.3315 176.558 57.3315V68.1413ZM181.057 63.412C181.057 66.0239 178.939 68.1413 176.327 68.1413V57.3315C172.969 57.3315 170.247 60.0538 170.247 63.412H181.057ZM174.976 71.2993C178.334 71.2993 181.057 68.5769 181.057 65.2188H170.247C170.247 62.6069 172.364 60.4895 174.976 60.4895V71.2993ZM167.508 65.2188C167.508 68.5769 170.231 71.2993 173.589 71.2993V60.4895C176.201 60.4895 178.318 62.6069 178.318 65.2188H167.508ZM172.238 68.1413C169.626 68.1413 167.508 66.0239 167.508 63.412H178.318C178.318 60.0538 175.596 57.3315 172.238 57.3315V68.1413ZM176.626 63.412C176.626 66.0239 174.509 68.1413 171.897 68.1413V57.3315C168.538 57.3315 165.816 60.0538 165.816 63.412H176.626ZM170.545 71.2993C173.904 71.2993 176.626 68.5769 176.626 65.2188H165.816C165.816 62.6069 167.934 60.4895 170.545 60.4895V71.2993ZM163.078 65.2188C163.078 68.5769 165.8 71.2993 169.158 71.2993V60.4895C171.77 60.4895 173.887 62.6069 173.887 65.2188H163.078ZM167.807 68.1413C165.195 68.1413 163.078 66.0239 163.078 63.412H173.887C173.887 60.0538 171.165 57.3315 167.807 57.3315V68.1413ZM172.196 63.412C172.196 66.0239 170.079 68.1413 167.467 68.1413V57.3315C164.109 57.3315 161.386 60.0538 161.386 63.412H172.196ZM166.116 71.2993C169.474 71.2993 172.196 68.5769 172.196 65.2188H161.386C161.386 62.6069 163.504 60.4895 166.116 60.4895V71.2993ZM158.648 65.2188C158.648 68.5769 161.37 71.2993 164.728 71.2993V60.4895C167.34 60.4895 169.458 62.6069 169.458 65.2188H158.648ZM163.377 68.1413C160.765 68.1413 158.648 66.0239 158.648 63.412H169.458C169.458 60.0538 166.735 57.3315 163.377 57.3315V68.1413ZM167.765 63.412C167.765 66.0239 165.648 68.1413 163.036 68.1413V57.3315C159.678 57.3315 156.955 60.0538 156.955 63.412H167.765ZM161.685 71.2993C165.043 71.2993 167.765 68.5769 167.765 65.2188H156.955C156.955 62.6069 159.073 60.4895 161.685 60.4895V71.2993ZM154.217 65.2188C154.217 68.5769 156.939 71.2993 160.297 71.2993V60.4895C162.909 60.4895 165.027 62.6069 165.027 65.2188H154.217ZM158.946 68.1413C156.334 68.1413 154.217 66.0239 154.217 63.412H165.027C165.027 60.0538 162.304 57.3315 158.946 57.3315V68.1413ZM152.336 62.0608C152.336 65.419 155.058 68.1413 158.416 68.1413V57.3315C161.028 57.3315 163.145 59.4489 163.145 62.0608H152.336ZM176.558 56.0983C173.946 56.0983 171.828 53.981 171.828 51.3691H182.638C182.638 48.0109 179.916 45.2886 176.558 45.2886V56.0983ZM158.416 45.2886C155.058 45.2886 152.336 48.0109 152.336 51.3691H163.145C163.145 53.981 161.028 56.0983 158.416 56.0983V45.2886ZM189.527 81.813C187.68 83.6598 184.686 83.6599 182.839 81.813L190.483 74.1693C188.108 71.7947 184.258 71.7947 181.883 74.1693L189.527 81.813ZM187.976 76.6754C189.823 78.5223 189.823 81.5167 187.976 83.3636L180.333 75.7199C177.958 78.0945 177.958 81.9445 180.333 84.319L187.976 76.6754ZM190.154 87.4519C192.528 85.0774 192.528 81.2274 190.154 78.8528L182.51 86.4965C180.663 84.6496 180.663 81.6552 182.51 79.8083L190.154 87.4519ZM180.004 89.0023C182.379 91.3769 186.229 91.3769 188.603 89.0023L180.96 81.3587C182.807 79.5118 185.801 79.5118 187.648 81.3587L180.004 89.0023ZM175.321 75.72C172.947 78.0945 172.947 81.9445 175.321 84.3191L182.965 76.6754C184.812 78.5223 184.812 81.5167 182.965 83.3636L175.321 75.72ZM176.458 81.2717C174.611 79.4248 174.611 76.4304 176.458 74.5835L184.101 82.2272C186.476 79.8526 186.476 76.0026 184.101 73.6281L176.458 81.2717ZM173.654 69.869C171.279 72.2436 171.279 76.0935 173.654 78.4681L181.298 70.8245C183.145 72.6713 183.145 75.6658 181.298 77.5126L173.654 69.869ZM184.531 67.5908C182.157 65.2162 178.307 65.2162 175.932 67.5908L183.576 75.2344C181.729 77.0813 178.735 77.0813 176.888 75.2344L184.531 67.5908ZM180.647 70.3944C182.494 68.5475 185.488 68.5475 187.335 70.3944L179.691 78.038C182.066 80.4126 185.916 80.4126 188.29 78.038L180.647 70.3944ZM190.483 69.1572C188.108 66.7826 184.259 66.7826 181.884 69.1572L189.528 76.8008C187.681 78.6477 184.686 78.6477 182.839 76.8008L190.483 69.1572ZM185.972 76.3467C187.819 74.4998 190.813 74.4998 192.66 76.3467L185.016 83.9904C187.391 86.365 191.241 86.365 193.615 83.9904L185.972 76.3467ZM195.166 82.4395C197.541 80.0649 197.541 76.215 195.166 73.8404L187.523 81.484C185.676 79.6372 185.676 76.6427 187.523 74.7959L195.166 82.4395ZM153.169 69.1572C150.794 66.7826 146.944 66.7826 144.57 69.1572L152.213 76.8008C150.366 78.6477 147.372 78.6477 145.525 76.8008L153.169 69.1572ZM147.718 70.3944C149.565 68.5475 152.559 68.5475 154.406 70.3944L146.762 78.0381C149.137 80.4126 152.987 80.4126 155.361 78.0381L147.718 70.3944ZM159.12 67.5908C156.746 65.2162 152.896 65.2162 150.521 67.5908L158.165 75.2344C156.318 77.0813 153.324 77.0813 151.477 75.2344L159.12 67.5908ZM161.399 78.4681C163.773 76.0935 163.773 72.2436 161.399 69.869L153.755 77.5126C151.908 75.6658 151.908 72.6713 153.755 70.8245L161.399 78.4681ZM158.595 74.5835C160.442 76.4304 160.442 79.4248 158.595 81.2717L150.951 73.6281C148.577 76.0027 148.577 79.8526 150.951 82.2272L158.595 74.5835ZM159.731 84.3191C162.106 81.9445 162.106 78.0945 159.731 75.72L152.088 83.3636C150.241 81.5167 150.241 78.5223 152.088 76.6754L159.731 84.3191ZM146.449 89.0023C148.824 91.3769 152.674 91.3769 155.048 89.0023L147.405 81.3587C149.251 79.5118 152.246 79.5118 154.093 81.3587L146.449 89.0023ZM144.899 78.8528C142.524 81.2274 142.524 85.0774 144.899 87.4519L152.542 79.8083C154.389 81.6552 154.389 84.6496 152.542 86.4965L144.899 78.8528ZM147.076 83.3636C145.229 81.5167 145.229 78.5223 147.076 76.6754L154.72 84.319C157.094 81.9445 157.094 78.0945 154.72 75.7199L147.076 83.3636ZM152.214 81.813C150.367 83.6599 147.372 83.6599 145.526 81.813L153.169 74.1693C150.795 71.7947 146.945 71.7947 144.57 74.1693L152.214 81.813ZM147.53 74.7959C149.377 76.6427 149.377 79.6371 147.53 81.484L139.886 73.8404C137.512 76.215 137.512 80.0649 139.886 82.4395L147.53 74.7959ZM141.437 83.9904C143.812 86.365 147.662 86.365 150.036 83.9904L142.393 76.3468C144.24 74.4999 147.234 74.4999 149.081 76.3468L141.437 83.9904ZM181.883 48.5552C184.258 50.9298 188.108 50.9298 190.483 48.5553L182.839 40.9116C184.686 39.0647 187.68 39.0647 189.527 40.9116L181.883 48.5552ZM180.333 38.4055C177.958 40.7801 177.958 44.63 180.333 47.0046L187.976 39.361C189.823 41.2079 189.823 44.2023 187.976 46.0492L180.333 38.4055ZM182.51 42.9163C180.663 41.0694 180.663 38.075 182.51 36.2281L190.154 43.8717C192.528 41.4972 192.528 37.6472 190.154 35.2726L182.51 42.9163ZM187.648 41.3659C185.801 43.2128 182.807 43.2128 180.96 41.3659L188.603 33.7222C186.229 31.3477 182.379 31.3477 180.004 33.7222L187.648 41.3659ZM182.965 39.3609C184.812 41.2078 184.812 44.2023 182.965 46.0491L175.321 38.4055C172.947 40.7801 172.947 44.63 175.321 47.0046L182.965 39.3609ZM184.101 49.0965C186.476 46.7219 186.476 42.872 184.101 40.4974L176.458 48.141C174.611 46.2942 174.611 43.2998 176.458 41.4529L184.101 49.0965ZM181.298 45.2119C183.145 47.0588 183.145 50.0532 181.298 51.9001L173.654 44.2565C171.279 46.631 171.279 50.481 173.654 52.8556L181.298 45.2119ZM176.888 47.4901C178.735 45.6432 181.729 45.6432 183.576 47.4901L175.932 55.1338C178.307 57.5083 182.157 57.5083 184.531 55.1338L176.888 47.4901ZM188.29 44.6865C185.916 42.3119 182.066 42.3119 179.691 44.6865L187.335 52.3302C185.488 54.1771 182.494 54.1771 180.647 52.3302L188.29 44.6865ZM182.839 45.9238C184.686 44.0769 187.681 44.0769 189.528 45.9238L181.884 53.5674C184.259 55.942 188.108 55.942 190.483 53.5674L182.839 45.9238ZM193.615 38.7342C191.241 36.3596 187.391 36.3596 185.016 38.7342L192.66 46.3778C190.813 48.2247 187.819 48.2247 185.972 46.3778L193.615 38.7342ZM187.523 47.9287C185.676 46.0818 185.676 43.0874 187.523 41.2405L195.166 48.8842C197.541 46.5096 197.541 42.6596 195.166 40.2851L187.523 47.9287ZM145.526 40.9116C147.372 39.0647 150.367 39.0647 152.214 40.9116L144.57 48.5552C146.945 50.9298 150.795 50.9298 153.169 48.5552L145.526 40.9116ZM147.076 46.0492C145.229 44.2023 145.229 41.2079 147.076 39.361L154.72 47.0046C157.094 44.63 157.094 40.7801 154.72 38.4055L147.076 46.0492ZM144.899 35.2726C142.524 37.6472 142.524 41.4971 144.899 43.8717L152.542 36.2281C154.389 38.075 154.389 41.0694 152.542 42.9163L144.899 35.2726ZM155.048 33.7222C152.674 31.3477 148.824 31.3477 146.449 33.7222L154.093 41.3659C152.246 43.2128 149.251 43.2128 147.405 41.3659L155.048 33.7222ZM159.731 47.0046C162.106 44.63 162.106 40.7801 159.731 38.4055L152.088 46.0491C150.241 44.2022 150.241 41.2078 152.088 39.3609L159.731 47.0046ZM158.595 41.4528C160.442 43.2997 160.442 46.2941 158.595 48.141L150.951 40.4974C148.577 42.872 148.577 46.7219 150.951 49.0965L158.595 41.4528ZM161.399 52.8556C163.773 50.481 163.773 46.631 161.399 44.2565L153.755 51.9001C151.908 50.0532 151.908 47.0588 153.755 45.2119L161.399 52.8556ZM150.521 55.1338C152.896 57.5083 156.746 57.5083 159.12 55.1338L151.477 47.4901C153.324 45.6432 156.318 45.6432 158.165 47.4901L150.521 55.1338ZM154.406 52.3301C152.559 54.177 149.565 54.177 147.718 52.3301L155.361 44.6865C152.987 42.3119 149.137 42.3119 146.762 44.6865L154.406 52.3301ZM144.57 53.5674C146.944 55.942 150.794 55.942 153.169 53.5674L145.525 45.9238C147.372 44.0769 150.366 44.0769 152.213 45.9238L144.57 53.5674ZM149.081 46.3778C147.234 48.2247 144.24 48.2247 142.393 46.3778L150.036 38.7342C147.662 36.3596 143.812 36.3596 141.437 38.7342L149.081 46.3778ZM139.886 40.2851C137.512 42.6596 137.512 46.5096 139.886 48.8842L147.53 41.2405C149.377 43.0874 149.377 46.0818 147.53 47.9287L139.886 40.2851Z" fill="#1F2024" mask="url(#path-17-outside-1)"/>
<defs>
<filter id="filter0_ii" x="21.9431" y="95.9594" width="167.551" height="145.932" filterUnits="userSpaceOnUse" color-interpolation-filters="sRGB">
<feFlood flood-opacity="0" result="BackgroundImageFix"/>
<feBlend mode="normal" in="SourceGraphic" in2="BackgroundImageFix" result="shape"/>
<feColorMatrix in="SourceAlpha" type="matrix" values="0 0 0 0 0 0 0 0 0 0 0 0 0 0 0 0 0 0 127 0" result="hardAlpha"/>
<feOffset dy="-10.8098"/>
<feComposite in2="hardAlpha" operator="arithmetic" k2="-1" k3="1"/>
<feColorMatrix type="matrix" values="0 0 0 0 0 0 0 0 0 0 0 0 0 0 0 0 0 0 0.25 0"/>
<feBlend mode="normal" in2="shape" result="effect1_innerShadow"/>
<feColorMatrix in="SourceAlpha" type="matrix" values="0 0 0 0 0 0 0 0 0 0 0 0 0 0 0 0 0 0 127 0" result="hardAlpha"/>
<feOffset dy="10.8098"/>
<feComposite in2="hardAlpha" operator="arithmetic" k2="-1" k3="1"/>
<feColorMatrix type="matrix" values="0 0 0 0 1 0 0 0 0 1 0 0 0 0 1 0 0 0 0.25 0"/>
<feBlend mode="normal" in2="effect1_innerShadow" result="effect2_innerShadow"/>
</filter>
<filter id="filter1_i" x="89.5042" y="95.9594" width="156.741" height="145.932" filterUnits="userSpaceOnUse" color-interpolation-filters="sRGB">
<feFlood flood-opacity="0" result="BackgroundImageFix"/>
<feBlend mode="normal" in="SourceGraphic" in2="BackgroundImageFix" result="shape"/>
<feColorMatrix in="SourceAlpha" type="matrix" values="0 0 0 0 0 0 0 0 0 0 0 0 0 0 0 0 0 0 127 0" result="hardAlpha"/>
<feOffset dx="-16.2146" dy="5.40488"/>
<feComposite in2="hardAlpha" operator="arithmetic" k2="-1" k3="1"/>
<feColorMatrix type="matrix" values="0 0 0 0 1 0 0 0 0 1 0 0 0 0 1 0 0 0 0.25 0"/>
<feBlend mode="normal" in2="shape" result="effect1_innerShadow"/>
</filter>
<filter id="filter2_d" x="105.718" y="128.988" width="121.763" height="52.8498" filterUnits="userSpaceOnUse" color-interpolation-filters="sRGB">
<feFlood flood-opacity="0" result="BackgroundImageFix"/>
<feColorMatrix in="SourceAlpha" type="matrix" values="0 0 0 0 0 0 0 0 0 0 0 0 0 0 0 0 0 0 127 0" result="hardAlpha"/>
<feOffset dx="-2.70244" dy="2.70244"/>
<feColorMatrix type="matrix" values="0 0 0 0 0 0 0 0 0 0 0 0 0 0 0 0 0 0 0.25 0"/>
<feBlend mode="normal" in2="BackgroundImageFix" result="effect1_dropShadow"/>
<feBlend mode="normal" in="SourceGraphic" in2="effect1_dropShadow" result="shape"/>
</filter>
<filter id="filter3_d" x="174.631" y="128.988" width="52.85" height="50.1474" filterUnits="userSpaceOnUse" color-interpolation-filters="sRGB">
<feFlood flood-opacity="0" result="BackgroundImageFix"/>
<feColorMatrix in="SourceAlpha" type="matrix" values="0 0 0 0 0 0 0 0 0 0 0 0 0 0 0 0 0 0 127 0" result="hardAlpha"/>
<feOffset dx="-2.70244"/>
<feColorMatrix type="matrix" values="0 0 0 0 0.133333 0 0 0 0 0.133333 0 0 0 0 0.133333 0 0 0 1 0"/>
<feBlend mode="normal" in2="BackgroundImageFix" result="effect1_dropShadow"/>
<feBlend mode="normal" in="SourceGraphic" in2="effect1_dropShadow" result="shape"/>
</filter>
<filter id="filter4_d" x="105.718" y="128.988" width="52.85" height="50.1474" filterUnits="userSpaceOnUse" color-interpolation-filters="sRGB">
<feFlood flood-opacity="0" result="BackgroundImageFix"/>
<feColorMatrix in="SourceAlpha" type="matrix" values="0 0 0 0 0 0 0 0 0 0 0 0 0 0 0 0 0 0 127 0" result="hardAlpha"/>
<feOffset dx="-2.70244"/>
<feColorMatrix type="matrix" values="0 0 0 0 0.133333 0 0 0 0 0.133333 0 0 0 0 0.133333 0 0 0 1 0"/>
<feBlend mode="normal" in2="BackgroundImageFix" result="effect1_dropShadow"/>
<feBlend mode="normal" in="SourceGraphic" in2="effect1_dropShadow" result="shape"/>
</filter>
<filter id="filter5_d" x="11.1333" y="133.793" width="78.3708" height="77.6952" filterUnits="userSpaceOnUse" color-interpolation-filters="sRGB">
<feFlood flood-opacity="0" result="BackgroundImageFix"/>
<feColorMatrix in="SourceAlpha" type="matrix" values="0 0 0 0 0 0 0 0 0 0 0 0 0 0 0 0 0 0 127 0" result="hardAlpha"/>
<feOffset dx="-2.70244" dy="2.70244"/>
<feColorMatrix type="matrix" values="0 0 0 0 0 0 0 0 0 0 0 0 0 0 0 0 0 0 0.25 0"/>
<feBlend mode="normal" in2="BackgroundImageFix" result="effect1_dropShadow"/>
<feBlend mode="normal" in="SourceGraphic" in2="effect1_dropShadow" result="shape"/>
</filter>
<filter id="filter6_ii" x="13.8357" y="133.794" width="74.9927" height="74.9927" filterUnits="userSpaceOnUse" color-interpolation-filters="sRGB">
<feFlood flood-opacity="0" result="BackgroundImageFix"/>
<feBlend mode="normal" in="SourceGraphic" in2="BackgroundImageFix" result="shape"/>
<feColorMatrix in="SourceAlpha" type="matrix" values="0 0 0 0 0 0 0 0 0 0 0 0 0 0 0 0 0 0 127 0" result="hardAlpha"/>
<feOffset dx="10.8098"/>
<feComposite in2="hardAlpha" operator="arithmetic" k2="-1" k3="1"/>
<feColorMatrix type="matrix" values="0 0 0 0 0 0 0 0 0 0 0 0 0 0 0 0 0 0 0.25 0"/>
<feBlend mode="normal" in2="shape" result="effect1_innerShadow"/>
<feColorMatrix in="SourceAlpha" type="matrix" values="0 0 0 0 0 0 0 0 0 0 0 0 0 0 0 0 0 0 127 0" result="hardAlpha"/>
<feOffset dx="-16.2146" dy="5.40488"/>
<feComposite in2="hardAlpha" operator="arithmetic" k2="-1" k3="1"/>
<feColorMatrix type="matrix" values="0 0 0 0 1 0 0 0 0 1 0 0 0 0 1 0 0 0 0.25 0"/>
<feBlend mode="normal" in2="effect1_innerShadow" result="effect2_innerShadow"/>
</filter>
<filter id="filter7_ii" x="34.7798" y="154.737" width="32.4293" height="32.4293" filterUnits="userSpaceOnUse" color-interpolation-filters="sRGB">
<feFlood flood-opacity="0" result="BackgroundImageFix"/>
<feBlend mode="normal" in="SourceGraphic" in2="BackgroundImageFix" result="shape"/>
<feColorMatrix in="SourceAlpha" type="matrix" values="0 0 0 0 0 0 0 0 0 0 0 0 0 0 0 0 0 0 127 0" result="hardAlpha"/>
<feOffset dx="10.8098"/>
<feComposite in2="hardAlpha" operator="arithmetic" k2="-1" k3="1"/>
<feColorMatrix type="matrix" values="0 0 0 0 0 0 0 0 0 0 0 0 0 0 0 0 0 0 0.25 0"/>
<feBlend mode="normal" in2="shape" result="effect1_innerShadow"/>
<feColorMatrix in="SourceAlpha" type="matrix" values="0 0 0 0 0 0 0 0 0 0 0 0 0 0 0 0 0 0 127 0" result="hardAlpha"/>
<feOffset dx="-16.2146" dy="5.40488"/>
<feComposite in2="hardAlpha" operator="arithmetic" k2="-1" k3="1"/>
<feColorMatrix type="matrix" values="0 0 0 0 1 0 0 0 0 1 0 0 0 0 1 0 0 0 0.25 0"/>
<feBlend mode="normal" in2="effect1_innerShadow" result="effect2_innerShadow"/>
</filter>
</defs>
</svg>
