<svg width="290" height="233" viewBox="0 0 290 233" fill="none" xmlns="http://www.w3.org/2000/svg">
<g filter="url(#filter0_ii)">
<path d="M6.3772 87.8764C6.3772 78.9213 13.6367 71.6617 22.5918 71.6617H152.309C161.264 71.6617 168.524 78.9213 168.524 87.8764V195.974C168.524 204.929 161.264 212.189 152.309 212.189H22.5918C13.6367 212.189 6.3772 204.929 6.3772 195.974V87.8764Z" fill="#8A7ED9"/>
</g>
<path d="M6.3772 87.8764C6.3772 78.9213 13.6367 71.6617 22.5918 71.6617H152.309C161.264 71.6617 168.524 78.9213 168.524 87.8764V195.974C168.524 204.929 161.264 212.189 152.309 212.189H22.5918C13.6367 212.189 6.3772 204.929 6.3772 195.974V87.8764Z" stroke="#1F2024" stroke-width="5.40488"/>
<g filter="url(#filter1_i)">
<path d="M73.9382 87.8764C73.9382 78.9213 81.1978 71.6617 90.1529 71.6617H209.06C218.015 71.6617 225.275 78.9213 225.275 87.8764V195.974C225.275 204.929 218.015 212.189 209.06 212.189H90.1529C81.1978 212.189 73.9382 204.929 73.9382 195.974V87.8764Z" fill="#ADA3EE"/>
</g>
<path d="M73.9382 87.8764C73.9382 78.9213 81.1978 71.6617 90.1529 71.6617H209.06C218.015 71.6617 225.275 78.9213 225.275 87.8764V195.974C225.275 204.929 218.015 212.189 209.06 212.189H90.1529C81.1978 212.189 73.9382 204.929 73.9382 195.974V87.8764Z" stroke="#1F2024" stroke-width="5.40488"/>
<path d="M160.416 74.3643H186.089L148.255 209.486H122.582L160.416 74.3643Z" fill="white" fill-opacity="0.5"/>
<path d="M150.282 74.3643H154.336L116.502 209.486H112.448L150.282 74.3643Z" fill="white" fill-opacity="0.5"/>
<g filter="url(#filter2_ddi)">
<rect x="92.8552" y="96.6593" width="113.502" height="53.3732" rx="10.8098" fill="#1F2024"/>
<rect x="115.15" y="123.008" width="13.5122" height="16.2146" rx="2.70244" fill="#6FB2E8"/>
<rect x="170.55" y="123.008" width="13.5122" height="16.2146" rx="2.70244" fill="#6FB2E8"/>
</g>
<path d="M130.221 167.4C141.231 171.39 146.918 171.929 156.385 170.513" stroke="#1F2024" stroke-width="5.40488" stroke-linecap="round" stroke-linejoin="round"/>
<path d="M121.906 172.328C120.414 172.328 119.204 173.538 119.204 175.03C119.204 176.523 120.414 177.733 121.906 177.733V172.328ZM125.009 174.413L126.043 176.91L126.043 176.91L125.009 174.413ZM127.639 172.655L125.728 170.745L125.728 170.745L127.639 172.655ZM129.397 170.025L126.9 168.991L126.9 168.991L129.397 170.025ZM129.397 163.82L126.9 164.854L126.9 164.854L129.397 163.82ZM127.639 161.19L129.55 159.279L129.55 159.279L127.639 161.19ZM125.009 159.433L123.975 161.929L123.975 161.929L125.009 159.433ZM121.906 177.733C123.326 177.733 124.732 177.453 126.043 176.91L123.975 171.916C123.319 172.188 122.616 172.328 121.906 172.328V177.733ZM126.043 176.91C127.355 176.366 128.546 175.57 129.55 174.566L125.728 170.745C125.226 171.246 124.631 171.645 123.975 171.916L126.043 176.91ZM129.55 174.566C130.554 173.563 131.35 172.371 131.893 171.059L126.9 168.991C126.628 169.647 126.23 170.243 125.728 170.745L129.55 174.566ZM131.893 171.059C132.437 169.748 132.716 168.342 132.716 166.923H127.311C127.311 167.633 127.172 168.335 126.9 168.991L131.893 171.059ZM132.716 166.923C132.716 165.503 132.437 164.098 131.893 162.786L126.9 164.854C127.172 165.51 127.311 166.213 127.311 166.923H132.716ZM131.893 162.786C131.35 161.475 130.554 160.283 129.55 159.279L125.728 163.101C126.23 163.603 126.628 164.199 126.9 164.854L131.893 162.786ZM129.55 159.279C128.546 158.275 127.355 157.479 126.043 156.936L123.975 161.929C124.631 162.201 125.226 162.599 125.728 163.101L129.55 159.279ZM126.043 156.936C124.732 156.393 123.326 156.113 121.906 156.113V161.518C122.616 161.518 123.319 161.658 123.975 161.929L126.043 156.936Z" fill="#1F2024"/>
<g filter="url(#filter3_dii)">
<rect x="88.8015" y="73.0131" width="26.3488" height="31.078" rx="10.8098" fill="white"/>
<rect x="88.8015" y="73.0131" width="26.3488" height="31.078" rx="10.8098" stroke="#1F2024" stroke-width="5.40488"/>
</g>
<g filter="url(#filter4_dii)">
<rect x="123.258" y="73.0131" width="26.3488" height="31.078" rx="10.8098" fill="#F9E174"/>
<rect x="123.258" y="73.0131" width="26.3488" height="31.078" rx="10.8098" stroke="#1F2024" stroke-width="5.40488"/>
</g>
<g filter="url(#filter5_dii)">
<rect x="157.714" y="73.0131" width="26.3488" height="31.078" rx="10.8098" fill="white"/>
<rect x="157.714" y="73.0131" width="26.3488" height="31.078" rx="10.8098" stroke="#1F2024" stroke-width="5.40488"/>
</g>
<g filter="url(#filter6_dii)">
<rect x="192.17" y="73.0131" width="26.3488" height="31.078" rx="10.8098" fill="white"/>
<rect x="192.17" y="73.0131" width="26.3488" height="31.078" rx="10.8098" stroke="#1F2024" stroke-width="5.40488"/>
</g>
<g filter="url(#filter7_dii)">
<rect x="226.626" y="73.0131" width="26.3488" height="31.078" rx="10.8098" fill="white"/>
<rect x="226.626" y="73.0131" width="26.3488" height="31.078" rx="10.8098" stroke="#1F2024" stroke-width="5.40488"/>
</g>
<g filter="url(#filter8_dii)">
<rect x="88.8015" y="186.515" width="26.3488" height="25.6732" rx="10.8098" fill="white"/>
<rect x="88.8015" y="186.515" width="26.3488" height="25.6732" rx="10.8098" stroke="#1F2024" stroke-width="5.40488"/>
</g>
<g filter="url(#filter9_dii)">
<rect x="123.258" y="186.516" width="26.3488" height="25.6732" rx="10.8098" fill="white"/>
<rect x="123.258" y="186.516" width="26.3488" height="25.6732" rx="10.8098" stroke="#1F2024" stroke-width="5.40488"/>
</g>
<g filter="url(#filter10_dii)">
<rect x="157.714" y="186.516" width="26.3488" height="25.6732" rx="10.8098" fill="white"/>
<rect x="157.714" y="186.516" width="26.3488" height="25.6732" rx="10.8098" stroke="#1F2024" stroke-width="5.40488"/>
</g>
<g filter="url(#filter11_dii)">
<rect x="192.17" y="186.516" width="26.3488" height="25.6732" rx="10.8098" fill="#E79834"/>
<rect x="192.17" y="186.516" width="26.3488" height="25.6732" rx="10.8098" stroke="#1F2024" stroke-width="5.40488"/>
</g>
<g filter="url(#filter12_ii)">
<path fill-rule="evenodd" clip-rule="evenodd" d="M58.3992 38.5569C34.5189 38.5569 15.1602 57.9157 15.1602 81.7959V201.379C15.1602 210.334 22.4197 217.593 31.3748 217.593H207.033C215.988 217.593 223.248 210.334 223.248 201.379L93.5308 201.379C78.6057 201.379 66.5064 189.28 66.5064 174.354V109.496C66.5064 94.5708 78.6057 82.4715 93.5308 82.4715H223.248V81.7959C223.248 57.9157 203.889 38.5569 180.009 38.5569H58.3992Z" fill="#ACE5D7"/>
</g>
<path d="M223.248 201.379H225.95V198.676L223.248 198.676L223.248 201.379ZM93.5308 201.379L93.5308 204.081L93.5308 204.081L93.5308 201.379ZM223.248 82.4715V85.174H225.95V82.4715H223.248ZM17.8626 81.7959C17.8626 59.4082 36.0114 41.2593 58.3992 41.2593V35.8544C33.0264 35.8544 12.4577 56.4231 12.4577 81.7959H17.8626ZM17.8626 201.379V81.7959H12.4577V201.379H17.8626ZM31.3748 214.891C23.9122 214.891 17.8626 208.841 17.8626 201.379H12.4577C12.4577 211.826 20.9272 220.296 31.3748 220.296V214.891ZM207.033 214.891H31.3748V220.296H207.033V214.891ZM220.546 201.379C220.546 208.841 214.496 214.891 207.033 214.891V220.296C217.481 220.296 225.95 211.826 225.95 201.379H220.546ZM223.248 198.676L93.5308 198.676L93.5308 204.081L223.248 204.081L223.248 198.676ZM93.5308 198.676C80.0982 198.676 69.2089 187.787 69.2089 174.354H63.804C63.804 190.772 77.1132 204.081 93.5308 204.081V198.676ZM69.2089 174.354V109.496H63.804V174.354H69.2089ZM69.2089 109.496C69.2089 96.0633 80.0982 85.174 93.5308 85.174V79.7691C77.1131 79.7691 63.804 93.0783 63.804 109.496H69.2089ZM93.5308 85.174H223.248V79.7691H93.5308V85.174ZM220.546 81.7959V82.4715H225.95V81.7959H220.546ZM180.009 41.2593C202.397 41.2593 220.546 59.4082 220.546 81.7959H225.95C225.95 56.4231 205.382 35.8544 180.009 35.8544V41.2593ZM58.3992 41.2593H180.009V35.8544H58.3992V41.2593Z" fill="#1F2024"/>
<g filter="url(#filter13_ii)">
<path fill-rule="evenodd" clip-rule="evenodd" d="M20.565 40.5837C20.565 20.0616 37.2014 3.42517 57.7235 3.42517C70.9446 3.42517 82.5531 10.33 89.1394 20.7303C95.7257 10.33 107.334 3.42517 120.555 3.42517C140.397 3.42517 156.607 18.9773 157.659 38.5569H194.043C198.996 32.3787 206.606 28.4227 215.141 28.4227C224.396 28.4227 232.565 33.0758 237.436 40.1702C242.306 33.0758 250.475 28.4227 259.731 28.4227C274.656 28.4227 286.755 40.522 286.755 55.4471V71.6618C286.755 77.6318 281.916 82.4715 275.945 82.4715L244.196 82.4715C244.195 82.4715 244.193 82.4715 244.192 82.4715H82.7211C67.7959 82.4715 55.6967 94.5708 55.6967 109.496V174.354C55.6967 189.28 67.7959 201.379 82.7211 201.379L239.463 201.379C242.448 201.379 244.956 203.865 243.979 206.686C241.781 213.035 235.749 217.593 228.653 217.593H36.7796C18.8694 217.593 4.35034 203.074 4.35034 185.164V65.5813C4.35034 54.4995 11.0205 44.9757 20.565 40.8055V40.5837Z" fill="#75D1C1"/>
</g>
<path d="M89.1394 20.7303L86.8562 22.1762L89.1394 25.7814L91.4225 22.1762L89.1394 20.7303ZM157.659 38.5569L154.961 38.7019L155.098 41.2593H157.659V38.5569ZM194.043 38.5569V41.2593H195.341L196.152 40.2472L194.043 38.5569ZM237.436 40.1702L235.208 41.6998L237.436 44.945L239.664 41.6998L237.436 40.1702ZM275.945 82.4715L275.945 79.7691L275.945 79.7691L275.945 82.4715ZM244.196 82.4715L244.196 85.174L244.196 85.174L244.196 82.4715ZM82.7211 201.379L82.7211 204.081L82.7211 204.081L82.7211 201.379ZM239.463 201.379L239.463 198.676L239.463 198.676L239.463 201.379ZM243.979 206.686L246.533 207.57L246.533 207.57L243.979 206.686ZM20.565 40.8055L21.647 43.2819L23.2674 42.5739V40.8055H20.565ZM57.7235 0.722732C35.7089 0.722732 17.8625 18.5691 17.8625 40.5837H23.2674C23.2674 21.5541 38.6939 6.12761 57.7235 6.12761V0.722732ZM91.4225 19.2845C84.3616 8.13478 71.9091 0.722732 57.7235 0.722732V6.12761C69.9802 6.12761 80.7445 12.5253 86.8562 22.1762L91.4225 19.2845ZM120.555 0.722732C106.37 0.722732 93.9171 8.13478 86.8562 19.2845L91.4225 22.1762C97.5342 12.5253 108.299 6.12761 120.555 6.12761V0.722732ZM160.358 38.4118C159.229 17.406 141.841 0.722732 120.555 0.722732V6.12761C138.953 6.12761 153.985 20.5487 154.961 38.7019L160.358 38.4118ZM194.043 35.8544H157.659V41.2593H194.043V35.8544ZM215.141 25.7203C205.752 25.7203 197.378 30.0761 191.935 36.8666L196.152 40.2472C200.614 34.6813 207.461 31.1252 215.141 31.1252V25.7203ZM239.664 38.6407C234.311 30.8435 225.324 25.7203 215.141 25.7203V31.1252C223.468 31.1252 230.82 35.3081 235.208 41.6998L239.664 38.6407ZM259.731 25.7203C249.547 25.7203 240.561 30.8435 235.208 38.6407L239.664 41.6998C244.052 35.3081 251.403 31.1252 259.731 31.1252V25.7203ZM289.458 55.4471C289.458 39.0295 276.149 25.7203 259.731 25.7203V31.1252C273.163 31.1252 284.053 42.0145 284.053 55.4471H289.458ZM289.458 71.6618V55.4471H284.053V71.6618H289.458ZM275.945 85.1739C283.408 85.1739 289.458 79.1243 289.458 71.6618H284.053C284.053 76.1393 280.423 79.7691 275.945 79.7691V85.1739ZM244.196 85.174L275.945 85.1739L275.945 79.7691L244.196 79.7691L244.196 85.174ZM244.192 85.174C244.197 85.174 244.2 85.174 244.203 85.174C244.205 85.1739 244.207 85.1739 244.207 85.1739C244.208 85.1739 244.207 85.1739 244.205 85.1739C244.204 85.1739 244.2 85.174 244.196 85.174V79.7691C244.192 79.7691 244.188 79.7691 244.185 79.7691C244.183 79.7691 244.181 79.7691 244.181 79.7691C244.18 79.7691 244.181 79.7691 244.183 79.7691C244.185 79.7691 244.188 79.7691 244.192 79.7691V85.174ZM82.7211 85.174H244.192V79.7691H82.7211V85.174ZM58.3991 109.496C58.3991 96.0633 69.2884 85.174 82.7211 85.174V79.7691C66.3034 79.7691 52.9942 93.0783 52.9942 109.496H58.3991ZM58.3991 174.354V109.496H52.9942V174.354H58.3991ZM82.7211 198.676C69.2884 198.676 58.3991 187.787 58.3991 174.354H52.9942C52.9942 190.772 66.3034 204.081 82.7211 204.081V198.676ZM239.463 198.676L82.7211 198.676L82.7211 204.081L239.463 204.081L239.463 198.676ZM246.533 207.57C247.377 205.131 246.678 202.79 245.214 201.165C243.798 199.594 241.682 198.676 239.463 198.676V204.081C240.228 204.081 240.859 204.406 241.199 204.784C241.49 205.107 241.558 205.42 241.425 205.802L246.533 207.57ZM228.653 220.296C236.936 220.296 243.97 214.973 246.533 207.57L241.425 205.802C239.592 211.096 234.562 214.891 228.653 214.891V220.296ZM36.7796 220.296H228.653V214.891H36.7796V220.296ZM1.6479 185.164C1.6479 204.567 17.3769 220.296 36.7796 220.296V214.891C20.3619 214.891 7.05278 201.582 7.05278 185.164H1.6479ZM1.6479 65.5813V185.164H7.05278V65.5813H1.6479ZM19.483 38.3292C8.9897 42.9139 1.6479 53.3872 1.6479 65.5813H7.05278C7.05278 55.6119 13.0513 47.0376 21.647 43.2819L19.483 38.3292ZM17.8625 40.5837V40.8055H23.2674V40.5837H17.8625Z" fill="#1F2024"/>
<g filter="url(#filter14_ddi)">
<circle cx="60.7638" cy="33.4899" r="13.85" fill="white"/>
<circle cx="60.7638" cy="33.4899" r="13.85" stroke="#1F2024" stroke-width="5.40488"/>
</g>
<circle cx="63.804" cy="33.1521" r="5.40488" fill="#1F2024"/>
<g filter="url(#filter15_ddi)">
<circle cx="122.244" cy="33.4898" r="13.85" fill="white"/>
<circle cx="122.244" cy="33.4898" r="13.85" stroke="#1F2024" stroke-width="5.40488"/>
</g>
<circle cx="125.285" cy="33.1521" r="5.40488" fill="#1F2024"/>
<g filter="url(#filter16_di)">
<circle cx="259.731" cy="55.4472" r="8.10732" fill="#4A4A4E"/>
<circle cx="259.731" cy="55.4472" r="8.10732" stroke="#1F2024" stroke-width="5.40488"/>
</g>
<g filter="url(#filter17_di)">
<circle cx="215.141" cy="55.4472" r="8.10732" fill="#4A4A4E"/>
<circle cx="215.141" cy="55.4472" r="8.10732" stroke="#1F2024" stroke-width="5.40488"/>
</g>
<path d="M25.9699 87.8765C25.9699 90.8615 23.5501 93.2813 20.565 93.2813C17.58 93.2813 15.1602 90.8615 15.1602 87.8765" stroke="#1F2024" stroke-width="5.40488" stroke-linecap="round"/>
<path d="M44.8869 109.496C44.8869 112.481 42.4671 114.901 39.482 114.901C36.497 114.901 34.0771 112.481 34.0771 109.496" stroke="#1F2024" stroke-width="5.40488" stroke-linecap="round"/>
<path d="M25.9699 131.115C25.9699 134.101 23.5501 136.52 20.565 136.52C17.58 136.52 15.1602 134.101 15.1602 131.115" stroke="#1F2024" stroke-width="5.40488" stroke-linecap="round"/>
<path d="M25.9699 174.354C25.9699 177.34 23.5501 179.759 20.565 179.759C17.58 179.759 15.1602 177.34 15.1602 174.354" stroke="#1F2024" stroke-width="5.40488" stroke-linecap="round"/>
<path d="M44.8869 152.735C44.8869 155.72 42.4671 158.14 39.482 158.14C36.497 158.14 34.0771 155.72 34.0771 152.735" stroke="#1F2024" stroke-width="5.40488" stroke-linecap="round"/>
<path d="M44.8869 195.974C44.8869 198.959 42.4671 201.379 39.482 201.379C36.497 201.379 34.0771 198.959 34.0771 195.974" stroke="#1F2024" stroke-width="5.40488" stroke-linecap="round"/>
<defs>
<filter id="filter0_ii" x="3.6748" y="68.9594" width="167.551" height="145.932" filterUnits="userSpaceOnUse" color-interpolation-filters="sRGB">
<feFlood flood-opacity="0" result="BackgroundImageFix"/>
<feBlend mode="normal" in="SourceGraphic" in2="BackgroundImageFix" result="shape"/>
<feColorMatrix in="SourceAlpha" type="matrix" values="0 0 0 0 0 0 0 0 0 0 0 0 0 0 0 0 0 0 127 0" result="hardAlpha"/>
<feOffset dy="-10.8098"/>
<feComposite in2="hardAlpha" operator="arithmetic" k2="-1" k3="1"/>
<feColorMatrix type="matrix" values="0 0 0 0 0 0 0 0 0 0 0 0 0 0 0 0 0 0 0.25 0"/>
<feBlend mode="normal" in2="shape" result="effect1_innerShadow"/>
<feColorMatrix in="SourceAlpha" type="matrix" values="0 0 0 0 0 0 0 0 0 0 0 0 0 0 0 0 0 0 127 0" result="hardAlpha"/>
<feOffset dy="10.8098"/>
<feComposite in2="hardAlpha" operator="arithmetic" k2="-1" k3="1"/>
<feColorMatrix type="matrix" values="0 0 0 0 1 0 0 0 0 1 0 0 0 0 1 0 0 0 0.25 0"/>
<feBlend mode="normal" in2="effect1_innerShadow" result="effect2_innerShadow"/>
</filter>
<filter id="filter1_i" x="71.2358" y="68.9594" width="156.741" height="145.932" filterUnits="userSpaceOnUse" color-interpolation-filters="sRGB">
<feFlood flood-opacity="0" result="BackgroundImageFix"/>
<feBlend mode="normal" in="SourceGraphic" in2="BackgroundImageFix" result="shape"/>
<feColorMatrix in="SourceAlpha" type="matrix" values="0 0 0 0 0 0 0 0 0 0 0 0 0 0 0 0 0 0 127 0" result="hardAlpha"/>
<feOffset dx="-16.2146" dy="5.40488"/>
<feComposite in2="hardAlpha" operator="arithmetic" k2="-1" k3="1"/>
<feColorMatrix type="matrix" values="0 0 0 0 1 0 0 0 0 1 0 0 0 0 1 0 0 0 0.25 0"/>
<feBlend mode="normal" in2="shape" result="effect1_innerShadow"/>
</filter>
<filter id="filter2_ddi" x="90.1528" y="96.6593" width="118.907" height="53.3732" filterUnits="userSpaceOnUse" color-interpolation-filters="sRGB">
<feFlood flood-opacity="0" result="BackgroundImageFix"/>
<feColorMatrix in="SourceAlpha" type="matrix" values="0 0 0 0 0 0 0 0 0 0 0 0 0 0 0 0 0 0 127 0" result="hardAlpha"/>
<feOffset dx="-2.70244"/>
<feColorMatrix type="matrix" values="0 0 0 0 1 0 0 0 0 1 0 0 0 0 1 0 0 0 0.25 0"/>
<feBlend mode="normal" in2="BackgroundImageFix" result="effect1_dropShadow"/>
<feColorMatrix in="SourceAlpha" type="matrix" values="0 0 0 0 0 0 0 0 0 0 0 0 0 0 0 0 0 0 127 0" result="hardAlpha"/>
<feOffset dx="2.70244"/>
<feColorMatrix type="matrix" values="0 0 0 0 0 0 0 0 0 0 0 0 0 0 0 0 0 0 0.25 0"/>
<feBlend mode="normal" in2="effect1_dropShadow" result="effect2_dropShadow"/>
<feBlend mode="normal" in="SourceGraphic" in2="effect2_dropShadow" result="shape"/>
<feColorMatrix in="SourceAlpha" type="matrix" values="0 0 0 0 0 0 0 0 0 0 0 0 0 0 0 0 0 0 127 0" result="hardAlpha"/>
<feOffset dx="-2.70244"/>
<feComposite in2="hardAlpha" operator="arithmetic" k2="-1" k3="1"/>
<feColorMatrix type="matrix" values="0 0 0 0 0 0 0 0 0 0 0 0 0 0 0 0 0 0 0.25 0"/>
<feBlend mode="normal" in2="shape" result="effect3_innerShadow"/>
</filter>
<filter id="filter3_dii" x="83.3967" y="70.3107" width="34.4561" height="39.1854" filterUnits="userSpaceOnUse" color-interpolation-filters="sRGB">
<feFlood flood-opacity="0" result="BackgroundImageFix"/>
<feColorMatrix in="SourceAlpha" type="matrix" values="0 0 0 0 0 0 0 0 0 0 0 0 0 0 0 0 0 0 127 0" result="hardAlpha"/>
<feOffset dx="-2.70244" dy="2.70244"/>
<feColorMatrix type="matrix" values="0 0 0 0 0 0 0 0 0 0 0 0 0 0 0 0 0 0 0.25 0"/>
<feBlend mode="normal" in2="BackgroundImageFix" result="effect1_dropShadow"/>
<feBlend mode="normal" in="SourceGraphic" in2="effect1_dropShadow" result="shape"/>
<feColorMatrix in="SourceAlpha" type="matrix" values="0 0 0 0 0 0 0 0 0 0 0 0 0 0 0 0 0 0 127 0" result="hardAlpha"/>
<feOffset dx="10.8098"/>
<feComposite in2="hardAlpha" operator="arithmetic" k2="-1" k3="1"/>
<feColorMatrix type="matrix" values="0 0 0 0 0 0 0 0 0 0 0 0 0 0 0 0 0 0 0.25 0"/>
<feBlend mode="normal" in2="shape" result="effect2_innerShadow"/>
<feColorMatrix in="SourceAlpha" type="matrix" values="0 0 0 0 0 0 0 0 0 0 0 0 0 0 0 0 0 0 127 0" result="hardAlpha"/>
<feOffset dx="-10.8098" dy="5.40488"/>
<feComposite in2="hardAlpha" operator="arithmetic" k2="-1" k3="1"/>
<feColorMatrix type="matrix" values="0 0 0 0 1 0 0 0 0 1 0 0 0 0 1 0 0 0 0.25 0"/>
<feBlend mode="normal" in2="effect2_innerShadow" result="effect3_innerShadow"/>
</filter>
<filter id="filter4_dii" x="117.853" y="70.3107" width="34.4561" height="39.1854" filterUnits="userSpaceOnUse" color-interpolation-filters="sRGB">
<feFlood flood-opacity="0" result="BackgroundImageFix"/>
<feColorMatrix in="SourceAlpha" type="matrix" values="0 0 0 0 0 0 0 0 0 0 0 0 0 0 0 0 0 0 127 0" result="hardAlpha"/>
<feOffset dx="-2.70244" dy="2.70244"/>
<feColorMatrix type="matrix" values="0 0 0 0 0 0 0 0 0 0 0 0 0 0 0 0 0 0 0.25 0"/>
<feBlend mode="normal" in2="BackgroundImageFix" result="effect1_dropShadow"/>
<feBlend mode="normal" in="SourceGraphic" in2="effect1_dropShadow" result="shape"/>
<feColorMatrix in="SourceAlpha" type="matrix" values="0 0 0 0 0 0 0 0 0 0 0 0 0 0 0 0 0 0 127 0" result="hardAlpha"/>
<feOffset dx="10.8098"/>
<feComposite in2="hardAlpha" operator="arithmetic" k2="-1" k3="1"/>
<feColorMatrix type="matrix" values="0 0 0 0 0 0 0 0 0 0 0 0 0 0 0 0 0 0 0.25 0"/>
<feBlend mode="normal" in2="shape" result="effect2_innerShadow"/>
<feColorMatrix in="SourceAlpha" type="matrix" values="0 0 0 0 0 0 0 0 0 0 0 0 0 0 0 0 0 0 127 0" result="hardAlpha"/>
<feOffset dx="-10.8098" dy="5.40488"/>
<feComposite in2="hardAlpha" operator="arithmetic" k2="-1" k3="1"/>
<feColorMatrix type="matrix" values="0 0 0 0 1 0 0 0 0 1 0 0 0 0 1 0 0 0 0.25 0"/>
<feBlend mode="normal" in2="effect2_innerShadow" result="effect3_innerShadow"/>
</filter>
<filter id="filter5_dii" x="152.309" y="70.3107" width="34.4561" height="39.1854" filterUnits="userSpaceOnUse" color-interpolation-filters="sRGB">
<feFlood flood-opacity="0" result="BackgroundImageFix"/>
<feColorMatrix in="SourceAlpha" type="matrix" values="0 0 0 0 0 0 0 0 0 0 0 0 0 0 0 0 0 0 127 0" result="hardAlpha"/>
<feOffset dx="-2.70244" dy="2.70244"/>
<feColorMatrix type="matrix" values="0 0 0 0 0 0 0 0 0 0 0 0 0 0 0 0 0 0 0.25 0"/>
<feBlend mode="normal" in2="BackgroundImageFix" result="effect1_dropShadow"/>
<feBlend mode="normal" in="SourceGraphic" in2="effect1_dropShadow" result="shape"/>
<feColorMatrix in="SourceAlpha" type="matrix" values="0 0 0 0 0 0 0 0 0 0 0 0 0 0 0 0 0 0 127 0" result="hardAlpha"/>
<feOffset dx="10.8098"/>
<feComposite in2="hardAlpha" operator="arithmetic" k2="-1" k3="1"/>
<feColorMatrix type="matrix" values="0 0 0 0 0 0 0 0 0 0 0 0 0 0 0 0 0 0 0.25 0"/>
<feBlend mode="normal" in2="shape" result="effect2_innerShadow"/>
<feColorMatrix in="SourceAlpha" type="matrix" values="0 0 0 0 0 0 0 0 0 0 0 0 0 0 0 0 0 0 127 0" result="hardAlpha"/>
<feOffset dx="-10.8098" dy="5.40488"/>
<feComposite in2="hardAlpha" operator="arithmetic" k2="-1" k3="1"/>
<feColorMatrix type="matrix" values="0 0 0 0 1 0 0 0 0 1 0 0 0 0 1 0 0 0 0.25 0"/>
<feBlend mode="normal" in2="effect2_innerShadow" result="effect3_innerShadow"/>
</filter>
<filter id="filter6_dii" x="186.765" y="70.3107" width="34.4561" height="39.1854" filterUnits="userSpaceOnUse" color-interpolation-filters="sRGB">
<feFlood flood-opacity="0" result="BackgroundImageFix"/>
<feColorMatrix in="SourceAlpha" type="matrix" values="0 0 0 0 0 0 0 0 0 0 0 0 0 0 0 0 0 0 127 0" result="hardAlpha"/>
<feOffset dx="-2.70244" dy="2.70244"/>
<feColorMatrix type="matrix" values="0 0 0 0 0 0 0 0 0 0 0 0 0 0 0 0 0 0 0.25 0"/>
<feBlend mode="normal" in2="BackgroundImageFix" result="effect1_dropShadow"/>
<feBlend mode="normal" in="SourceGraphic" in2="effect1_dropShadow" result="shape"/>
<feColorMatrix in="SourceAlpha" type="matrix" values="0 0 0 0 0 0 0 0 0 0 0 0 0 0 0 0 0 0 127 0" result="hardAlpha"/>
<feOffset dx="10.8098"/>
<feComposite in2="hardAlpha" operator="arithmetic" k2="-1" k3="1"/>
<feColorMatrix type="matrix" values="0 0 0 0 0 0 0 0 0 0 0 0 0 0 0 0 0 0 0.25 0"/>
<feBlend mode="normal" in2="shape" result="effect2_innerShadow"/>
<feColorMatrix in="SourceAlpha" type="matrix" values="0 0 0 0 0 0 0 0 0 0 0 0 0 0 0 0 0 0 127 0" result="hardAlpha"/>
<feOffset dx="-10.8098" dy="5.40488"/>
<feComposite in2="hardAlpha" operator="arithmetic" k2="-1" k3="1"/>
<feColorMatrix type="matrix" values="0 0 0 0 1 0 0 0 0 1 0 0 0 0 1 0 0 0 0.25 0"/>
<feBlend mode="normal" in2="effect2_innerShadow" result="effect3_innerShadow"/>
</filter>
<filter id="filter7_dii" x="221.221" y="70.3107" width="34.4561" height="39.1854" filterUnits="userSpaceOnUse" color-interpolation-filters="sRGB">
<feFlood flood-opacity="0" result="BackgroundImageFix"/>
<feColorMatrix in="SourceAlpha" type="matrix" values="0 0 0 0 0 0 0 0 0 0 0 0 0 0 0 0 0 0 127 0" result="hardAlpha"/>
<feOffset dx="-2.70244" dy="2.70244"/>
<feColorMatrix type="matrix" values="0 0 0 0 0 0 0 0 0 0 0 0 0 0 0 0 0 0 0.25 0"/>
<feBlend mode="normal" in2="BackgroundImageFix" result="effect1_dropShadow"/>
<feBlend mode="normal" in="SourceGraphic" in2="effect1_dropShadow" result="shape"/>
<feColorMatrix in="SourceAlpha" type="matrix" values="0 0 0 0 0 0 0 0 0 0 0 0 0 0 0 0 0 0 127 0" result="hardAlpha"/>
<feOffset dx="10.8098"/>
<feComposite in2="hardAlpha" operator="arithmetic" k2="-1" k3="1"/>
<feColorMatrix type="matrix" values="0 0 0 0 0 0 0 0 0 0 0 0 0 0 0 0 0 0 0.25 0"/>
<feBlend mode="normal" in2="shape" result="effect2_innerShadow"/>
<feColorMatrix in="SourceAlpha" type="matrix" values="0 0 0 0 0 0 0 0 0 0 0 0 0 0 0 0 0 0 127 0" result="hardAlpha"/>
<feOffset dx="-10.8098" dy="5.40488"/>
<feComposite in2="hardAlpha" operator="arithmetic" k2="-1" k3="1"/>
<feColorMatrix type="matrix" values="0 0 0 0 1 0 0 0 0 1 0 0 0 0 1 0 0 0 0.25 0"/>
<feBlend mode="normal" in2="effect2_innerShadow" result="effect3_innerShadow"/>
</filter>
<filter id="filter8_dii" x="83.3967" y="183.813" width="34.4561" height="33.7805" filterUnits="userSpaceOnUse" color-interpolation-filters="sRGB">
<feFlood flood-opacity="0" result="BackgroundImageFix"/>
<feColorMatrix in="SourceAlpha" type="matrix" values="0 0 0 0 0 0 0 0 0 0 0 0 0 0 0 0 0 0 127 0" result="hardAlpha"/>
<feOffset dx="-2.70244" dy="2.70244"/>
<feColorMatrix type="matrix" values="0 0 0 0 0 0 0 0 0 0 0 0 0 0 0 0 0 0 0.25 0"/>
<feBlend mode="normal" in2="BackgroundImageFix" result="effect1_dropShadow"/>
<feBlend mode="normal" in="SourceGraphic" in2="effect1_dropShadow" result="shape"/>
<feColorMatrix in="SourceAlpha" type="matrix" values="0 0 0 0 0 0 0 0 0 0 0 0 0 0 0 0 0 0 127 0" result="hardAlpha"/>
<feOffset dx="10.8098"/>
<feComposite in2="hardAlpha" operator="arithmetic" k2="-1" k3="1"/>
<feColorMatrix type="matrix" values="0 0 0 0 0 0 0 0 0 0 0 0 0 0 0 0 0 0 0.25 0"/>
<feBlend mode="normal" in2="shape" result="effect2_innerShadow"/>
<feColorMatrix in="SourceAlpha" type="matrix" values="0 0 0 0 0 0 0 0 0 0 0 0 0 0 0 0 0 0 127 0" result="hardAlpha"/>
<feOffset dx="-10.8098" dy="5.40488"/>
<feComposite in2="hardAlpha" operator="arithmetic" k2="-1" k3="1"/>
<feColorMatrix type="matrix" values="0 0 0 0 1 0 0 0 0 1 0 0 0 0 1 0 0 0 0.25 0"/>
<feBlend mode="normal" in2="effect2_innerShadow" result="effect3_innerShadow"/>
</filter>
<filter id="filter9_dii" x="117.853" y="183.813" width="34.4561" height="33.7805" filterUnits="userSpaceOnUse" color-interpolation-filters="sRGB">
<feFlood flood-opacity="0" result="BackgroundImageFix"/>
<feColorMatrix in="SourceAlpha" type="matrix" values="0 0 0 0 0 0 0 0 0 0 0 0 0 0 0 0 0 0 127 0" result="hardAlpha"/>
<feOffset dx="-2.70244" dy="2.70244"/>
<feColorMatrix type="matrix" values="0 0 0 0 0 0 0 0 0 0 0 0 0 0 0 0 0 0 0.25 0"/>
<feBlend mode="normal" in2="BackgroundImageFix" result="effect1_dropShadow"/>
<feBlend mode="normal" in="SourceGraphic" in2="effect1_dropShadow" result="shape"/>
<feColorMatrix in="SourceAlpha" type="matrix" values="0 0 0 0 0 0 0 0 0 0 0 0 0 0 0 0 0 0 127 0" result="hardAlpha"/>
<feOffset dx="10.8098"/>
<feComposite in2="hardAlpha" operator="arithmetic" k2="-1" k3="1"/>
<feColorMatrix type="matrix" values="0 0 0 0 0 0 0 0 0 0 0 0 0 0 0 0 0 0 0.25 0"/>
<feBlend mode="normal" in2="shape" result="effect2_innerShadow"/>
<feColorMatrix in="SourceAlpha" type="matrix" values="0 0 0 0 0 0 0 0 0 0 0 0 0 0 0 0 0 0 127 0" result="hardAlpha"/>
<feOffset dx="-10.8098" dy="5.40488"/>
<feComposite in2="hardAlpha" operator="arithmetic" k2="-1" k3="1"/>
<feColorMatrix type="matrix" values="0 0 0 0 1 0 0 0 0 1 0 0 0 0 1 0 0 0 0.25 0"/>
<feBlend mode="normal" in2="effect2_innerShadow" result="effect3_innerShadow"/>
</filter>
<filter id="filter10_dii" x="152.309" y="183.813" width="34.4561" height="33.7805" filterUnits="userSpaceOnUse" color-interpolation-filters="sRGB">
<feFlood flood-opacity="0" result="BackgroundImageFix"/>
<feColorMatrix in="SourceAlpha" type="matrix" values="0 0 0 0 0 0 0 0 0 0 0 0 0 0 0 0 0 0 127 0" result="hardAlpha"/>
<feOffset dx="-2.70244" dy="2.70244"/>
<feColorMatrix type="matrix" values="0 0 0 0 0 0 0 0 0 0 0 0 0 0 0 0 0 0 0.25 0"/>
<feBlend mode="normal" in2="BackgroundImageFix" result="effect1_dropShadow"/>
<feBlend mode="normal" in="SourceGraphic" in2="effect1_dropShadow" result="shape"/>
<feColorMatrix in="SourceAlpha" type="matrix" values="0 0 0 0 0 0 0 0 0 0 0 0 0 0 0 0 0 0 127 0" result="hardAlpha"/>
<feOffset dx="10.8098"/>
<feComposite in2="hardAlpha" operator="arithmetic" k2="-1" k3="1"/>
<feColorMatrix type="matrix" values="0 0 0 0 0 0 0 0 0 0 0 0 0 0 0 0 0 0 0.25 0"/>
<feBlend mode="normal" in2="shape" result="effect2_innerShadow"/>
<feColorMatrix in="SourceAlpha" type="matrix" values="0 0 0 0 0 0 0 0 0 0 0 0 0 0 0 0 0 0 127 0" result="hardAlpha"/>
<feOffset dx="-10.8098" dy="5.40488"/>
<feComposite in2="hardAlpha" operator="arithmetic" k2="-1" k3="1"/>
<feColorMatrix type="matrix" values="0 0 0 0 1 0 0 0 0 1 0 0 0 0 1 0 0 0 0.25 0"/>
<feBlend mode="normal" in2="effect2_innerShadow" result="effect3_innerShadow"/>
</filter>
<filter id="filter11_dii" x="186.765" y="183.813" width="34.4561" height="33.7805" filterUnits="userSpaceOnUse" color-interpolation-filters="sRGB">
<feFlood flood-opacity="0" result="BackgroundImageFix"/>
<feColorMatrix in="SourceAlpha" type="matrix" values="0 0 0 0 0 0 0 0 0 0 0 0 0 0 0 0 0 0 127 0" result="hardAlpha"/>
<feOffset dx="-2.70244" dy="2.70244"/>
<feColorMatrix type="matrix" values="0 0 0 0 0 0 0 0 0 0 0 0 0 0 0 0 0 0 0.25 0"/>
<feBlend mode="normal" in2="BackgroundImageFix" result="effect1_dropShadow"/>
<feBlend mode="normal" in="SourceGraphic" in2="effect1_dropShadow" result="shape"/>
<feColorMatrix in="SourceAlpha" type="matrix" values="0 0 0 0 0 0 0 0 0 0 0 0 0 0 0 0 0 0 127 0" result="hardAlpha"/>
<feOffset dx="10.8098"/>
<feComposite in2="hardAlpha" operator="arithmetic" k2="-1" k3="1"/>
<feColorMatrix type="matrix" values="0 0 0 0 0 0 0 0 0 0 0 0 0 0 0 0 0 0 0.25 0"/>
<feBlend mode="normal" in2="shape" result="effect2_innerShadow"/>
<feColorMatrix in="SourceAlpha" type="matrix" values="0 0 0 0 0 0 0 0 0 0 0 0 0 0 0 0 0 0 127 0" result="hardAlpha"/>
<feOffset dx="-10.8098" dy="5.40488"/>
<feComposite in2="hardAlpha" operator="arithmetic" k2="-1" k3="1"/>
<feColorMatrix type="matrix" values="0 0 0 0 1 0 0 0 0 1 0 0 0 0 1 0 0 0 0.25 0"/>
<feBlend mode="normal" in2="effect2_innerShadow" result="effect3_innerShadow"/>
</filter>
<filter id="filter12_ii" x="12.4578" y="35.8545" width="213.493" height="184.441" filterUnits="userSpaceOnUse" color-interpolation-filters="sRGB">
<feFlood flood-opacity="0" result="BackgroundImageFix"/>
<feBlend mode="normal" in="SourceGraphic" in2="BackgroundImageFix" result="shape"/>
<feColorMatrix in="SourceAlpha" type="matrix" values="0 0 0 0 0 0 0 0 0 0 0 0 0 0 0 0 0 0 127 0" result="hardAlpha"/>
<feOffset dx="10.8098"/>
<feComposite in2="hardAlpha" operator="arithmetic" k2="-1" k3="1"/>
<feColorMatrix type="matrix" values="0 0 0 0 0 0 0 0 0 0 0 0 0 0 0 0 0 0 0.25 0"/>
<feBlend mode="normal" in2="shape" result="effect1_innerShadow"/>
<feColorMatrix in="SourceAlpha" type="matrix" values="0 0 0 0 0 0 0 0 0 0 0 0 0 0 0 0 0 0 127 0" result="hardAlpha"/>
<feOffset dx="-16.2146" dy="5.40488"/>
<feComposite in2="hardAlpha" operator="arithmetic" k2="-1" k3="1"/>
<feColorMatrix type="matrix" values="0 0 0 0 1 0 0 0 0 1 0 0 0 0 1 0 0 0 0.25 0"/>
<feBlend mode="normal" in2="effect1_innerShadow" result="effect2_innerShadow"/>
</filter>
<filter id="filter13_ii" x="1.64795" y="0.722778" width="287.81" height="219.573" filterUnits="userSpaceOnUse" color-interpolation-filters="sRGB">
<feFlood flood-opacity="0" result="BackgroundImageFix"/>
<feBlend mode="normal" in="SourceGraphic" in2="BackgroundImageFix" result="shape"/>
<feColorMatrix in="SourceAlpha" type="matrix" values="0 0 0 0 0 0 0 0 0 0 0 0 0 0 0 0 0 0 127 0" result="hardAlpha"/>
<feOffset dx="10.8098"/>
<feComposite in2="hardAlpha" operator="arithmetic" k2="-1" k3="1"/>
<feColorMatrix type="matrix" values="0 0 0 0 0 0 0 0 0 0 0 0 0 0 0 0 0 0 0.25 0"/>
<feBlend mode="normal" in2="shape" result="effect1_innerShadow"/>
<feColorMatrix in="SourceAlpha" type="matrix" values="0 0 0 0 0 0 0 0 0 0 0 0 0 0 0 0 0 0 127 0" result="hardAlpha"/>
<feOffset dx="-10.8098" dy="5.40488"/>
<feComposite in2="hardAlpha" operator="arithmetic" k2="-1" k3="1"/>
<feColorMatrix type="matrix" values="0 0 0 0 1 0 0 0 0 1 0 0 0 0 1 0 0 0 0.25 0"/>
<feBlend mode="normal" in2="effect1_innerShadow" result="effect2_innerShadow"/>
</filter>
<filter id="filter14_ddi" x="41.509" y="16.9375" width="38.5098" height="33.1049" filterUnits="userSpaceOnUse" color-interpolation-filters="sRGB">
<feFlood flood-opacity="0" result="BackgroundImageFix"/>
<feColorMatrix in="SourceAlpha" type="matrix" values="0 0 0 0 0 0 0 0 0 0 0 0 0 0 0 0 0 0 127 0" result="hardAlpha"/>
<feOffset dx="2.70244"/>
<feColorMatrix type="matrix" values="0 0 0 0 0 0 0 0 0 0 0 0 0 0 0 0 0 0 0.25 0"/>
<feBlend mode="normal" in2="BackgroundImageFix" result="effect1_dropShadow"/>
<feColorMatrix in="SourceAlpha" type="matrix" values="0 0 0 0 0 0 0 0 0 0 0 0 0 0 0 0 0 0 127 0" result="hardAlpha"/>
<feOffset dx="-2.70244"/>
<feColorMatrix type="matrix" values="0 0 0 0 1 0 0 0 0 1 0 0 0 0 1 0 0 0 0.25 0"/>
<feBlend mode="normal" in2="effect1_dropShadow" result="effect2_dropShadow"/>
<feBlend mode="normal" in="SourceGraphic" in2="effect2_dropShadow" result="shape"/>
<feColorMatrix in="SourceAlpha" type="matrix" values="0 0 0 0 0 0 0 0 0 0 0 0 0 0 0 0 0 0 127 0" result="hardAlpha"/>
<feOffset dx="10.8098"/>
<feComposite in2="hardAlpha" operator="arithmetic" k2="-1" k3="1"/>
<feColorMatrix type="matrix" values="0 0 0 0 0 0 0 0 0 0 0 0 0 0 0 0 0 0 0.25 0"/>
<feBlend mode="normal" in2="shape" result="effect3_innerShadow"/>
</filter>
<filter id="filter15_ddi" x="102.989" y="16.9374" width="38.5098" height="33.1049" filterUnits="userSpaceOnUse" color-interpolation-filters="sRGB">
<feFlood flood-opacity="0" result="BackgroundImageFix"/>
<feColorMatrix in="SourceAlpha" type="matrix" values="0 0 0 0 0 0 0 0 0 0 0 0 0 0 0 0 0 0 127 0" result="hardAlpha"/>
<feOffset dx="2.70244"/>
<feColorMatrix type="matrix" values="0 0 0 0 0 0 0 0 0 0 0 0 0 0 0 0 0 0 0.25 0"/>
<feBlend mode="normal" in2="BackgroundImageFix" result="effect1_dropShadow"/>
<feColorMatrix in="SourceAlpha" type="matrix" values="0 0 0 0 0 0 0 0 0 0 0 0 0 0 0 0 0 0 127 0" result="hardAlpha"/>
<feOffset dx="-2.70244"/>
<feColorMatrix type="matrix" values="0 0 0 0 1 0 0 0 0 1 0 0 0 0 1 0 0 0 0.25 0"/>
<feBlend mode="normal" in2="effect1_dropShadow" result="effect2_dropShadow"/>
<feBlend mode="normal" in="SourceGraphic" in2="effect2_dropShadow" result="shape"/>
<feColorMatrix in="SourceAlpha" type="matrix" values="0 0 0 0 0 0 0 0 0 0 0 0 0 0 0 0 0 0 127 0" result="hardAlpha"/>
<feOffset dx="10.8098"/>
<feComposite in2="hardAlpha" operator="arithmetic" k2="-1" k3="1"/>
<feColorMatrix type="matrix" values="0 0 0 0 0 0 0 0 0 0 0 0 0 0 0 0 0 0 0.25 0"/>
<feBlend mode="normal" in2="shape" result="effect3_innerShadow"/>
</filter>
<filter id="filter16_di" x="248.921" y="44.6375" width="24.322" height="21.6195" filterUnits="userSpaceOnUse" color-interpolation-filters="sRGB">
<feFlood flood-opacity="0" result="BackgroundImageFix"/>
<feColorMatrix in="SourceAlpha" type="matrix" values="0 0 0 0 0 0 0 0 0 0 0 0 0 0 0 0 0 0 127 0" result="hardAlpha"/>
<feOffset dx="2.70244"/>
<feColorMatrix type="matrix" values="0 0 0 0 0 0 0 0 0 0 0 0 0 0 0 0 0 0 0.25 0"/>
<feBlend mode="normal" in2="BackgroundImageFix" result="effect1_dropShadow"/>
<feBlend mode="normal" in="SourceGraphic" in2="effect1_dropShadow" result="shape"/>
<feColorMatrix in="SourceAlpha" type="matrix" values="0 0 0 0 0 0 0 0 0 0 0 0 0 0 0 0 0 0 127 0" result="hardAlpha"/>
<feOffset dx="10.8098"/>
<feComposite in2="hardAlpha" operator="arithmetic" k2="-1" k3="1"/>
<feColorMatrix type="matrix" values="0 0 0 0 0 0 0 0 0 0 0 0 0 0 0 0 0 0 0.25 0"/>
<feBlend mode="normal" in2="shape" result="effect2_innerShadow"/>
</filter>
<filter id="filter17_di" x="204.331" y="44.6375" width="24.322" height="21.6195" filterUnits="userSpaceOnUse" color-interpolation-filters="sRGB">
<feFlood flood-opacity="0" result="BackgroundImageFix"/>
<feColorMatrix in="SourceAlpha" type="matrix" values="0 0 0 0 0 0 0 0 0 0 0 0 0 0 0 0 0 0 127 0" result="hardAlpha"/>
<feOffset dx="2.70244"/>
<feColorMatrix type="matrix" values="0 0 0 0 0 0 0 0 0 0 0 0 0 0 0 0 0 0 0.25 0"/>
<feBlend mode="normal" in2="BackgroundImageFix" result="effect1_dropShadow"/>
<feBlend mode="normal" in="SourceGraphic" in2="effect1_dropShadow" result="shape"/>
<feColorMatrix in="SourceAlpha" type="matrix" values="0 0 0 0 0 0 0 0 0 0 0 0 0 0 0 0 0 0 127 0" result="hardAlpha"/>
<feOffset dx="10.8098"/>
<feComposite in2="hardAlpha" operator="arithmetic" k2="-1" k3="1"/>
<feColorMatrix type="matrix" values="0 0 0 0 0 0 0 0 0 0 0 0 0 0 0 0 0 0 0.25 0"/>
<feBlend mode="normal" in2="shape" result="effect2_innerShadow"/>
</filter>
</defs>
</svg>
