<svg width="270" height="271" viewBox="0 0 270 271" fill="none" xmlns="http://www.w3.org/2000/svg">
<g filter="url(#filter0_ii)">
<path d="M15.6846 125.876C15.6846 116.921 22.9441 109.662 31.8992 109.662H161.616C170.571 109.662 177.831 116.921 177.831 125.876V233.974C177.831 242.929 170.571 250.189 161.616 250.189H31.8992C22.9441 250.189 15.6846 242.929 15.6846 233.974L15.6846 125.876Z" fill="#4A4A57"/>
</g>
<path d="M15.6846 125.876C15.6846 116.921 22.9441 109.662 31.8992 109.662H161.616C170.571 109.662 177.831 116.921 177.831 125.876V233.974C177.831 242.929 170.571 250.189 161.616 250.189H31.8992C22.9441 250.189 15.6846 242.929 15.6846 233.974L15.6846 125.876Z" stroke="#1F2024" stroke-width="5.40488"/>
<g filter="url(#filter1_i)">
<path d="M83.2456 125.876C83.2456 116.921 90.5051 109.662 99.4602 109.662H218.368C227.323 109.662 234.582 116.921 234.582 125.876V233.974C234.582 242.929 227.323 250.189 218.368 250.189H99.4603C90.5052 250.189 83.2456 242.929 83.2456 233.974V125.876Z" fill="#676C77"/>
</g>
<path d="M83.2456 125.876C83.2456 116.921 90.5051 109.662 99.4602 109.662H218.368C227.323 109.662 234.582 116.921 234.582 125.876V233.974C234.582 242.929 227.323 250.189 218.368 250.189H99.4603C90.5052 250.189 83.2456 242.929 83.2456 233.974V125.876Z" stroke="#1F2024" stroke-width="5.40488"/>
<path d="M169.724 112.364H195.397L157.563 247.486H131.889L169.724 112.364Z" fill="white" fill-opacity="0.5"/>
<path d="M159.59 112.364H163.643L125.809 247.486H121.755L159.59 112.364Z" fill="white" fill-opacity="0.5"/>
<g filter="url(#filter2_d)">
<g filter="url(#filter3_i)">
<path d="M5.55029 140.064L73.4491 140.402V151.887L11.0095 146.955L5.55029 140.064Z" fill="#F2C95C"/>
</g>
<path d="M5.55029 140.064L73.4491 140.402V151.887L11.0095 146.955L5.55029 140.064Z" stroke="#1F2024" stroke-width="5.40488" stroke-linejoin="round"/>
<g filter="url(#filter4_i)">
<path d="M190.401 187.827L175.13 169.916C174.385 169.043 173.276 168.566 172.129 168.626C169.031 168.789 167.128 165.287 168.951 162.776L175.54 153.7C176.933 151.781 179.025 150.487 181.364 150.096L264.732 136.162C265.566 136.022 266.321 136.674 266.306 137.519L266.092 149.288C266.087 149.557 266.002 149.82 265.846 150.04C251.826 169.852 232.39 185.278 200.19 191.387C196.532 192.081 192.816 190.66 190.401 187.827Z" fill="#FF71C6"/>
</g>
<path d="M190.401 187.827L175.13 169.916C174.385 169.043 173.276 168.566 172.129 168.626C169.031 168.789 167.128 165.287 168.951 162.776L175.54 153.7C176.933 151.781 179.025 150.487 181.364 150.096L264.732 136.162C265.566 136.022 266.321 136.674 266.306 137.519L266.092 149.288C266.087 149.557 266.002 149.82 265.846 150.04C251.826 169.852 232.39 185.278 200.19 191.387C196.532 192.081 192.816 190.66 190.401 187.827Z" stroke="#1F2024" stroke-width="5.40488"/>
<g filter="url(#filter5_i)">
<path d="M151.52 190.84C170.575 171.856 181.702 156.676 192.263 134.904C194.206 130.898 190.601 126.52 186.254 127.481C146.168 136.344 113.826 141.034 74.1555 140.425C73.3997 140.414 72.7737 141.022 72.7737 141.778V147.387C72.7737 147.628 72.8314 147.855 72.9557 148.061C80.6101 160.747 107.314 184.316 141.775 193.534C145.263 194.467 148.963 193.388 151.52 190.84Z" fill="#FFFA8F"/>
</g>
<path d="M151.52 190.84C170.575 171.856 181.702 156.676 192.263 134.904C194.206 130.898 190.601 126.52 186.254 127.481C146.168 136.344 113.826 141.034 74.1555 140.425C73.3997 140.414 72.7737 141.022 72.7737 141.778V147.387C72.7737 147.628 72.8314 147.855 72.9557 148.061C80.6101 160.747 107.314 184.316 141.775 193.534C145.263 194.467 148.963 193.388 151.52 190.84Z" stroke="#1F2024" stroke-width="5.40488"/>
<path d="M163.906 164.012C163.153 156.229 90.3473 143.425 87.8367 146.689C85.3262 149.953 100.088 170.288 117.963 176.313C140.307 183.845 164.659 171.794 163.906 164.012Z" fill="#1F2024"/>
<mask id="mask0" mask-type="alpha" maskUnits="userSpaceOnUse" x="87" y="146" width="77" height="33">
<path d="M163.906 164.012C163.153 156.229 90.347 143.425 87.8365 146.689C85.326 149.953 100.088 170.288 117.963 176.313C140.307 183.845 164.659 171.794 163.906 164.012Z" fill="#1F2024"/>
</mask>
<g mask="url(#mask0)">
<path d="M129.776 133.308H135.268L109.681 187.357H104.189L129.776 133.308Z" fill="white"/>
<path d="M110.184 133.308H126.484L100.898 187.357H84.5967L110.184 133.308Z" fill="white"/>
</g>
<path d="M182.25 164.012C183.003 156.229 255.808 143.425 258.319 146.689C260.83 149.953 246.068 170.288 228.193 176.313C205.849 183.845 181.497 171.794 182.25 164.012Z" fill="#1F2024"/>
<mask id="mask1" mask-type="alpha" maskUnits="userSpaceOnUse" x="182" y="146" width="77" height="33">
<path d="M182.25 164.012C183.003 156.229 255.809 143.425 258.319 146.689C260.83 149.953 246.068 170.288 228.193 176.313C205.849 183.845 181.497 171.794 182.25 164.012Z" fill="#1F2024"/>
</mask>
<g mask="url(#mask1)">
<path d="M239.225 133.308H254.175L228.588 187.357H213.638L239.225 133.308Z" fill="white"/>
<path d="M228.415 133.308H233.906L208.319 187.357H202.828L228.415 133.308Z" fill="white"/>
</g>
</g>
<circle cx="44.0602" cy="189.384" r="24.322" fill="black" fill-opacity="0.16"/>
<g filter="url(#filter6_ii)">
<circle cx="43.3845" cy="181.952" r="24.322" fill="#676C77"/>
</g>
<circle cx="43.3845" cy="181.952" r="24.322" stroke="#1F2024" stroke-width="5.40488"/>
<g filter="url(#filter7_ii)">
<circle cx="29.8723" cy="181.952" r="16.2146" fill="#CAE9FA"/>
</g>
<circle cx="29.8723" cy="181.952" r="16.2146" stroke="#1F2024" stroke-width="5.40488"/>
<g filter="url(#filter8_i)">
<path d="M132.565 209.314C132.565 214.6 135.804 219.67 141.569 223.407C147.333 227.145 155.152 229.245 163.305 229.245C171.458 229.245 179.277 227.145 185.042 223.407C190.807 219.67 194.045 214.6 194.045 209.314L163.305 209.314L132.565 209.314Z" fill="#FE204F"/>
</g>
<path d="M132.565 209.314C132.565 214.6 135.804 219.67 141.569 223.407C147.333 227.145 155.152 229.245 163.305 229.245C171.458 229.245 179.277 227.145 185.042 223.407C190.807 219.67 194.045 214.6 194.045 209.314L163.305 209.314L132.565 209.314Z" stroke="#1F2024" stroke-width="5.40488" stroke-linejoin="round"/>
<g filter="url(#filter9_i)">
<path fill-rule="evenodd" clip-rule="evenodd" d="M163.305 196.834C163.247 196.774 163.188 196.714 163.128 196.654C159.771 193.297 155.217 191.411 150.469 191.411C145.72 191.411 141.166 193.297 137.809 196.654C134.451 200.012 132.565 204.566 132.565 209.314L150.469 209.314H158.238C158.238 209.314 158.238 209.314 158.238 209.314L176.142 209.314H194.046C194.046 204.566 192.159 200.012 188.802 196.654C185.444 193.297 180.89 191.411 176.142 191.411C171.394 191.411 166.84 193.297 163.482 196.654C163.423 196.714 163.364 196.774 163.305 196.834Z" fill="#FE204F"/>
</g>
<path d="M163.305 196.834L161.368 198.718C161.876 199.241 162.575 199.536 163.305 199.536C164.035 199.536 164.734 199.241 165.243 198.718L163.305 196.834ZM163.128 196.654L165.039 194.743L165.039 194.743L163.128 196.654ZM137.809 196.654L135.898 194.743L135.898 194.743L137.809 196.654ZM132.565 209.314H129.863C129.863 210.807 131.072 212.017 132.565 212.017L132.565 209.314ZM150.469 209.314L150.469 212.017H150.469V209.314ZM158.238 209.314H160.941C160.941 207.822 159.731 206.612 158.238 206.612V209.314ZM158.238 209.314H155.536C155.536 210.807 156.746 212.017 158.238 212.017L158.238 209.314ZM176.142 209.314L176.142 212.017H176.142V209.314ZM194.046 209.314V212.017C195.538 212.017 196.748 210.807 196.748 209.314H194.046ZM188.802 196.654L190.713 194.744L190.713 194.744L188.802 196.654ZM163.482 196.654L161.571 194.744L161.571 194.744L163.482 196.654ZM165.243 194.95C165.176 194.881 165.108 194.812 165.039 194.743L161.217 198.565C161.268 198.616 161.318 198.667 161.368 198.718L165.243 194.95ZM165.039 194.743C161.175 190.879 155.934 188.708 150.469 188.708V194.113C154.5 194.113 158.367 195.715 161.217 198.565L165.039 194.743ZM150.469 188.708C145.004 188.708 139.762 190.879 135.898 194.743L139.72 198.565C142.57 195.715 146.437 194.113 150.469 194.113V188.708ZM135.898 194.743C132.033 198.608 129.863 203.849 129.863 209.314H135.267C135.267 205.283 136.869 201.416 139.72 198.565L135.898 194.743ZM132.565 212.017L150.469 212.017L150.469 206.612L132.565 206.612L132.565 212.017ZM150.469 212.017H158.238V206.612H150.469V212.017ZM155.536 209.314C155.536 209.314 155.536 209.314 155.536 209.314C155.536 209.314 155.536 209.314 155.536 209.314C155.536 209.314 155.536 209.314 155.536 209.314C155.536 209.314 155.536 209.314 155.536 209.314C155.536 209.314 155.536 209.314 155.536 209.314C155.536 209.314 155.536 209.314 155.536 209.314C155.536 209.314 155.536 209.314 155.536 209.314C155.536 209.314 155.536 209.314 155.536 209.314C155.536 209.314 155.536 209.314 155.536 209.314C155.536 209.314 155.536 209.314 155.536 209.314C155.536 209.314 155.536 209.314 155.536 209.314C155.536 209.314 155.536 209.314 155.536 209.314C155.536 209.314 155.536 209.314 155.536 209.314C155.536 209.314 155.536 209.314 155.536 209.314C155.536 209.314 155.536 209.314 155.536 209.314C155.536 209.314 155.536 209.314 155.536 209.314C155.536 209.314 155.536 209.314 155.536 209.314C155.536 209.314 155.536 209.314 155.536 209.314C155.536 209.314 155.536 209.314 155.536 209.314C155.536 209.314 155.536 209.314 155.536 209.314C155.536 209.314 155.536 209.314 155.536 209.314C155.536 209.314 155.536 209.314 155.536 209.314C155.536 209.314 155.536 209.314 155.536 209.314C155.536 209.314 155.536 209.314 155.536 209.314C155.536 209.314 155.536 209.314 155.536 209.314C155.536 209.314 155.536 209.314 155.536 209.314C155.536 209.314 155.536 209.314 155.536 209.314C155.536 209.314 155.536 209.314 155.536 209.314C155.536 209.314 155.536 209.314 155.536 209.314C155.536 209.314 155.536 209.314 155.536 209.314C155.536 209.314 155.536 209.314 155.536 209.314C155.536 209.314 155.536 209.314 155.536 209.314C155.536 209.314 155.536 209.314 155.536 209.314C155.536 209.314 155.536 209.314 155.536 209.314C155.536 209.314 155.536 209.314 155.536 209.314C155.536 209.314 155.536 209.314 155.536 209.314C155.536 209.314 155.536 209.314 155.536 209.314C155.536 209.314 155.536 209.314 155.536 209.314C155.536 209.314 155.536 209.314 155.536 209.314C155.536 209.314 155.536 209.314 155.536 209.314C155.536 209.314 155.536 209.314 155.536 209.314C155.536 209.314 155.536 209.314 155.536 209.314C155.536 209.314 155.536 209.314 155.536 209.314C155.536 209.314 155.536 209.314 155.536 209.314C155.536 209.314 155.536 209.314 155.536 209.314C155.536 209.314 155.536 209.314 155.536 209.314C155.536 209.314 155.536 209.314 155.536 209.314C155.536 209.314 155.536 209.314 155.536 209.314C155.536 209.314 155.536 209.314 155.536 209.314C155.536 209.314 155.536 209.314 155.536 209.314C155.536 209.314 155.536 209.314 155.536 209.314C155.536 209.314 155.536 209.314 155.536 209.314C155.536 209.314 155.536 209.314 155.536 209.314C155.536 209.314 155.536 209.314 155.536 209.314C155.536 209.314 155.536 209.314 155.536 209.314C155.536 209.314 155.536 209.314 155.536 209.314C155.536 209.314 155.536 209.314 155.536 209.314C155.536 209.314 155.536 209.314 155.536 209.314C155.536 209.314 155.536 209.314 155.536 209.314C155.536 209.314 155.536 209.314 155.536 209.314C155.536 209.314 155.536 209.314 155.536 209.314C155.536 209.314 155.536 209.314 155.536 209.314C155.536 209.314 155.536 209.314 155.536 209.314C155.536 209.314 155.536 209.314 155.536 209.314C155.536 209.314 155.536 209.314 155.536 209.314C155.536 209.314 155.536 209.314 155.536 209.314C155.536 209.314 155.536 209.314 155.536 209.314C155.536 209.314 155.536 209.314 155.536 209.314C155.536 209.314 155.536 209.314 155.536 209.314C155.536 209.314 155.536 209.314 155.536 209.314C155.536 209.314 155.536 209.314 155.536 209.314C155.536 209.314 155.536 209.314 155.536 209.314C155.536 209.314 155.536 209.314 155.536 209.314C155.536 209.314 155.536 209.314 155.536 209.314C155.536 209.314 155.536 209.314 155.536 209.314C155.536 209.314 155.536 209.314 155.536 209.314C155.536 209.314 155.536 209.314 155.536 209.314C155.536 209.314 155.536 209.314 155.536 209.314C155.536 209.314 155.536 209.314 155.536 209.314C155.536 209.314 155.536 209.314 155.536 209.314C155.536 209.314 155.536 209.314 155.536 209.314C155.536 209.314 155.536 209.314 155.536 209.314C155.536 209.314 155.536 209.314 155.536 209.314C155.536 209.314 155.536 209.314 155.536 209.314C155.536 209.314 155.536 209.314 155.536 209.314C155.536 209.314 155.536 209.314 155.536 209.314C155.536 209.314 155.536 209.314 155.536 209.314C155.536 209.314 155.536 209.314 155.536 209.314C155.536 209.314 155.536 209.314 155.536 209.314C155.536 209.314 155.536 209.314 155.536 209.314C155.536 209.314 155.536 209.314 155.536 209.314C155.536 209.314 155.536 209.314 155.536 209.314C155.536 209.314 155.536 209.314 155.536 209.314C155.536 209.314 155.536 209.314 155.536 209.314C155.536 209.314 155.536 209.314 155.536 209.314C155.536 209.314 155.536 209.314 155.536 209.314C155.536 209.314 155.536 209.314 155.536 209.314C155.536 209.314 155.536 209.314 155.536 209.314C155.536 209.314 155.536 209.314 155.536 209.314C155.536 209.314 155.536 209.314 155.536 209.314C155.536 209.314 155.536 209.314 155.536 209.314C155.536 209.314 155.536 209.314 155.536 209.314C155.536 209.314 155.536 209.314 155.536 209.314C155.536 209.314 155.536 209.314 155.536 209.314C155.536 209.314 155.536 209.314 155.536 209.314C155.536 209.314 155.536 209.314 155.536 209.314C155.536 209.314 155.536 209.314 155.536 209.314C155.536 209.314 155.536 209.314 155.536 209.314C155.536 209.314 155.536 209.314 155.536 209.314C155.536 209.314 155.536 209.314 155.536 209.314C155.536 209.314 155.536 209.314 155.536 209.314C155.536 209.314 155.536 209.314 155.536 209.314C155.536 209.314 155.536 209.314 155.536 209.314C155.536 209.314 155.536 209.314 155.536 209.314C155.536 209.314 155.536 209.314 155.536 209.314C155.536 209.314 155.536 209.314 155.536 209.314C155.536 209.314 155.536 209.314 155.536 209.314C155.536 209.314 155.536 209.314 155.536 209.314C155.536 209.314 155.536 209.314 155.536 209.314C155.536 209.314 155.536 209.314 155.536 209.314C155.536 209.314 155.536 209.314 155.536 209.314C155.536 209.314 155.536 209.314 155.536 209.314C155.536 209.314 155.536 209.314 155.536 209.314C155.536 209.314 155.536 209.314 155.536 209.314C155.536 209.314 155.536 209.314 155.536 209.314C155.536 209.314 155.536 209.314 155.536 209.314C155.536 209.314 155.536 209.314 155.536 209.314C155.536 209.314 155.536 209.314 155.536 209.314C155.536 209.314 155.536 209.314 155.536 209.314C155.536 209.314 155.536 209.314 155.536 209.314C155.536 209.314 155.536 209.314 155.536 209.314C155.536 209.314 155.536 209.314 155.536 209.314C155.536 209.314 155.536 209.314 155.536 209.314C155.536 209.314 155.536 209.314 155.536 209.314C155.536 209.314 155.536 209.314 155.536 209.314C155.536 209.314 155.536 209.314 155.536 209.314C155.536 209.314 155.536 209.314 155.536 209.314C155.536 209.314 155.536 209.314 155.536 209.314C155.536 209.314 155.536 209.314 155.536 209.314C155.536 209.314 155.536 209.314 155.536 209.314C155.536 209.314 155.536 209.314 155.536 209.314C155.536 209.314 155.536 209.314 155.536 209.314C155.536 209.314 155.536 209.314 155.536 209.314C155.536 209.314 155.536 209.314 155.536 209.314C155.536 209.314 155.536 209.314 155.536 209.314C155.536 209.314 155.536 209.314 155.536 209.314C155.536 209.314 155.536 209.314 155.536 209.314C155.536 209.314 155.536 209.314 155.536 209.314C155.536 209.314 155.536 209.314 155.536 209.314C155.536 209.314 155.536 209.314 155.536 209.314C155.536 209.314 155.536 209.314 155.536 209.314C155.536 209.314 155.536 209.314 155.536 209.314C155.536 209.314 155.536 209.314 155.536 209.314C155.536 209.314 155.536 209.314 155.536 209.314C155.536 209.314 155.536 209.314 155.536 209.314C155.536 209.314 155.536 209.314 155.536 209.314C155.536 209.314 155.536 209.314 155.536 209.314C155.536 209.314 155.536 209.314 155.536 209.314C155.536 209.314 155.536 209.314 155.536 209.314C155.536 209.314 155.536 209.314 155.536 209.314C155.536 209.314 155.536 209.314 155.536 209.314C155.536 209.314 155.536 209.314 155.536 209.314C155.536 209.314 155.536 209.314 155.536 209.314C155.536 209.314 155.536 209.314 155.536 209.314C155.536 209.314 155.536 209.314 155.536 209.314C155.536 209.314 155.536 209.314 155.536 209.314C155.536 209.314 155.536 209.314 155.536 209.314C155.536 209.314 155.536 209.314 155.536 209.314C155.536 209.314 155.536 209.314 155.536 209.314C155.536 209.314 155.536 209.314 155.536 209.314C155.536 209.314 155.536 209.314 155.536 209.314C155.536 209.314 155.536 209.314 155.536 209.314C155.536 209.314 155.536 209.314 155.536 209.314C155.536 209.314 155.536 209.314 155.536 209.314C155.536 209.314 155.536 209.314 155.536 209.314C155.536 209.314 155.536 209.314 155.536 209.314C155.536 209.314 155.536 209.314 155.536 209.314C155.536 209.314 155.536 209.314 155.536 209.314C155.536 209.314 155.536 209.314 155.536 209.314C155.536 209.314 155.536 209.314 155.536 209.314C155.536 209.314 155.536 209.314 155.536 209.314C155.536 209.314 155.536 209.314 155.536 209.314C155.536 209.314 155.536 209.314 155.536 209.314C155.536 209.314 155.536 209.314 155.536 209.314C155.536 209.314 155.536 209.314 155.536 209.314C155.536 209.314 155.536 209.314 155.536 209.314C155.536 209.314 155.536 209.314 155.536 209.314C155.536 209.314 155.536 209.314 155.536 209.314C155.536 209.314 155.536 209.314 155.536 209.314C155.536 209.314 155.536 209.314 155.536 209.314C155.536 209.314 155.536 209.314 155.536 209.314C155.536 209.314 155.536 209.314 155.536 209.314C155.536 209.314 155.536 209.314 155.536 209.314C155.536 209.314 155.536 209.314 155.536 209.314C155.536 209.314 155.536 209.314 155.536 209.314C155.536 209.314 155.536 209.314 155.536 209.314C155.536 209.314 155.536 209.314 155.536 209.314C155.536 209.314 155.536 209.314 155.536 209.314C155.536 209.314 155.536 209.314 155.536 209.314C155.536 209.314 155.536 209.314 155.536 209.314C155.536 209.314 155.536 209.314 155.536 209.314C155.536 209.314 155.536 209.314 155.536 209.314C155.536 209.314 155.536 209.314 155.536 209.314C155.536 209.314 155.536 209.314 155.536 209.314C155.536 209.314 155.536 209.314 155.536 209.314C155.536 209.314 155.536 209.314 155.536 209.314C155.536 209.314 155.536 209.314 155.536 209.314C155.536 209.314 155.536 209.314 155.536 209.314C155.536 209.314 155.536 209.314 155.536 209.314C155.536 209.314 155.536 209.314 155.536 209.314C155.536 209.314 155.536 209.314 155.536 209.314C155.536 209.314 155.536 209.314 155.536 209.314C155.536 209.314 155.536 209.314 155.536 209.314C155.536 209.314 155.536 209.314 155.536 209.314C155.536 209.314 155.536 209.314 155.536 209.314C155.536 209.314 155.536 209.314 155.536 209.314C155.536 209.314 155.536 209.314 155.536 209.314C155.536 209.314 155.536 209.314 155.536 209.314C155.536 209.314 155.536 209.314 155.536 209.314C155.536 209.314 155.536 209.314 155.536 209.314C155.536 209.314 155.536 209.314 155.536 209.314C155.536 209.314 155.536 209.314 155.536 209.314C155.536 209.314 155.536 209.314 155.536 209.314C155.536 209.314 155.536 209.314 155.536 209.314C155.536 209.314 155.536 209.314 155.536 209.314C155.536 209.314 155.536 209.314 155.536 209.314C155.536 209.314 155.536 209.314 155.536 209.314C155.536 209.314 155.536 209.314 155.536 209.314C155.536 209.314 155.536 209.314 155.536 209.314C155.536 209.314 155.536 209.314 155.536 209.314C155.536 209.314 155.536 209.314 155.536 209.314C155.536 209.314 155.536 209.314 155.536 209.314C155.536 209.314 155.536 209.314 155.536 209.314C155.536 209.314 155.536 209.314 155.536 209.314C155.536 209.314 155.536 209.314 155.536 209.314C155.536 209.314 155.536 209.314 155.536 209.314C155.536 209.314 155.536 209.314 155.536 209.314C155.536 209.314 155.536 209.314 155.536 209.314C155.536 209.314 155.536 209.314 155.536 209.314C155.536 209.314 155.536 209.314 155.536 209.314C155.536 209.314 155.536 209.314 155.536 209.314C155.536 209.314 155.536 209.314 155.536 209.314C155.536 209.314 155.536 209.314 155.536 209.314C155.536 209.314 155.536 209.314 155.536 209.314C155.536 209.314 155.536 209.314 155.536 209.314C155.536 209.314 155.536 209.314 155.536 209.314C155.536 209.314 155.536 209.314 155.536 209.314C155.536 209.314 155.536 209.314 155.536 209.314C155.536 209.314 155.536 209.314 155.536 209.314C155.536 209.314 155.536 209.314 155.536 209.314C155.536 209.314 155.536 209.314 155.536 209.314C155.536 209.314 155.536 209.314 155.536 209.314C155.536 209.314 155.536 209.314 155.536 209.314C155.536 209.314 155.536 209.314 155.536 209.314C155.536 209.314 155.536 209.314 155.536 209.314C155.536 209.314 155.536 209.314 155.536 209.314C155.536 209.314 155.536 209.314 155.536 209.314C155.536 209.314 155.536 209.314 155.536 209.314C155.536 209.314 155.536 209.314 155.536 209.314C155.536 209.314 155.536 209.314 155.536 209.314C155.536 209.314 155.536 209.314 155.536 209.314C155.536 209.314 155.536 209.314 155.536 209.314C155.536 209.314 155.536 209.314 155.536 209.314C155.536 209.314 155.536 209.314 155.536 209.314C155.536 209.314 155.536 209.314 155.536 209.314C155.536 209.314 155.536 209.314 155.536 209.314C155.536 209.314 155.536 209.314 155.536 209.314C155.536 209.314 155.536 209.314 155.536 209.314C155.536 209.314 155.536 209.314 155.536 209.314C155.536 209.314 155.536 209.314 155.536 209.314C155.536 209.314 155.536 209.314 155.536 209.314C155.536 209.314 155.536 209.314 155.536 209.314C155.536 209.314 155.536 209.314 155.536 209.314C155.536 209.314 155.536 209.314 155.536 209.314C155.536 209.314 155.536 209.314 155.536 209.314C155.536 209.314 155.536 209.314 155.536 209.314C155.536 209.314 155.536 209.314 155.536 209.314C155.536 209.314 155.536 209.314 155.536 209.314C155.536 209.314 155.536 209.314 155.536 209.314C155.536 209.314 155.536 209.314 155.536 209.314C155.536 209.314 155.536 209.314 155.536 209.314C155.536 209.314 155.536 209.314 155.536 209.314C155.536 209.314 155.536 209.314 155.536 209.314C155.536 209.314 155.536 209.314 155.536 209.314C155.536 209.314 155.536 209.314 155.536 209.314C155.536 209.314 155.536 209.314 155.536 209.314C155.536 209.314 155.536 209.314 155.536 209.314C155.536 209.314 155.536 209.314 155.536 209.314C155.536 209.314 155.536 209.314 155.536 209.314C155.536 209.314 155.536 209.314 155.536 209.314C155.536 209.314 155.536 209.314 155.536 209.314C155.536 209.314 155.536 209.314 155.536 209.314C155.536 209.314 155.536 209.314 155.536 209.314C155.536 209.314 155.536 209.314 155.536 209.314C155.536 209.314 155.536 209.314 155.536 209.314C155.536 209.314 155.536 209.314 155.536 209.314C155.536 209.314 155.536 209.314 155.536 209.314C155.536 209.314 155.536 209.314 155.536 209.314C155.536 209.314 155.536 209.314 155.536 209.314C155.536 209.314 155.536 209.314 155.536 209.314C155.536 209.314 155.536 209.314 155.536 209.314C155.536 209.314 155.536 209.314 155.536 209.314C155.536 209.314 155.536 209.314 155.536 209.314C155.536 209.314 155.536 209.314 155.536 209.314C155.536 209.314 155.536 209.314 155.536 209.314C155.536 209.314 155.536 209.314 155.536 209.314C155.536 209.314 155.536 209.314 155.536 209.314C155.536 209.314 155.536 209.314 155.536 209.314C155.536 209.314 155.536 209.314 155.536 209.314C155.536 209.314 155.536 209.314 155.536 209.314C155.536 209.314 155.536 209.314 155.536 209.314C155.536 209.314 155.536 209.314 155.536 209.314C155.536 209.314 155.536 209.314 155.536 209.314C155.536 209.314 155.536 209.314 155.536 209.314C155.536 209.314 155.536 209.314 155.536 209.314C155.536 209.314 155.536 209.314 155.536 209.314C155.536 209.314 155.536 209.314 155.536 209.314C155.536 209.314 155.536 209.314 155.536 209.314C155.536 209.314 155.536 209.314 155.536 209.314C155.536 209.314 155.536 209.314 155.536 209.314C155.536 209.314 155.536 209.314 155.536 209.314C155.536 209.314 155.536 209.314 155.536 209.314C155.536 209.314 155.536 209.314 155.536 209.314C155.536 209.314 155.536 209.314 155.536 209.314C155.536 209.314 155.536 209.314 155.536 209.314C155.536 209.314 155.536 209.314 155.536 209.314C155.536 209.314 155.536 209.314 155.536 209.314C155.536 209.314 155.536 209.314 155.536 209.314C155.536 209.314 155.536 209.314 155.536 209.314C155.536 209.314 155.536 209.314 155.536 209.314C155.536 209.314 155.536 209.314 155.536 209.314C155.536 209.314 155.536 209.314 155.536 209.314C155.536 209.314 155.536 209.314 155.536 209.314C155.536 209.314 155.536 209.314 155.536 209.314C155.536 209.314 155.536 209.314 155.536 209.314C155.536 209.314 155.536 209.314 155.536 209.314C155.536 209.314 155.536 209.314 155.536 209.314C155.536 209.314 155.536 209.314 155.536 209.314C155.536 209.314 155.536 209.314 155.536 209.314C155.536 209.314 155.536 209.314 155.536 209.314C155.536 209.314 155.536 209.314 155.536 209.314C155.536 209.314 155.536 209.314 155.536 209.314C155.536 209.314 155.536 209.314 155.536 209.314C155.536 209.314 155.536 209.314 155.536 209.314C155.536 209.314 155.536 209.314 155.536 209.314C155.536 209.314 155.536 209.314 155.536 209.314C155.536 209.314 155.536 209.314 155.536 209.314C155.536 209.314 155.536 209.314 155.536 209.314C155.536 209.314 155.536 209.314 155.536 209.314C155.536 209.314 155.536 209.314 155.536 209.314C155.536 209.314 155.536 209.314 155.536 209.314C155.536 209.314 155.536 209.314 155.536 209.314C155.536 209.314 155.536 209.314 155.536 209.314C155.536 209.314 155.536 209.314 155.536 209.314C155.536 209.314 155.536 209.314 155.536 209.314C155.536 209.314 155.536 209.314 155.536 209.314C155.536 209.314 155.536 209.314 155.536 209.314C155.536 209.314 155.536 209.314 155.536 209.314C155.536 209.314 155.536 209.314 155.536 209.314C155.536 209.314 155.536 209.314 155.536 209.314C155.536 209.314 155.536 209.314 155.536 209.314C155.536 209.314 155.536 209.314 155.536 209.314C155.536 209.314 155.536 209.314 155.536 209.314C155.536 209.314 155.536 209.314 155.536 209.314C155.536 209.314 155.536 209.314 155.536 209.314C155.536 209.314 155.536 209.314 155.536 209.314C155.536 209.314 155.536 209.314 155.536 209.314C155.536 209.314 155.536 209.314 155.536 209.314C155.536 209.314 155.536 209.314 155.536 209.314C155.536 209.314 155.536 209.314 155.536 209.314C155.536 209.314 155.536 209.314 155.536 209.314C155.536 209.314 155.536 209.314 155.536 209.314C155.536 209.314 155.536 209.314 155.536 209.314C155.536 209.314 155.536 209.314 155.536 209.314C155.536 209.314 155.536 209.314 155.536 209.314C155.536 209.314 155.536 209.314 155.536 209.314C155.536 209.314 155.536 209.314 155.536 209.314C155.536 209.314 155.536 209.314 155.536 209.314C155.536 209.314 155.536 209.314 155.536 209.314C155.536 209.314 155.536 209.314 155.536 209.314C155.536 209.314 155.536 209.314 155.536 209.314C155.536 209.314 155.536 209.314 155.536 209.314C155.536 209.314 155.536 209.314 155.536 209.314C155.536 209.314 155.536 209.314 155.536 209.314C155.536 209.314 155.536 209.314 155.536 209.314C155.536 209.314 155.536 209.314 155.536 209.314C155.536 209.314 155.536 209.314 155.536 209.314C155.536 209.314 155.536 209.314 155.536 209.314C155.536 209.314 155.536 209.314 155.536 209.314C155.536 209.314 155.536 209.314 155.536 209.314C155.536 209.314 155.536 209.314 155.536 209.314C155.536 209.314 155.536 209.314 155.536 209.314C155.536 209.314 155.536 209.314 155.536 209.314C155.536 209.314 155.536 209.314 155.536 209.314C155.536 209.314 155.536 209.314 155.536 209.314C155.536 209.314 155.536 209.314 155.536 209.314C155.536 209.314 155.536 209.314 155.536 209.314C155.536 209.314 155.536 209.314 155.536 209.314C155.536 209.314 155.536 209.314 155.536 209.314C155.536 209.314 155.536 209.314 155.536 209.314C155.536 209.314 155.536 209.314 155.536 209.314C155.536 209.314 155.536 209.314 155.536 209.314C155.536 209.314 155.536 209.314 155.536 209.314C155.536 209.314 155.536 209.314 155.536 209.314C155.536 209.314 155.536 209.314 155.536 209.314C155.536 209.314 155.536 209.314 155.536 209.314C155.536 209.314 155.536 209.314 155.536 209.314C155.536 209.314 155.536 209.314 155.536 209.314C155.536 209.314 155.536 209.314 155.536 209.314C155.536 209.314 155.536 209.314 155.536 209.314C155.536 209.314 155.536 209.314 155.536 209.314C155.536 209.314 155.536 209.314 155.536 209.314C155.536 209.314 155.536 209.314 155.536 209.314C155.536 209.314 155.536 209.314 155.536 209.314C155.536 209.314 155.536 209.314 155.536 209.314C155.536 209.314 155.536 209.314 155.536 209.314C155.536 209.314 155.536 209.314 155.536 209.314C155.536 209.314 155.536 209.314 155.536 209.314C155.536 209.314 155.536 209.314 155.536 209.314C155.536 209.314 155.536 209.314 155.536 209.314C155.536 209.314 155.536 209.314 155.536 209.314C155.536 209.314 155.536 209.314 155.536 209.314C155.536 209.314 155.536 209.314 155.536 209.314C155.536 209.314 155.536 209.314 155.536 209.314C155.536 209.314 155.536 209.314 155.536 209.314C155.536 209.314 155.536 209.314 155.536 209.314C155.536 209.314 155.536 209.314 155.536 209.314C155.536 209.314 155.536 209.314 155.536 209.314C155.536 209.314 155.536 209.314 155.536 209.314C155.536 209.314 155.536 209.314 155.536 209.314C155.536 209.314 155.536 209.314 155.536 209.314C155.536 209.314 155.536 209.314 155.536 209.314C155.536 209.314 155.536 209.314 155.536 209.314C155.536 209.314 155.536 209.314 155.536 209.314C155.536 209.314 155.536 209.314 155.536 209.314C155.536 209.314 155.536 209.314 155.536 209.314C155.536 209.314 155.536 209.314 155.536 209.314C155.536 209.314 155.536 209.314 155.536 209.314C155.536 209.314 155.536 209.314 155.536 209.314C155.536 209.314 155.536 209.314 155.536 209.314C155.536 209.314 155.536 209.314 155.536 209.314C155.536 209.314 155.536 209.314 155.536 209.314C155.536 209.314 155.536 209.314 155.536 209.314C155.536 209.314 155.536 209.314 155.536 209.314C155.536 209.314 155.536 209.314 155.536 209.314C155.536 209.314 155.536 209.314 155.536 209.314C155.536 209.314 155.536 209.314 155.536 209.314C155.536 209.314 155.536 209.314 155.536 209.314C155.536 209.314 155.536 209.314 155.536 209.314C155.536 209.314 155.536 209.314 155.536 209.314C155.536 209.314 155.536 209.314 155.536 209.314C155.536 209.314 155.536 209.314 155.536 209.314C155.536 209.314 155.536 209.314 155.536 209.314C155.536 209.314 155.536 209.314 155.536 209.314C155.536 209.314 155.536 209.314 155.536 209.314C155.536 209.314 155.536 209.314 155.536 209.314C155.536 209.314 155.536 209.314 155.536 209.314C155.536 209.314 155.536 209.314 155.536 209.314C155.536 209.314 155.536 209.314 155.536 209.314C155.536 209.314 155.536 209.314 155.536 209.314C155.536 209.314 155.536 209.314 155.536 209.314C155.536 209.314 155.536 209.314 155.536 209.314C155.536 209.314 155.536 209.314 155.536 209.314C155.536 209.314 155.536 209.314 155.536 209.314C155.536 209.314 155.536 209.314 155.536 209.314C155.536 209.314 155.536 209.314 155.536 209.314C155.536 209.314 155.536 209.314 155.536 209.314C155.536 209.314 155.536 209.314 155.536 209.314C155.536 209.314 155.536 209.314 155.536 209.314C155.536 209.314 155.536 209.314 155.536 209.314C155.536 209.314 155.536 209.314 155.536 209.314C155.536 209.314 155.536 209.314 155.536 209.314C155.536 209.314 155.536 209.314 155.536 209.314C155.536 209.314 155.536 209.314 155.536 209.314C155.536 209.314 155.536 209.314 155.536 209.314C155.536 209.314 155.536 209.314 155.536 209.314C155.536 209.314 155.536 209.314 155.536 209.314C155.536 209.314 155.536 209.314 155.536 209.314C155.536 209.314 155.536 209.314 155.536 209.314C155.536 209.314 155.536 209.314 155.536 209.314C155.536 209.314 155.536 209.314 155.536 209.314C155.536 209.314 155.536 209.314 155.536 209.314C155.536 209.314 155.536 209.314 155.536 209.314C155.536 209.314 155.536 209.314 155.536 209.314C155.536 209.314 155.536 209.314 155.536 209.314C155.536 209.314 155.536 209.314 155.536 209.314C155.536 209.314 155.536 209.314 155.536 209.314C155.536 209.314 155.536 209.314 155.536 209.314C155.536 209.314 155.536 209.314 155.536 209.314C155.536 209.314 155.536 209.314 155.536 209.314C155.536 209.314 155.536 209.314 155.536 209.314C155.536 209.314 155.536 209.314 155.536 209.314C155.536 209.314 155.536 209.314 155.536 209.314C155.536 209.314 155.536 209.314 155.536 209.314C155.536 209.314 155.536 209.314 155.536 209.314C155.536 209.314 155.536 209.314 155.536 209.314C155.536 209.314 155.536 209.314 155.536 209.314C155.536 209.314 155.536 209.314 155.536 209.314C155.536 209.314 155.536 209.314 155.536 209.314C155.536 209.314 155.536 209.314 155.536 209.314C155.536 209.314 155.536 209.314 155.536 209.314C155.536 209.314 155.536 209.314 155.536 209.314C155.536 209.314 155.536 209.314 155.536 209.314C155.536 209.314 155.536 209.314 155.536 209.314C155.536 209.314 155.536 209.314 155.536 209.314C155.536 209.314 155.536 209.314 155.536 209.314C155.536 209.314 155.536 209.314 155.536 209.314C155.536 209.314 155.536 209.314 155.536 209.314C155.536 209.314 155.536 209.314 155.536 209.314C155.536 209.314 155.536 209.314 155.536 209.314C155.536 209.314 155.536 209.314 155.536 209.314C155.536 209.314 155.536 209.314 155.536 209.314H160.941C160.941 209.314 160.941 209.314 160.941 209.314C160.941 209.314 160.941 209.314 160.941 209.314C160.941 209.314 160.941 209.314 160.941 209.314C160.941 209.314 160.941 209.314 160.941 209.314C160.941 209.314 160.941 209.314 160.941 209.314C160.941 209.314 160.941 209.314 160.941 209.314C160.941 209.314 160.941 209.314 160.941 209.314C160.941 209.314 160.941 209.314 160.941 209.314C160.941 209.314 160.941 209.314 160.941 209.314C160.941 209.314 160.941 209.314 160.941 209.314C160.941 209.314 160.941 209.314 160.941 209.314C160.941 209.314 160.941 209.314 160.941 209.314C160.941 209.314 160.941 209.314 160.941 209.314C160.941 209.314 160.941 209.314 160.941 209.314C160.941 209.314 160.941 209.314 160.941 209.314C160.941 209.314 160.941 209.314 160.941 209.314C160.941 209.314 160.941 209.314 160.941 209.314C160.941 209.314 160.941 209.314 160.941 209.314C160.941 209.314 160.941 209.314 160.941 209.314C160.941 209.314 160.941 209.314 160.941 209.314C160.941 209.314 160.941 209.314 160.941 209.314C160.941 209.314 160.941 209.314 160.941 209.314C160.941 209.314 160.941 209.314 160.941 209.314C160.941 209.314 160.941 209.314 160.941 209.314C160.941 209.314 160.941 209.314 160.941 209.314C160.941 209.314 160.941 209.314 160.941 209.314C160.941 209.314 160.941 209.314 160.941 209.314C160.941 209.314 160.941 209.314 160.941 209.314C160.941 209.314 160.941 209.314 160.941 209.314C160.941 209.314 160.941 209.314 160.941 209.314C160.941 209.314 160.941 209.314 160.941 209.314C160.941 209.314 160.941 209.314 160.941 209.314C160.941 209.314 160.941 209.314 160.941 209.314C160.941 209.314 160.941 209.314 160.941 209.314C160.941 209.314 160.941 209.314 160.941 209.314C160.941 209.314 160.941 209.314 160.941 209.314C160.941 209.314 160.941 209.314 160.941 209.314C160.941 209.314 160.941 209.314 160.941 209.314C160.941 209.314 160.941 209.314 160.941 209.314C160.941 209.314 160.941 209.314 160.941 209.314C160.941 209.314 160.941 209.314 160.941 209.314C160.941 209.314 160.941 209.314 160.941 209.314C160.941 209.314 160.941 209.314 160.941 209.314C160.941 209.314 160.941 209.314 160.941 209.314C160.941 209.314 160.941 209.314 160.941 209.314C160.941 209.314 160.941 209.314 160.941 209.314C160.941 209.314 160.941 209.314 160.941 209.314C160.941 209.314 160.941 209.314 160.941 209.314C160.941 209.314 160.941 209.314 160.941 209.314C160.941 209.314 160.941 209.314 160.941 209.314C160.941 209.314 160.941 209.314 160.941 209.314C160.941 209.314 160.941 209.314 160.941 209.314C160.941 209.314 160.941 209.314 160.941 209.314C160.941 209.314 160.941 209.314 160.941 209.314C160.941 209.314 160.941 209.314 160.941 209.314C160.941 209.314 160.941 209.314 160.941 209.314C160.941 209.314 160.941 209.314 160.941 209.314C160.941 209.314 160.941 209.314 160.941 209.314C160.941 209.314 160.941 209.314 160.941 209.314C160.941 209.314 160.941 209.314 160.941 209.314C160.941 209.314 160.941 209.314 160.941 209.314C160.941 209.314 160.941 209.314 160.941 209.314C160.941 209.314 160.941 209.314 160.941 209.314C160.941 209.314 160.941 209.314 160.941 209.314C160.941 209.314 160.941 209.314 160.941 209.314C160.941 209.314 160.941 209.314 160.941 209.314C160.941 209.314 160.941 209.314 160.941 209.314C160.941 209.314 160.941 209.314 160.941 209.314C160.941 209.314 160.941 209.314 160.941 209.314C160.941 209.314 160.941 209.314 160.941 209.314C160.941 209.314 160.941 209.314 160.941 209.314C160.941 209.314 160.941 209.314 160.941 209.314C160.941 209.314 160.941 209.314 160.941 209.314C160.941 209.314 160.941 209.314 160.941 209.314C160.941 209.314 160.941 209.314 160.941 209.314C160.941 209.314 160.941 209.314 160.941 209.314C160.941 209.314 160.941 209.314 160.941 209.314C160.941 209.314 160.941 209.314 160.941 209.314C160.941 209.314 160.941 209.314 160.941 209.314C160.941 209.314 160.941 209.314 160.941 209.314C160.941 209.314 160.941 209.314 160.941 209.314C160.941 209.314 160.941 209.314 160.941 209.314C160.941 209.314 160.941 209.314 160.941 209.314C160.941 209.314 160.941 209.314 160.941 209.314C160.941 209.314 160.941 209.314 160.941 209.314C160.941 209.314 160.941 209.314 160.941 209.314C160.941 209.314 160.941 209.314 160.941 209.314C160.941 209.314 160.941 209.314 160.941 209.314C160.941 209.314 160.941 209.314 160.941 209.314C160.941 209.314 160.941 209.314 160.941 209.314C160.941 209.314 160.941 209.314 160.941 209.314C160.941 209.314 160.941 209.314 160.941 209.314C160.941 209.314 160.941 209.314 160.941 209.314C160.941 209.314 160.941 209.314 160.941 209.314C160.941 209.314 160.941 209.314 160.941 209.314C160.941 209.314 160.941 209.314 160.941 209.314C160.941 209.314 160.941 209.314 160.941 209.314C160.941 209.314 160.941 209.314 160.941 209.314C160.941 209.314 160.941 209.314 160.941 209.314C160.941 209.314 160.941 209.314 160.941 209.314C160.941 209.314 160.941 209.314 160.941 209.314C160.941 209.314 160.941 209.314 160.941 209.314C160.941 209.314 160.941 209.314 160.941 209.314C160.941 209.314 160.941 209.314 160.941 209.314C160.941 209.314 160.941 209.314 160.941 209.314C160.941 209.314 160.941 209.314 160.941 209.314C160.941 209.314 160.941 209.314 160.941 209.314C160.941 209.314 160.941 209.314 160.941 209.314C160.941 209.314 160.941 209.314 160.941 209.314C160.941 209.314 160.941 209.314 160.941 209.314C160.941 209.314 160.941 209.314 160.941 209.314C160.941 209.314 160.941 209.314 160.941 209.314C160.941 209.314 160.941 209.314 160.941 209.314C160.941 209.314 160.941 209.314 160.941 209.314C160.941 209.314 160.941 209.314 160.941 209.314C160.941 209.314 160.941 209.314 160.941 209.314C160.941 209.314 160.941 209.314 160.941 209.314C160.941 209.314 160.941 209.314 160.941 209.314C160.941 209.314 160.941 209.314 160.941 209.314C160.941 209.314 160.941 209.314 160.941 209.314C160.941 209.314 160.941 209.314 160.941 209.314C160.941 209.314 160.941 209.314 160.941 209.314C160.941 209.314 160.941 209.314 160.941 209.314C160.941 209.314 160.941 209.314 160.941 209.314C160.941 209.314 160.941 209.314 160.941 209.314C160.941 209.314 160.941 209.314 160.941 209.314C160.941 209.314 160.941 209.314 160.941 209.314C160.941 209.314 160.941 209.314 160.941 209.314C160.941 209.314 160.941 209.314 160.941 209.314C160.941 209.314 160.941 209.314 160.941 209.314C160.941 209.314 160.941 209.314 160.941 209.314C160.941 209.314 160.941 209.314 160.941 209.314C160.941 209.314 160.941 209.314 160.941 209.314C160.941 209.314 160.941 209.314 160.941 209.314C160.941 209.314 160.941 209.314 160.941 209.314C160.941 209.314 160.941 209.314 160.941 209.314C160.941 209.314 160.941 209.314 160.941 209.314C160.941 209.314 160.941 209.314 160.941 209.314C160.941 209.314 160.941 209.314 160.941 209.314C160.941 209.314 160.941 209.314 160.941 209.314C160.941 209.314 160.941 209.314 160.941 209.314C160.941 209.314 160.941 209.314 160.941 209.314C160.941 209.314 160.941 209.314 160.941 209.314C160.941 209.314 160.941 209.314 160.941 209.314C160.941 209.314 160.941 209.314 160.941 209.314C160.941 209.314 160.941 209.314 160.941 209.314C160.941 209.314 160.941 209.314 160.941 209.314C160.941 209.314 160.941 209.314 160.941 209.314C160.941 209.314 160.941 209.314 160.941 209.314C160.941 209.314 160.941 209.314 160.941 209.314C160.941 209.314 160.941 209.314 160.941 209.314C160.941 209.314 160.941 209.314 160.941 209.314C160.941 209.314 160.941 209.314 160.941 209.314C160.941 209.314 160.941 209.314 160.941 209.314C160.941 209.314 160.941 209.314 160.941 209.314C160.941 209.314 160.941 209.314 160.941 209.314C160.941 209.314 160.941 209.314 160.941 209.314C160.941 209.314 160.941 209.314 160.941 209.314C160.941 209.314 160.941 209.314 160.941 209.314C160.941 209.314 160.941 209.314 160.941 209.314C160.941 209.314 160.941 209.314 160.941 209.314C160.941 209.314 160.941 209.314 160.941 209.314C160.941 209.314 160.941 209.314 160.941 209.314C160.941 209.314 160.941 209.314 160.941 209.314C160.941 209.314 160.941 209.314 160.941 209.314C160.941 209.314 160.941 209.314 160.941 209.314C160.941 209.314 160.941 209.314 160.941 209.314C160.941 209.314 160.941 209.314 160.941 209.314C160.941 209.314 160.941 209.314 160.941 209.314C160.941 209.314 160.941 209.314 160.941 209.314C160.941 209.314 160.941 209.314 160.941 209.314C160.941 209.314 160.941 209.314 160.941 209.314C160.941 209.314 160.941 209.314 160.941 209.314C160.941 209.314 160.941 209.314 160.941 209.314C160.941 209.314 160.941 209.314 160.941 209.314C160.941 209.314 160.941 209.314 160.941 209.314C160.941 209.314 160.941 209.314 160.941 209.314C160.941 209.314 160.941 209.314 160.941 209.314C160.941 209.314 160.941 209.314 160.941 209.314C160.941 209.314 160.941 209.314 160.941 209.314C160.941 209.314 160.941 209.314 160.941 209.314C160.941 209.314 160.941 209.314 160.941 209.314C160.941 209.314 160.941 209.314 160.941 209.314C160.941 209.314 160.941 209.314 160.941 209.314C160.941 209.314 160.941 209.314 160.941 209.314C160.941 209.314 160.941 209.314 160.941 209.314C160.941 209.314 160.941 209.314 160.941 209.314C160.941 209.314 160.941 209.314 160.941 209.314C160.941 209.314 160.941 209.314 160.941 209.314C160.941 209.314 160.941 209.314 160.941 209.314C160.941 209.314 160.941 209.314 160.941 209.314C160.941 209.314 160.941 209.314 160.941 209.314C160.941 209.314 160.941 209.314 160.941 209.314C160.941 209.314 160.941 209.314 160.941 209.314C160.941 209.314 160.941 209.314 160.941 209.314C160.941 209.314 160.941 209.314 160.941 209.314C160.941 209.314 160.941 209.314 160.941 209.314C160.941 209.314 160.941 209.314 160.941 209.314C160.941 209.314 160.941 209.314 160.941 209.314C160.941 209.314 160.941 209.314 160.941 209.314C160.941 209.314 160.941 209.314 160.941 209.314C160.941 209.314 160.941 209.314 160.941 209.314C160.941 209.314 160.941 209.314 160.941 209.314C160.941 209.314 160.941 209.314 160.941 209.314C160.941 209.314 160.941 209.314 160.941 209.314C160.941 209.314 160.941 209.314 160.941 209.314C160.941 209.314 160.941 209.314 160.941 209.314C160.941 209.314 160.941 209.314 160.941 209.314C160.941 209.314 160.941 209.314 160.941 209.314C160.941 209.314 160.941 209.314 160.941 209.314C160.941 209.314 160.941 209.314 160.941 209.314C160.941 209.314 160.941 209.314 160.941 209.314C160.941 209.314 160.941 209.314 160.941 209.314C160.941 209.314 160.941 209.314 160.941 209.314C160.941 209.314 160.941 209.314 160.941 209.314C160.941 209.314 160.941 209.314 160.941 209.314C160.941 209.314 160.941 209.314 160.941 209.314C160.941 209.314 160.941 209.314 160.941 209.314C160.941 209.314 160.941 209.314 160.941 209.314C160.941 209.314 160.941 209.314 160.941 209.314C160.941 209.314 160.941 209.314 160.941 209.314C160.941 209.314 160.941 209.314 160.941 209.314C160.941 209.314 160.941 209.314 160.941 209.314C160.941 209.314 160.941 209.314 160.941 209.314C160.941 209.314 160.941 209.314 160.941 209.314C160.941 209.314 160.941 209.314 160.941 209.314C160.941 209.314 160.941 209.314 160.941 209.314C160.941 209.314 160.941 209.314 160.941 209.314C160.941 209.314 160.941 209.314 160.941 209.314C160.941 209.314 160.941 209.314 160.941 209.314C160.941 209.314 160.941 209.314 160.941 209.314C160.941 209.314 160.941 209.314 160.941 209.314C160.941 209.314 160.941 209.314 160.941 209.314C160.941 209.314 160.941 209.314 160.941 209.314C160.941 209.314 160.941 209.314 160.941 209.314C160.941 209.314 160.941 209.314 160.941 209.314C160.941 209.314 160.941 209.314 160.941 209.314C160.941 209.314 160.941 209.314 160.941 209.314C160.941 209.314 160.941 209.314 160.941 209.314C160.941 209.314 160.941 209.314 160.941 209.314C160.941 209.314 160.941 209.314 160.941 209.314C160.941 209.314 160.941 209.314 160.941 209.314C160.941 209.314 160.941 209.314 160.941 209.314C160.941 209.314 160.941 209.314 160.941 209.314C160.941 209.314 160.941 209.314 160.941 209.314C160.941 209.314 160.941 209.314 160.941 209.314C160.941 209.314 160.941 209.314 160.941 209.314C160.941 209.314 160.941 209.314 160.941 209.314C160.941 209.314 160.941 209.314 160.941 209.314C160.941 209.314 160.941 209.314 160.941 209.314C160.941 209.314 160.941 209.314 160.941 209.314C160.941 209.314 160.941 209.314 160.941 209.314C160.941 209.314 160.941 209.314 160.941 209.314C160.941 209.314 160.941 209.314 160.941 209.314C160.941 209.314 160.941 209.314 160.941 209.314C160.941 209.314 160.941 209.314 160.941 209.314C160.941 209.314 160.941 209.314 160.941 209.314C160.941 209.314 160.941 209.314 160.941 209.314C160.941 209.314 160.941 209.314 160.941 209.314C160.941 209.314 160.941 209.314 160.941 209.314C160.941 209.314 160.941 209.314 160.941 209.314C160.941 209.314 160.941 209.314 160.941 209.314C160.941 209.314 160.941 209.314 160.941 209.314C160.941 209.314 160.941 209.314 160.941 209.314C160.941 209.314 160.941 209.314 160.941 209.314C160.941 209.314 160.941 209.314 160.941 209.314C160.941 209.314 160.941 209.314 160.941 209.314C160.941 209.314 160.941 209.314 160.941 209.314C160.941 209.314 160.941 209.314 160.941 209.314C160.941 209.314 160.941 209.314 160.941 209.314C160.941 209.314 160.941 209.314 160.941 209.314C160.941 209.314 160.941 209.314 160.941 209.314C160.941 209.314 160.941 209.314 160.941 209.314C160.941 209.314 160.941 209.314 160.941 209.314C160.941 209.314 160.941 209.314 160.941 209.314C160.941 209.314 160.941 209.314 160.941 209.314C160.941 209.314 160.941 209.314 160.941 209.314C160.941 209.314 160.941 209.314 160.941 209.314C160.941 209.314 160.941 209.314 160.941 209.314C160.941 209.314 160.941 209.314 160.941 209.314C160.941 209.314 160.941 209.314 160.941 209.314C160.941 209.314 160.941 209.314 160.941 209.314C160.941 209.314 160.941 209.314 160.941 209.314C160.941 209.314 160.941 209.314 160.941 209.314C160.941 209.314 160.941 209.314 160.941 209.314C160.941 209.314 160.941 209.314 160.941 209.314C160.941 209.314 160.941 209.314 160.941 209.314C160.941 209.314 160.941 209.314 160.941 209.314C160.941 209.314 160.941 209.314 160.941 209.314C160.941 209.314 160.941 209.314 160.941 209.314C160.941 209.314 160.941 209.314 160.941 209.314C160.941 209.314 160.941 209.314 160.941 209.314C160.941 209.314 160.941 209.314 160.941 209.314C160.941 209.314 160.941 209.314 160.941 209.314C160.941 209.314 160.941 209.314 160.941 209.314C160.941 209.314 160.941 209.314 160.941 209.314C160.941 209.314 160.941 209.314 160.941 209.314C160.941 209.314 160.941 209.314 160.941 209.314C160.941 209.314 160.941 209.314 160.941 209.314C160.941 209.314 160.941 209.314 160.941 209.314C160.941 209.314 160.941 209.314 160.941 209.314C160.941 209.314 160.941 209.314 160.941 209.314C160.941 209.314 160.941 209.314 160.941 209.314C160.941 209.314 160.941 209.314 160.941 209.314C160.941 209.314 160.941 209.314 160.941 209.314C160.941 209.314 160.941 209.314 160.941 209.314C160.941 209.314 160.941 209.314 160.941 209.314C160.941 209.314 160.941 209.314 160.941 209.314C160.941 209.314 160.941 209.314 160.941 209.314C160.941 209.314 160.941 209.314 160.941 209.314C160.941 209.314 160.941 209.314 160.941 209.314C160.941 209.314 160.941 209.314 160.941 209.314C160.941 209.314 160.941 209.314 160.941 209.314C160.941 209.314 160.941 209.314 160.941 209.314C160.941 209.314 160.941 209.314 160.941 209.314C160.941 209.314 160.941 209.314 160.941 209.314C160.941 209.314 160.941 209.314 160.941 209.314C160.941 209.314 160.941 209.314 160.941 209.314C160.941 209.314 160.941 209.314 160.941 209.314C160.941 209.314 160.941 209.314 160.941 209.314C160.941 209.314 160.941 209.314 160.941 209.314C160.941 209.314 160.941 209.314 160.941 209.314C160.941 209.314 160.941 209.314 160.941 209.314C160.941 209.314 160.941 209.314 160.941 209.314C160.941 209.314 160.941 209.314 160.941 209.314C160.941 209.314 160.941 209.314 160.941 209.314C160.941 209.314 160.941 209.314 160.941 209.314C160.941 209.314 160.941 209.314 160.941 209.314C160.941 209.314 160.941 209.314 160.941 209.314C160.941 209.314 160.941 209.314 160.941 209.314C160.941 209.314 160.941 209.314 160.941 209.314C160.941 209.314 160.941 209.314 160.941 209.314C160.941 209.314 160.941 209.314 160.941 209.314C160.941 209.314 160.941 209.314 160.941 209.314C160.941 209.314 160.941 209.314 160.941 209.314C160.941 209.314 160.941 209.314 160.941 209.314C160.941 209.314 160.941 209.314 160.941 209.314C160.941 209.314 160.941 209.314 160.941 209.314C160.941 209.314 160.941 209.314 160.941 209.314C160.941 209.314 160.941 209.314 160.941 209.314C160.941 209.314 160.941 209.314 160.941 209.314C160.941 209.314 160.941 209.314 160.941 209.314C160.941 209.314 160.941 209.314 160.941 209.314C160.941 209.314 160.941 209.314 160.941 209.314C160.941 209.314 160.941 209.314 160.941 209.314C160.941 209.314 160.941 209.314 160.941 209.314C160.941 209.314 160.941 209.314 160.941 209.314C160.941 209.314 160.941 209.314 160.941 209.314C160.941 209.314 160.941 209.314 160.941 209.314C160.941 209.314 160.941 209.314 160.941 209.314C160.941 209.314 160.941 209.314 160.941 209.314C160.941 209.314 160.941 209.314 160.941 209.314C160.941 209.314 160.941 209.314 160.941 209.314C160.941 209.314 160.941 209.314 160.941 209.314C160.941 209.314 160.941 209.314 160.941 209.314C160.941 209.314 160.941 209.314 160.941 209.314C160.941 209.314 160.941 209.314 160.941 209.314C160.941 209.314 160.941 209.314 160.941 209.314C160.941 209.314 160.941 209.314 160.941 209.314C160.941 209.314 160.941 209.314 160.941 209.314C160.941 209.314 160.941 209.314 160.941 209.314C160.941 209.314 160.941 209.314 160.941 209.314C160.941 209.314 160.941 209.314 160.941 209.314C160.941 209.314 160.941 209.314 160.941 209.314C160.941 209.314 160.941 209.314 160.941 209.314C160.941 209.314 160.941 209.314 160.941 209.314C160.941 209.314 160.941 209.314 160.941 209.314C160.941 209.314 160.941 209.314 160.941 209.314C160.941 209.314 160.941 209.314 160.941 209.314C160.941 209.314 160.941 209.314 160.941 209.314C160.941 209.314 160.941 209.314 160.941 209.314C160.941 209.314 160.941 209.314 160.941 209.314C160.941 209.314 160.941 209.314 160.941 209.314C160.941 209.314 160.941 209.314 160.941 209.314C160.941 209.314 160.941 209.314 160.941 209.314C160.941 209.314 160.941 209.314 160.941 209.314C160.941 209.314 160.941 209.314 160.941 209.314C160.941 209.314 160.941 209.314 160.941 209.314C160.941 209.314 160.941 209.314 160.941 209.314C160.941 209.314 160.941 209.314 160.941 209.314C160.941 209.314 160.941 209.314 160.941 209.314C160.941 209.314 160.941 209.314 160.941 209.314C160.941 209.314 160.941 209.314 160.941 209.314C160.941 209.314 160.941 209.314 160.941 209.314C160.941 209.314 160.941 209.314 160.941 209.314C160.941 209.314 160.941 209.314 160.941 209.314C160.941 209.314 160.941 209.314 160.941 209.314C160.941 209.314 160.941 209.314 160.941 209.314C160.941 209.314 160.941 209.314 160.941 209.314C160.941 209.314 160.941 209.314 160.941 209.314C160.941 209.314 160.941 209.314 160.941 209.314C160.941 209.314 160.941 209.314 160.941 209.314C160.941 209.314 160.941 209.314 160.941 209.314C160.941 209.314 160.941 209.314 160.941 209.314C160.941 209.314 160.941 209.314 160.941 209.314C160.941 209.314 160.941 209.314 160.941 209.314C160.941 209.314 160.941 209.314 160.941 209.314C160.941 209.314 160.941 209.314 160.941 209.314C160.941 209.314 160.941 209.314 160.941 209.314C160.941 209.314 160.941 209.314 160.941 209.314C160.941 209.314 160.941 209.314 160.941 209.314C160.941 209.314 160.941 209.314 160.941 209.314C160.941 209.314 160.941 209.314 160.941 209.314C160.941 209.314 160.941 209.314 160.941 209.314C160.941 209.314 160.941 209.314 160.941 209.314C160.941 209.314 160.941 209.314 160.941 209.314C160.941 209.314 160.941 209.314 160.941 209.314C160.941 209.314 160.941 209.314 160.941 209.314C160.941 209.314 160.941 209.314 160.941 209.314C160.941 209.314 160.941 209.314 160.941 209.314C160.941 209.314 160.941 209.314 160.941 209.314C160.941 209.314 160.941 209.314 160.941 209.314C160.941 209.314 160.941 209.314 160.941 209.314C160.941 209.314 160.941 209.314 160.941 209.314C160.941 209.314 160.941 209.314 160.941 209.314C160.941 209.314 160.941 209.314 160.941 209.314C160.941 209.314 160.941 209.314 160.941 209.314C160.941 209.314 160.941 209.314 160.941 209.314C160.941 209.314 160.941 209.314 160.941 209.314C160.941 209.314 160.941 209.314 160.941 209.314C160.941 209.314 160.941 209.314 160.941 209.314C160.941 209.314 160.941 209.314 160.941 209.314C160.941 209.314 160.941 209.314 160.941 209.314C160.941 209.314 160.941 209.314 160.941 209.314C160.941 209.314 160.941 209.314 160.941 209.314C160.941 209.314 160.941 209.314 160.941 209.314C160.941 209.314 160.941 209.314 160.941 209.314C160.941 209.314 160.941 209.314 160.941 209.314C160.941 209.314 160.941 209.314 160.941 209.314C160.941 209.314 160.941 209.314 160.941 209.314C160.941 209.314 160.941 209.314 160.941 209.314C160.941 209.314 160.941 209.314 160.941 209.314C160.941 209.314 160.941 209.314 160.941 209.314C160.941 209.314 160.941 209.314 160.941 209.314C160.941 209.314 160.941 209.314 160.941 209.314C160.941 209.314 160.941 209.314 160.941 209.314C160.941 209.314 160.941 209.314 160.941 209.314C160.941 209.314 160.941 209.314 160.941 209.314C160.941 209.314 160.941 209.314 160.941 209.314C160.941 209.314 160.941 209.314 160.941 209.314C160.941 209.314 160.941 209.314 160.941 209.314C160.941 209.314 160.941 209.314 160.941 209.314C160.941 209.314 160.941 209.314 160.941 209.314C160.941 209.314 160.941 209.314 160.941 209.314C160.941 209.314 160.941 209.314 160.941 209.314C160.941 209.314 160.941 209.314 160.941 209.314C160.941 209.314 160.941 209.314 160.941 209.314C160.941 209.314 160.941 209.314 160.941 209.314C160.941 209.314 160.941 209.314 160.941 209.314C160.941 209.314 160.941 209.314 160.941 209.314C160.941 209.314 160.941 209.314 160.941 209.314C160.941 209.314 160.941 209.314 160.941 209.314C160.941 209.314 160.941 209.314 160.941 209.314C160.941 209.314 160.941 209.314 160.941 209.314C160.941 209.314 160.941 209.314 160.941 209.314C160.941 209.314 160.941 209.314 160.941 209.314C160.941 209.314 160.941 209.314 160.941 209.314C160.941 209.314 160.941 209.314 160.941 209.314C160.941 209.314 160.941 209.314 160.941 209.314C160.941 209.314 160.941 209.314 160.941 209.314C160.941 209.314 160.941 209.314 160.941 209.314C160.941 209.314 160.941 209.314 160.941 209.314C160.941 209.314 160.941 209.314 160.941 209.314C160.941 209.314 160.941 209.314 160.941 209.314C160.941 209.314 160.941 209.314 160.941 209.314C160.941 209.314 160.941 209.314 160.941 209.314C160.941 209.314 160.941 209.314 160.941 209.314C160.941 209.314 160.941 209.314 160.941 209.314C160.941 209.314 160.941 209.314 160.941 209.314C160.941 209.314 160.941 209.314 160.941 209.314C160.941 209.314 160.941 209.314 160.941 209.314C160.941 209.314 160.941 209.314 160.941 209.314C160.941 209.314 160.941 209.314 160.941 209.314C160.941 209.314 160.941 209.314 160.941 209.314C160.941 209.314 160.941 209.314 160.941 209.314C160.941 209.314 160.941 209.314 160.941 209.314C160.941 209.314 160.941 209.314 160.941 209.314C160.941 209.314 160.941 209.314 160.941 209.314C160.941 209.314 160.941 209.314 160.941 209.314C160.941 209.314 160.941 209.314 160.941 209.314C160.941 209.314 160.941 209.314 160.941 209.314C160.941 209.314 160.941 209.314 160.941 209.314C160.941 209.314 160.941 209.314 160.941 209.314C160.941 209.314 160.941 209.314 160.941 209.314C160.941 209.314 160.941 209.314 160.941 209.314C160.941 209.314 160.941 209.314 160.941 209.314C160.941 209.314 160.941 209.314 160.941 209.314C160.941 209.314 160.941 209.314 160.941 209.314C160.941 209.314 160.941 209.314 160.941 209.314C160.941 209.314 160.941 209.314 160.941 209.314C160.941 209.314 160.941 209.314 160.941 209.314C160.941 209.314 160.941 209.314 160.941 209.314C160.941 209.314 160.941 209.314 160.941 209.314C160.941 209.314 160.941 209.314 160.941 209.314C160.941 209.314 160.941 209.314 160.941 209.314C160.941 209.314 160.941 209.314 160.941 209.314C160.941 209.314 160.941 209.314 160.941 209.314C160.941 209.314 160.941 209.314 160.941 209.314C160.941 209.314 160.941 209.314 160.941 209.314C160.941 209.314 160.941 209.314 160.941 209.314C160.941 209.314 160.941 209.314 160.941 209.314C160.941 209.314 160.941 209.314 160.941 209.314C160.941 209.314 160.941 209.314 160.941 209.314C160.941 209.314 160.941 209.314 160.941 209.314C160.941 209.314 160.941 209.314 160.941 209.314C160.941 209.314 160.941 209.314 160.941 209.314C160.941 209.314 160.941 209.314 160.941 209.314C160.941 209.314 160.941 209.314 160.941 209.314C160.941 209.314 160.941 209.314 160.941 209.314C160.941 209.314 160.941 209.314 160.941 209.314C160.941 209.314 160.941 209.314 160.941 209.314C160.941 209.314 160.941 209.314 160.941 209.314H155.536ZM158.238 212.017L176.142 212.017L176.142 206.612L158.238 206.612L158.238 212.017ZM176.142 212.017H194.046V206.612H176.142V212.017ZM196.748 209.314C196.748 203.849 194.577 198.608 190.713 194.744L186.891 198.565C189.742 201.416 191.343 205.283 191.343 209.314H196.748ZM190.713 194.744C186.848 190.879 181.607 188.708 176.142 188.708L176.142 194.113C180.173 194.113 184.04 195.715 186.891 198.565L190.713 194.744ZM176.142 188.708C170.677 188.708 165.436 190.879 161.571 194.744L165.393 198.565C168.244 195.715 172.11 194.113 176.142 194.113L176.142 188.708ZM161.571 194.744C161.503 194.812 161.435 194.881 161.368 194.95L165.243 198.718C165.292 198.667 165.343 198.616 165.393 198.565L161.571 194.744Z" fill="#1F2024"/>
<path d="M183.267 201.514C181.556 199.803 179.236 198.842 176.817 198.842" stroke="white" stroke-width="5.40488" stroke-linecap="round"/>
<path d="M157.932 201.514C156.221 199.803 153.901 198.842 151.482 198.842" stroke="white" stroke-width="5.40488" stroke-linecap="round"/>
<circle cx="207.896" cy="197.153" r="5.74268" fill="#1F2024"/>
<circle r="1.68902" transform="matrix(-1 0 0 1 209.922 195.126)" fill="white"/>
<line x1="176.48" y1="215.732" x2="180.533" y2="215.732" stroke="white" stroke-width="5.40488" stroke-linecap="round"/>
<path d="M156.337 130.606C162.76 130.606 168.511 127.934 172.376 123.72C174.984 127.934 178.866 130.606 183.202 130.606C191.056 130.606 197.424 121.834 197.424 111.013C197.424 97.8383 183.202 91.4203 167.399 91.4203C151.597 91.4203 135.268 97.6241 135.268 111.013C135.268 121.834 144.701 130.606 156.337 130.606Z" fill="black" fill-opacity="0.16"/>
<g filter="url(#filter10_ii)">
<path d="M48.1271 75.2056C43.1742 54.5085 40.8102 35.294 47.5418 17.7788C63.0535 20.6502 77.964 27.4648 92.0284 42.7595L48.1271 75.2056Z" fill="#CCBF92"/>
</g>
<path d="M48.1271 75.2056C43.1742 54.5085 40.8102 35.294 47.5418 17.7788C63.0535 20.6502 77.964 27.4648 92.0284 42.7595L48.1271 75.2056Z" stroke="#1F2024" stroke-width="5.40488" stroke-linejoin="round"/>
<g filter="url(#filter11_i)">
<path d="M57.1966 61.0179C54.0292 54.1303 51.1484 36.3372 54.0292 28.5886C61.5621 29.9948 71.6862 37.637 78.5162 45.1276L57.1966 61.0179Z" fill="#9A855A"/>
</g>
<path d="M57.1966 61.0179C54.0292 54.1303 51.1484 36.3372 54.0292 28.5886C61.5621 29.9948 71.6862 37.637 78.5162 45.1276L57.1966 61.0179Z" stroke="#1F2024" stroke-width="5.40488" stroke-linejoin="round"/>
<g filter="url(#filter12_ii)">
<path d="M194.774 75.2056C199.658 54.5085 201.989 35.294 195.351 17.7788C180.055 20.6502 165.351 27.4648 151.482 42.7595L194.774 75.2056Z" fill="#CCBF92"/>
</g>
<path d="M194.774 75.2056C199.658 54.5085 201.989 35.294 195.351 17.7788C180.055 20.6502 165.351 27.4648 151.482 42.7595L194.774 75.2056Z" stroke="#1F2024" stroke-width="5.40488" stroke-linejoin="round"/>
<g filter="url(#filter13_i)">
<path d="M185.638 61.0179C188.806 54.1303 191.687 36.3372 188.806 28.5886C181.273 29.9948 171.149 37.637 164.319 45.1276L185.638 61.0179Z" fill="#9A855A"/>
</g>
<path d="M185.638 61.0179C188.806 54.1303 191.687 36.3372 188.806 28.5886C181.273 29.9948 171.149 37.637 164.319 45.1276L185.638 61.0179Z" stroke="#1F2024" stroke-width="5.40488" stroke-linejoin="round"/>
<path d="M209.585 109.324C209.585 88.9867 200.473 69.4824 184.256 55.1018C168.038 40.7212 146.042 32.6422 123.106 32.6422C100.171 32.6422 78.175 40.7212 61.9573 55.1018C45.7395 69.4824 36.6284 88.9867 36.6284 109.324L123.106 109.324H209.585Z" fill="#CCBF92" stroke="#1F2024" stroke-width="5.40488" stroke-linejoin="round"/>
<path fill-rule="evenodd" clip-rule="evenodd" d="M134.494 109.642C111.634 105.779 98.8181 95.8672 88.2765 87.7139C74.7384 77.243 64.9506 69.6727 42.4541 81.5412C38.4837 90.4029 36.3879 99.9271 36.3879 109.642L122.837 109.642H134.494Z" fill="#FFFDD0"/>
<path d="M72.0979 110.844C65.2532 82.41 81.2186 51.2215 105.541 35.6825C59.4895 46.6709 39.0398 71.0609 34.6016 110.844H72.0979Z" fill="black" fill-opacity="0.16"/>
<path d="M135.943 33.9935L100.811 36.696C110.903 39.219 134.296 42.9723 149.131 52.7572C150.186 53.453 151.556 52.5412 151.106 51.3602C148.643 44.8959 143.391 39.4366 135.943 33.9935Z" fill="#B3A275"/>
<rect x="124.458" y="6.96912" width="5.40488" height="32.4293" rx="2.02683" fill="#1F2024"/>
<path d="M209.585 109.324C209.585 88.9867 200.473 69.4824 184.256 55.1018C168.038 40.7212 146.042 32.6422 123.106 32.6422C100.171 32.6422 78.175 40.7212 61.9573 55.1018C45.7395 69.4824 36.6284 88.9867 36.6284 109.324L123.106 109.324H209.585Z" stroke="#1F2024" stroke-width="5.40488" stroke-linejoin="round"/>
<g filter="url(#filter14_ii)">
<path d="M168.979 125.876C175.96 125.876 182.211 123.527 186.412 119.822C189.248 123.527 193.467 125.876 198.179 125.876C206.717 125.876 213.638 118.163 213.638 108.648C213.638 97.0637 198.179 91.4203 181.003 91.4203C163.826 91.4203 146.077 96.8754 146.077 108.648C146.077 118.163 156.331 125.876 168.979 125.876Z" fill="#FFFDD0"/>
</g>
<path d="M168.979 125.876C175.96 125.876 182.211 123.527 186.412 119.822C189.248 123.527 193.467 125.876 198.179 125.876C206.717 125.876 213.638 118.163 213.638 108.648C213.638 97.0637 198.179 91.4203 181.003 91.4203C163.826 91.4203 146.077 96.8754 146.077 108.648C146.077 118.163 156.331 125.876 168.979 125.876Z" stroke="#1F2024" stroke-width="5.40488" stroke-linejoin="round"/>
<g filter="url(#filter15_ii)">
<path d="M202.153 103.91C202.153 112.736 194.591 119.12 185.263 119.12C175.934 119.12 168.372 112.736 168.372 103.91C168.372 98.8084 175.934 96.1495 185.263 96.1495C194.591 96.1495 202.153 98.8084 202.153 103.91Z" fill="#1F2024"/>
</g>
<path d="M202.153 103.91C202.153 112.736 194.591 119.12 185.263 119.12C175.934 119.12 168.372 112.736 168.372 103.91C168.372 98.8084 175.934 96.1495 185.263 96.1495C194.591 96.1495 202.153 98.8084 202.153 103.91Z" fill="#1F2024"/>
<path d="M195.397 104.932C194.046 102.712 191.394 101.554 187.965 101.554" stroke="white" stroke-width="5.40488" stroke-linecap="round" stroke-linejoin="round"/>
<path d="M137.885 88.3392C140.374 89.4958 145.279 87.9624 142.594 84.294C139.139 79.5733 125.52 76.4806 115.111 80.3021C113.842 80.7682 114.242 82.3887 115.592 82.4637C124.87 82.979 131.105 85.0876 137.885 88.3392Z" fill="#1F2024" stroke="#1F2024" stroke-width="2.70244" stroke-linejoin="round"/>
<path d="M181.491 88.9896C179.831 90.2233 176.561 88.5876 178.351 84.6747C180.685 79.5748 189.968 76.2561 196.939 80.577C197.958 81.2084 197.422 82.6227 196.229 82.7336C190.112 83.3023 185.98 85.5444 181.491 88.9896Z" fill="#1F2024" stroke="#1F2024" stroke-width="2.70244" stroke-linejoin="round"/>
<ellipse rx="4.24614" ry="6.13332" transform="matrix(0.999914 -0.0130896 0.553828 0.832631 136.595 67.8163)" fill="white"/>
<ellipse rx="4.24614" ry="6.13332" transform="matrix(-0.999914 -0.0130896 -0.553828 0.832631 178.314 67.8163)" fill="white"/>
<g filter="url(#filter16_ii)">
<circle cx="127.16" cy="11.6984" r="8.10732" fill="#9BCEF1"/>
</g>
<circle cx="127.16" cy="11.6984" r="8.10732" stroke="#1F2024" stroke-width="5.40488"/>
<defs>
<filter id="filter0_ii" x="12.9822" y="106.959" width="167.551" height="145.932" filterUnits="userSpaceOnUse" color-interpolation-filters="sRGB">
<feFlood flood-opacity="0" result="BackgroundImageFix"/>
<feBlend mode="normal" in="SourceGraphic" in2="BackgroundImageFix" result="shape"/>
<feColorMatrix in="SourceAlpha" type="matrix" values="0 0 0 0 0 0 0 0 0 0 0 0 0 0 0 0 0 0 127 0" result="hardAlpha"/>
<feOffset dy="-10.8098"/>
<feComposite in2="hardAlpha" operator="arithmetic" k2="-1" k3="1"/>
<feColorMatrix type="matrix" values="0 0 0 0 0 0 0 0 0 0 0 0 0 0 0 0 0 0 0.25 0"/>
<feBlend mode="normal" in2="shape" result="effect1_innerShadow"/>
<feColorMatrix in="SourceAlpha" type="matrix" values="0 0 0 0 0 0 0 0 0 0 0 0 0 0 0 0 0 0 127 0" result="hardAlpha"/>
<feOffset dy="10.8098"/>
<feComposite in2="hardAlpha" operator="arithmetic" k2="-1" k3="1"/>
<feColorMatrix type="matrix" values="0 0 0 0 1 0 0 0 0 1 0 0 0 0 1 0 0 0 0.25 0"/>
<feBlend mode="normal" in2="effect1_innerShadow" result="effect2_innerShadow"/>
</filter>
<filter id="filter1_i" x="80.5432" y="106.959" width="156.741" height="145.932" filterUnits="userSpaceOnUse" color-interpolation-filters="sRGB">
<feFlood flood-opacity="0" result="BackgroundImageFix"/>
<feBlend mode="normal" in="SourceGraphic" in2="BackgroundImageFix" result="shape"/>
<feColorMatrix in="SourceAlpha" type="matrix" values="0 0 0 0 0 0 0 0 0 0 0 0 0 0 0 0 0 0 127 0" result="hardAlpha"/>
<feOffset dx="-16.2146" dy="5.40488"/>
<feComposite in2="hardAlpha" operator="arithmetic" k2="-1" k3="1"/>
<feColorMatrix type="matrix" values="0 0 0 0 1 0 0 0 0 1 0 0 0 0 1 0 0 0 0.25 0"/>
<feBlend mode="normal" in2="shape" result="effect1_innerShadow"/>
</filter>
<filter id="filter2_d" x="0.145461" y="124.645" width="268.863" height="74.6263" filterUnits="userSpaceOnUse" color-interpolation-filters="sRGB">
<feFlood flood-opacity="0" result="BackgroundImageFix"/>
<feColorMatrix in="SourceAlpha" type="matrix" values="0 0 0 0 0 0 0 0 0 0 0 0 0 0 0 0 0 0 127 0" result="hardAlpha"/>
<feOffset dx="-2.70244" dy="2.70244"/>
<feColorMatrix type="matrix" values="0 0 0 0 0 0 0 0 0 0 0 0 0 0 0 0 0 0 0.25 0"/>
<feBlend mode="normal" in2="BackgroundImageFix" result="effect1_dropShadow"/>
<feBlend mode="normal" in="SourceGraphic" in2="effect1_dropShadow" result="shape"/>
</filter>
<filter id="filter3_i" x="2.8479" y="137.362" width="73.3037" height="17.2281" filterUnits="userSpaceOnUse" color-interpolation-filters="sRGB">
<feFlood flood-opacity="0" result="BackgroundImageFix"/>
<feBlend mode="normal" in="SourceGraphic" in2="BackgroundImageFix" result="shape"/>
<feColorMatrix in="SourceAlpha" type="matrix" values="0 0 0 0 0 0 0 0 0 0 0 0 0 0 0 0 0 0 127 0" result="hardAlpha"/>
<feOffset dx="-16.2146" dy="5.40488"/>
<feComposite in2="hardAlpha" operator="arithmetic" k2="-1" k3="1"/>
<feColorMatrix type="matrix" values="0 0 0 0 1 0 0 0 0 1 0 0 0 0 1 0 0 0 0.25 0"/>
<feBlend mode="normal" in2="shape" result="effect1_innerShadow"/>
</filter>
<filter id="filter4_i" x="165.531" y="133.44" width="103.478" height="60.8244" filterUnits="userSpaceOnUse" color-interpolation-filters="sRGB">
<feFlood flood-opacity="0" result="BackgroundImageFix"/>
<feBlend mode="normal" in="SourceGraphic" in2="BackgroundImageFix" result="shape"/>
<feColorMatrix in="SourceAlpha" type="matrix" values="0 0 0 0 0 0 0 0 0 0 0 0 0 0 0 0 0 0 127 0" result="hardAlpha"/>
<feOffset dx="-16.2146" dy="5.40488"/>
<feComposite in2="hardAlpha" operator="arithmetic" k2="-1" k3="1"/>
<feColorMatrix type="matrix" values="0 0 0 0 1 0 0 0 0 1 0 0 0 0 1 0 0 0 0.25 0"/>
<feBlend mode="normal" in2="shape" result="effect1_innerShadow"/>
</filter>
<filter id="filter5_i" x="70.0713" y="124.645" width="125.45" height="71.9238" filterUnits="userSpaceOnUse" color-interpolation-filters="sRGB">
<feFlood flood-opacity="0" result="BackgroundImageFix"/>
<feBlend mode="normal" in="SourceGraphic" in2="BackgroundImageFix" result="shape"/>
<feColorMatrix in="SourceAlpha" type="matrix" values="0 0 0 0 0 0 0 0 0 0 0 0 0 0 0 0 0 0 127 0" result="hardAlpha"/>
<feOffset dx="-16.2146" dy="5.40488"/>
<feComposite in2="hardAlpha" operator="arithmetic" k2="-1" k3="1"/>
<feColorMatrix type="matrix" values="0 0 0 0 1 0 0 0 0 1 0 0 0 0 1 0 0 0 0.25 0"/>
<feBlend mode="normal" in2="shape" result="effect1_innerShadow"/>
</filter>
<filter id="filter6_ii" x="16.3601" y="154.928" width="54.0488" height="54.0488" filterUnits="userSpaceOnUse" color-interpolation-filters="sRGB">
<feFlood flood-opacity="0" result="BackgroundImageFix"/>
<feBlend mode="normal" in="SourceGraphic" in2="BackgroundImageFix" result="shape"/>
<feColorMatrix in="SourceAlpha" type="matrix" values="0 0 0 0 0 0 0 0 0 0 0 0 0 0 0 0 0 0 127 0" result="hardAlpha"/>
<feOffset dx="10.8098"/>
<feComposite in2="hardAlpha" operator="arithmetic" k2="-1" k3="1"/>
<feColorMatrix type="matrix" values="0 0 0 0 0 0 0 0 0 0 0 0 0 0 0 0 0 0 0.25 0"/>
<feBlend mode="normal" in2="shape" result="effect1_innerShadow"/>
<feColorMatrix in="SourceAlpha" type="matrix" values="0 0 0 0 0 0 0 0 0 0 0 0 0 0 0 0 0 0 127 0" result="hardAlpha"/>
<feOffset dx="-16.2146" dy="5.40488"/>
<feComposite in2="hardAlpha" operator="arithmetic" k2="-1" k3="1"/>
<feColorMatrix type="matrix" values="0 0 0 0 1 0 0 0 0 1 0 0 0 0 1 0 0 0 0.25 0"/>
<feBlend mode="normal" in2="effect1_innerShadow" result="effect2_innerShadow"/>
</filter>
<filter id="filter7_ii" x="10.9553" y="163.035" width="37.8341" height="37.8341" filterUnits="userSpaceOnUse" color-interpolation-filters="sRGB">
<feFlood flood-opacity="0" result="BackgroundImageFix"/>
<feBlend mode="normal" in="SourceGraphic" in2="BackgroundImageFix" result="shape"/>
<feColorMatrix in="SourceAlpha" type="matrix" values="0 0 0 0 0 0 0 0 0 0 0 0 0 0 0 0 0 0 127 0" result="hardAlpha"/>
<feOffset dx="10.8098"/>
<feComposite in2="hardAlpha" operator="arithmetic" k2="-1" k3="1"/>
<feColorMatrix type="matrix" values="0 0 0 0 0 0 0 0 0 0 0 0 0 0 0 0 0 0 0.25 0"/>
<feBlend mode="normal" in2="shape" result="effect1_innerShadow"/>
<feColorMatrix in="SourceAlpha" type="matrix" values="0 0 0 0 0 0 0 0 0 0 0 0 0 0 0 0 0 0 127 0" result="hardAlpha"/>
<feOffset dx="-16.2146" dy="5.40488"/>
<feComposite in2="hardAlpha" operator="arithmetic" k2="-1" k3="1"/>
<feColorMatrix type="matrix" values="0 0 0 0 1 0 0 0 0 1 0 0 0 0 1 0 0 0 0.25 0"/>
<feBlend mode="normal" in2="effect1_innerShadow" result="effect2_innerShadow"/>
</filter>
<filter id="filter8_i" x="129.863" y="206.612" width="66.8854" height="25.3354" filterUnits="userSpaceOnUse" color-interpolation-filters="sRGB">
<feFlood flood-opacity="0" result="BackgroundImageFix"/>
<feBlend mode="normal" in="SourceGraphic" in2="BackgroundImageFix" result="shape"/>
<feColorMatrix in="SourceAlpha" type="matrix" values="0 0 0 0 0 0 0 0 0 0 0 0 0 0 0 0 0 0 127 0" result="hardAlpha"/>
<feOffset dx="-10.8098" dy="5.40488"/>
<feComposite in2="hardAlpha" operator="arithmetic" k2="-1" k3="1"/>
<feColorMatrix type="matrix" values="0 0 0 0 1 0 0 0 0 1 0 0 0 0 1 0 0 0 0.25 0"/>
<feBlend mode="normal" in2="shape" result="effect1_innerShadow"/>
</filter>
<filter id="filter9_i" x="129.863" y="188.708" width="66.8855" height="23.3086" filterUnits="userSpaceOnUse" color-interpolation-filters="sRGB">
<feFlood flood-opacity="0" result="BackgroundImageFix"/>
<feBlend mode="normal" in="SourceGraphic" in2="BackgroundImageFix" result="shape"/>
<feColorMatrix in="SourceAlpha" type="matrix" values="0 0 0 0 0 0 0 0 0 0 0 0 0 0 0 0 0 0 127 0" result="hardAlpha"/>
<feOffset dx="-10.8098" dy="5.40488"/>
<feComposite in2="hardAlpha" operator="arithmetic" k2="-1" k3="1"/>
<feColorMatrix type="matrix" values="0 0 0 0 1 0 0 0 0 1 0 0 0 0 1 0 0 0 0.25 0"/>
<feBlend mode="normal" in2="shape" result="effect1_innerShadow"/>
</filter>
<filter id="filter10_ii" x="40.6824" y="15.076" width="54.0485" height="62.832" filterUnits="userSpaceOnUse" color-interpolation-filters="sRGB">
<feFlood flood-opacity="0" result="BackgroundImageFix"/>
<feBlend mode="normal" in="SourceGraphic" in2="BackgroundImageFix" result="shape"/>
<feColorMatrix in="SourceAlpha" type="matrix" values="0 0 0 0 0 0 0 0 0 0 0 0 0 0 0 0 0 0 127 0" result="hardAlpha"/>
<feOffset dx="8.10732"/>
<feComposite in2="hardAlpha" operator="arithmetic" k2="-1" k3="1"/>
<feColorMatrix type="matrix" values="0 0 0 0 0 0 0 0 0 0 0 0 0 0 0 0 0 0 0.25 0"/>
<feBlend mode="normal" in2="shape" result="effect1_innerShadow"/>
<feColorMatrix in="SourceAlpha" type="matrix" values="0 0 0 0 0 0 0 0 0 0 0 0 0 0 0 0 0 0 127 0" result="hardAlpha"/>
<feOffset dx="-5.40488" dy="5.40488"/>
<feComposite in2="hardAlpha" operator="arithmetic" k2="-1" k3="1"/>
<feColorMatrix type="matrix" values="0 0 0 0 1 0 0 0 0 1 0 0 0 0 1 0 0 0 0.25 0"/>
<feBlend mode="normal" in2="effect1_innerShadow" result="effect2_innerShadow"/>
</filter>
<filter id="filter11_i" x="50.1401" y="25.8859" width="31.0784" height="37.8344" filterUnits="userSpaceOnUse" color-interpolation-filters="sRGB">
<feFlood flood-opacity="0" result="BackgroundImageFix"/>
<feBlend mode="normal" in="SourceGraphic" in2="BackgroundImageFix" result="shape"/>
<feColorMatrix in="SourceAlpha" type="matrix" values="0 0 0 0 0 0 0 0 0 0 0 0 0 0 0 0 0 0 127 0" result="hardAlpha"/>
<feOffset dx="-8.10732" dy="8.10732"/>
<feComposite in2="hardAlpha" operator="arithmetic" k2="-1" k3="1"/>
<feColorMatrix type="matrix" values="0 0 0 0 0 0 0 0 0 0 0 0 0 0 0 0 0 0 0.25 0"/>
<feBlend mode="normal" in2="shape" result="effect1_innerShadow"/>
</filter>
<filter id="filter12_ii" x="148.78" y="15.076" width="53.3729" height="62.832" filterUnits="userSpaceOnUse" color-interpolation-filters="sRGB">
<feFlood flood-opacity="0" result="BackgroundImageFix"/>
<feBlend mode="normal" in="SourceGraphic" in2="BackgroundImageFix" result="shape"/>
<feColorMatrix in="SourceAlpha" type="matrix" values="0 0 0 0 0 0 0 0 0 0 0 0 0 0 0 0 0 0 127 0" result="hardAlpha"/>
<feOffset dx="8.10732"/>
<feComposite in2="hardAlpha" operator="arithmetic" k2="-1" k3="1"/>
<feColorMatrix type="matrix" values="0 0 0 0 0 0 0 0 0 0 0 0 0 0 0 0 0 0 0.25 0"/>
<feBlend mode="normal" in2="shape" result="effect1_innerShadow"/>
<feColorMatrix in="SourceAlpha" type="matrix" values="0 0 0 0 0 0 0 0 0 0 0 0 0 0 0 0 0 0 127 0" result="hardAlpha"/>
<feOffset dx="-5.40488" dy="5.40488"/>
<feComposite in2="hardAlpha" operator="arithmetic" k2="-1" k3="1"/>
<feColorMatrix type="matrix" values="0 0 0 0 1 0 0 0 0 1 0 0 0 0 1 0 0 0 0.25 0"/>
<feBlend mode="normal" in2="effect1_innerShadow" result="effect2_innerShadow"/>
</filter>
<filter id="filter13_i" x="161.616" y="25.8859" width="31.0784" height="37.8344" filterUnits="userSpaceOnUse" color-interpolation-filters="sRGB">
<feFlood flood-opacity="0" result="BackgroundImageFix"/>
<feBlend mode="normal" in="SourceGraphic" in2="BackgroundImageFix" result="shape"/>
<feColorMatrix in="SourceAlpha" type="matrix" values="0 0 0 0 0 0 0 0 0 0 0 0 0 0 0 0 0 0 127 0" result="hardAlpha"/>
<feOffset dx="-8.10732" dy="8.10732"/>
<feComposite in2="hardAlpha" operator="arithmetic" k2="-1" k3="1"/>
<feColorMatrix type="matrix" values="0 0 0 0 0 0 0 0 0 0 0 0 0 0 0 0 0 0 0.25 0"/>
<feBlend mode="normal" in2="shape" result="effect1_innerShadow"/>
</filter>
<filter id="filter14_ii" x="143.375" y="88.7179" width="72.9659" height="39.861" filterUnits="userSpaceOnUse" color-interpolation-filters="sRGB">
<feFlood flood-opacity="0" result="BackgroundImageFix"/>
<feBlend mode="normal" in="SourceGraphic" in2="BackgroundImageFix" result="shape"/>
<feColorMatrix in="SourceAlpha" type="matrix" values="0 0 0 0 0 0 0 0 0 0 0 0 0 0 0 0 0 0 127 0" result="hardAlpha"/>
<feOffset dx="10.8098"/>
<feComposite in2="hardAlpha" operator="arithmetic" k2="-1" k3="1"/>
<feColorMatrix type="matrix" values="0 0 0 0 0 0 0 0 0 0 0 0 0 0 0 0 0 0 0.25 0"/>
<feBlend mode="normal" in2="shape" result="effect1_innerShadow"/>
<feColorMatrix in="SourceAlpha" type="matrix" values="0 0 0 0 0 0 0 0 0 0 0 0 0 0 0 0 0 0 127 0" result="hardAlpha"/>
<feOffset dx="-16.2146" dy="5.40488"/>
<feComposite in2="hardAlpha" operator="arithmetic" k2="-1" k3="1"/>
<feColorMatrix type="matrix" values="0 0 0 0 1 0 0 0 0 1 0 0 0 0 1 0 0 0 0.25 0"/>
<feBlend mode="normal" in2="effect1_innerShadow" result="effect2_innerShadow"/>
</filter>
<filter id="filter15_ii" x="168.372" y="96.1495" width="33.7805" height="22.9707" filterUnits="userSpaceOnUse" color-interpolation-filters="sRGB">
<feFlood flood-opacity="0" result="BackgroundImageFix"/>
<feBlend mode="normal" in="SourceGraphic" in2="BackgroundImageFix" result="shape"/>
<feColorMatrix in="SourceAlpha" type="matrix" values="0 0 0 0 0 0 0 0 0 0 0 0 0 0 0 0 0 0 127 0" result="hardAlpha"/>
<feOffset dx="10.8098"/>
<feComposite in2="hardAlpha" operator="arithmetic" k2="-1" k3="1"/>
<feColorMatrix type="matrix" values="0 0 0 0 0 0 0 0 0 0 0 0 0 0 0 0 0 0 0.25 0"/>
<feBlend mode="normal" in2="shape" result="effect1_innerShadow"/>
<feColorMatrix in="SourceAlpha" type="matrix" values="0 0 0 0 0 0 0 0 0 0 0 0 0 0 0 0 0 0 127 0" result="hardAlpha"/>
<feOffset dx="-2.70244" dy="2.70244"/>
<feComposite in2="hardAlpha" operator="arithmetic" k2="-1" k3="1"/>
<feColorMatrix type="matrix" values="0 0 0 0 1 0 0 0 0 1 0 0 0 0 1 0 0 0 0.25 0"/>
<feBlend mode="normal" in2="effect1_innerShadow" result="effect2_innerShadow"/>
</filter>
<filter id="filter16_ii" x="116.35" y="0.888672" width="21.6195" height="21.6195" filterUnits="userSpaceOnUse" color-interpolation-filters="sRGB">
<feFlood flood-opacity="0" result="BackgroundImageFix"/>
<feBlend mode="normal" in="SourceGraphic" in2="BackgroundImageFix" result="shape"/>
<feColorMatrix in="SourceAlpha" type="matrix" values="0 0 0 0 0 0 0 0 0 0 0 0 0 0 0 0 0 0 127 0" result="hardAlpha"/>
<feOffset dx="5.40488" dy="-5.40488"/>
<feComposite in2="hardAlpha" operator="arithmetic" k2="-1" k3="1"/>
<feColorMatrix type="matrix" values="0 0 0 0 0 0 0 0 0 0 0 0 0 0 0 0 0 0 0.25 0"/>
<feBlend mode="normal" in2="shape" result="effect1_innerShadow"/>
<feColorMatrix in="SourceAlpha" type="matrix" values="0 0 0 0 0 0 0 0 0 0 0 0 0 0 0 0 0 0 127 0" result="hardAlpha"/>
<feOffset dx="-5.40488" dy="5.40488"/>
<feComposite in2="hardAlpha" operator="arithmetic" k2="-1" k3="1"/>
<feColorMatrix type="matrix" values="0 0 0 0 1 0 0 0 0 1 0 0 0 0 1 0 0 0 0.25 0"/>
<feBlend mode="normal" in2="effect1_innerShadow" result="effect2_innerShadow"/>
</filter>
</defs>
</svg>
