<svg width="250" height="281" viewBox="0 0 250 281" fill="none" xmlns="http://www.w3.org/2000/svg">
<g filter="url(#filter0_ii)">
<path d="M21.2603 105.876C21.2603 96.9213 28.5198 89.6617 37.4749 89.6617H167.192C176.147 89.6617 183.407 96.9213 183.407 105.876V213.974C183.407 222.929 176.147 230.189 167.192 230.189H37.4749C28.5198 230.189 21.2603 222.929 21.2603 213.974V105.876Z" fill="#DC968D"/>
</g>
<path d="M21.2603 105.876C21.2603 96.9213 28.5198 89.6617 37.4749 89.6617H167.192C176.147 89.6617 183.407 96.9213 183.407 105.876V213.974C183.407 222.929 176.147 230.189 167.192 230.189H37.4749C28.5198 230.189 21.2603 222.929 21.2603 213.974V105.876Z" stroke="#1F2024" stroke-width="5.40488"/>
<g filter="url(#filter1_i)">
<path d="M88.8213 105.876C88.8213 96.9213 96.0808 89.6617 105.036 89.6617H223.943C232.898 89.6617 240.158 96.9213 240.158 105.876V213.974C240.158 222.929 232.898 230.189 223.943 230.189H105.036C96.0808 230.189 88.8213 222.929 88.8213 213.974V105.876Z" fill="#EFA686"/>
</g>
<path d="M88.8213 105.876C88.8213 96.9213 96.0808 89.6617 105.036 89.6617H223.943C232.898 89.6617 240.158 96.9213 240.158 105.876V213.974C240.158 222.929 232.898 230.189 223.943 230.189H105.036C96.0808 230.189 88.8213 222.929 88.8213 213.974V105.876Z" stroke="#1F2024" stroke-width="5.40488"/>
<path d="M175.299 92.3643H200.973L163.139 227.486H137.465L175.299 92.3643Z" fill="white" fill-opacity="0.5"/>
<path d="M165.165 92.3643H169.219L131.385 227.486H127.331L165.165 92.3643Z" fill="white" fill-opacity="0.5"/>
<g filter="url(#filter2_d)">
<rect x="5.72119" y="129.523" width="97.8925" height="10.8098" rx="5.40488" fill="#E2E2E2" stroke="#1F2024" stroke-width="5.40488"/>
<g filter="url(#filter3_ii)">
<path d="M173.102 131.218C160.856 131.218 159.089 122.13 133.904 120.844C108.734 119.82 102.611 125.469 100.736 131.218C98.8614 136.967 98.4802 144.703 115.058 159.746C131.636 174.789 147.851 169.603 155.01 164.933C162.17 160.263 167.932 141.57 173.102 141.592C178.272 141.614 183.28 159.746 191.193 164.933C199.107 170.12 214.944 174.789 231.145 159.746C247.346 144.703 247.342 136.291 245.467 131.218C243.593 126.145 237.469 119.82 212.3 120.844C187.114 122.13 185.348 131.218 173.102 131.218Z" fill="#E2E2E2"/>
</g>
<path d="M173.102 131.218C160.856 131.218 159.089 122.13 133.904 120.844C108.734 119.82 102.611 125.469 100.736 131.218C98.8614 136.967 98.4802 144.703 115.058 159.746C131.636 174.789 147.851 169.603 155.01 164.933C162.17 160.263 167.932 141.57 173.102 141.592C178.272 141.614 183.28 159.746 191.193 164.933C199.107 170.12 214.944 174.789 231.145 159.746C247.346 144.703 247.342 136.291 245.467 131.218C243.593 126.145 237.469 119.82 212.3 120.844C187.114 122.13 185.348 131.218 173.102 131.218Z" stroke="#1F2024" stroke-width="5.40488"/>
<path d="M161.039 141.549C161.461 133.965 146.709 125.864 130.882 126.145C115.063 126.44 113.004 135.505 112.788 138.981C112.401 147.035 122.073 165.139 139.929 164.654C157.785 164.15 160.794 146.552 161.039 141.549Z" fill="#1F2024"/>
<path d="M185.164 141.549C184.742 133.965 199.494 125.864 215.321 126.145C231.14 126.44 233.199 135.505 233.415 138.981C233.802 147.035 224.13 165.139 206.274 164.654C188.418 164.15 185.409 146.552 185.164 141.549Z" fill="#1F2024"/>
</g>
<circle cx="49.6359" cy="169.384" r="24.322" fill="black" fill-opacity="0.16"/>
<g filter="url(#filter4_ii)">
<circle cx="48.9601" cy="161.952" r="24.322" fill="#ADA3EE"/>
</g>
<circle cx="48.9601" cy="161.952" r="24.322" stroke="#1F2024" stroke-width="5.40488"/>
<g filter="url(#filter5_ii)">
<circle cx="35.448" cy="161.952" r="16.2146" fill="#CAE9FA"/>
</g>
<circle cx="35.448" cy="161.952" r="16.2146" stroke="#1F2024" stroke-width="5.40488"/>
<g filter="url(#filter6_ii)">
<path fill-rule="evenodd" clip-rule="evenodd" d="M156.382 174.789C147.427 174.789 140.167 182.048 140.167 191.003V193.192C140.167 193.195 140.167 193.197 140.167 193.199C140.167 204.347 130.718 219.379 112.999 214.987C105.414 213.107 102.12 205.027 98.714 196.668C94.1633 185.502 89.4104 173.84 73.952 175.802C49.9988 178.842 69.03 221.743 77.8895 240.829C96.4127 280.734 177.98 286.864 214.062 264.801C238.111 250.096 247.458 210.207 245.234 183.909C245.063 181.883 240.64 181.545 239.984 183.909C239.969 183.962 239.949 184.037 239.923 184.135C239.133 187.063 233.009 209.757 220.625 214.987C207.845 220.385 199.643 210.286 199.621 193.269V191.003C199.621 182.048 192.361 174.789 183.406 174.789H156.382Z" fill="#2477D5"/>
</g>
<path d="M140.167 193.192L142.87 193.221L142.87 193.207V193.192H140.167ZM112.999 214.987L112.349 217.61L112.349 217.61L112.999 214.987ZM98.714 196.668L96.2114 197.688L96.2114 197.688L98.714 196.668ZM73.952 175.802L73.6117 173.121L73.952 175.802ZM77.8895 240.829L80.3407 239.692L80.3407 239.692L77.8895 240.829ZM214.062 264.801L212.652 262.496L212.652 262.496L214.062 264.801ZM245.234 183.909L247.927 183.682L247.927 183.682L245.234 183.909ZM239.984 183.909L237.38 183.187L237.38 183.187L239.984 183.909ZM239.923 184.135L237.314 183.43L237.314 183.431L239.923 184.135ZM220.625 214.987L219.573 212.498L219.573 212.498L220.625 214.987ZM199.621 193.269L196.918 193.269L196.918 193.272L199.621 193.269ZM142.87 191.003C142.87 183.541 148.919 177.491 156.382 177.491V172.086C145.934 172.086 137.465 180.556 137.465 191.003H142.87ZM142.87 193.192V191.003H137.465V193.192H142.87ZM137.465 193.164C137.465 193.172 137.465 193.185 137.465 193.199H142.87C142.87 193.209 142.87 193.217 142.87 193.221L137.465 193.164ZM137.465 193.199C137.465 198.102 135.355 203.948 131.312 208.015C127.387 211.961 121.563 214.326 113.649 212.364L112.349 217.61C122.154 220.041 129.914 217.085 135.144 211.826C140.254 206.687 142.87 199.444 142.87 193.199H137.465ZM113.649 212.364C110.737 211.642 108.515 209.727 106.539 206.76C104.521 203.73 102.946 199.893 101.217 195.649L96.2114 197.688C97.8881 201.802 99.6628 206.185 102.04 209.755C104.459 213.388 107.676 216.452 112.349 217.61L113.649 212.364ZM101.217 195.649C98.9884 190.181 96.497 183.984 92.4248 179.496C88.141 174.775 82.2133 172.029 73.6117 173.121L74.2922 178.483C81.1491 177.613 85.327 179.717 88.422 183.128C91.7285 186.772 93.889 191.99 96.2114 197.688L101.217 195.649ZM73.6117 173.121C70.19 173.555 67.3468 174.731 65.1237 176.633C62.9041 178.532 61.4726 181.01 60.6309 183.774C58.981 189.192 59.5101 195.988 60.9727 202.861C63.9165 216.693 71.0219 232.453 75.4382 241.967L80.3407 239.692C75.8975 230.12 69.0577 214.886 66.2592 201.736C64.8507 195.118 64.5596 189.426 65.8013 185.348C66.4054 183.365 67.3477 181.843 68.6375 180.74C69.9238 179.639 71.7256 178.809 74.2922 178.483L73.6117 173.121ZM75.4382 241.967C85.2989 263.21 111.542 274.931 139.021 278.73C166.609 282.544 196.718 278.574 215.472 267.107L212.652 262.496C195.324 273.091 166.609 277.087 139.761 273.376C112.806 269.65 89.0033 258.353 80.3407 239.692L75.4382 241.967ZM215.472 267.107C228.262 259.286 236.898 244.956 242.063 229.562C247.242 214.123 249.07 197.206 247.927 183.682L242.541 184.137C243.621 196.91 241.888 213.087 236.938 227.843C231.973 242.644 223.912 255.611 212.652 262.496L215.472 267.107ZM247.927 183.682C247.793 182.098 246.816 181.022 245.863 180.428C244.933 179.849 243.86 179.596 242.885 179.562C241.16 179.502 238.205 180.215 237.38 183.187L242.588 184.632C242.56 184.733 242.505 184.834 242.436 184.914C242.372 184.988 242.321 185.015 242.319 185.016C242.319 185.016 242.353 184.999 242.429 184.984C242.503 184.968 242.596 184.96 242.696 184.963C242.798 184.967 242.885 184.982 242.95 185C243.017 185.018 243.031 185.032 243.004 185.015C242.978 184.999 242.877 184.931 242.77 184.777C242.654 184.611 242.562 184.387 242.541 184.137L247.927 183.682ZM237.38 183.187C237.362 183.251 237.339 183.338 237.314 183.43L242.532 184.839C242.559 184.737 242.577 184.673 242.588 184.632L237.38 183.187ZM237.314 183.431C236.928 184.86 235.25 191.073 232.18 197.539C229.031 204.172 224.768 210.304 219.573 212.498L221.676 217.477C228.866 214.44 233.857 206.61 237.063 199.857C240.349 192.935 242.127 186.337 242.532 184.839L237.314 183.431ZM219.573 212.498C216.75 213.69 214.373 213.947 212.425 213.603C210.497 213.262 208.792 212.3 207.33 210.706C204.327 207.435 202.334 201.448 202.323 193.265L196.918 193.272C196.93 202.107 199.049 209.678 203.348 214.361C205.536 216.745 208.279 218.359 211.484 218.925C214.669 219.488 218.11 218.983 221.676 217.477L219.573 212.498ZM196.918 191.003V193.269H202.323V191.003H196.918ZM183.406 177.491C190.869 177.491 196.918 183.541 196.918 191.003H202.323C202.323 180.556 193.854 172.086 183.406 172.086V177.491ZM156.382 177.491H183.406V172.086H156.382V177.491Z" fill="#1F2024"/>
<path d="M180.704 193.706C180.704 194.77 180.494 195.825 180.087 196.808C179.679 197.792 179.082 198.686 178.329 199.438C177.576 200.191 176.683 200.788 175.699 201.196C174.715 201.603 173.661 201.813 172.597 201.813C171.532 201.813 170.478 201.603 169.494 201.196C168.51 200.788 167.617 200.191 166.864 199.438C166.111 198.686 165.514 197.792 165.106 196.808C164.699 195.825 164.489 194.77 164.489 193.706" stroke="#1F2024" stroke-width="8.10732" stroke-linecap="round"/>
<g filter="url(#filter7_i)">
<circle cx="73.282" cy="192.354" r="6.7561" fill="white"/>
</g>
<circle cx="73.282" cy="192.354" r="6.7561" stroke="#1F2024" stroke-width="5.40488"/>
<path d="M234.078 67.3667L203 72.096" stroke="#1F2024" stroke-width="5.40488" stroke-linecap="round" stroke-linejoin="round"/>
<path d="M234.078 86.9593L204.351 80.2032" stroke="#1F2024" stroke-width="5.40488" stroke-linecap="round" stroke-linejoin="round"/>
<path d="M203.337 26.4923L197.594 70.4069C181.471 62.5241 176.449 56.384 169.894 44.396L203.337 26.4923Z" fill="#E79834" stroke="#1F2024" stroke-width="5.40488" stroke-linejoin="round"/>
<g filter="url(#filter8_ii)">
<path fill-rule="evenodd" clip-rule="evenodd" d="M187.474 43.3221C204.768 55.6121 214.484 72.281 214.484 89.6617H122.264L30.043 89.6617C30.043 80.6358 32.6632 71.8018 37.6043 63.6733C35.4919 51.3097 33.6362 43.0325 30.0432 28.8568C40.2951 30.6143 51.5009 32.7811 62.0603 40.0185C78.7419 29.8017 100.091 24.1276 122.264 24.1276C146.722 24.1276 170.179 31.032 187.474 43.3221Z" fill="#EDB146"/>
</g>
<path d="M214.484 89.6617V92.3642C215.977 92.3642 217.187 91.1542 217.187 89.6617H214.484ZM187.474 43.3221L189.039 41.1192L189.039 41.1192L187.474 43.3221ZM122.264 89.6617L122.264 92.3642H122.264V89.6617ZM30.043 89.6617L27.3405 89.6617C27.3405 90.3784 27.6252 91.0658 28.1321 91.5726C28.6389 92.0794 29.3262 92.3641 30.043 92.3641L30.043 89.6617ZM37.6043 63.6733L39.9136 65.0771C40.252 64.5204 40.3779 63.8603 40.2682 63.2182L37.6043 63.6733ZM30.0432 28.8568L30.4998 26.1932C29.5982 26.0386 28.6797 26.3506 28.0588 27.0223C27.4378 27.6939 27.1988 28.6341 27.4236 29.5208L30.0432 28.8568ZM62.0603 40.0185L60.5324 42.2476C61.4116 42.8502 62.5628 42.8797 63.4717 42.3231L62.0603 40.0185ZM217.187 89.6617C217.187 71.2085 206.869 53.7898 189.039 41.1192L185.908 45.5249C202.667 57.4344 211.782 73.3535 211.782 89.6617H217.187ZM122.264 92.3642H214.484V86.9593H122.264V92.3642ZM30.043 92.3641L122.264 92.3642L122.264 86.9593L30.043 86.9593L30.043 92.3641ZM35.2951 62.2696C30.1193 70.784 27.3405 80.099 27.3405 89.6617L32.7454 89.6617C32.7454 81.1725 35.2071 72.8195 39.9136 65.0771L35.2951 62.2696ZM27.4236 29.5208C31.0053 43.6516 32.8436 51.856 34.9405 64.1285L40.2682 63.2182C38.1401 50.7635 36.2672 42.4133 32.6628 28.1928L27.4236 29.5208ZM63.5881 37.7894C52.4969 30.1874 40.7613 27.9523 30.4998 26.1932L29.5865 31.5204C39.8289 33.2762 50.505 35.3747 60.5324 42.2476L63.5881 37.7894ZM122.264 21.4251C99.6556 21.4251 77.8057 27.2061 60.6488 37.7139L63.4717 42.3231C79.6782 32.3973 100.527 26.83 122.264 26.83V21.4251ZM189.039 41.1192C171.22 28.4563 147.194 21.4251 122.264 21.4251V26.83C146.25 26.83 169.138 33.6077 185.908 45.5249L189.039 41.1192Z" fill="#1F2024"/>
<mask id="mask0" mask-type="alpha" maskUnits="userSpaceOnUse" x="27" y="21" width="191" height="72">
<path fill-rule="evenodd" clip-rule="evenodd" d="M187.474 43.3221C204.768 55.6121 214.484 72.281 214.484 89.6617H122.264L30.043 89.6617C30.043 80.6358 32.6632 71.8018 37.6043 63.6733C35.4919 51.3097 33.6362 43.0325 30.0432 28.8568C40.2951 30.6143 51.5009 32.7811 62.0603 40.0185C78.7419 29.8017 100.091 24.1276 122.264 24.1276C146.722 24.1276 170.179 31.032 187.474 43.3221Z" fill="#EDB146"/>
<path d="M214.484 89.6617V92.3642C215.977 92.3642 217.187 91.1542 217.187 89.6617H214.484ZM187.474 43.3221L189.039 41.1192L189.039 41.1192L187.474 43.3221ZM122.264 89.6617L122.264 92.3642H122.264V89.6617ZM30.043 89.6617L27.3405 89.6617C27.3405 90.3784 27.6252 91.0658 28.1321 91.5726C28.6389 92.0794 29.3262 92.3641 30.043 92.3641L30.043 89.6617ZM37.6043 63.6733L39.9136 65.0771C40.252 64.5204 40.3779 63.8603 40.2682 63.2182L37.6043 63.6733ZM30.0432 28.8568L30.4998 26.1932C29.5982 26.0386 28.6797 26.3506 28.0588 27.0223C27.4378 27.6939 27.1988 28.6341 27.4236 29.5208L30.0432 28.8568ZM62.0603 40.0185L60.5324 42.2476C61.4116 42.8502 62.5628 42.8797 63.4717 42.3231L62.0603 40.0185ZM217.187 89.6617C217.187 71.2085 206.869 53.7898 189.039 41.1192L185.908 45.5249C202.667 57.4344 211.782 73.3535 211.782 89.6617H217.187ZM122.264 92.3642H214.484V86.9593H122.264V92.3642ZM30.043 92.3641L122.264 92.3642L122.264 86.9593L30.043 86.9593L30.043 92.3641ZM35.2951 62.2696C30.1193 70.784 27.3405 80.099 27.3405 89.6617L32.7454 89.6617C32.7454 81.1725 35.2071 72.8195 39.9136 65.0771L35.2951 62.2696ZM27.4236 29.5208C31.0053 43.6516 32.8436 51.856 34.9405 64.1285L40.2682 63.2182C38.1401 50.7635 36.2672 42.4133 32.6628 28.1928L27.4236 29.5208ZM63.5881 37.7894C52.4969 30.1874 40.7613 27.9523 30.4998 26.1932L29.5865 31.5204C39.8289 33.2762 50.505 35.3747 60.5324 42.2476L63.5881 37.7894ZM122.264 21.4251C99.6556 21.4251 77.8057 27.2061 60.6488 37.7139L63.4717 42.3231C79.6782 32.3973 100.527 26.83 122.264 26.83V21.4251ZM189.039 41.1192C171.22 28.4563 147.194 21.4251 122.264 21.4251V26.83C146.25 26.83 169.138 33.6077 185.908 45.5249L189.039 41.1192Z" fill="#1F2024"/>
</mask>
<g mask="url(#mask0)">
<path d="M103.685 78.1763L42.8713 64.6641C36.5685 66.5783 23.9629 71.6228 23.9629 76.4872C23.9629 81.3516 30.7767 86.6214 34.1837 88.6482L103.685 78.1763Z" fill="#FE204F" stroke="#1F2024" stroke-width="5.40488" stroke-linecap="round" stroke-linejoin="round"/>
<path d="M181.38 78.1763L221.578 64.6641C225.745 66.5783 234.077 71.6228 234.077 76.4872C234.077 81.3516 229.573 86.6214 227.321 88.6482L181.38 78.1763Z" fill="#FE204F" stroke="#1F2024" stroke-width="5.40488" stroke-linecap="round" stroke-linejoin="round"/>
</g>
<path d="M12.4771 66.691L43.5551 71.4203" stroke="#1F2024" stroke-width="5.40488" stroke-linecap="round" stroke-linejoin="round"/>
<path d="M12.4771 86.2837L42.2039 79.5276" stroke="#1F2024" stroke-width="5.40488" stroke-linecap="round" stroke-linejoin="round"/>
<path d="M43.2178 42.0312C46.258 43.0447 50.466 44.7472 54.0275 48.4495C50.9873 50.4764 48.2848 53.5166 46.9336 55.2056" stroke="#1F2024" stroke-width="5.40488" stroke-linecap="round" stroke-linejoin="round"/>
<path d="M214.484 89.6617V92.3642C215.977 92.3642 217.187 91.1542 217.187 89.6617H214.484ZM187.474 43.3221L189.039 41.1192L189.039 41.1192L187.474 43.3221ZM122.264 89.6617L122.264 92.3642H122.264V89.6617ZM30.043 89.6617L27.3405 89.6617C27.3405 90.3784 27.6252 91.0658 28.1321 91.5726C28.6389 92.0794 29.3262 92.3641 30.043 92.3641L30.043 89.6617ZM37.6043 63.6733L39.9136 65.0771C40.252 64.5204 40.3779 63.8603 40.2682 63.2182L37.6043 63.6733ZM30.0432 28.8568L30.4998 26.1932C29.5982 26.0386 28.6797 26.3506 28.0588 27.0223C27.4378 27.6939 27.1988 28.6341 27.4236 29.5208L30.0432 28.8568ZM62.0603 40.0185L60.5324 42.2476C61.4116 42.8502 62.5628 42.8797 63.4717 42.3231L62.0603 40.0185ZM217.187 89.6617C217.187 71.2085 206.869 53.7898 189.039 41.1192L185.908 45.5249C202.667 57.4344 211.782 73.3535 211.782 89.6617H217.187ZM122.264 92.3642H214.484V86.9593H122.264V92.3642ZM30.043 92.3641L122.264 92.3642L122.264 86.9593L30.043 86.9593L30.043 92.3641ZM35.2951 62.2696C30.1193 70.784 27.3405 80.099 27.3405 89.6617L32.7454 89.6617C32.7454 81.1725 35.2071 72.8195 39.9136 65.0771L35.2951 62.2696ZM27.4236 29.5208C31.0053 43.6516 32.8436 51.856 34.9405 64.1285L40.2682 63.2182C38.1401 50.7635 36.2672 42.4133 32.6628 28.1928L27.4236 29.5208ZM63.5881 37.7894C52.4969 30.1874 40.7613 27.9523 30.4998 26.1932L29.5865 31.5204C39.8289 33.2762 50.505 35.3747 60.5324 42.2476L63.5881 37.7894ZM122.264 21.4251C99.6556 21.4251 77.8057 27.2061 60.6488 37.7139L63.4717 42.3231C79.6782 32.3973 100.527 26.83 122.264 26.83V21.4251ZM189.039 41.1192C171.22 28.4563 147.194 21.4251 122.264 21.4251V26.83C146.25 26.83 169.138 33.6077 185.908 45.5249L189.039 41.1192Z" fill="#1F2024"/>
<path d="M144.559 49.8008C137.042 34.5006 120.237 24.8032 103.347 26.1544C96.8085 26.6775 88.4832 28.7443 84.4295 29.8703L80.0381 20.7496H92.1991V7.91298L107.738 16.3581L113.143 3.18372L124.291 15.0069L144.559 6.22396C149.964 16.3581 150.301 36.9642 144.559 49.8008Z" fill="#FE204F" stroke="#1F2024" stroke-width="5.40488" stroke-linejoin="round"/>
<circle cx="111.792" cy="53.1788" r="7.43171" fill="#1F2024"/>
<circle cx="114.157" cy="52.1654" r="3.71585" fill="white"/>
<circle cx="172.597" cy="53.1788" r="7.43171" fill="#1F2024"/>
<path d="M154.017 76.8252C154.017 80.8789 150.774 88.9862 137.803 88.9862" stroke="#1F2024" stroke-width="5.40488" stroke-linecap="round" stroke-linejoin="round"/>
<path d="M156.382 76.8252C156.382 80.8789 159.625 88.9862 172.597 88.9862" stroke="#1F2024" stroke-width="5.40488" stroke-linecap="round" stroke-linejoin="round"/>
<path d="M136.79 66.2784C136.79 63.7878 138.593 61.6501 141.06 61.3139C150.567 60.019 157.817 60.0908 165.707 61.2563C168.143 61.616 169.894 63.7456 169.894 66.2073V66.2073C169.894 74.6833 163.023 81.5544 154.547 81.5544H152.066C143.629 81.5544 136.79 74.7151 136.79 66.2784V66.2784Z" fill="#1F2024"/>
<path d="M161.111 66.0154C161.9 66.2406 163.544 67.2315 163.814 69.3934" stroke="white" stroke-width="5.40488" stroke-linecap="round" stroke-linejoin="round"/>
<circle cx="174.286" cy="52.1654" r="3.71585" fill="white"/>
<path d="M138.076 31.4802C138.032 32.9721 139.206 34.2169 140.698 34.2607C142.19 34.3044 143.435 33.1304 143.479 31.6386L138.076 31.4802ZM142.833 16.9286C142.589 15.4563 141.197 14.461 139.725 14.7057C138.252 14.9503 137.257 16.3422 137.502 17.8146L142.833 16.9286ZM143.479 31.6386C143.632 26.3943 143.562 21.3111 142.833 16.9286L137.502 17.8146C138.141 21.6633 138.227 26.3201 138.076 31.4802L143.479 31.6386Z" fill="white"/>
<defs>
<filter id="filter0_ii" x="18.5576" y="86.9594" width="167.551" height="145.932" filterUnits="userSpaceOnUse" color-interpolation-filters="sRGB">
<feFlood flood-opacity="0" result="BackgroundImageFix"/>
<feBlend mode="normal" in="SourceGraphic" in2="BackgroundImageFix" result="shape"/>
<feColorMatrix in="SourceAlpha" type="matrix" values="0 0 0 0 0 0 0 0 0 0 0 0 0 0 0 0 0 0 127 0" result="hardAlpha"/>
<feOffset dy="-10.8098"/>
<feComposite in2="hardAlpha" operator="arithmetic" k2="-1" k3="1"/>
<feColorMatrix type="matrix" values="0 0 0 0 0 0 0 0 0 0 0 0 0 0 0 0 0 0 0.25 0"/>
<feBlend mode="normal" in2="shape" result="effect1_innerShadow"/>
<feColorMatrix in="SourceAlpha" type="matrix" values="0 0 0 0 0 0 0 0 0 0 0 0 0 0 0 0 0 0 127 0" result="hardAlpha"/>
<feOffset dy="10.8098"/>
<feComposite in2="hardAlpha" operator="arithmetic" k2="-1" k3="1"/>
<feColorMatrix type="matrix" values="0 0 0 0 1 0 0 0 0 1 0 0 0 0 1 0 0 0 0.25 0"/>
<feBlend mode="normal" in2="effect1_innerShadow" result="effect2_innerShadow"/>
</filter>
<filter id="filter1_i" x="86.1187" y="86.9594" width="156.741" height="145.932" filterUnits="userSpaceOnUse" color-interpolation-filters="sRGB">
<feFlood flood-opacity="0" result="BackgroundImageFix"/>
<feBlend mode="normal" in="SourceGraphic" in2="BackgroundImageFix" result="shape"/>
<feColorMatrix in="SourceAlpha" type="matrix" values="0 0 0 0 0 0 0 0 0 0 0 0 0 0 0 0 0 0 127 0" result="hardAlpha"/>
<feOffset dx="-16.2146" dy="5.40488"/>
<feComposite in2="hardAlpha" operator="arithmetic" k2="-1" k3="1"/>
<feColorMatrix type="matrix" values="0 0 0 0 1 0 0 0 0 1 0 0 0 0 1 0 0 0 0.25 0"/>
<feBlend mode="normal" in2="shape" result="effect1_innerShadow"/>
</filter>
<filter id="filter2_d" x="0.316116" y="118.021" width="248.685" height="57.311" filterUnits="userSpaceOnUse" color-interpolation-filters="sRGB">
<feFlood flood-opacity="0" result="BackgroundImageFix"/>
<feColorMatrix in="SourceAlpha" type="matrix" values="0 0 0 0 0 0 0 0 0 0 0 0 0 0 0 0 0 0 127 0" result="hardAlpha"/>
<feOffset dx="-2.70244" dy="2.70244"/>
<feColorMatrix type="matrix" values="0 0 0 0 0 0 0 0 0 0 0 0 0 0 0 0 0 0 0.25 0"/>
<feBlend mode="normal" in2="BackgroundImageFix" result="effect1_dropShadow"/>
<feBlend mode="normal" in="SourceGraphic" in2="effect1_dropShadow" result="shape"/>
</filter>
<filter id="filter3_ii" x="97.1455" y="118.021" width="151.856" height="54.6086" filterUnits="userSpaceOnUse" color-interpolation-filters="sRGB">
<feFlood flood-opacity="0" result="BackgroundImageFix"/>
<feBlend mode="normal" in="SourceGraphic" in2="BackgroundImageFix" result="shape"/>
<feColorMatrix in="SourceAlpha" type="matrix" values="0 0 0 0 0 0 0 0 0 0 0 0 0 0 0 0 0 0 127 0" result="hardAlpha"/>
<feOffset dy="-10.8098"/>
<feComposite in2="hardAlpha" operator="arithmetic" k2="-1" k3="1"/>
<feColorMatrix type="matrix" values="0 0 0 0 0 0 0 0 0 0 0 0 0 0 0 0 0 0 0.25 0"/>
<feBlend mode="normal" in2="shape" result="effect1_innerShadow"/>
<feColorMatrix in="SourceAlpha" type="matrix" values="0 0 0 0 0 0 0 0 0 0 0 0 0 0 0 0 0 0 127 0" result="hardAlpha"/>
<feOffset dy="10.8098"/>
<feComposite in2="hardAlpha" operator="arithmetic" k2="-1" k3="1"/>
<feColorMatrix type="matrix" values="0 0 0 0 1 0 0 0 0 1 0 0 0 0 1 0 0 0 0.25 0"/>
<feBlend mode="normal" in2="effect1_innerShadow" result="effect2_innerShadow"/>
</filter>
<filter id="filter4_ii" x="21.9355" y="134.928" width="54.0488" height="54.0488" filterUnits="userSpaceOnUse" color-interpolation-filters="sRGB">
<feFlood flood-opacity="0" result="BackgroundImageFix"/>
<feBlend mode="normal" in="SourceGraphic" in2="BackgroundImageFix" result="shape"/>
<feColorMatrix in="SourceAlpha" type="matrix" values="0 0 0 0 0 0 0 0 0 0 0 0 0 0 0 0 0 0 127 0" result="hardAlpha"/>
<feOffset dx="10.8098"/>
<feComposite in2="hardAlpha" operator="arithmetic" k2="-1" k3="1"/>
<feColorMatrix type="matrix" values="0 0 0 0 0 0 0 0 0 0 0 0 0 0 0 0 0 0 0.25 0"/>
<feBlend mode="normal" in2="shape" result="effect1_innerShadow"/>
<feColorMatrix in="SourceAlpha" type="matrix" values="0 0 0 0 0 0 0 0 0 0 0 0 0 0 0 0 0 0 127 0" result="hardAlpha"/>
<feOffset dx="-16.2146" dy="5.40488"/>
<feComposite in2="hardAlpha" operator="arithmetic" k2="-1" k3="1"/>
<feColorMatrix type="matrix" values="0 0 0 0 1 0 0 0 0 1 0 0 0 0 1 0 0 0 0.25 0"/>
<feBlend mode="normal" in2="effect1_innerShadow" result="effect2_innerShadow"/>
</filter>
<filter id="filter5_ii" x="16.5308" y="143.035" width="37.8341" height="37.8341" filterUnits="userSpaceOnUse" color-interpolation-filters="sRGB">
<feFlood flood-opacity="0" result="BackgroundImageFix"/>
<feBlend mode="normal" in="SourceGraphic" in2="BackgroundImageFix" result="shape"/>
<feColorMatrix in="SourceAlpha" type="matrix" values="0 0 0 0 0 0 0 0 0 0 0 0 0 0 0 0 0 0 127 0" result="hardAlpha"/>
<feOffset dx="10.8098"/>
<feComposite in2="hardAlpha" operator="arithmetic" k2="-1" k3="1"/>
<feColorMatrix type="matrix" values="0 0 0 0 0 0 0 0 0 0 0 0 0 0 0 0 0 0 0.25 0"/>
<feBlend mode="normal" in2="shape" result="effect1_innerShadow"/>
<feColorMatrix in="SourceAlpha" type="matrix" values="0 0 0 0 0 0 0 0 0 0 0 0 0 0 0 0 0 0 127 0" result="hardAlpha"/>
<feOffset dx="-16.2146" dy="5.40488"/>
<feComposite in2="hardAlpha" operator="arithmetic" k2="-1" k3="1"/>
<feColorMatrix type="matrix" values="0 0 0 0 1 0 0 0 0 1 0 0 0 0 1 0 0 0 0.25 0"/>
<feBlend mode="normal" in2="effect1_innerShadow" result="effect2_innerShadow"/>
</filter>
<filter id="filter6_ii" x="59.6123" y="172.086" width="188.642" height="108.05" filterUnits="userSpaceOnUse" color-interpolation-filters="sRGB">
<feFlood flood-opacity="0" result="BackgroundImageFix"/>
<feBlend mode="normal" in="SourceGraphic" in2="BackgroundImageFix" result="shape"/>
<feColorMatrix in="SourceAlpha" type="matrix" values="0 0 0 0 0 0 0 0 0 0 0 0 0 0 0 0 0 0 127 0" result="hardAlpha"/>
<feOffset dx="10.8098"/>
<feComposite in2="hardAlpha" operator="arithmetic" k2="-1" k3="1"/>
<feColorMatrix type="matrix" values="0 0 0 0 0 0 0 0 0 0 0 0 0 0 0 0 0 0 0.25 0"/>
<feBlend mode="normal" in2="shape" result="effect1_innerShadow"/>
<feColorMatrix in="SourceAlpha" type="matrix" values="0 0 0 0 0 0 0 0 0 0 0 0 0 0 0 0 0 0 127 0" result="hardAlpha"/>
<feOffset dx="-10.8098" dy="5.40488"/>
<feComposite in2="hardAlpha" operator="arithmetic" k2="-1" k3="1"/>
<feColorMatrix type="matrix" values="0 0 0 0 1 0 0 0 0 1 0 0 0 0 1 0 0 0 0.25 0"/>
<feBlend mode="normal" in2="effect1_innerShadow" result="effect2_innerShadow"/>
</filter>
<filter id="filter7_i" x="63.8232" y="182.896" width="18.9171" height="18.9171" filterUnits="userSpaceOnUse" color-interpolation-filters="sRGB">
<feFlood flood-opacity="0" result="BackgroundImageFix"/>
<feBlend mode="normal" in="SourceGraphic" in2="BackgroundImageFix" result="shape"/>
<feColorMatrix in="SourceAlpha" type="matrix" values="0 0 0 0 0 0 0 0 0 0 0 0 0 0 0 0 0 0 127 0" result="hardAlpha"/>
<feOffset dx="-10.8098" dy="5.40488"/>
<feComposite in2="hardAlpha" operator="arithmetic" k2="-1" k3="1"/>
<feColorMatrix type="matrix" values="0 0 0 0 1 0 0 0 0 1 0 0 0 0 1 0 0 0 0.25 0"/>
<feBlend mode="normal" in2="shape" result="effect1_innerShadow"/>
</filter>
<filter id="filter8_ii" x="27.3403" y="21.4252" width="189.846" height="70.939" filterUnits="userSpaceOnUse" color-interpolation-filters="sRGB">
<feFlood flood-opacity="0" result="BackgroundImageFix"/>
<feBlend mode="normal" in="SourceGraphic" in2="BackgroundImageFix" result="shape"/>
<feColorMatrix in="SourceAlpha" type="matrix" values="0 0 0 0 0 0 0 0 0 0 0 0 0 0 0 0 0 0 127 0" result="hardAlpha"/>
<feOffset dx="10.8098"/>
<feComposite in2="hardAlpha" operator="arithmetic" k2="-1" k3="1"/>
<feColorMatrix type="matrix" values="0 0 0 0 0 0 0 0 0 0 0 0 0 0 0 0 0 0 0.25 0"/>
<feBlend mode="normal" in2="shape" result="effect1_innerShadow"/>
<feColorMatrix in="SourceAlpha" type="matrix" values="0 0 0 0 0 0 0 0 0 0 0 0 0 0 0 0 0 0 127 0" result="hardAlpha"/>
<feOffset dx="-16.2146" dy="5.40488"/>
<feComposite in2="hardAlpha" operator="arithmetic" k2="-1" k3="1"/>
<feColorMatrix type="matrix" values="0 0 0 0 1 0 0 0 0 1 0 0 0 0 1 0 0 0 0.25 0"/>
<feBlend mode="normal" in2="effect1_innerShadow" result="effect2_innerShadow"/>
</filter>
</defs>
</svg>
