<svg width="264" height="237" viewBox="0 0 264 237" fill="none" xmlns="http://www.w3.org/2000/svg">
<g filter="url(#filter0_ii)">
<path d="M20.0308 91.8764C20.0308 82.9213 27.2903 75.6617 36.2454 75.6617H165.962C174.918 75.6617 182.177 82.9213 182.177 91.8764V199.974C182.177 208.929 174.918 216.189 165.962 216.189H36.2454C27.2903 216.189 20.0308 208.929 20.0308 199.974V91.8764Z" fill="#8A7ED9"/>
</g>
<path d="M20.0308 91.8764C20.0308 82.9213 27.2903 75.6617 36.2454 75.6617H165.962C174.918 75.6617 182.177 82.9213 182.177 91.8764V199.974C182.177 208.929 174.918 216.189 165.962 216.189H36.2454C27.2903 216.189 20.0308 208.929 20.0308 199.974V91.8764Z" stroke="#1F2024" stroke-width="5.40488"/>
<g filter="url(#filter1_i)">
<path d="M87.5918 91.8764C87.5918 82.9213 94.8513 75.6617 103.806 75.6617H222.714C231.669 75.6617 238.928 82.9213 238.928 91.8764V199.974C238.928 208.929 231.669 216.189 222.714 216.189H103.806C94.8513 216.189 87.5918 208.929 87.5918 199.974V91.8764Z" fill="#ADA3EE"/>
</g>
<path d="M87.5918 91.8764C87.5918 82.9213 94.8513 75.6617 103.806 75.6617H222.714C231.669 75.6617 238.928 82.9213 238.928 91.8764V199.974C238.928 208.929 231.669 216.189 222.714 216.189H103.806C94.8513 216.189 87.5918 208.929 87.5918 199.974V91.8764Z" stroke="#1F2024" stroke-width="5.40488"/>
<path d="M174.07 78.3643H199.743L161.909 213.486H136.236L174.07 78.3643Z" fill="white" fill-opacity="0.5"/>
<path d="M163.936 78.3643H167.989L130.155 213.486H126.102L163.936 78.3643Z" fill="white" fill-opacity="0.5"/>
<g filter="url(#filter2_ddi)">
<path d="M106.509 120.252C106.509 114.282 111.348 109.442 117.319 109.442H209.201C215.172 109.442 220.011 114.282 220.011 120.252V141.872C220.011 147.842 215.172 152.681 209.201 152.681H117.319C111.348 152.681 106.509 147.842 106.509 141.872V120.252Z" fill="#1F2024"/>
<circle cx="133.533" cy="131.062" r="10.8098" fill="white"/>
<circle cx="192.987" cy="131.062" r="10.8098" fill="white"/>
</g>
<g clip-path="url(#clip0)">
<rect x="125.426" y="160.789" width="75.6683" height="21.6195" rx="10.8098" fill="#1F2024"/>
<rect x="125.426" y="160.789" width="8.10732" height="21.6195" fill="#CAE9FA"/>
<rect x="138.938" y="160.789" width="8.10732" height="21.6195" fill="#CAE9FA"/>
<rect x="152.45" y="160.789" width="8.10732" height="21.6195" fill="#CAE9FA"/>
<rect x="165.962" y="160.789" width="8.10732" height="21.6195" fill="#CAE9FA"/>
<rect x="179.475" y="160.789" width="8.10732" height="21.6195" fill="#CAE9FA"/>
<rect x="192.987" y="160.789" width="8.10732" height="21.6195" fill="#CAE9FA"/>
</g>
<rect x="125.426" y="160.789" width="75.6683" height="21.6195" rx="10.8098" stroke="#1F2024" stroke-width="4.05366"/>
<g filter="url(#filter3_ii)">
<path fill-rule="evenodd" clip-rule="evenodd" d="M247.563 82.2498C249.299 82.5313 250.85 81.1197 250.579 79.3817C248.46 65.7996 239.834 54.0531 226.627 49.2999C204.647 41.3888 170.023 31.7472 131.822 31.7472C67.0479 31.7472 25.0926 50.6003 19.9724 115.808C15.3055 175.243 13.3662 222.945 79.0431 222.945H234.874C243.83 222.945 251.089 215.685 251.089 206.73V198.849C251.089 197.281 249.754 196.042 248.189 196.15C188.306 200.289 134.112 199.525 93.6788 189.638C86.7826 187.952 82.1868 181.625 82.1868 174.526V124.351C82.1868 120.403 83.5825 116.546 86.4036 113.785C121.84 79.0984 189.97 72.9117 247.563 82.2498Z" fill="#9BCEF1"/>
</g>
<path d="M226.627 49.2999L227.542 46.7571L227.542 46.7571L226.627 49.2999ZM131.822 31.7472L131.822 29.0448L131.822 31.7472ZM19.9724 115.808L17.2783 115.596L19.9724 115.808ZM93.6788 189.638L93.0369 192.263L93.0369 192.263L93.6788 189.638ZM86.4036 113.785L84.5133 111.854L84.5133 111.854L86.4036 113.785ZM248.189 196.15L248.003 193.454L248.189 196.15ZM247.563 82.2498L247.996 79.5822L247.563 82.2498ZM225.712 51.8426C237.88 56.222 245.923 67.0724 247.909 79.7984L253.249 78.965C250.996 64.5268 241.787 51.8842 227.542 46.7571L225.712 51.8426ZM131.822 34.4496C169.597 34.4496 203.896 43.9905 225.712 51.8426L227.542 46.7571C205.398 38.7872 170.448 29.0448 131.822 29.0448L131.822 34.4496ZM22.6666 116.019C25.179 84.0225 36.6549 63.8657 55.0298 51.5707C73.5809 39.1579 99.6027 34.4496 131.822 34.4496L131.822 29.0448C99.2674 29.0447 71.9244 33.763 52.0241 47.0786C31.9479 60.512 19.886 82.3853 17.2783 115.596L22.6666 116.019ZM79.0431 220.242C62.9271 220.242 51.2669 217.313 42.8423 212.247C34.4711 207.213 29.0583 199.928 25.6642 190.729C22.2463 181.466 20.8859 170.28 20.6997 157.582C20.5137 144.895 21.4991 130.888 22.6666 116.019L17.2783 115.596C16.1124 130.445 15.1052 144.689 15.2954 157.662C15.4854 170.624 16.8699 182.508 20.5935 192.6C24.3408 202.756 30.4659 211.111 40.0569 216.879C49.5945 222.614 62.3207 225.647 79.0431 225.647V220.242ZM234.874 220.242H79.0431V225.647H234.874V220.242ZM248.387 206.73C248.387 214.193 242.337 220.242 234.874 220.242V225.647C245.322 225.647 253.792 217.178 253.792 206.73H248.387ZM248.387 198.849V206.73H253.792V198.849H248.387ZM248.003 193.454C188.184 197.589 134.333 196.797 94.3207 187.013L93.0369 192.263C133.891 202.253 188.428 202.989 248.375 198.846L248.003 193.454ZM94.3207 187.013C88.7295 185.646 84.8893 180.481 84.8893 174.526H79.4844C79.4844 182.769 84.8357 190.258 93.0369 192.263L94.3207 187.013ZM84.8893 174.526V124.351H79.4844V174.526H84.8893ZM84.8893 124.351C84.8893 121.021 86.0651 117.898 88.294 115.716L84.5133 111.854C81.0999 115.195 79.4844 119.785 79.4844 124.351H84.8893ZM88.294 115.716C105.468 98.9054 130.754 88.8403 159.113 84.1747C187.438 79.5148 218.571 80.2867 247.13 84.9174L247.996 79.5822C218.963 74.8748 187.234 74.071 158.236 78.8415C129.273 83.6063 102.776 93.9778 84.5133 111.854L88.294 115.716ZM253.792 198.849C253.792 195.704 251.119 193.239 248.003 193.454L248.375 198.846C248.38 198.846 248.382 198.846 248.381 198.846C248.381 198.846 248.38 198.846 248.38 198.846C248.379 198.846 248.382 198.847 248.386 198.85C248.39 198.854 248.39 198.855 248.389 198.853C248.388 198.851 248.387 198.849 248.387 198.847C248.386 198.845 248.387 198.845 248.387 198.849H253.792ZM247.909 79.7984C247.906 79.7807 247.906 79.7361 247.925 79.685C247.941 79.6396 247.963 79.6131 247.976 79.601C248 79.5787 248.015 79.5853 247.996 79.5822L247.13 84.9174C250.5 85.4637 253.832 82.6957 253.249 78.965L247.909 79.7984Z" fill="#1F2024"/>
<g filter="url(#filter4_ii)">
<path fill-rule="evenodd" clip-rule="evenodd" d="M253.792 73.425C253.792 61.1069 248.74 49.0866 238.727 41.9116C212.772 23.3129 184.579 15.5325 138.051 15.5325C82.4393 15.5325 7.19409 38.5032 7.19409 110.118V162.478C7.19409 215.513 22.7331 233.754 82.4252 233.754H237.577C246.532 233.754 253.792 226.495 253.792 217.54V198.078C253.792 195.88 251.204 194.498 249.098 195.126C248.01 195.45 246.873 195.663 245.697 195.749C183.589 200.328 127.265 199.833 85.5715 189.638C78.6753 187.952 74.0795 181.625 74.0795 174.526V124.351C74.0795 120.403 75.4752 116.546 78.2963 113.785C115.514 77.3546 188.796 72.3617 248.056 83.7742C248.423 83.8448 248.784 83.9282 249.139 84.0238C251.243 84.5903 253.792 83.2055 253.792 81.0266V73.425Z" fill="white"/>
</g>
<path d="M238.727 41.9116L240.301 39.7149L240.301 39.7149L238.727 41.9116ZM245.697 195.749L245.498 193.054L245.498 193.054L245.697 195.749ZM85.5715 189.638L84.9296 192.263L84.9296 192.263L85.5715 189.638ZM78.2963 113.785L76.406 111.854L76.406 111.854L78.2963 113.785ZM248.056 83.7742L248.567 81.1205L248.567 81.1205L248.056 83.7742ZM249.139 84.0238L249.842 81.4143L249.139 84.0238ZM249.098 195.126L249.87 197.716L249.098 195.126ZM237.153 44.1083C246.326 50.6815 251.089 61.8027 251.089 73.425H256.494C256.494 60.4111 251.154 47.4917 240.301 39.7149L237.153 44.1083ZM138.051 18.2349C184.226 18.2349 211.804 25.9434 237.153 44.1083L240.301 39.7149C213.741 20.6824 184.932 12.83 138.051 12.83V18.2349ZM9.89653 110.118C9.89653 75.476 28.0032 52.6358 53.1071 38.3171C78.3351 23.9276 110.543 18.2349 138.051 18.2349V12.83C109.947 12.83 76.7267 18.6227 50.4292 33.6222C24.0076 48.6925 4.49165 73.145 4.49165 110.118H9.89653ZM9.89653 162.478V110.118H4.49165V162.478H9.89653ZM82.4252 231.052C52.6686 231.052 34.848 226.46 24.3227 216.08C13.8166 205.719 9.89653 188.915 9.89653 162.478H4.49165C4.49165 189.076 8.34108 207.91 20.5275 219.928C32.6948 231.928 52.4898 236.457 82.4252 236.457V231.052ZM237.577 231.052H82.4252V236.457H237.577V231.052ZM251.089 217.54C251.089 225.002 245.04 231.052 237.577 231.052V236.457C248.025 236.457 256.494 227.987 256.494 217.54H251.089ZM251.089 198.078V217.54H256.494V198.078H251.089ZM248.325 192.536C247.424 192.805 246.478 192.982 245.498 193.054L245.895 198.444C247.267 198.343 248.597 198.095 249.87 197.716L248.325 192.536ZM245.498 193.054C183.45 197.628 127.476 197.103 86.2134 187.013L84.9296 192.263C127.053 202.564 183.729 203.027 245.895 198.444L245.498 193.054ZM86.2134 187.013C80.6222 185.646 76.782 180.481 76.782 174.526H71.3771C71.3771 182.769 76.7284 190.258 84.9296 192.263L86.2134 187.013ZM76.782 174.526V124.351H71.3771V174.526H76.782ZM76.782 124.351C76.782 121.021 77.9578 117.898 80.1867 115.716L76.406 111.854C72.9926 115.195 71.3771 119.785 71.3771 124.351H76.782ZM80.1867 115.716C98.2268 98.0577 125.215 87.8457 155.296 83.5133C185.335 79.187 218.165 80.7697 247.545 86.4279L248.567 81.1205C218.687 75.3662 185.246 73.7391 154.525 78.1637C123.846 82.5822 95.5838 93.0817 76.406 111.854L80.1867 115.716ZM247.545 86.4279C247.847 86.4861 248.145 86.5547 248.437 86.6334L249.842 81.4143C249.423 81.3017 248.998 81.2035 248.567 81.1205L247.545 86.4279ZM251.089 73.425V81.0266H256.494V73.425H251.089ZM248.437 86.6334C250.256 87.1232 252.176 86.7657 253.659 85.8632C255.164 84.9476 256.494 83.273 256.494 81.0266H251.089C251.089 81.0327 251.089 81.0305 251.09 81.0257C251.091 81.0219 251.09 81.0277 251.08 81.0436C251.058 81.0788 250.992 81.1596 250.85 81.2461C250.532 81.4392 250.126 81.4909 249.842 81.4143L248.437 86.6334ZM256.494 198.078C256.494 195.813 255.144 194.129 253.617 193.22C252.112 192.324 250.161 191.988 248.325 192.536L249.87 197.716C250.14 197.635 250.536 197.676 250.852 197.864C250.993 197.948 251.059 198.028 251.081 198.062C251.091 198.077 251.091 198.083 251.09 198.079C251.089 198.073 251.089 198.071 251.089 198.078H256.494Z" fill="#1F2024"/>
<g filter="url(#filter5_i)">
<path fill-rule="evenodd" clip-rule="evenodd" d="M66.4016 103.218C64.297 105.861 63.2698 109.186 63.2698 112.565V182.876C63.2698 189.588 67.3795 195.667 73.7912 197.653C116.985 211.036 175.756 211.69 240.609 205.744C248.145 205.053 254.021 199.194 254.999 191.875C252.48 194.067 249.264 195.486 245.697 195.749C183.589 200.328 127.265 199.833 85.5715 189.638C78.6753 187.952 74.0795 181.625 74.0795 174.526V124.351C74.0795 120.403 75.4752 116.546 78.2963 113.785C115.514 77.3547 188.796 72.3618 248.056 83.7743C250.77 84.2969 253.181 85.5192 255.143 87.2298V79.1545C255.143 71.9735 250.434 65.5963 243.456 63.9023C181.631 48.8939 104.542 55.3063 66.4016 103.218Z" fill="#E2E2E2"/>
</g>
<path d="M66.4016 103.218L68.5159 104.901L68.5159 104.901L66.4016 103.218ZM73.7912 197.653L72.9914 200.235L72.9914 200.235L73.7912 197.653ZM240.609 205.744L240.363 203.053L240.363 203.053L240.609 205.744ZM254.999 191.875L257.678 192.233L258.627 185.138L253.226 189.836L254.999 191.875ZM245.697 195.749L245.895 198.444L245.895 198.444L245.697 195.749ZM85.5715 189.638L86.2134 187.013L86.2134 187.013L85.5715 189.638ZM78.2963 113.785L80.1867 115.716L80.1867 115.716L78.2963 113.785ZM248.056 83.7743L248.567 81.1206L248.567 81.1206L248.056 83.7743ZM255.143 87.2298L253.367 89.2668L257.845 93.1712V87.2298H255.143ZM243.456 63.9023L242.819 66.5285L242.819 66.5285L243.456 63.9023ZM65.9722 112.565C65.9722 109.723 66.8361 107.011 68.5159 104.901L64.2873 101.534C61.7578 104.712 60.5673 108.649 60.5673 112.565H65.9722ZM65.9722 182.876V112.565H60.5673V182.876H65.9722ZM74.591 195.072C69.4092 193.466 65.9722 188.51 65.9722 182.876H60.5673C60.5673 190.666 65.3498 197.867 72.9914 200.235L74.591 195.072ZM240.363 203.053C175.582 208.993 117.254 208.29 74.591 195.072L72.9914 200.235C116.716 213.782 175.93 214.388 240.856 208.435L240.363 203.053ZM252.321 191.517C251.505 197.62 246.609 202.48 240.363 203.053L240.856 208.435C249.681 207.626 256.537 200.769 257.678 192.233L252.321 191.517ZM253.226 189.836C251.131 191.658 248.463 192.836 245.498 193.054L245.895 198.444C250.065 198.137 253.828 196.475 256.773 193.914L253.226 189.836ZM245.498 193.054C183.45 197.628 127.476 197.103 86.2134 187.013L84.9296 192.263C127.053 202.564 183.729 203.027 245.895 198.444L245.498 193.054ZM86.2134 187.013C80.6222 185.646 76.782 180.481 76.782 174.526H71.3771C71.3771 182.769 76.7284 190.258 84.9296 192.263L86.2134 187.013ZM76.782 174.526V124.351H71.3771V174.526H76.782ZM76.782 124.351C76.782 121.021 77.9578 117.898 80.1867 115.716L76.406 111.854C72.9926 115.195 71.3771 119.785 71.3771 124.351H76.782ZM80.1867 115.716C98.2268 98.0578 125.215 87.8458 155.296 83.5134C185.335 79.1871 218.165 80.7698 247.545 86.4279L248.567 81.1206C218.687 75.3663 185.246 73.7392 154.525 78.1637C123.846 82.5823 95.5838 93.0818 76.406 111.854L80.1867 115.716ZM247.545 86.4279C249.776 86.8575 251.753 87.8599 253.367 89.2668L256.919 85.1928C254.608 83.1785 251.765 81.7363 248.567 81.1206L247.545 86.4279ZM252.441 79.1545V87.2298H257.845V79.1545H252.441ZM242.819 66.5285C248.507 67.9094 252.441 73.1383 252.441 79.1545H257.845C257.845 70.8086 252.362 63.2833 244.094 61.2761L242.819 66.5285ZM68.5159 104.901C87.0543 81.6133 115.178 68.2652 146.526 62.6248C177.868 56.9855 212.212 59.0987 242.819 66.5285L244.094 61.2761C212.875 53.6976 177.762 51.5127 145.569 57.3053C113.381 63.0968 83.8896 76.9106 64.2873 101.534L68.5159 104.901Z" fill="#1F2024"/>
<g filter="url(#filter6_d)">
<circle cx="165.625" cy="220.918" r="6.7561" fill="#CAE9FA"/>
<circle cx="165.625" cy="220.918" r="6.7561" stroke="#1F2024" stroke-width="5.40488"/>
</g>
<g filter="url(#filter7_d)">
<circle cx="189.947" cy="220.918" r="6.7561" fill="#9BCEF1"/>
<circle cx="189.947" cy="220.918" r="6.7561" stroke="#1F2024" stroke-width="5.40488"/>
</g>
<g filter="url(#filter8_d)">
<circle cx="214.269" cy="220.918" r="6.7561" fill="#FFFA8F"/>
<circle cx="214.269" cy="220.918" r="6.7561" stroke="#1F2024" stroke-width="5.40488"/>
</g>
<g filter="url(#filter9_i)">
<path d="M3.14038 147.952C3.14038 136.012 12.8198 126.333 24.7599 126.333H35.5697C47.5098 126.333 57.1892 136.012 57.1892 147.952V147.952C57.1892 159.892 47.5098 169.572 35.5697 169.572H24.7599C12.8197 169.572 3.14038 159.892 3.14038 147.952V147.952Z" fill="#E2E2E2"/>
</g>
<path d="M3.14038 147.952C3.14038 136.012 12.8198 126.333 24.7599 126.333H35.5697C47.5098 126.333 57.1892 136.012 57.1892 147.952V147.952C57.1892 159.892 47.5098 169.572 35.5697 169.572H24.7599C12.8197 169.572 3.14038 159.892 3.14038 147.952V147.952Z" stroke="#1F2024" stroke-width="5.40488"/>
<g filter="url(#filter10_ii)">
<path d="M3.14038 147.952C3.14038 136.012 12.8198 126.333 24.7599 126.333V126.333C36.7 126.333 46.3794 136.012 46.3794 147.952V147.952C46.3794 159.892 36.7 169.572 24.7599 169.572V169.572C12.8198 169.572 3.14038 159.892 3.14038 147.952V147.952Z" fill="#ACACAE"/>
</g>
<path d="M3.14038 147.952C3.14038 136.012 12.8198 126.333 24.7599 126.333V126.333C36.7 126.333 46.3794 136.012 46.3794 147.952V147.952C46.3794 159.892 36.7 169.572 24.7599 169.572V169.572C12.8198 169.572 3.14038 159.892 3.14038 147.952V147.952Z" stroke="#1F2024" stroke-width="5.40488"/>
<g filter="url(#filter11_i)">
<path d="M18.0039 190.515C18.0039 181.56 25.2634 174.301 34.2185 174.301H42.3259C51.281 174.301 58.5405 181.56 58.5405 190.515V190.515C58.5405 199.471 51.281 206.73 42.3259 206.73H34.2185C25.2634 206.73 18.0039 199.471 18.0039 190.515V190.515Z" fill="#ACACAE"/>
</g>
<path d="M18.0039 190.515C18.0039 181.56 25.2634 174.301 34.2185 174.301H42.3259C51.281 174.301 58.5405 181.56 58.5405 190.515V190.515C58.5405 199.471 51.281 206.73 42.3259 206.73H34.2185C25.2634 206.73 18.0039 199.471 18.0039 190.515V190.515Z" stroke="#1F2024" stroke-width="5.40488"/>
<g filter="url(#filter12_ii)">
<path d="M18.0039 190.515C18.0039 181.56 25.2634 174.301 34.2185 174.301V174.301C43.1736 174.301 50.4332 181.56 50.4332 190.515V190.515C50.4332 199.471 43.1736 206.73 34.2185 206.73V206.73C25.2634 206.73 18.0039 199.471 18.0039 190.515V190.515Z" fill="#797A7C"/>
</g>
<path d="M18.0039 190.515C18.0039 181.56 25.2634 174.301 34.2185 174.301V174.301C43.1736 174.301 50.4332 181.56 50.4332 190.515V190.515C50.4332 199.471 43.1736 206.73 34.2185 206.73V206.73C25.2634 206.73 18.0039 199.471 18.0039 190.515V190.515Z" stroke="#1F2024" stroke-width="5.40488"/>
<g filter="url(#filter13_i)">
<path d="M74.0796 124.351C74.0796 120.403 75.4753 116.546 78.2964 113.785C115.514 77.3547 188.796 72.3618 248.056 83.7743C255.418 85.192 260.548 91.7572 260.548 99.2541V179.674C260.548 188.097 254.097 195.13 245.697 195.749C183.59 200.328 127.265 199.833 85.5716 189.638C78.6754 187.952 74.0796 181.625 74.0796 174.526L74.0796 124.351Z" fill="#1F2024" fill-opacity="0.2"/>
</g>
<path d="M74.0796 124.351C74.0796 120.403 75.4753 116.546 78.2964 113.785C115.514 77.3547 188.796 72.3618 248.056 83.7743C255.418 85.192 260.548 91.7572 260.548 99.2541V179.674C260.548 188.097 254.097 195.13 245.697 195.749C183.59 200.328 127.265 199.833 85.5716 189.638C78.6754 187.952 74.0796 181.625 74.0796 174.526L74.0796 124.351Z" stroke="#1F2024" stroke-width="5.40488"/>
<path fill-rule="evenodd" clip-rule="evenodd" d="M233.273 186.477C233.791 186.442 234.31 186.406 234.829 186.371C243.253 185.792 249.738 178.746 249.738 170.302V109.429C249.738 101.877 244.539 95.2749 237.102 93.9589C235.766 93.7226 234.423 93.4955 233.072 93.2781C235.898 96.1585 237.577 100.152 237.577 104.443V175.485C237.577 179.709 235.953 183.586 233.273 186.477Z" fill="white"/>
<g filter="url(#filter14_ii)">
<rect x="30.1648" y="16.8837" width="0.67561" height="109.449" rx="0.337805" fill="#ACACAE"/>
</g>
<rect x="30.1648" y="16.8837" width="0.67561" height="109.449" rx="0.337805" stroke="#1F2024" stroke-width="5.40488"/>
<path d="M30.1646 89.1739C34.6421 89.1739 38.2719 86.754 38.2719 83.769C38.2719 80.784 34.6421 78.3641 30.1646 78.3641" stroke="#1F2024" stroke-width="5.40488"/>
<path d="M30.1646 110.793C34.6421 110.793 38.2719 108.374 38.2719 105.389C38.2719 102.403 34.6421 99.9836 30.1646 99.9836" stroke="#1F2024" stroke-width="5.40488"/>
<path d="M30.1646 99.9836C25.687 99.9836 22.0572 97.5637 22.0572 94.5787C22.0572 91.5937 25.687 89.1738 30.1646 89.1738" stroke="#1F2024" stroke-width="5.40488"/>
<path d="M30.1646 121.603C25.687 121.603 22.0572 119.183 22.0572 116.198C22.0572 113.213 25.687 110.793 30.1646 110.793" stroke="#1F2024" stroke-width="5.40488"/>
<path d="M30.1646 78.3641C25.687 78.3641 22.0572 75.9442 22.0572 72.9592C22.0572 69.9742 25.687 67.5543 30.1646 67.5543" stroke="#1F2024" stroke-width="5.40488"/>
<g filter="url(#filter15_ii)">
<path d="M20.0305 14.1812C20.0305 8.21115 24.8702 3.37146 30.8403 3.37146V3.37146C36.8103 3.37146 41.65 8.21115 41.65 14.1812V14.1812C41.65 20.1513 36.8103 24.991 30.8403 24.991V24.991C24.8702 24.991 20.0305 20.1513 20.0305 14.1812V14.1812Z" fill="#ACACAE"/>
</g>
<path d="M20.0305 14.1812C20.0305 8.21115 24.8702 3.37146 30.8403 3.37146V3.37146C36.8103 3.37146 41.65 8.21115 41.65 14.1812V14.1812C41.65 20.1513 36.8103 24.991 30.8403 24.991V24.991C24.8702 24.991 20.0305 20.1513 20.0305 14.1812V14.1812Z" stroke="#1F2024" stroke-width="5.40488"/>
<defs>
<filter id="filter0_ii" x="17.3284" y="72.9594" width="167.551" height="145.932" filterUnits="userSpaceOnUse" color-interpolation-filters="sRGB">
<feFlood flood-opacity="0" result="BackgroundImageFix"/>
<feBlend mode="normal" in="SourceGraphic" in2="BackgroundImageFix" result="shape"/>
<feColorMatrix in="SourceAlpha" type="matrix" values="0 0 0 0 0 0 0 0 0 0 0 0 0 0 0 0 0 0 127 0" result="hardAlpha"/>
<feOffset dy="-10.8098"/>
<feComposite in2="hardAlpha" operator="arithmetic" k2="-1" k3="1"/>
<feColorMatrix type="matrix" values="0 0 0 0 0 0 0 0 0 0 0 0 0 0 0 0 0 0 0.25 0"/>
<feBlend mode="normal" in2="shape" result="effect1_innerShadow"/>
<feColorMatrix in="SourceAlpha" type="matrix" values="0 0 0 0 0 0 0 0 0 0 0 0 0 0 0 0 0 0 127 0" result="hardAlpha"/>
<feOffset dy="10.8098"/>
<feComposite in2="hardAlpha" operator="arithmetic" k2="-1" k3="1"/>
<feColorMatrix type="matrix" values="0 0 0 0 1 0 0 0 0 1 0 0 0 0 1 0 0 0 0.25 0"/>
<feBlend mode="normal" in2="effect1_innerShadow" result="effect2_innerShadow"/>
</filter>
<filter id="filter1_i" x="84.8894" y="72.9594" width="156.741" height="145.932" filterUnits="userSpaceOnUse" color-interpolation-filters="sRGB">
<feFlood flood-opacity="0" result="BackgroundImageFix"/>
<feBlend mode="normal" in="SourceGraphic" in2="BackgroundImageFix" result="shape"/>
<feColorMatrix in="SourceAlpha" type="matrix" values="0 0 0 0 0 0 0 0 0 0 0 0 0 0 0 0 0 0 127 0" result="hardAlpha"/>
<feOffset dx="-16.2146" dy="5.40488"/>
<feComposite in2="hardAlpha" operator="arithmetic" k2="-1" k3="1"/>
<feColorMatrix type="matrix" values="0 0 0 0 1 0 0 0 0 1 0 0 0 0 1 0 0 0 0.25 0"/>
<feBlend mode="normal" in2="shape" result="effect1_innerShadow"/>
</filter>
<filter id="filter2_ddi" x="103.806" y="109.442" width="118.907" height="43.239" filterUnits="userSpaceOnUse" color-interpolation-filters="sRGB">
<feFlood flood-opacity="0" result="BackgroundImageFix"/>
<feColorMatrix in="SourceAlpha" type="matrix" values="0 0 0 0 0 0 0 0 0 0 0 0 0 0 0 0 0 0 127 0" result="hardAlpha"/>
<feOffset dx="-2.70244"/>
<feColorMatrix type="matrix" values="0 0 0 0 1 0 0 0 0 1 0 0 0 0 1 0 0 0 0.25 0"/>
<feBlend mode="normal" in2="BackgroundImageFix" result="effect1_dropShadow"/>
<feColorMatrix in="SourceAlpha" type="matrix" values="0 0 0 0 0 0 0 0 0 0 0 0 0 0 0 0 0 0 127 0" result="hardAlpha"/>
<feOffset dx="2.70244"/>
<feColorMatrix type="matrix" values="0 0 0 0 0 0 0 0 0 0 0 0 0 0 0 0 0 0 0.25 0"/>
<feBlend mode="normal" in2="effect1_dropShadow" result="effect2_dropShadow"/>
<feBlend mode="normal" in="SourceGraphic" in2="effect2_dropShadow" result="shape"/>
<feColorMatrix in="SourceAlpha" type="matrix" values="0 0 0 0 0 0 0 0 0 0 0 0 0 0 0 0 0 0 127 0" result="hardAlpha"/>
<feOffset dx="-2.70244"/>
<feComposite in2="hardAlpha" operator="arithmetic" k2="-1" k3="1"/>
<feColorMatrix type="matrix" values="0 0 0 0 0 0 0 0 0 0 0 0 0 0 0 0 0 0 0.25 0"/>
<feBlend mode="normal" in2="shape" result="effect3_innerShadow"/>
</filter>
<filter id="filter3_ii" x="15.2722" y="29.0448" width="238.519" height="196.602" filterUnits="userSpaceOnUse" color-interpolation-filters="sRGB">
<feFlood flood-opacity="0" result="BackgroundImageFix"/>
<feBlend mode="normal" in="SourceGraphic" in2="BackgroundImageFix" result="shape"/>
<feColorMatrix in="SourceAlpha" type="matrix" values="0 0 0 0 0 0 0 0 0 0 0 0 0 0 0 0 0 0 127 0" result="hardAlpha"/>
<feOffset dx="10.8098"/>
<feComposite in2="hardAlpha" operator="arithmetic" k2="-1" k3="1"/>
<feColorMatrix type="matrix" values="0 0 0 0 0 0 0 0 0 0 0 0 0 0 0 0 0 0 0.25 0"/>
<feBlend mode="normal" in2="shape" result="effect1_innerShadow"/>
<feColorMatrix in="SourceAlpha" type="matrix" values="0 0 0 0 0 0 0 0 0 0 0 0 0 0 0 0 0 0 127 0" result="hardAlpha"/>
<feOffset dx="-16.2146" dy="5.40488"/>
<feComposite in2="hardAlpha" operator="arithmetic" k2="-1" k3="1"/>
<feColorMatrix type="matrix" values="0 0 0 0 1 0 0 0 0 1 0 0 0 0 1 0 0 0 0.25 0"/>
<feBlend mode="normal" in2="effect1_innerShadow" result="effect2_innerShadow"/>
</filter>
<filter id="filter4_ii" x="4.4917" y="12.8301" width="252.002" height="223.627" filterUnits="userSpaceOnUse" color-interpolation-filters="sRGB">
<feFlood flood-opacity="0" result="BackgroundImageFix"/>
<feBlend mode="normal" in="SourceGraphic" in2="BackgroundImageFix" result="shape"/>
<feColorMatrix in="SourceAlpha" type="matrix" values="0 0 0 0 0 0 0 0 0 0 0 0 0 0 0 0 0 0 127 0" result="hardAlpha"/>
<feOffset dx="43.239" dy="-10.8098"/>
<feComposite in2="hardAlpha" operator="arithmetic" k2="-1" k3="1"/>
<feColorMatrix type="matrix" values="0 0 0 0 0 0 0 0 0 0 0 0 0 0 0 0 0 0 0.25 0"/>
<feBlend mode="normal" in2="shape" result="effect1_innerShadow"/>
<feColorMatrix in="SourceAlpha" type="matrix" values="0 0 0 0 0 0 0 0 0 0 0 0 0 0 0 0 0 0 127 0" result="hardAlpha"/>
<feOffset dx="-10.8098" dy="10.8098"/>
<feComposite in2="hardAlpha" operator="arithmetic" k2="-1" k3="1"/>
<feColorMatrix type="matrix" values="0 0 0 0 1 0 0 0 0 1 0 0 0 0 1 0 0 0 0.25 0"/>
<feBlend mode="normal" in2="effect1_innerShadow" result="effect2_innerShadow"/>
</filter>
<filter id="filter5_i" x="60.5674" y="54.0146" width="198.059" height="158.015" filterUnits="userSpaceOnUse" color-interpolation-filters="sRGB">
<feFlood flood-opacity="0" result="BackgroundImageFix"/>
<feBlend mode="normal" in="SourceGraphic" in2="BackgroundImageFix" result="shape"/>
<feColorMatrix in="SourceAlpha" type="matrix" values="0 0 0 0 0 0 0 0 0 0 0 0 0 0 0 0 0 0 127 0" result="hardAlpha"/>
<feOffset dx="-16.2146" dy="5.40488"/>
<feComposite in2="hardAlpha" operator="arithmetic" k2="-1" k3="1"/>
<feColorMatrix type="matrix" values="0 0 0 0 1 0 0 0 0 1 0 0 0 0 1 0 0 0 0.25 0"/>
<feBlend mode="normal" in2="shape" result="effect1_innerShadow"/>
</filter>
<filter id="filter6_d" x="153.464" y="211.459" width="21.6195" height="18.9171" filterUnits="userSpaceOnUse" color-interpolation-filters="sRGB">
<feFlood flood-opacity="0" result="BackgroundImageFix"/>
<feColorMatrix in="SourceAlpha" type="matrix" values="0 0 0 0 0 0 0 0 0 0 0 0 0 0 0 0 0 0 127 0" result="hardAlpha"/>
<feOffset dx="-2.70244"/>
<feColorMatrix type="matrix" values="0 0 0 0 0.133333 0 0 0 0 0.133333 0 0 0 0 0.133333 0 0 0 1 0"/>
<feBlend mode="normal" in2="BackgroundImageFix" result="effect1_dropShadow"/>
<feBlend mode="normal" in="SourceGraphic" in2="effect1_dropShadow" result="shape"/>
</filter>
<filter id="filter7_d" x="177.786" y="211.459" width="21.6195" height="18.9171" filterUnits="userSpaceOnUse" color-interpolation-filters="sRGB">
<feFlood flood-opacity="0" result="BackgroundImageFix"/>
<feColorMatrix in="SourceAlpha" type="matrix" values="0 0 0 0 0 0 0 0 0 0 0 0 0 0 0 0 0 0 127 0" result="hardAlpha"/>
<feOffset dx="-2.70244"/>
<feColorMatrix type="matrix" values="0 0 0 0 0.133333 0 0 0 0 0.133333 0 0 0 0 0.133333 0 0 0 1 0"/>
<feBlend mode="normal" in2="BackgroundImageFix" result="effect1_dropShadow"/>
<feBlend mode="normal" in="SourceGraphic" in2="effect1_dropShadow" result="shape"/>
</filter>
<filter id="filter8_d" x="202.108" y="211.459" width="21.6195" height="18.9171" filterUnits="userSpaceOnUse" color-interpolation-filters="sRGB">
<feFlood flood-opacity="0" result="BackgroundImageFix"/>
<feColorMatrix in="SourceAlpha" type="matrix" values="0 0 0 0 0 0 0 0 0 0 0 0 0 0 0 0 0 0 127 0" result="hardAlpha"/>
<feOffset dx="-2.70244"/>
<feColorMatrix type="matrix" values="0 0 0 0 0.133333 0 0 0 0 0.133333 0 0 0 0 0.133333 0 0 0 1 0"/>
<feBlend mode="normal" in2="BackgroundImageFix" result="effect1_dropShadow"/>
<feBlend mode="normal" in="SourceGraphic" in2="effect1_dropShadow" result="shape"/>
</filter>
<filter id="filter9_i" x="0.437988" y="123.63" width="59.4537" height="48.6439" filterUnits="userSpaceOnUse" color-interpolation-filters="sRGB">
<feFlood flood-opacity="0" result="BackgroundImageFix"/>
<feBlend mode="normal" in="SourceGraphic" in2="BackgroundImageFix" result="shape"/>
<feColorMatrix in="SourceAlpha" type="matrix" values="0 0 0 0 0 0 0 0 0 0 0 0 0 0 0 0 0 0 127 0" result="hardAlpha"/>
<feOffset dx="-16.2146" dy="5.40488"/>
<feComposite in2="hardAlpha" operator="arithmetic" k2="-1" k3="1"/>
<feColorMatrix type="matrix" values="0 0 0 0 1 0 0 0 0 1 0 0 0 0 1 0 0 0 0.25 0"/>
<feBlend mode="normal" in2="shape" result="effect1_innerShadow"/>
</filter>
<filter id="filter10_ii" x="0.437988" y="123.63" width="48.6439" height="48.6439" filterUnits="userSpaceOnUse" color-interpolation-filters="sRGB">
<feFlood flood-opacity="0" result="BackgroundImageFix"/>
<feBlend mode="normal" in="SourceGraphic" in2="BackgroundImageFix" result="shape"/>
<feColorMatrix in="SourceAlpha" type="matrix" values="0 0 0 0 0 0 0 0 0 0 0 0 0 0 0 0 0 0 127 0" result="hardAlpha"/>
<feOffset dy="-10.8098"/>
<feComposite in2="hardAlpha" operator="arithmetic" k2="-1" k3="1"/>
<feColorMatrix type="matrix" values="0 0 0 0 0 0 0 0 0 0 0 0 0 0 0 0 0 0 0.25 0"/>
<feBlend mode="normal" in2="shape" result="effect1_innerShadow"/>
<feColorMatrix in="SourceAlpha" type="matrix" values="0 0 0 0 0 0 0 0 0 0 0 0 0 0 0 0 0 0 127 0" result="hardAlpha"/>
<feOffset dy="10.8098"/>
<feComposite in2="hardAlpha" operator="arithmetic" k2="-1" k3="1"/>
<feColorMatrix type="matrix" values="0 0 0 0 1 0 0 0 0 1 0 0 0 0 1 0 0 0 0.25 0"/>
<feBlend mode="normal" in2="effect1_innerShadow" result="effect2_innerShadow"/>
</filter>
<filter id="filter11_i" x="15.3015" y="171.598" width="45.9415" height="37.8341" filterUnits="userSpaceOnUse" color-interpolation-filters="sRGB">
<feFlood flood-opacity="0" result="BackgroundImageFix"/>
<feBlend mode="normal" in="SourceGraphic" in2="BackgroundImageFix" result="shape"/>
<feColorMatrix in="SourceAlpha" type="matrix" values="0 0 0 0 0 0 0 0 0 0 0 0 0 0 0 0 0 0 127 0" result="hardAlpha"/>
<feOffset dx="-16.2146" dy="5.40488"/>
<feComposite in2="hardAlpha" operator="arithmetic" k2="-1" k3="1"/>
<feColorMatrix type="matrix" values="0 0 0 0 1 0 0 0 0 1 0 0 0 0 1 0 0 0 0.25 0"/>
<feBlend mode="normal" in2="shape" result="effect1_innerShadow"/>
</filter>
<filter id="filter12_ii" x="15.3015" y="171.598" width="37.8341" height="37.8341" filterUnits="userSpaceOnUse" color-interpolation-filters="sRGB">
<feFlood flood-opacity="0" result="BackgroundImageFix"/>
<feBlend mode="normal" in="SourceGraphic" in2="BackgroundImageFix" result="shape"/>
<feColorMatrix in="SourceAlpha" type="matrix" values="0 0 0 0 0 0 0 0 0 0 0 0 0 0 0 0 0 0 127 0" result="hardAlpha"/>
<feOffset dy="-10.8098"/>
<feComposite in2="hardAlpha" operator="arithmetic" k2="-1" k3="1"/>
<feColorMatrix type="matrix" values="0 0 0 0 0 0 0 0 0 0 0 0 0 0 0 0 0 0 0.25 0"/>
<feBlend mode="normal" in2="shape" result="effect1_innerShadow"/>
<feColorMatrix in="SourceAlpha" type="matrix" values="0 0 0 0 0 0 0 0 0 0 0 0 0 0 0 0 0 0 127 0" result="hardAlpha"/>
<feOffset dy="10.8098"/>
<feComposite in2="hardAlpha" operator="arithmetic" k2="-1" k3="1"/>
<feColorMatrix type="matrix" values="0 0 0 0 1 0 0 0 0 1 0 0 0 0 1 0 0 0 0.25 0"/>
<feBlend mode="normal" in2="effect1_innerShadow" result="effect2_innerShadow"/>
</filter>
<filter id="filter13_i" x="71.3772" y="75.6343" width="191.873" height="125.586" filterUnits="userSpaceOnUse" color-interpolation-filters="sRGB">
<feFlood flood-opacity="0" result="BackgroundImageFix"/>
<feBlend mode="normal" in="SourceGraphic" in2="BackgroundImageFix" result="shape"/>
<feColorMatrix in="SourceAlpha" type="matrix" values="0 0 0 0 0 0 0 0 0 0 0 0 0 0 0 0 0 0 127 0" result="hardAlpha"/>
<feOffset dx="-16.2146" dy="5.40488"/>
<feComposite in2="hardAlpha" operator="arithmetic" k2="-1" k3="1"/>
<feColorMatrix type="matrix" values="0 0 0 0 1 0 0 0 0 1 0 0 0 0 1 0 0 0 0.25 0"/>
<feBlend mode="normal" in2="shape" result="effect1_innerShadow"/>
</filter>
<filter id="filter14_ii" x="27.4624" y="14.1813" width="6.08049" height="114.854" filterUnits="userSpaceOnUse" color-interpolation-filters="sRGB">
<feFlood flood-opacity="0" result="BackgroundImageFix"/>
<feBlend mode="normal" in="SourceGraphic" in2="BackgroundImageFix" result="shape"/>
<feColorMatrix in="SourceAlpha" type="matrix" values="0 0 0 0 0 0 0 0 0 0 0 0 0 0 0 0 0 0 127 0" result="hardAlpha"/>
<feOffset dy="-10.8098"/>
<feComposite in2="hardAlpha" operator="arithmetic" k2="-1" k3="1"/>
<feColorMatrix type="matrix" values="0 0 0 0 0 0 0 0 0 0 0 0 0 0 0 0 0 0 0.25 0"/>
<feBlend mode="normal" in2="shape" result="effect1_innerShadow"/>
<feColorMatrix in="SourceAlpha" type="matrix" values="0 0 0 0 0 0 0 0 0 0 0 0 0 0 0 0 0 0 127 0" result="hardAlpha"/>
<feOffset dy="10.8098"/>
<feComposite in2="hardAlpha" operator="arithmetic" k2="-1" k3="1"/>
<feColorMatrix type="matrix" values="0 0 0 0 1 0 0 0 0 1 0 0 0 0 1 0 0 0 0.25 0"/>
<feBlend mode="normal" in2="effect1_innerShadow" result="effect2_innerShadow"/>
</filter>
<filter id="filter15_ii" x="17.3281" y="0.669067" width="27.0244" height="27.0244" filterUnits="userSpaceOnUse" color-interpolation-filters="sRGB">
<feFlood flood-opacity="0" result="BackgroundImageFix"/>
<feBlend mode="normal" in="SourceGraphic" in2="BackgroundImageFix" result="shape"/>
<feColorMatrix in="SourceAlpha" type="matrix" values="0 0 0 0 0 0 0 0 0 0 0 0 0 0 0 0 0 0 127 0" result="hardAlpha"/>
<feOffset dx="10.8098"/>
<feComposite in2="hardAlpha" operator="arithmetic" k2="-1" k3="1"/>
<feColorMatrix type="matrix" values="0 0 0 0 0 0 0 0 0 0 0 0 0 0 0 0 0 0 0.25 0"/>
<feBlend mode="normal" in2="shape" result="effect1_innerShadow"/>
<feColorMatrix in="SourceAlpha" type="matrix" values="0 0 0 0 0 0 0 0 0 0 0 0 0 0 0 0 0 0 127 0" result="hardAlpha"/>
<feOffset dx="-16.2146" dy="5.40488"/>
<feComposite in2="hardAlpha" operator="arithmetic" k2="-1" k3="1"/>
<feColorMatrix type="matrix" values="0 0 0 0 1 0 0 0 0 1 0 0 0 0 1 0 0 0 0.25 0"/>
<feBlend mode="normal" in2="effect1_innerShadow" result="effect2_innerShadow"/>
</filter>
<clipPath id="clip0">
<rect x="125.426" y="160.789" width="75.6683" height="21.6195" rx="10.8098" fill="white"/>
</clipPath>
</defs>
</svg>
