<svg width="262" height="213" viewBox="0 0 262 213" fill="none" xmlns="http://www.w3.org/2000/svg">
<g filter="url(#filter0_ii)">
<path d="M9.16553 80.2643C9.16553 71.7172 16.0943 64.7885 24.6414 64.7885H148.448C156.995 64.7885 163.924 71.7172 163.924 80.2643V183.437C163.924 191.984 156.995 198.913 148.448 198.913H24.6414C16.0943 198.913 9.16553 191.984 9.16553 183.437V80.2643Z" fill="#8A7ED9"/>
</g>
<path d="M9.16553 80.2643C9.16553 71.7172 16.0943 64.7885 24.6414 64.7885H148.448C156.995 64.7885 163.924 71.7172 163.924 80.2643V183.437C163.924 191.984 156.995 198.913 148.448 198.913H24.6414C16.0943 198.913 9.16553 191.984 9.16553 183.437V80.2643Z" stroke="#1F2024" stroke-width="5.15862"/>
<g filter="url(#filter1_i)">
<path d="M73.6484 80.2643C73.6484 71.7172 80.5772 64.7885 89.1243 64.7885H202.614C211.161 64.7885 218.09 71.7172 218.09 80.2643V183.437C218.09 191.984 211.161 198.913 202.614 198.913H89.1243C80.5772 198.913 73.6484 191.984 73.6484 183.437V80.2643Z" fill="#ADA3EE"/>
</g>
<path d="M73.6484 80.2643C73.6484 71.7172 80.5772 64.7885 89.1243 64.7885H202.614C211.161 64.7885 218.09 71.7172 218.09 80.2643V183.437C218.09 191.984 211.161 198.913 202.614 198.913H89.1243C80.5772 198.913 73.6484 191.984 73.6484 183.437V80.2643Z" stroke="#1F2024" stroke-width="5.15862"/>
<path d="M156.187 67.3677H180.69L144.58 196.333H120.076L156.187 67.3677Z" fill="white" fill-opacity="0.5"/>
<path d="M146.514 67.3677H150.383L114.273 196.333H110.404L146.514 67.3677Z" fill="white" fill-opacity="0.5"/>
<g filter="url(#filter2_ddi)">
<path d="M91.7036 107.347C91.7036 101.649 96.3228 97.0298 102.021 97.0298H189.717C195.415 97.0298 200.035 101.649 200.035 107.347V127.982C200.035 133.68 195.415 138.299 189.717 138.299H102.021C96.3228 138.299 91.7036 133.68 91.7036 127.982V107.347Z" fill="#1F2024"/>
<circle cx="117.497" cy="117.664" r="10.3172" fill="white"/>
<circle cx="174.242" cy="117.664" r="10.3172" fill="white"/>
</g>
<g filter="url(#filter3_d)">
<g filter="url(#filter4_i)">
<path d="M9.81055 124.113C9.81055 112.716 19.0489 103.478 30.445 103.478H40.7623C52.1584 103.478 61.3968 112.716 61.3968 124.113V124.113C61.3968 135.509 52.1584 144.747 40.7623 144.747H30.445C19.0489 144.747 9.81055 135.509 9.81055 124.113V124.113Z" fill="#ADA3EE"/>
</g>
<path d="M9.81055 124.113C9.81055 112.716 19.0489 103.478 30.445 103.478H40.7623C52.1584 103.478 61.3968 112.716 61.3968 124.113V124.113C61.3968 135.509 52.1584 144.747 40.7623 144.747H30.445C19.0489 144.747 9.81055 135.509 9.81055 124.113V124.113Z" stroke="#1F2024" stroke-width="5.15862"/>
<g filter="url(#filter5_ii)">
<path d="M9.81055 124.113C9.81055 112.716 19.0489 103.478 30.445 103.478V103.478C41.8411 103.478 51.0795 112.716 51.0795 124.113V124.113C51.0795 135.509 41.8411 144.747 30.445 144.747V144.747C19.0489 144.747 9.81055 135.509 9.81055 124.113V124.113Z" fill="#8A7ED9"/>
</g>
<path d="M9.81055 124.113C9.81055 112.716 19.0489 103.478 30.445 103.478V103.478C41.8411 103.478 51.0795 112.716 51.0795 124.113V124.113C51.0795 135.509 41.8411 144.747 30.445 144.747V144.747C19.0489 144.747 9.81055 135.509 9.81055 124.113V124.113Z" stroke="#1F2024" stroke-width="5.15862"/>
<line x1="36.2487" y1="143.457" x2="36.2487" y2="169.251" stroke="#1F2024" stroke-width="5.15862"/>
<g filter="url(#filter6_ii)">
<path d="M50.2728 175.752C49.9589 175.084 49.2336 174.651 48.4309 174.651H39.0728L47.4878 161.664C47.8512 161.103 47.8552 160.409 47.4985 159.846C47.1406 159.281 46.478 158.933 45.7594 158.933H29.7307C29 158.933 28.3268 159.294 27.9755 159.873L13.2825 184.054C12.9419 184.615 12.9526 185.299 13.3132 185.85C13.6739 186.403 14.3297 186.741 15.0377 186.741H24.0872L15.8565 204.79C15.4891 205.597 15.807 206.525 16.6138 207.001C16.9504 207.199 17.3298 207.295 17.7091 207.295C18.2394 207.295 18.767 207.104 19.1557 206.737L49.8775 177.719C50.4331 177.195 50.5894 176.421 50.2728 175.752Z" fill="#EDB146"/>
</g>
<path d="M50.2728 175.752C49.9589 175.084 49.2336 174.651 48.4309 174.651H39.0728L47.4878 161.664C47.8512 161.103 47.8552 160.409 47.4985 159.846C47.1406 159.281 46.478 158.933 45.7594 158.933H29.7307C29 158.933 28.3268 159.294 27.9755 159.873L13.2825 184.054C12.9419 184.615 12.9526 185.299 13.3132 185.85C13.6739 186.403 14.3297 186.741 15.0377 186.741H24.0872L15.8565 204.79C15.4891 205.597 15.807 206.525 16.6138 207.001C16.9504 207.199 17.3298 207.295 17.7091 207.295C18.2394 207.295 18.767 207.104 19.1557 206.737L49.8775 177.719C50.4331 177.195 50.5894 176.421 50.2728 175.752Z" stroke="#1F2024" stroke-width="5.15862"/>
</g>
<g clip-path="url(#clip0)">
<rect x="109.759" y="146.037" width="72.2207" height="20.6345" rx="10.3172" fill="#1F2024"/>
<rect x="109.759" y="146.037" width="7.73793" height="20.6345" fill="#CAE9FA"/>
<rect x="122.655" y="146.037" width="7.73793" height="20.6345" fill="#CAE9FA"/>
<rect x="135.552" y="146.037" width="7.73793" height="20.6345" fill="#CAE9FA"/>
<rect x="148.449" y="146.037" width="7.73793" height="20.6345" fill="#CAE9FA"/>
<rect x="161.345" y="146.037" width="7.73793" height="20.6345" fill="#CAE9FA"/>
<rect x="174.242" y="146.037" width="7.73793" height="20.6345" fill="#CAE9FA"/>
</g>
<rect x="109.759" y="146.037" width="72.2207" height="20.6345" rx="10.3172" stroke="#1F2024" stroke-width="3.86897"/>
<g filter="url(#filter7_ii)">
<path fill-rule="evenodd" clip-rule="evenodd" d="M29.1558 64.7885H180.376C171.319 38.88 146.661 20.2954 117.662 20.2954H91.8693C62.8706 20.2954 38.2125 38.88 29.1558 64.7885Z" fill="#EB0D18"/>
</g>
<path d="M29.1558 64.7885L26.7209 63.9374C26.4452 64.7263 26.5687 65.5999 27.0524 66.2814C27.5361 66.9629 28.32 67.3678 29.1558 67.3678V64.7885ZM180.376 64.7885V67.3678C181.212 67.3678 181.996 66.9629 182.479 66.2814C182.963 65.5999 183.087 64.7263 182.811 63.9374L180.376 64.7885ZM29.1558 67.3678H180.376V62.2092H29.1558V67.3678ZM117.662 22.8747C145.531 22.8747 169.235 40.7339 177.941 65.6396L182.811 63.9374C173.403 37.0261 147.791 17.7161 117.662 17.7161V22.8747ZM91.8693 22.8747H117.662V17.7161H91.8693V22.8747ZM31.5906 65.6396C40.2968 40.7339 64.0007 22.8747 91.8693 22.8747V17.7161C61.7404 17.7161 36.1282 37.0261 26.7209 63.9374L31.5906 65.6396Z" fill="#1F2024"/>
<g filter="url(#filter8_ii)">
<path fill-rule="evenodd" clip-rule="evenodd" d="M54.9482 64.7885H206.168C197.112 38.88 172.454 20.2954 143.455 20.2954H117.662C88.663 20.2954 64.005 38.88 54.9482 64.7885Z" fill="#FF3979"/>
</g>
<path d="M54.9482 64.7885L52.5134 63.9374C52.2376 64.7263 52.3612 65.5999 52.8449 66.2814C53.3286 66.9629 54.1125 67.3678 54.9482 67.3678V64.7885ZM206.168 64.7885V67.3678C207.004 67.3678 207.788 66.9629 208.272 66.2814C208.755 65.5999 208.879 64.7263 208.603 63.9374L206.168 64.7885ZM54.9482 67.3678H206.168V62.2092H54.9482V67.3678ZM143.455 22.8747C171.323 22.8747 195.027 40.7339 203.734 65.6396L208.603 63.9374C199.196 37.0261 173.584 17.7161 143.455 17.7161V22.8747ZM117.662 22.8747H143.455V17.7161H117.662V22.8747ZM57.3831 65.6396C66.0893 40.7339 89.7932 22.8747 117.662 22.8747V17.7161C87.5329 17.7161 61.9207 37.0261 52.5134 63.9374L57.3831 65.6396Z" fill="#1F2024"/>
<g filter="url(#filter9_ii)">
<path fill-rule="evenodd" clip-rule="evenodd" d="M80.7417 64.7884H231.962C222.905 38.8799 198.247 20.2953 169.248 20.2953H143.455C114.456 20.2953 89.7984 38.8799 80.7417 64.7884Z" fill="#EB0D18"/>
</g>
<path d="M80.7417 64.7884L78.3069 63.9373C78.0311 64.7262 78.1546 65.5998 78.6383 66.2813C79.1221 66.9628 79.906 67.3677 80.7417 67.3677V64.7884ZM231.962 64.7884V67.3677C232.798 67.3677 233.581 66.9628 234.065 66.2813C234.549 65.5998 234.672 64.7262 234.397 63.9373L231.962 64.7884ZM80.7417 67.3677H231.962V62.2091H80.7417V67.3677ZM169.248 22.8746C197.117 22.8746 220.821 40.7338 229.527 65.6395L234.397 63.9373C224.989 37.026 199.377 17.716 169.248 17.716V22.8746ZM143.455 22.8746H169.248V17.716H143.455V22.8746ZM83.1765 65.6395C91.8827 40.7338 115.587 22.8746 143.455 22.8746V17.716C113.326 17.716 87.7141 37.026 78.3069 63.9373L83.1765 65.6395Z" fill="#1F2024"/>
<g filter="url(#filter10_ii)">
<path fill-rule="evenodd" clip-rule="evenodd" d="M106.37 64.7885H138.889C144.848 55.4816 155.278 49.3127 167.149 49.3127H183.085C201.603 49.3127 216.616 64.325 216.616 82.8437V133.14C216.616 148.017 221.54 163.466 231.632 165.217V165.382H233.566H245.818H259.359C252.954 163.428 245.872 155.768 245.818 148.697V86.7127C245.818 50.0314 216.082 20.2954 179.401 20.2954H169.084C140.085 20.2954 115.427 38.88 106.37 64.7885Z" fill="#FF3979"/>
</g>
<path d="M138.889 64.7885V67.3678C139.768 67.3678 140.587 66.9198 141.061 66.1793L138.889 64.7885ZM106.37 64.7885L103.935 63.9374C103.66 64.7263 103.783 65.5999 104.267 66.2814C104.75 66.9629 105.534 67.3678 106.37 67.3678V64.7885ZM231.632 165.217H234.211C234.211 163.963 233.309 162.89 232.073 162.676L231.632 165.217ZM231.632 165.382H229.052C229.052 166.806 230.207 167.961 231.632 167.961V165.382ZM259.359 165.382V167.961C260.637 167.961 261.722 167.026 261.91 165.762C262.099 164.498 261.334 163.287 260.112 162.915L259.359 165.382ZM245.818 148.697H243.239C243.239 148.703 243.239 148.71 243.239 148.716L245.818 148.697ZM138.889 62.2092H106.37V67.3678H138.889V62.2092ZM167.149 46.7333C154.362 46.7333 143.129 53.3815 136.717 63.3978L141.061 66.1793C146.566 57.5816 156.194 51.892 167.149 51.892V46.7333ZM183.085 46.7333H167.149V51.892H183.085V46.7333ZM219.195 82.8437C219.195 62.9005 203.028 46.7333 183.085 46.7333V51.892C200.179 51.892 214.036 65.7495 214.036 82.8437H219.195ZM219.195 133.14V82.8437H214.036V133.14H219.195ZM232.073 162.676C228.32 162.025 225.08 158.734 222.718 153.103C220.392 147.559 219.195 140.336 219.195 133.14H214.036C214.036 140.821 215.302 148.761 217.961 155.099C220.583 161.349 224.852 166.659 231.191 167.759L232.073 162.676ZM234.211 165.382V165.217H229.052V165.382H234.211ZM233.566 162.802H231.632V167.961H233.566V162.802ZM245.818 162.802H233.566V167.961H245.818V162.802ZM259.359 162.802H245.818V167.961H259.359V162.802ZM243.239 148.716C243.272 153.061 245.428 157.308 248.239 160.625C251.059 163.954 254.827 166.696 258.607 167.849L260.112 162.915C257.486 162.114 254.511 160.048 252.175 157.291C249.829 154.522 248.418 151.403 248.397 148.677L243.239 148.716ZM243.239 86.7127V148.697H248.397V86.7127H243.239ZM179.401 22.8747C214.658 22.8747 243.239 51.4559 243.239 86.7127H248.397C248.397 48.6069 217.507 17.7161 179.401 17.7161V22.8747ZM169.084 22.8747H179.401V17.7161H169.084V22.8747ZM108.805 65.6396C117.511 40.7339 141.215 22.8747 169.084 22.8747V17.7161C138.955 17.7161 113.343 37.0261 103.935 63.9374L108.805 65.6396Z" fill="#1F2024"/>
<defs>
<filter id="filter0_ii" x="6.58643" y="62.2091" width="159.917" height="139.283" filterUnits="userSpaceOnUse" color-interpolation-filters="sRGB">
<feFlood flood-opacity="0" result="BackgroundImageFix"/>
<feBlend mode="normal" in="SourceGraphic" in2="BackgroundImageFix" result="shape"/>
<feColorMatrix in="SourceAlpha" type="matrix" values="0 0 0 0 0 0 0 0 0 0 0 0 0 0 0 0 0 0 127 0" result="hardAlpha"/>
<feOffset dy="-10.3172"/>
<feComposite in2="hardAlpha" operator="arithmetic" k2="-1" k3="1"/>
<feColorMatrix type="matrix" values="0 0 0 0 0 0 0 0 0 0 0 0 0 0 0 0 0 0 0.25 0"/>
<feBlend mode="normal" in2="shape" result="effect1_innerShadow"/>
<feColorMatrix in="SourceAlpha" type="matrix" values="0 0 0 0 0 0 0 0 0 0 0 0 0 0 0 0 0 0 127 0" result="hardAlpha"/>
<feOffset dy="10.3172"/>
<feComposite in2="hardAlpha" operator="arithmetic" k2="-1" k3="1"/>
<feColorMatrix type="matrix" values="0 0 0 0 1 0 0 0 0 1 0 0 0 0 1 0 0 0 0.25 0"/>
<feBlend mode="normal" in2="effect1_innerShadow" result="effect2_innerShadow"/>
</filter>
<filter id="filter1_i" x="71.0693" y="62.2091" width="149.6" height="139.283" filterUnits="userSpaceOnUse" color-interpolation-filters="sRGB">
<feFlood flood-opacity="0" result="BackgroundImageFix"/>
<feBlend mode="normal" in="SourceGraphic" in2="BackgroundImageFix" result="shape"/>
<feColorMatrix in="SourceAlpha" type="matrix" values="0 0 0 0 0 0 0 0 0 0 0 0 0 0 0 0 0 0 127 0" result="hardAlpha"/>
<feOffset dx="-15.4759" dy="5.15862"/>
<feComposite in2="hardAlpha" operator="arithmetic" k2="-1" k3="1"/>
<feColorMatrix type="matrix" values="0 0 0 0 1 0 0 0 0 1 0 0 0 0 1 0 0 0 0.25 0"/>
<feBlend mode="normal" in2="shape" result="effect1_innerShadow"/>
</filter>
<filter id="filter2_ddi" x="89.1243" y="97.0298" width="113.49" height="41.269" filterUnits="userSpaceOnUse" color-interpolation-filters="sRGB">
<feFlood flood-opacity="0" result="BackgroundImageFix"/>
<feColorMatrix in="SourceAlpha" type="matrix" values="0 0 0 0 0 0 0 0 0 0 0 0 0 0 0 0 0 0 127 0" result="hardAlpha"/>
<feOffset dx="-2.57931"/>
<feColorMatrix type="matrix" values="0 0 0 0 1 0 0 0 0 1 0 0 0 0 1 0 0 0 0.25 0"/>
<feBlend mode="normal" in2="BackgroundImageFix" result="effect1_dropShadow"/>
<feColorMatrix in="SourceAlpha" type="matrix" values="0 0 0 0 0 0 0 0 0 0 0 0 0 0 0 0 0 0 127 0" result="hardAlpha"/>
<feOffset dx="2.57931"/>
<feColorMatrix type="matrix" values="0 0 0 0 0 0 0 0 0 0 0 0 0 0 0 0 0 0 0.25 0"/>
<feBlend mode="normal" in2="effect1_dropShadow" result="effect2_dropShadow"/>
<feBlend mode="normal" in="SourceGraphic" in2="effect2_dropShadow" result="shape"/>
<feColorMatrix in="SourceAlpha" type="matrix" values="0 0 0 0 0 0 0 0 0 0 0 0 0 0 0 0 0 0 127 0" result="hardAlpha"/>
<feOffset dx="-2.57931"/>
<feComposite in2="hardAlpha" operator="arithmetic" k2="-1" k3="1"/>
<feColorMatrix type="matrix" values="0 0 0 0 0 0 0 0 0 0 0 0 0 0 0 0 0 0 0.25 0"/>
<feBlend mode="normal" in2="shape" result="effect3_innerShadow"/>
</filter>
<filter id="filter3_d" x="-2.44113" y="98.3195" width="73.5103" height="114.134" filterUnits="userSpaceOnUse" color-interpolation-filters="sRGB">
<feFlood flood-opacity="0" result="BackgroundImageFix"/>
<feColorMatrix in="SourceAlpha" type="matrix" values="0 0 0 0 0 0 0 0 0 0 0 0 0 0 0 0 0 0 127 0" result="hardAlpha"/>
<feOffset dx="-2.57931" dy="2.57931"/>
<feColorMatrix type="matrix" values="0 0 0 0 0 0 0 0 0 0 0 0 0 0 0 0 0 0 0.25 0"/>
<feBlend mode="normal" in2="BackgroundImageFix" result="effect1_dropShadow"/>
<feBlend mode="normal" in="SourceGraphic" in2="effect1_dropShadow" result="shape"/>
</filter>
<filter id="filter4_i" x="7.23145" y="100.899" width="56.7448" height="46.4276" filterUnits="userSpaceOnUse" color-interpolation-filters="sRGB">
<feFlood flood-opacity="0" result="BackgroundImageFix"/>
<feBlend mode="normal" in="SourceGraphic" in2="BackgroundImageFix" result="shape"/>
<feColorMatrix in="SourceAlpha" type="matrix" values="0 0 0 0 0 0 0 0 0 0 0 0 0 0 0 0 0 0 127 0" result="hardAlpha"/>
<feOffset dx="-15.4759" dy="5.15862"/>
<feComposite in2="hardAlpha" operator="arithmetic" k2="-1" k3="1"/>
<feColorMatrix type="matrix" values="0 0 0 0 1 0 0 0 0 1 0 0 0 0 1 0 0 0 0.25 0"/>
<feBlend mode="normal" in2="shape" result="effect1_innerShadow"/>
</filter>
<filter id="filter5_ii" x="7.23145" y="100.899" width="46.4276" height="46.4276" filterUnits="userSpaceOnUse" color-interpolation-filters="sRGB">
<feFlood flood-opacity="0" result="BackgroundImageFix"/>
<feBlend mode="normal" in="SourceGraphic" in2="BackgroundImageFix" result="shape"/>
<feColorMatrix in="SourceAlpha" type="matrix" values="0 0 0 0 0 0 0 0 0 0 0 0 0 0 0 0 0 0 127 0" result="hardAlpha"/>
<feOffset dy="-10.3172"/>
<feComposite in2="hardAlpha" operator="arithmetic" k2="-1" k3="1"/>
<feColorMatrix type="matrix" values="0 0 0 0 0 0 0 0 0 0 0 0 0 0 0 0 0 0 0.25 0"/>
<feBlend mode="normal" in2="shape" result="effect1_innerShadow"/>
<feColorMatrix in="SourceAlpha" type="matrix" values="0 0 0 0 0 0 0 0 0 0 0 0 0 0 0 0 0 0 127 0" result="hardAlpha"/>
<feOffset dy="10.3172"/>
<feComposite in2="hardAlpha" operator="arithmetic" k2="-1" k3="1"/>
<feColorMatrix type="matrix" values="0 0 0 0 1 0 0 0 0 1 0 0 0 0 1 0 0 0 0.25 0"/>
<feBlend mode="normal" in2="effect1_innerShadow" result="effect2_innerShadow"/>
</filter>
<filter id="filter6_ii" x="10.4556" y="156.354" width="42.5596" height="53.5207" filterUnits="userSpaceOnUse" color-interpolation-filters="sRGB">
<feFlood flood-opacity="0" result="BackgroundImageFix"/>
<feBlend mode="normal" in="SourceGraphic" in2="BackgroundImageFix" result="shape"/>
<feColorMatrix in="SourceAlpha" type="matrix" values="0 0 0 0 0 0 0 0 0 0 0 0 0 0 0 0 0 0 127 0" result="hardAlpha"/>
<feOffset dy="-10.3172"/>
<feComposite in2="hardAlpha" operator="arithmetic" k2="-1" k3="1"/>
<feColorMatrix type="matrix" values="0 0 0 0 0 0 0 0 0 0 0 0 0 0 0 0 0 0 0.25 0"/>
<feBlend mode="normal" in2="shape" result="effect1_innerShadow"/>
<feColorMatrix in="SourceAlpha" type="matrix" values="0 0 0 0 0 0 0 0 0 0 0 0 0 0 0 0 0 0 127 0" result="hardAlpha"/>
<feOffset dy="10.3172"/>
<feComposite in2="hardAlpha" operator="arithmetic" k2="-1" k3="1"/>
<feColorMatrix type="matrix" values="0 0 0 0 1 0 0 0 0 1 0 0 0 0 1 0 0 0 0.25 0"/>
<feBlend mode="normal" in2="effect1_innerShadow" result="effect2_innerShadow"/>
</filter>
<filter id="filter7_ii" x="26.5767" y="17.7161" width="156.379" height="49.6517" filterUnits="userSpaceOnUse" color-interpolation-filters="sRGB">
<feFlood flood-opacity="0" result="BackgroundImageFix"/>
<feBlend mode="normal" in="SourceGraphic" in2="BackgroundImageFix" result="shape"/>
<feColorMatrix in="SourceAlpha" type="matrix" values="0 0 0 0 0 0 0 0 0 0 0 0 0 0 0 0 0 0 127 0" result="hardAlpha"/>
<feOffset dx="10.3172"/>
<feComposite in2="hardAlpha" operator="arithmetic" k2="-1" k3="1"/>
<feColorMatrix type="matrix" values="0 0 0 0 0 0 0 0 0 0 0 0 0 0 0 0 0 0 0.25 0"/>
<feBlend mode="normal" in2="shape" result="effect1_innerShadow"/>
<feColorMatrix in="SourceAlpha" type="matrix" values="0 0 0 0 0 0 0 0 0 0 0 0 0 0 0 0 0 0 127 0" result="hardAlpha"/>
<feOffset dx="-15.4759" dy="5.15862"/>
<feComposite in2="hardAlpha" operator="arithmetic" k2="-1" k3="1"/>
<feColorMatrix type="matrix" values="0 0 0 0 1 0 0 0 0 1 0 0 0 0 1 0 0 0 0.25 0"/>
<feBlend mode="normal" in2="effect1_innerShadow" result="effect2_innerShadow"/>
</filter>
<filter id="filter8_ii" x="52.3691" y="17.7161" width="156.379" height="49.6517" filterUnits="userSpaceOnUse" color-interpolation-filters="sRGB">
<feFlood flood-opacity="0" result="BackgroundImageFix"/>
<feBlend mode="normal" in="SourceGraphic" in2="BackgroundImageFix" result="shape"/>
<feColorMatrix in="SourceAlpha" type="matrix" values="0 0 0 0 0 0 0 0 0 0 0 0 0 0 0 0 0 0 127 0" result="hardAlpha"/>
<feOffset dx="10.3172"/>
<feComposite in2="hardAlpha" operator="arithmetic" k2="-1" k3="1"/>
<feColorMatrix type="matrix" values="0 0 0 0 0 0 0 0 0 0 0 0 0 0 0 0 0 0 0.25 0"/>
<feBlend mode="normal" in2="shape" result="effect1_innerShadow"/>
<feColorMatrix in="SourceAlpha" type="matrix" values="0 0 0 0 0 0 0 0 0 0 0 0 0 0 0 0 0 0 127 0" result="hardAlpha"/>
<feOffset dx="-15.4759" dy="5.15862"/>
<feComposite in2="hardAlpha" operator="arithmetic" k2="-1" k3="1"/>
<feColorMatrix type="matrix" values="0 0 0 0 1 0 0 0 0 1 0 0 0 0 1 0 0 0 0.25 0"/>
<feBlend mode="normal" in2="effect1_innerShadow" result="effect2_innerShadow"/>
</filter>
<filter id="filter9_ii" x="78.1626" y="17.7159" width="156.379" height="49.6517" filterUnits="userSpaceOnUse" color-interpolation-filters="sRGB">
<feFlood flood-opacity="0" result="BackgroundImageFix"/>
<feBlend mode="normal" in="SourceGraphic" in2="BackgroundImageFix" result="shape"/>
<feColorMatrix in="SourceAlpha" type="matrix" values="0 0 0 0 0 0 0 0 0 0 0 0 0 0 0 0 0 0 127 0" result="hardAlpha"/>
<feOffset dx="10.3172"/>
<feComposite in2="hardAlpha" operator="arithmetic" k2="-1" k3="1"/>
<feColorMatrix type="matrix" values="0 0 0 0 0 0 0 0 0 0 0 0 0 0 0 0 0 0 0.25 0"/>
<feBlend mode="normal" in2="shape" result="effect1_innerShadow"/>
<feColorMatrix in="SourceAlpha" type="matrix" values="0 0 0 0 0 0 0 0 0 0 0 0 0 0 0 0 0 0 127 0" result="hardAlpha"/>
<feOffset dx="-15.4759" dy="5.15862"/>
<feComposite in2="hardAlpha" operator="arithmetic" k2="-1" k3="1"/>
<feColorMatrix type="matrix" values="0 0 0 0 1 0 0 0 0 1 0 0 0 0 1 0 0 0 0.25 0"/>
<feBlend mode="normal" in2="effect1_innerShadow" result="effect2_innerShadow"/>
</filter>
<filter id="filter10_ii" x="103.791" y="17.7161" width="158.148" height="150.245" filterUnits="userSpaceOnUse" color-interpolation-filters="sRGB">
<feFlood flood-opacity="0" result="BackgroundImageFix"/>
<feBlend mode="normal" in="SourceGraphic" in2="BackgroundImageFix" result="shape"/>
<feColorMatrix in="SourceAlpha" type="matrix" values="0 0 0 0 0 0 0 0 0 0 0 0 0 0 0 0 0 0 127 0" result="hardAlpha"/>
<feOffset dx="10.3172"/>
<feComposite in2="hardAlpha" operator="arithmetic" k2="-1" k3="1"/>
<feColorMatrix type="matrix" values="0 0 0 0 0 0 0 0 0 0 0 0 0 0 0 0 0 0 0.25 0"/>
<feBlend mode="normal" in2="shape" result="effect1_innerShadow"/>
<feColorMatrix in="SourceAlpha" type="matrix" values="0 0 0 0 0 0 0 0 0 0 0 0 0 0 0 0 0 0 127 0" result="hardAlpha"/>
<feOffset dx="-15.4759" dy="5.15862"/>
<feComposite in2="hardAlpha" operator="arithmetic" k2="-1" k3="1"/>
<feColorMatrix type="matrix" values="0 0 0 0 1 0 0 0 0 1 0 0 0 0 1 0 0 0 0.25 0"/>
<feBlend mode="normal" in2="effect1_innerShadow" result="effect2_innerShadow"/>
</filter>
<clipPath id="clip0">
<rect x="109.759" y="146.037" width="72.2207" height="20.6345" rx="10.3172" fill="white"/>
</clipPath>
</defs>
</svg>
