<svg width="246" height="275" viewBox="0 0 246 275" fill="none" xmlns="http://www.w3.org/2000/svg">
<g filter="url(#filter0_ii)">
<path d="M6.60645 129.876C6.60645 120.921 13.866 113.662 22.8211 113.662H152.538C161.493 113.662 168.753 120.921 168.753 129.876V237.974C168.753 246.929 161.493 254.189 152.538 254.189H22.8211C13.866 254.189 6.60645 246.929 6.60645 237.974V129.876Z" fill="#75D1C1"/>
</g>
<path d="M6.60645 129.876C6.60645 120.921 13.866 113.662 22.8211 113.662H152.538C161.493 113.662 168.753 120.921 168.753 129.876V237.974C168.753 246.929 161.493 254.189 152.538 254.189H22.8211C13.866 254.189 6.60645 246.929 6.60645 237.974V129.876Z" stroke="#1F2024" stroke-width="5.40488"/>
<g filter="url(#filter1_i)">
<path d="M74.1675 129.876C74.1675 120.921 81.427 113.662 90.3821 113.662H209.289C218.245 113.662 225.504 120.921 225.504 129.876V237.974C225.504 246.929 218.245 254.189 209.289 254.189H90.3821C81.427 254.189 74.1675 246.929 74.1675 237.974V129.876Z" fill="#ACE5D7"/>
</g>
<path d="M74.1675 129.876C74.1675 120.921 81.427 113.662 90.3821 113.662H209.289C218.245 113.662 225.504 120.921 225.504 129.876V237.974C225.504 246.929 218.245 254.189 209.289 254.189H90.3821C81.427 254.189 74.1675 246.929 74.1675 237.974V129.876Z" stroke="#1F2024" stroke-width="5.40488"/>
<path d="M160.646 116.364H186.319L148.485 251.486H122.812L160.646 116.364Z" fill="white" fill-opacity="0.5"/>
<path d="M150.511 116.364H154.565L116.731 251.486H112.677L150.511 116.364Z" fill="white" fill-opacity="0.5"/>
<g filter="url(#filter2_d)">
<rect x="17.4165" y="150.145" width="71.6146" height="4.05366" rx="2.02683" fill="#1F2024" stroke="#1F2024" stroke-width="5.40488"/>
<path fill-rule="evenodd" clip-rule="evenodd" d="M153.413 160.181C153.413 182.16 143.711 193.297 124.531 193.297C99.2233 193.297 90.1917 177.468 90.1917 162.627C90.1917 158.922 89.1097 158.428 87.6515 157.829C85.5871 156.971 85.4281 151.398 85.6299 148.659C85.6525 148.352 85.895 148.106 86.1995 148.06C113.528 143.983 127.15 143.674 144.856 147.062V147.062C148.411 147.742 151.894 149.49 155.513 149.49H161.738C165.358 149.49 168.84 147.742 172.396 147.062V147.062C190.102 143.674 203.724 143.983 231.052 148.06C231.357 148.106 231.599 148.352 231.622 148.659C231.823 151.398 231.664 156.971 229.6 157.829C228.142 158.428 227.06 158.922 227.06 162.627C227.06 177.468 218.028 193.297 192.721 193.297C173.541 193.297 163.839 182.16 163.839 160.181V160.181C163.953 159.125 163.133 158.19 162.071 158.19H155.181C154.119 158.19 153.299 159.125 153.413 160.181V160.181Z" fill="#1F2024"/>
<path d="M87.6515 157.829L87.1328 159.076L87.1375 159.078L87.6515 157.829ZM85.6299 148.659L86.9774 148.758L85.6299 148.659ZM86.1995 148.06L86.0001 146.724L86.0001 146.724L86.1995 148.06ZM231.052 148.06L231.252 146.724L231.252 146.724L231.052 148.06ZM231.622 148.659L232.969 148.56L232.969 148.559L231.622 148.659ZM229.6 157.829L230.114 159.078L230.119 159.076L229.6 157.829ZM124.531 194.648C134.386 194.648 142.031 191.778 147.183 185.869C152.305 179.995 154.764 171.341 154.764 160.181H152.062C152.062 171 149.67 178.904 145.146 184.093C140.652 189.247 133.856 191.945 124.531 191.945V194.648ZM88.8404 162.627C88.8404 170.307 91.1773 178.332 96.8828 184.449C102.609 190.588 111.582 194.648 124.531 194.648V191.945C112.172 191.945 103.975 188.091 98.859 182.605C93.7218 177.098 91.5429 169.788 91.5429 162.627H88.8404ZM87.1375 159.078C87.8951 159.39 88.1563 159.539 88.3534 159.827C88.572 160.146 88.8404 160.858 88.8404 162.627H91.5429C91.5429 160.691 91.2703 159.304 90.5835 158.3C89.875 157.265 88.8661 156.867 88.1655 156.579L87.1375 159.078ZM84.2823 148.56C84.1765 149.997 84.1631 152.179 84.4542 154.147C84.5992 155.127 84.8292 156.122 85.1997 156.964C85.5568 157.775 86.1433 158.665 87.1328 159.076L88.1702 156.581C88.1275 156.563 87.92 156.435 87.673 155.875C87.4394 155.344 87.2552 154.614 87.1276 153.752C86.8735 152.034 86.8815 150.06 86.9774 148.758L84.2823 148.56ZM86.0001 146.724C85.1114 146.856 84.3542 147.582 84.2823 148.56L86.9774 148.758C86.9507 149.121 86.6787 149.355 86.3989 149.397L86.0001 146.724ZM145.11 145.734C127.193 142.306 113.402 142.635 86.0001 146.724L86.3989 149.397C113.654 145.33 127.107 145.041 144.602 148.389L145.11 145.734ZM155.513 150.841H161.738V148.138H155.513V150.841ZM172.649 148.389C190.145 145.041 203.597 145.33 230.853 149.397L231.252 146.724C203.85 142.635 190.059 142.306 172.142 145.734L172.649 148.389ZM230.853 149.397C230.573 149.355 230.301 149.121 230.274 148.758L232.969 148.559C232.897 147.582 232.14 146.856 231.252 146.724L230.853 149.397ZM230.274 148.758C230.37 150.06 230.378 152.034 230.124 153.752C229.996 154.614 229.812 155.344 229.579 155.875C229.332 156.435 229.124 156.563 229.081 156.581L230.119 159.076C231.108 158.665 231.695 157.775 232.052 156.964C232.422 156.122 232.652 155.127 232.797 154.147C233.089 152.179 233.075 149.997 232.969 148.56L230.274 148.758ZM229.086 156.579C228.385 156.867 227.377 157.265 226.668 158.3C225.981 159.304 225.709 160.691 225.709 162.627H228.411C228.411 160.858 228.68 160.146 228.898 159.827C229.095 159.539 229.357 159.39 230.114 159.078L229.086 156.579ZM225.709 162.627C225.709 169.788 223.53 177.098 218.393 182.605C213.276 188.091 205.079 191.945 192.721 191.945V194.648C205.67 194.648 214.642 190.588 220.369 184.449C226.074 178.332 228.411 170.307 228.411 162.627H225.709ZM192.721 191.945C183.396 191.945 176.6 189.247 172.106 184.093C167.581 178.904 165.19 171 165.19 160.181H162.487C162.487 171.341 164.947 179.995 170.069 185.869C175.221 191.778 182.866 194.648 192.721 194.648V191.945ZM162.071 156.839H155.181V159.541H162.071V156.839ZM165.182 160.326C165.381 158.491 163.956 156.839 162.071 156.839V159.541C162.309 159.541 162.525 159.76 162.495 160.035L165.182 160.326ZM161.738 150.841C163.753 150.841 165.684 150.355 167.474 149.827C169.322 149.281 170.959 148.712 172.649 148.389L172.142 145.734C170.277 146.091 168.396 146.737 166.708 147.235C164.963 147.75 163.344 148.138 161.738 148.138V150.841ZM155.181 156.839C153.296 156.839 151.871 158.491 152.07 160.326L154.756 160.035C154.727 159.76 154.942 159.541 155.181 159.541V156.839ZM144.602 148.389C146.293 148.712 147.93 149.281 149.778 149.827C151.568 150.355 153.499 150.841 155.513 150.841V148.138C153.908 148.138 152.288 147.75 150.543 147.235C148.856 146.737 146.974 146.091 145.11 145.734L144.602 148.389Z" fill="#1F2024"/>
<path d="M107.242 144.064H118.758L109.551 189.33L99.1655 183.773L107.242 144.064Z" fill="white"/>
<path d="M124.261 144.064H128.216L118.443 192.032L114.704 190.974L124.261 144.064Z" fill="white"/>
<path d="M153.413 160.181H156.115V160.035L156.1 159.889L153.413 160.181ZM144.856 147.062L145.364 144.407L144.856 147.062ZM86.1995 148.06L85.8007 145.387L85.8007 145.387L86.1995 148.06ZM85.6299 148.659L88.325 148.857L85.6299 148.659ZM87.6515 157.829L86.6141 160.324L86.6236 160.328L87.6515 157.829ZM163.839 160.181L161.152 159.889L161.136 160.035V160.181H163.839ZM172.396 147.062L171.888 144.407L171.888 144.407L172.396 147.062ZM231.052 148.06L231.451 145.387L231.451 145.387L231.052 148.06ZM231.622 148.659L234.317 148.46L234.317 148.46L231.622 148.659ZM229.6 157.829L230.628 160.328L230.638 160.324L229.6 157.829ZM150.711 160.181C150.711 170.83 148.353 178.359 144.128 183.205C139.963 187.982 133.591 190.594 124.531 190.594V195.999C134.65 195.999 142.72 193.043 148.201 186.757C153.622 180.54 156.115 171.511 156.115 160.181H150.711ZM144.348 149.716C146.977 150.219 148.215 151.343 149.011 152.854C149.94 154.615 150.358 157.071 150.726 160.472L156.1 159.889C155.742 156.587 155.268 153.132 153.793 150.333C152.185 147.284 149.509 145.2 145.364 144.407L144.348 149.716ZM86.5983 150.733C113.781 146.677 127.064 146.409 144.348 149.716L145.364 144.407C127.236 140.939 113.275 141.288 85.8007 145.387L86.5983 150.733ZM88.325 148.857C88.2489 149.891 87.4623 150.604 86.5983 150.733L85.8007 145.387C84.3277 145.607 83.056 146.813 82.9347 148.46L88.325 148.857ZM88.6889 155.333C89.1196 155.512 89.1016 155.766 88.9096 155.33C88.7445 154.955 88.5832 154.358 88.4643 153.554C88.2287 151.962 88.2341 150.092 88.325 148.857L82.9347 148.46C82.8239 149.965 82.8079 152.251 83.1176 154.345C83.2712 155.384 83.5241 156.511 83.9631 157.508C84.3753 158.444 85.1513 159.716 86.6141 160.324L88.6889 155.333ZM92.8941 162.627C92.8941 160.608 92.6195 158.883 91.6985 157.537C90.7343 156.128 89.3516 155.606 88.6795 155.329L86.6236 160.328C87.4096 160.651 87.297 160.676 87.2383 160.59C87.2229 160.567 87.4892 160.941 87.4892 162.627H92.8941ZM124.531 190.594C112.468 190.594 104.658 186.842 99.8471 181.684C94.9941 176.481 92.8941 169.528 92.8941 162.627H87.4892C87.4892 170.566 89.9051 178.949 95.8947 185.37C101.926 191.837 111.286 195.999 124.531 195.999V190.594ZM161.136 160.181C161.136 171.511 163.63 180.54 169.05 186.757C174.531 193.043 182.601 195.999 192.721 195.999V190.594C183.66 190.594 177.289 187.982 173.124 183.205C168.899 178.359 166.541 170.83 166.541 160.181H161.136ZM171.888 144.407C167.743 145.2 165.066 147.284 163.459 150.333C161.984 153.132 161.51 156.587 161.152 159.889L166.525 160.472C166.894 157.071 167.312 154.615 168.24 152.854C169.036 151.343 170.275 150.219 172.903 149.716L171.888 144.407ZM231.451 145.387C203.976 141.288 190.015 140.939 171.888 144.407L172.903 149.716C190.188 146.409 203.471 146.677 230.653 150.733L231.451 145.387ZM234.317 148.46C234.196 146.813 232.924 145.607 231.451 145.387L230.653 150.733C229.789 150.604 229.003 149.891 228.927 148.857L234.317 148.46ZM230.638 160.324C232.1 159.716 232.876 158.444 233.288 157.508C233.727 156.511 233.98 155.384 234.134 154.345C234.444 152.251 234.428 149.965 234.317 148.46L228.927 148.857C229.018 150.092 229.023 151.962 228.787 153.554C228.668 154.358 228.507 154.955 228.342 155.33C228.15 155.766 228.132 155.512 228.563 155.333L230.638 160.324ZM229.762 162.627C229.762 160.941 230.029 160.567 230.013 160.59C229.955 160.676 229.842 160.651 230.628 160.328L228.572 155.329C227.9 155.606 226.517 156.128 225.553 157.537C224.632 158.883 224.358 160.608 224.358 162.627H229.762ZM192.721 195.999C205.965 195.999 215.325 191.837 221.357 185.37C227.347 178.949 229.762 170.566 229.762 162.627H224.358C224.358 169.528 222.258 176.481 217.404 181.684C212.593 186.842 204.784 190.594 192.721 190.594V195.999Z" fill="#1F2024"/>
</g>
<g filter="url(#filter3_i)">
<path fill-rule="evenodd" clip-rule="evenodd" d="M149.777 216.063C148.865 217.361 147.69 218.442 146.321 219.184C135.764 224.902 124.983 223.118 116.578 221.727C113.025 221.14 109.897 220.622 107.39 220.771C106.109 220.848 104.712 221.173 103.338 221.493C100.338 222.192 97.4529 222.864 96.1508 220.854C94.0608 217.628 100.964 199.833 117.252 196.87C129.079 194.718 145.558 197.103 149.777 202.731C153.997 197.103 170.476 194.718 182.302 196.87C198.591 199.833 205.494 217.628 203.404 220.854C202.102 222.864 199.217 222.192 196.217 221.493C194.843 221.173 193.446 220.848 192.165 220.771C189.658 220.622 186.53 221.14 182.976 221.727C174.572 223.118 163.791 224.901 153.234 219.184C151.865 218.442 150.69 217.361 149.777 216.063Z" fill="#1F2024"/>
</g>
<g filter="url(#filter4_ii)">
<path d="M105.06 3.42346L110.68 44.7201L42.9426 112.986H27.5611C34.3645 105.401 32.1932 96.0904 13.3628 86.8595C34.6603 80.3982 31.9981 64.6661 15.4334 53.148C44.9623 52.8353 52.9048 46.5144 48.8586 22.2457C83.8556 36.317 95.5384 31.1893 105.06 3.42346Z" fill="#E79834"/>
</g>
<path d="M105.06 3.42346L110.68 44.7201L42.9426 112.986H27.5611C34.3645 105.401 32.1932 96.0904 13.3628 86.8595C34.6603 80.3982 31.9981 64.6661 15.4334 53.148C44.9623 52.8353 52.9048 46.5144 48.8586 22.2457C83.8556 36.317 95.5384 31.1893 105.06 3.42346Z" stroke="#1F2024" stroke-width="5.40488" stroke-linejoin="round"/>
<g filter="url(#filter5_i)">
<path d="M65.1277 63.5424L48.563 21.9648L80.805 51.4624L65.1277 63.5424Z" fill="#F9E174"/>
</g>
<path d="M65.1277 63.5424L48.563 21.9648L80.805 51.4624L65.1277 63.5424Z" stroke="#1F2024" stroke-width="5.40488" stroke-linejoin="round"/>
<g filter="url(#filter6_i)">
<path d="M13.3628 86.8595L48.267 82.9265L43.2384 96.6921L13.3628 86.8595Z" fill="#F9E174"/>
</g>
<path d="M13.3628 86.8595L48.267 82.9265L43.2384 96.6921L13.3628 86.8595Z" stroke="#1F2024" stroke-width="5.40488" stroke-linejoin="round"/>
<g filter="url(#filter7_i)">
<path d="M99.4399 45.2821L105.356 2.86169C110.849 23.3996 115.545 32.6064 127.541 43.8774L99.4399 45.2821Z" fill="#F9E174"/>
</g>
<path d="M99.4399 45.2821L105.356 2.86169C110.849 23.3996 115.545 32.6064 127.541 43.8774L99.4399 45.2821Z" stroke="#1F2024" stroke-width="5.40488" stroke-linejoin="round"/>
<g filter="url(#filter8_i)">
<path d="M60.3946 64.6663L16.0249 53.4291L50.3375 78.9937L60.3946 64.6663Z" fill="#F9E174"/>
</g>
<path d="M60.3946 64.6663L16.0249 53.4291L50.3375 78.9937L60.3946 64.6663Z" stroke="#1F2024" stroke-width="5.40488" stroke-linejoin="round"/>
<g filter="url(#filter9_ii)">
<path fill-rule="evenodd" clip-rule="evenodd" d="M155.82 61.3105C161.033 66.9477 165.301 73.4628 168.515 80.5289C180.275 88.8966 187.614 86.3978 197.698 82.9642C202.091 81.4687 207.003 79.7959 213.029 78.7663C216.151 76.4931 219.995 75.152 224.153 75.152C234.6 75.152 243.07 83.6215 243.07 94.0691C243.07 104.291 234.963 112.619 224.828 112.974V112.986H224.153H135.648L135.648 112.986H41.0625C41.0625 93.7077 48.1449 74.9424 60.7517 61.3105C73.3585 47.6786 90.457 40.0203 108.286 40.0203C126.114 40.0203 143.213 47.6786 155.82 61.3105Z" fill="#F2C95C"/>
</g>
<path d="M168.515 80.5289L166.055 81.6477C166.252 82.0811 166.56 82.4548 166.948 82.7308L168.515 80.5289ZM155.82 61.3105L153.836 63.1454L153.836 63.1454L155.82 61.3105ZM197.698 82.9642L198.569 85.5224L198.569 85.5224L197.698 82.9642ZM213.029 78.7663L213.484 81.4302C213.895 81.36 214.283 81.196 214.62 80.951L213.029 78.7663ZM224.828 112.974L224.734 110.274C223.279 110.325 222.126 111.519 222.126 112.974H224.828ZM224.828 112.986V115.689C226.321 115.689 227.531 114.479 227.531 112.986H224.828ZM135.648 112.986L133.449 111.415C132.86 112.239 132.782 113.323 133.245 114.223C133.708 115.123 134.636 115.689 135.648 115.689V112.986ZM135.648 112.986L137.847 114.557C138.435 113.733 138.514 112.65 138.051 111.75C137.588 110.849 136.66 110.284 135.648 110.284V112.986ZM41.0625 112.986L38.3601 112.986C38.3601 113.703 38.6448 114.39 39.1516 114.897C39.6584 115.404 40.3458 115.689 41.0625 115.689V112.986ZM60.7517 61.3105L62.7358 63.1454L62.7358 63.1454L60.7517 61.3105ZM170.975 79.4101C167.648 72.094 163.222 65.3346 157.804 59.4757L153.836 63.1454C158.844 68.5609 162.955 74.8315 166.055 81.6477L170.975 79.4101ZM196.827 80.406C191.691 82.1548 187.77 83.4626 183.731 83.4696C179.848 83.4763 175.611 82.2612 170.082 78.327L166.948 82.7308C173.179 87.1643 178.492 88.8836 183.74 88.8745C188.831 88.8656 193.621 87.2072 198.569 85.5224L196.827 80.406ZM212.574 76.1025C206.313 77.1723 201.216 78.9117 196.827 80.406L198.569 85.5224C202.965 84.0258 207.694 82.4195 213.484 81.4302L212.574 76.1025ZM214.62 80.951C217.295 79.003 220.586 77.8545 224.153 77.8545V72.4496C219.405 72.4496 215.007 73.9833 211.439 76.5817L214.62 80.951ZM224.153 77.8545C233.108 77.8545 240.367 85.114 240.367 94.0691H245.772C245.772 82.129 236.093 72.4496 224.153 72.4496V77.8545ZM240.367 94.0691C240.367 102.83 233.419 109.969 224.734 110.274L224.923 115.675C236.507 115.268 245.772 105.751 245.772 94.0691H240.367ZM227.531 112.986V112.974H222.126V112.986H227.531ZM224.153 115.689H224.828V110.284H224.153V115.689ZM135.648 115.689H224.153V110.284H135.648V115.689ZM133.449 111.415L133.449 111.415L137.847 114.557L137.847 114.557L133.449 111.415ZM41.0625 115.689H135.648V110.284H41.0625V115.689ZM58.7677 59.4757C45.6731 73.635 38.3601 93.0665 38.3601 112.986L43.7649 112.986C43.7649 94.3488 50.6167 76.2499 62.7358 63.1454L58.7677 59.4757ZM108.286 37.3178C89.6691 37.3178 71.862 45.3165 58.7677 59.4757L62.7358 63.1454C74.855 50.0407 91.2449 42.7227 108.286 42.7227V37.3178ZM157.804 59.4757C144.709 45.3165 126.902 37.3178 108.286 37.3178V42.7227C125.326 42.7227 141.716 50.0407 153.836 63.1454L157.804 59.4757Z" fill="#1F2024"/>
<path fill-rule="evenodd" clip-rule="evenodd" d="M204.268 110.284H219.407C212.389 108.233 207.263 101.75 207.263 94.0692C207.263 89.2932 209.245 84.9802 212.431 81.9081H207.009C202.988 85.9934 200.506 91.5994 200.506 97.7849C200.506 102.405 201.891 106.702 204.268 110.284Z" fill="black" fill-opacity="0.16"/>
<path d="M144.832 63.1097C143.315 61.6087 141.714 60.2106 140.039 58.9199M108.286 48.1277C117.108 48.1277 125.697 50.36 133.283 54.5085" stroke="white" stroke-width="5.40488" stroke-linecap="round"/>
<path fill-rule="evenodd" clip-rule="evenodd" d="M153.78 98.5443C144.959 102.563 134.586 104.879 123.487 104.879C91.3978 104.879 65.3845 85.52 65.3845 61.6397C65.3845 61.3959 65.3872 61.1525 65.3926 60.9095C63.7873 62.2415 62.2383 63.653 60.7517 65.1414C48.1449 77.7635 41.0625 95.1387 41.0625 112.989H175.509C175.509 112.867 175.509 112.745 175.508 112.623C166.808 109.68 159.305 104.768 153.78 98.5443Z" fill="black" fill-opacity="0.16"/>
<path d="M205.236 94.069C205.236 83.6214 213.705 75.152 224.153 75.152" stroke="#1F2024" stroke-width="5.40488" stroke-linecap="round" stroke-linejoin="round"/>
<circle cx="224.153" cy="94.0691" r="8.10732" fill="#E79834" stroke="#1F2024" stroke-width="5.40488" stroke-linejoin="round"/>
<path d="M113.353 82.5924C110.65 71.7711 94.4358 71.7711 91.7334 82.5924" stroke="#1F2024" stroke-width="6.7561" stroke-linecap="round" stroke-linejoin="round"/>
<path d="M91.0574 82.0803C85.3915 79.0464 82.9824 76.7034 80.5854 70.9327" stroke="#1F2024" stroke-width="5.40488" stroke-linecap="round" stroke-linejoin="round"/>
<path d="M96.8002 76.3376C92.6649 73.7934 90.5893 70.8191 88.6929 66.2035" stroke="#1F2024" stroke-width="5.40488" stroke-linecap="round" stroke-linejoin="round"/>
<path d="M147.133 82.5924C149.836 71.7711 166.05 71.7711 168.753 82.5924" stroke="#1F2024" stroke-width="6.7561" stroke-linecap="round" stroke-linejoin="round"/>
<path d="M169.428 82.0803C175.094 79.0464 177.503 76.7034 179.9 70.9327" stroke="#1F2024" stroke-width="5.40488" stroke-linecap="round" stroke-linejoin="round"/>
<path d="M163.686 76.3376C167.821 73.7934 169.897 70.8191 171.793 66.2035" stroke="#1F2024" stroke-width="5.40488" stroke-linecap="round" stroke-linejoin="round"/>
<path d="M168.077 112.986H205.236C205.236 112.986 224.491 137.984 202.871 137.984C181.252 137.984 168.077 112.986 168.077 112.986Z" fill="black" fill-opacity="0.16"/>
<circle cx="65.3845" cy="95.4203" r="10.8098" fill="#E36776" fill-opacity="0.5"/>
<defs>
<filter id="filter0_ii" x="3.90381" y="110.959" width="167.551" height="145.932" filterUnits="userSpaceOnUse" color-interpolation-filters="sRGB">
<feFlood flood-opacity="0" result="BackgroundImageFix"/>
<feBlend mode="normal" in="SourceGraphic" in2="BackgroundImageFix" result="shape"/>
<feColorMatrix in="SourceAlpha" type="matrix" values="0 0 0 0 0 0 0 0 0 0 0 0 0 0 0 0 0 0 127 0" result="hardAlpha"/>
<feOffset dy="-10.8098"/>
<feComposite in2="hardAlpha" operator="arithmetic" k2="-1" k3="1"/>
<feColorMatrix type="matrix" values="0 0 0 0 0 0 0 0 0 0 0 0 0 0 0 0 0 0 0.25 0"/>
<feBlend mode="normal" in2="shape" result="effect1_innerShadow"/>
<feColorMatrix in="SourceAlpha" type="matrix" values="0 0 0 0 0 0 0 0 0 0 0 0 0 0 0 0 0 0 127 0" result="hardAlpha"/>
<feOffset dy="10.8098"/>
<feComposite in2="hardAlpha" operator="arithmetic" k2="-1" k3="1"/>
<feColorMatrix type="matrix" values="0 0 0 0 1 0 0 0 0 1 0 0 0 0 1 0 0 0 0.25 0"/>
<feBlend mode="normal" in2="effect1_innerShadow" result="effect2_innerShadow"/>
</filter>
<filter id="filter1_i" x="71.4648" y="110.959" width="156.741" height="145.932" filterUnits="userSpaceOnUse" color-interpolation-filters="sRGB">
<feFlood flood-opacity="0" result="BackgroundImageFix"/>
<feBlend mode="normal" in="SourceGraphic" in2="BackgroundImageFix" result="shape"/>
<feColorMatrix in="SourceAlpha" type="matrix" values="0 0 0 0 0 0 0 0 0 0 0 0 0 0 0 0 0 0 127 0" result="hardAlpha"/>
<feOffset dx="-16.2146" dy="5.40488"/>
<feComposite in2="hardAlpha" operator="arithmetic" k2="-1" k3="1"/>
<feColorMatrix type="matrix" values="0 0 0 0 1 0 0 0 0 1 0 0 0 0 1 0 0 0 0.25 0"/>
<feBlend mode="normal" in2="shape" result="effect1_innerShadow"/>
</filter>
<filter id="filter2_d" x="12.0114" y="142.037" width="222.378" height="56.6641" filterUnits="userSpaceOnUse" color-interpolation-filters="sRGB">
<feFlood flood-opacity="0" result="BackgroundImageFix"/>
<feColorMatrix in="SourceAlpha" type="matrix" values="0 0 0 0 0 0 0 0 0 0 0 0 0 0 0 0 0 0 127 0" result="hardAlpha"/>
<feOffset dx="-2.70244" dy="2.70244"/>
<feColorMatrix type="matrix" values="0 0 0 0 0 0 0 0 0 0 0 0 0 0 0 0 0 0 0.25 0"/>
<feBlend mode="normal" in2="BackgroundImageFix" result="effect1_dropShadow"/>
<feBlend mode="normal" in="SourceGraphic" in2="effect1_dropShadow" result="shape"/>
</filter>
<filter id="filter3_i" x="95.7871" y="196.086" width="107.981" height="27.0428" filterUnits="userSpaceOnUse" color-interpolation-filters="sRGB">
<feFlood flood-opacity="0" result="BackgroundImageFix"/>
<feBlend mode="normal" in="SourceGraphic" in2="BackgroundImageFix" result="shape"/>
<feColorMatrix in="SourceAlpha" type="matrix" values="0 0 0 0 0 0 0 0 0 0 0 0 0 0 0 0 0 0 127 0" result="hardAlpha"/>
<feOffset dx="-10.8098" dy="5.40488"/>
<feComposite in2="hardAlpha" operator="arithmetic" k2="-1" k3="1"/>
<feColorMatrix type="matrix" values="0 0 0 0 1 0 0 0 0 1 0 0 0 0 1 0 0 0 0.25 0"/>
<feBlend mode="normal" in2="shape" result="effect1_innerShadow"/>
</filter>
<filter id="filter4_ii" x="10.6602" y="0.720947" width="102.723" height="114.967" filterUnits="userSpaceOnUse" color-interpolation-filters="sRGB">
<feFlood flood-opacity="0" result="BackgroundImageFix"/>
<feBlend mode="normal" in="SourceGraphic" in2="BackgroundImageFix" result="shape"/>
<feColorMatrix in="SourceAlpha" type="matrix" values="0 0 0 0 0 0 0 0 0 0 0 0 0 0 0 0 0 0 127 0" result="hardAlpha"/>
<feOffset dx="10.8098"/>
<feComposite in2="hardAlpha" operator="arithmetic" k2="-1" k3="1"/>
<feColorMatrix type="matrix" values="0 0 0 0 0 0 0 0 0 0 0 0 0 0 0 0 0 0 0.25 0"/>
<feBlend mode="normal" in2="shape" result="effect1_innerShadow"/>
<feColorMatrix in="SourceAlpha" type="matrix" values="0 0 0 0 0 0 0 0 0 0 0 0 0 0 0 0 0 0 127 0" result="hardAlpha"/>
<feOffset dx="-10.8098" dy="5.40488"/>
<feComposite in2="hardAlpha" operator="arithmetic" k2="-1" k3="1"/>
<feColorMatrix type="matrix" values="0 0 0 0 1 0 0 0 0 1 0 0 0 0 1 0 0 0 0.25 0"/>
<feBlend mode="normal" in2="effect1_innerShadow" result="effect2_innerShadow"/>
</filter>
<filter id="filter5_i" x="45.8604" y="19.2623" width="37.6471" height="46.9825" filterUnits="userSpaceOnUse" color-interpolation-filters="sRGB">
<feFlood flood-opacity="0" result="BackgroundImageFix"/>
<feBlend mode="normal" in="SourceGraphic" in2="BackgroundImageFix" result="shape"/>
<feColorMatrix in="SourceAlpha" type="matrix" values="0 0 0 0 0 0 0 0 0 0 0 0 0 0 0 0 0 0 127 0" result="hardAlpha"/>
<feOffset dx="10.8098"/>
<feComposite in2="hardAlpha" operator="arithmetic" k2="-1" k3="1"/>
<feColorMatrix type="matrix" values="0 0 0 0 0 0 0 0 0 0 0 0 0 0 0 0 0 0 0.25 0"/>
<feBlend mode="normal" in2="shape" result="effect1_innerShadow"/>
</filter>
<filter id="filter6_i" x="10.6602" y="80.224" width="40.3092" height="19.1711" filterUnits="userSpaceOnUse" color-interpolation-filters="sRGB">
<feFlood flood-opacity="0" result="BackgroundImageFix"/>
<feBlend mode="normal" in="SourceGraphic" in2="BackgroundImageFix" result="shape"/>
<feColorMatrix in="SourceAlpha" type="matrix" values="0 0 0 0 0 0 0 0 0 0 0 0 0 0 0 0 0 0 127 0" result="hardAlpha"/>
<feOffset dx="10.8098"/>
<feComposite in2="hardAlpha" operator="arithmetic" k2="-1" k3="1"/>
<feColorMatrix type="matrix" values="0 0 0 0 0 0 0 0 0 0 0 0 0 0 0 0 0 0 0.25 0"/>
<feBlend mode="normal" in2="shape" result="effect1_innerShadow"/>
</filter>
<filter id="filter7_i" x="96.7373" y="0.15918" width="33.5058" height="47.8253" filterUnits="userSpaceOnUse" color-interpolation-filters="sRGB">
<feFlood flood-opacity="0" result="BackgroundImageFix"/>
<feBlend mode="normal" in="SourceGraphic" in2="BackgroundImageFix" result="shape"/>
<feColorMatrix in="SourceAlpha" type="matrix" values="0 0 0 0 0 0 0 0 0 0 0 0 0 0 0 0 0 0 127 0" result="hardAlpha"/>
<feOffset dx="10.8098"/>
<feComposite in2="hardAlpha" operator="arithmetic" k2="-1" k3="1"/>
<feColorMatrix type="matrix" values="0 0 0 0 0 0 0 0 0 0 0 0 0 0 0 0 0 0 0.25 0"/>
<feBlend mode="normal" in2="shape" result="effect1_innerShadow"/>
</filter>
<filter id="filter8_i" x="13.3223" y="50.7263" width="49.7748" height="30.9698" filterUnits="userSpaceOnUse" color-interpolation-filters="sRGB">
<feFlood flood-opacity="0" result="BackgroundImageFix"/>
<feBlend mode="normal" in="SourceGraphic" in2="BackgroundImageFix" result="shape"/>
<feColorMatrix in="SourceAlpha" type="matrix" values="0 0 0 0 0 0 0 0 0 0 0 0 0 0 0 0 0 0 127 0" result="hardAlpha"/>
<feOffset dx="10.8098"/>
<feComposite in2="hardAlpha" operator="arithmetic" k2="-1" k3="1"/>
<feColorMatrix type="matrix" values="0 0 0 0 0 0 0 0 0 0 0 0 0 0 0 0 0 0 0.25 0"/>
<feBlend mode="normal" in2="shape" result="effect1_innerShadow"/>
</filter>
<filter id="filter9_ii" x="38.3599" y="37.3179" width="207.412" height="78.3708" filterUnits="userSpaceOnUse" color-interpolation-filters="sRGB">
<feFlood flood-opacity="0" result="BackgroundImageFix"/>
<feBlend mode="normal" in="SourceGraphic" in2="BackgroundImageFix" result="shape"/>
<feColorMatrix in="SourceAlpha" type="matrix" values="0 0 0 0 0 0 0 0 0 0 0 0 0 0 0 0 0 0 127 0" result="hardAlpha"/>
<feOffset dx="10.8098"/>
<feComposite in2="hardAlpha" operator="arithmetic" k2="-1" k3="1"/>
<feColorMatrix type="matrix" values="0 0 0 0 0 0 0 0 0 0 0 0 0 0 0 0 0 0 0.25 0"/>
<feBlend mode="normal" in2="shape" result="effect1_innerShadow"/>
<feColorMatrix in="SourceAlpha" type="matrix" values="0 0 0 0 0 0 0 0 0 0 0 0 0 0 0 0 0 0 127 0" result="hardAlpha"/>
<feOffset dx="-10.8098" dy="5.40488"/>
<feComposite in2="hardAlpha" operator="arithmetic" k2="-1" k3="1"/>
<feColorMatrix type="matrix" values="0 0 0 0 1 0 0 0 0 1 0 0 0 0 1 0 0 0 0.25 0"/>
<feBlend mode="normal" in2="effect1_innerShadow" result="effect2_innerShadow"/>
</filter>
</defs>
</svg>
