<svg width="237" height="263" viewBox="0 0 237 263" fill="none" xmlns="http://www.w3.org/2000/svg">
<g filter="url(#filter0_ii)">
<path d="M8.95264 117.876C8.95264 108.921 16.2122 101.662 25.1673 101.662H154.884C163.839 101.662 171.099 108.921 171.099 117.876V225.974C171.099 234.929 163.839 242.189 154.884 242.189H25.1673C16.2122 242.189 8.95264 234.929 8.95264 225.974L8.95264 117.876Z" fill="#4A4A57"/>
</g>
<path d="M8.95264 117.876C8.95264 108.921 16.2122 101.662 25.1673 101.662H154.884C163.839 101.662 171.099 108.921 171.099 117.876V225.974C171.099 234.929 163.839 242.189 154.884 242.189H25.1673C16.2122 242.189 8.95264 234.929 8.95264 225.974L8.95264 117.876Z" stroke="#1F2024" stroke-width="5.40488"/>
<g filter="url(#filter1_i)">
<path d="M76.5137 117.876C76.5137 108.921 83.7732 101.662 92.7283 101.662H211.636C220.591 101.662 227.85 108.921 227.85 117.876V225.974C227.85 234.929 220.591 242.189 211.636 242.189H92.7283C83.7732 242.189 76.5137 234.929 76.5137 225.974V117.876Z" fill="#676C77"/>
</g>
<path d="M76.5137 117.876C76.5137 108.921 83.7732 101.662 92.7283 101.662H211.636C220.591 101.662 227.85 108.921 227.85 117.876V225.974C227.85 234.929 220.591 242.189 211.636 242.189H92.7283C83.7732 242.189 76.5137 234.929 76.5137 225.974V117.876Z" stroke="#1F2024" stroke-width="5.40488"/>
<path d="M162.992 104.364H188.665L150.831 239.486H125.158L162.992 104.364Z" fill="white" fill-opacity="0.5"/>
<path d="M152.858 104.364H156.911L119.077 239.486H115.023L152.858 104.364Z" fill="white" fill-opacity="0.5"/>
<g filter="url(#filter2_d)">
<g filter="url(#filter3_d)">
<circle cx="114.348" cy="157.062" r="18.9171" fill="white"/>
<circle cx="114.348" cy="157.062" r="18.9171" stroke="#1F2024" stroke-width="5.40488"/>
</g>
<circle cx="112.996" cy="157.062" r="6.7561" fill="#FE204F" stroke="#1F2024" stroke-width="5.40488"/>
<g filter="url(#filter4_d)">
<circle cx="190.016" cy="157.062" r="18.9171" fill="white"/>
<circle cx="190.016" cy="157.062" r="18.9171" stroke="#1F2024" stroke-width="5.40488"/>
</g>
<circle cx="188.665" cy="157.062" r="6.7561" fill="#FE204F" stroke="#1F2024" stroke-width="5.40488"/>
</g>
<path d="M179.206 192.193C182.191 192.193 184.667 194.624 184.305 197.587C182.796 209.928 175.27 219.218 152.182 219.218C129.094 219.218 121.568 209.928 120.059 197.587C119.696 194.624 122.172 192.193 125.157 192.193H179.206Z" fill="#4A4A4E" stroke="#1F2024" stroke-width="5.40488"/>
<path d="M174.815 214.112C169.857 217.325 162.605 219.218 152.182 219.218C131.261 219.218 123.118 211.59 120.651 200.977C130.225 196.585 164.343 200.977 174.815 214.112Z" fill="#FF3979" stroke="#1F2024" stroke-width="5.40488"/>
<path d="M133.265 194.22C133.265 193.101 134.172 192.193 135.291 192.193H147.452C148.572 192.193 149.479 193.101 149.479 194.22V200.301C149.479 203.286 147.059 205.706 144.074 205.706H138.67C135.684 205.706 133.265 203.286 133.265 200.301V194.22Z" fill="white" stroke="#1F2024" stroke-width="5.40488"/>
<path d="M149.479 194.22C149.479 193.101 150.387 192.193 151.506 192.193H163.667C164.787 192.193 165.694 193.101 165.694 194.22V200.301C165.694 203.286 163.274 205.706 160.289 205.706H154.884C151.899 205.706 149.479 203.286 149.479 200.301V194.22Z" fill="white" stroke="#1F2024" stroke-width="5.40488"/>
<path fill-rule="evenodd" clip-rule="evenodd" d="M156.183 95.5813L144.906 95.5813L119.077 95.5813C119.077 99.3076 119.745 102.997 121.043 106.44C122.341 109.883 124.243 113.011 126.642 115.646C129.04 118.281 131.888 120.371 135.021 121.797C138.155 123.223 141.514 123.957 144.906 123.957C148.298 123.957 151.656 123.223 154.79 121.797C157.596 120.52 160.173 118.711 162.403 116.454C164.068 118.711 165.991 120.52 168.086 121.797C170.425 123.223 172.932 123.957 175.464 123.957C177.996 123.957 180.503 123.223 182.843 121.797C185.182 120.371 187.307 118.281 189.098 115.646C190.888 113.011 192.308 109.883 193.277 106.44C194.246 102.997 194.745 99.3076 194.745 95.5813H175.464H170.735L156.183 95.5813ZM71.7841 107.742C71.7841 120.643 68.7233 133.016 63.2752 142.139C57.827 151.261 50.4377 156.386 42.7329 156.386C35.028 156.386 27.6387 151.261 22.1905 142.139C16.7424 133.016 13.6816 120.643 13.6816 107.742L42.7329 107.742H71.7841Z" fill="black" fill-opacity="0.16"/>
<path d="M71.7841 98.9593C71.7841 112.577 68.7233 125.637 63.2752 135.267C57.827 144.896 50.4377 150.306 42.7329 150.306C35.028 150.306 27.6387 144.896 22.1905 135.267C16.7424 125.637 13.6816 112.577 13.6816 98.9593L42.7329 98.9593H71.7841Z" fill="#E5DEB1" stroke="#1F2024" stroke-width="5.40488" stroke-linejoin="round"/>
<g filter="url(#filter5_ii)">
<circle cx="183.26" cy="40.1813" r="27.7" fill="#9A855A"/>
</g>
<circle cx="183.26" cy="40.1813" r="27.7" stroke="#1F2024" stroke-width="5.40488" stroke-linejoin="round"/>
<circle cx="182.963" cy="39.885" r="11.8646" fill="#9A855A" stroke="#1F2024" stroke-width="5.40488" stroke-linejoin="round"/>
<g filter="url(#filter6_ii)">
<path fill-rule="evenodd" clip-rule="evenodd" d="M125.891 3.55549C117.67 1.52185 109.727 5.63428 100.438 10.4442C95.7284 12.8828 90.6726 15.5006 85.0587 17.5878C74.9257 20.0996 65.282 23.835 56.4553 28.6825C52.0879 19.1237 42.4433 12.4813 31.2474 12.4813C15.9491 12.4813 3.54736 24.883 3.54736 40.1813C3.54736 50.9921 9.74053 60.3565 18.7725 64.92C12.8148 75.53 9.44777 87.0952 9.00292 98.9594H8.95224C8.95224 99.4478 8.95581 99.9354 8.96292 100.422C8.95583 100.835 8.95227 101.248 8.95227 101.662H8.98873C9.33016 114.295 12.0561 126.276 16.6696 135.267C21.611 144.896 28.3129 150.306 35.301 150.306C42.2892 150.306 48.9911 144.896 53.9324 135.267C58.5459 126.276 61.2719 114.295 61.6133 101.662L116.036 101.662H223.121C223.121 78.3681 211.839 56.0284 191.756 39.5572C177.931 28.2181 160.716 20.2997 142.064 16.4661C142.359 15.325 142.098 14.3556 141.099 13.6776C138.417 11.8582 134.544 12.8347 130.275 13.911L130.275 13.911C129.615 14.0774 128.946 14.2462 128.27 14.4073C126.855 14.2739 125.435 14.1635 124.011 14.0763C128.726 10.903 130.8 4.7699 125.891 3.55549Z" fill="#B3A275"/>
</g>
<path d="M100.438 10.4442L101.681 12.8441L101.681 12.844L100.438 10.4442ZM125.891 3.55549L126.54 0.932124L126.54 0.932124L125.891 3.55549ZM85.0587 17.5878L85.709 20.2108C85.8077 20.1863 85.9051 20.1563 86.0005 20.1208L85.0587 17.5878ZM56.4553 28.6825L53.9973 29.8056C54.3095 30.4889 54.8921 31.0115 55.6052 31.2478C56.3184 31.4841 57.0977 31.4129 57.7562 31.0513L56.4553 28.6825ZM18.7725 64.92L21.1289 66.2431C21.4899 65.6003 21.5725 64.8378 21.3577 64.1326C21.1429 63.4273 20.6493 62.8404 19.9913 62.5079L18.7725 64.92ZM9.00292 98.9594V101.662C10.456 101.662 11.649 100.513 11.7035 99.0607L9.00292 98.9594ZM8.95224 98.9594V96.257C7.45973 96.257 6.2498 97.4669 6.2498 98.9594H8.95224ZM8.96292 100.422L11.665 100.469C11.6655 100.44 11.6655 100.411 11.6651 100.383L8.96292 100.422ZM8.95227 101.662H6.24983C6.24983 103.154 7.45976 104.364 8.95227 104.364V101.662ZM8.98873 101.662L11.6902 101.589C11.6506 100.125 10.4528 98.9594 8.98873 98.9594V101.662ZM16.6696 135.267L19.074 134.033L19.074 134.033L16.6696 135.267ZM53.9324 135.267L51.5281 134.033L51.5281 134.033L53.9324 135.267ZM61.6133 101.662L61.6133 98.9594C60.1492 98.9594 58.9514 100.125 58.9119 101.589L61.6133 101.662ZM116.036 101.662L116.036 104.364H116.036V101.662ZM223.121 101.662V104.364C224.613 104.364 225.823 103.154 225.823 101.662H223.121ZM191.756 39.5572L193.47 37.4677L193.47 37.4677L191.756 39.5572ZM142.064 16.4661L139.447 15.7892C139.262 16.506 139.379 17.2675 139.77 17.8958C140.162 18.524 140.794 18.9641 141.519 19.1132L142.064 16.4661ZM141.099 13.6776L139.582 15.914L139.582 15.914L141.099 13.6776ZM130.275 13.911L129.615 11.2906C129.602 11.2938 129.589 11.2971 129.576 11.3006L130.275 13.911ZM130.275 13.911L130.936 16.5315C130.949 16.5282 130.962 16.5249 130.974 16.5214L130.275 13.911ZM128.27 14.4073L128.016 17.0979C128.311 17.1257 128.609 17.1048 128.897 17.0361L128.27 14.4073ZM124.011 14.0763L122.502 11.8343C121.541 12.4809 121.099 13.668 121.403 14.7857C121.707 15.9033 122.689 16.7029 123.845 16.7737L124.011 14.0763ZM101.681 12.844C106.375 10.4131 110.481 8.29459 114.41 7.00027C118.284 5.72414 121.783 5.32323 125.242 6.17886L126.54 0.932124C121.777 -0.245883 117.194 0.392601 112.719 1.86677C108.3 3.32274 103.79 5.66542 99.1953 8.04442L101.681 12.844ZM86.0005 20.1208C91.7917 17.9678 96.9875 15.2741 101.681 12.8441L99.1953 8.04442C94.4693 10.4915 89.5536 13.0335 84.117 15.0547L86.0005 20.1208ZM57.7562 31.0513C66.3694 26.321 75.7932 22.6688 85.709 20.2108L84.4085 14.9647C74.0581 17.5305 64.1947 21.349 55.1545 26.3138L57.7562 31.0513ZM31.2474 15.1838C41.3469 15.1838 50.0532 21.1733 53.9973 29.8056L58.9134 27.5595C54.1226 17.074 43.5398 9.77888 31.2474 9.77888V15.1838ZM6.2498 40.1813C6.2498 26.3756 17.4416 15.1838 31.2474 15.1838V9.77888C14.4566 9.77888 0.844924 23.3905 0.844924 40.1813H6.2498ZM19.9913 62.5079C11.8338 58.3863 6.2498 49.9335 6.2498 40.1813H0.844924C0.844924 52.0508 7.6473 62.3266 17.5538 67.332L19.9913 62.5079ZM11.7035 99.0607C12.1314 87.6469 15.3704 76.4983 21.1289 66.2431L16.4162 63.5968C10.2591 74.5618 6.76412 86.5435 6.30238 98.8582L11.7035 99.0607ZM8.95224 101.662H9.00292V96.257H8.95224V101.662ZM11.6651 100.383C11.6582 99.9091 11.6547 99.4346 11.6547 98.9594H6.2498C6.2498 99.461 6.25347 99.9618 6.26077 100.462L11.6651 100.383ZM11.6547 101.662C11.6547 101.264 11.6581 100.866 11.665 100.469L6.26088 100.376C6.25352 100.804 6.24983 101.233 6.24983 101.662H11.6547ZM8.98873 98.9594H8.95227V104.364H8.98873V98.9594ZM19.074 134.033C14.6867 125.483 12.0234 113.92 11.6902 101.589L6.28727 101.735C6.63687 114.671 9.4256 127.069 14.2653 136.501L19.074 134.033ZM35.301 147.603C29.8179 147.603 23.831 143.303 19.074 134.033L14.2653 136.501C19.391 146.489 26.8079 153.008 35.301 153.008V147.603ZM51.5281 134.033C46.7711 143.303 40.7842 147.603 35.301 147.603V153.008C43.7941 153.008 51.211 146.489 56.3368 136.501L51.5281 134.033ZM58.9119 101.589C58.5786 113.92 55.9154 125.483 51.5281 134.033L56.3368 136.501C61.1765 127.069 63.9652 114.671 64.3148 101.735L58.9119 101.589ZM116.036 98.9595L61.6133 98.9594L61.6133 104.364L116.036 104.364L116.036 98.9595ZM223.121 98.9595H116.036V104.364H223.121V98.9595ZM190.043 41.6467C209.58 57.6714 220.418 79.2773 220.418 101.662H225.823C225.823 77.459 214.097 54.3854 193.47 37.4677L190.043 41.6467ZM141.519 19.1132C159.782 22.8668 176.587 30.6106 190.043 41.6467L193.47 37.4677C179.276 25.8257 161.649 17.7326 142.608 13.819L141.519 19.1132ZM139.582 15.914C139.628 15.9455 139.619 15.9481 139.588 15.9086C139.555 15.8662 139.52 15.8055 139.497 15.7358C139.476 15.6688 139.476 15.6274 139.476 15.629C139.475 15.6341 139.474 15.6848 139.447 15.7892L144.68 17.143C144.92 16.2149 144.989 15.1428 144.636 14.0605C144.273 12.9467 143.543 12.0703 142.616 11.4412L139.582 15.914ZM130.936 16.5314C133.13 15.9781 134.934 15.531 136.504 15.4017C138.047 15.2747 138.966 15.4962 139.582 15.914L142.616 11.4412C140.55 10.0396 138.191 9.83968 136.06 10.0151C133.956 10.1883 131.689 10.7675 129.615 11.2906L130.936 16.5314ZM130.974 16.5214L130.975 16.5214L129.576 11.3006L129.576 11.3006L130.974 16.5214ZM128.897 17.0361C129.593 16.8702 130.279 16.6972 130.936 16.5315L129.614 11.2906C128.952 11.4576 128.299 11.6221 127.643 11.7786L128.897 17.0361ZM123.845 16.7737C125.24 16.8591 126.631 16.9672 128.016 17.0979L128.524 11.7168C127.079 11.5806 125.63 11.4679 124.176 11.3789L123.845 16.7737ZM125.242 6.17886C125.578 6.26195 125.755 6.36241 125.836 6.42099C125.91 6.47419 125.933 6.51118 125.944 6.53267C125.969 6.57975 126.077 6.84177 125.931 7.45697C125.626 8.74126 124.424 10.5404 122.502 11.8343L125.519 16.3183C128.312 14.4388 130.506 11.5848 131.189 8.70562C131.538 7.23909 131.538 5.54181 130.718 3.99822C129.865 2.39207 128.354 1.38088 126.54 0.932124L125.242 6.17886Z" fill="#1F2024"/>
<g filter="url(#filter7_ddi)">
<circle cx="88.3363" cy="57.4093" r="13.85" fill="white"/>
<circle cx="88.3363" cy="57.4093" r="13.85" stroke="#1F2024" stroke-width="5.40488"/>
</g>
<circle cx="91.3766" cy="57.0715" r="5.40488" fill="#1F2024"/>
<g filter="url(#filter8_ddi)">
<circle r="13.85" transform="matrix(-1 0 0 1 191.705 57.4093)" fill="white"/>
<circle r="13.85" transform="matrix(-1 0 0 1 191.705 57.4093)" stroke="#1F2024" stroke-width="5.40488"/>
</g>
<circle r="5.40488" transform="matrix(-1 0 0 1 188.664 57.0715)" fill="#1F2024"/>
<circle cx="46.7864" cy="71.935" r="16.2146" fill="#E36776" fill-opacity="0.5"/>
<path d="M125.891 3.65649C131.634 5.0719 127.821 13.1931 121.402 15.4561C128.821 15.4561 136.62 10.7147 141.099 13.7421C146.932 17.685 127.591 31.5247 119.484 31.5247" stroke="#1F2024" stroke-width="5.40488" stroke-linecap="round" stroke-linejoin="round"/>
<path d="M27.1934 109.094H35.3007C39.7782 109.094 43.408 112.723 43.408 117.201V117.201C43.408 121.678 39.7782 125.308 35.3007 125.308H27.1934V109.094Z" fill="#E2E2E2" stroke="#1F2024" stroke-width="5.40488" stroke-linejoin="round"/>
<circle cx="28.5448" cy="117.201" r="8.10732" fill="#ACACAE" stroke="#1F2024" stroke-width="5.40488" stroke-linejoin="round"/>
<path fill-rule="evenodd" clip-rule="evenodd" d="M43.2917 37.7054C42.2837 38.465 41.2918 39.2416 40.3168 40.0351C35.9916 43.5554 32.0745 47.3457 28.5905 51.3575C23.5088 50.0162 19.7622 45.3881 19.7622 39.885C19.7622 33.3324 25.0742 28.0204 31.6268 28.0204C37.4349 28.0204 42.2683 32.1938 43.2917 37.7054Z" fill="#9A855A"/>
<path d="M43.2917 37.7054L44.9179 39.8638C45.7366 39.2469 46.1358 38.22 45.9487 37.2121L43.2917 37.7054ZM40.3168 40.0351L38.611 37.9391L38.611 37.9391L40.3168 40.0351ZM28.5905 51.3575L27.9008 53.9705C28.8967 54.2334 29.9555 53.9072 30.6309 53.1295L28.5905 51.3575ZM41.6654 35.5471C40.6307 36.3267 39.6123 37.1241 38.611 37.9391L42.0227 42.1311C42.9713 41.3591 43.9366 40.6032 44.9179 39.8638L41.6654 35.5471ZM38.611 37.9391C34.1687 41.5546 30.1391 45.4529 26.5501 49.5856L30.6309 53.1295C34.01 49.2386 37.8145 45.5561 42.0227 42.1311L38.611 37.9391ZM29.2802 48.7446C25.3552 47.7086 22.4646 44.1309 22.4646 39.885H17.0598C17.0598 46.6454 21.6625 52.3238 27.9008 53.9705L29.2802 48.7446ZM22.4646 39.885C22.4646 34.8249 26.5667 30.7228 31.6268 30.7228V25.3179C23.5817 25.3179 17.0598 31.8398 17.0598 39.885H22.4646ZM31.6268 30.7228C36.1091 30.7228 39.8447 33.9442 40.6347 38.1988L45.9487 37.2121C44.6919 30.4435 38.7608 25.3179 31.6268 25.3179V30.7228Z" fill="#1F2024"/>
<g filter="url(#filter9_ii)">
<path fill-rule="evenodd" clip-rule="evenodd" d="M204.203 100.986C204.203 94.4208 202.945 87.9196 200.501 81.8539C198.056 75.7882 194.473 70.2768 189.956 65.6343C185.439 60.9918 180.076 57.3092 174.175 54.7967C168.273 52.2843 161.947 50.9911 155.559 50.9911C149.171 50.9911 142.846 52.2843 136.944 54.7967C131.042 57.3092 125.68 60.9918 121.163 65.6343C116.646 70.2768 113.063 75.7882 110.618 81.8539C108.174 87.9196 106.916 94.4208 106.916 100.986L133.94 100.986C133.94 104.18 134.56 107.343 135.766 110.294C136.971 113.245 138.738 115.926 140.965 118.184C143.192 120.443 145.836 122.234 148.746 123.457C151.656 124.679 154.774 125.308 157.924 125.308C161.074 125.308 164.193 124.679 167.102 123.457C169.708 122.362 172.101 120.811 174.171 118.877C175.717 120.811 177.503 122.362 179.448 123.457C181.62 124.679 183.949 125.308 186.3 125.308C188.651 125.308 190.979 124.679 193.151 123.457C195.323 122.234 197.297 120.443 198.959 118.184C200.622 115.926 201.941 113.245 202.841 110.294C203.74 107.343 204.203 104.18 204.203 100.986Z" fill="#E5DEB1"/>
</g>
<path d="M200.501 81.8539L203.007 80.8437L203.007 80.8437L200.501 81.8539ZM204.203 100.986L201.501 100.986L201.501 100.986L204.203 100.986ZM189.956 65.6343L191.893 63.7498L191.893 63.7498L189.956 65.6343ZM174.175 54.7967L175.233 52.3102L175.233 52.3102L174.175 54.7967ZM136.944 54.7967L138.003 57.2832L138.003 57.2832L136.944 54.7967ZM110.618 81.8539L108.112 80.8437L108.112 80.8437L110.618 81.8539ZM106.916 100.986H104.213C104.213 101.703 104.498 102.39 105.005 102.897C105.511 103.404 106.199 103.689 106.916 103.689L106.916 100.986ZM133.94 100.986L136.642 100.986C136.642 99.4937 135.432 98.2838 133.94 98.2838L133.94 100.986ZM135.766 110.294L133.264 111.316L133.264 111.316L135.766 110.294ZM140.965 118.184L139.04 120.082L139.04 120.082L140.965 118.184ZM148.746 123.457L149.792 120.965L149.792 120.965L148.746 123.457ZM167.102 123.457L168.149 125.948L168.149 125.948L167.102 123.457ZM174.171 118.877L176.282 117.19C175.812 116.602 175.118 116.237 174.367 116.182C173.617 116.127 172.877 116.388 172.327 116.902L174.171 118.877ZM179.448 123.457L180.774 121.102L180.774 121.102L179.448 123.457ZM193.151 123.457L194.476 125.812L194.476 125.812L193.151 123.457ZM198.959 118.184L201.136 119.786L201.136 119.786L198.959 118.184ZM202.841 110.294L205.425 111.082L205.425 111.082L202.841 110.294ZM197.994 82.8641C200.309 88.6074 201.501 94.7655 201.501 100.986H206.906C206.906 94.076 205.582 87.2318 203.007 80.8437L197.994 82.8641ZM188.019 67.5189C192.289 71.9072 195.679 77.1209 197.994 82.8641L203.007 80.8437C200.433 74.4556 196.657 68.6464 191.893 63.7498L188.019 67.5189ZM173.116 57.2832C178.685 59.6539 183.749 63.1307 188.019 67.5189L191.893 63.7498C187.128 58.853 181.468 54.9646 175.233 52.3102L173.116 57.2832ZM155.559 53.6935C161.582 53.6935 167.548 54.9126 173.116 57.2832L175.233 52.3102C168.998 49.6559 162.313 48.2886 155.559 48.2886V53.6935ZM138.003 57.2832C143.571 54.9126 149.537 53.6935 155.559 53.6935V48.2886C148.806 48.2886 142.121 49.6559 135.886 52.3102L138.003 57.2832ZM123.1 67.5189C127.369 63.1307 132.434 59.6539 138.003 57.2832L135.886 52.3102C129.651 54.9646 123.991 58.853 119.226 63.7498L123.1 67.5189ZM113.125 82.8641C115.439 77.1209 118.83 71.9072 123.1 67.5189L119.226 63.7498C114.462 68.6464 110.686 74.4556 108.112 80.8437L113.125 82.8641ZM109.618 100.986C109.618 94.7655 110.81 88.6074 113.125 82.8641L108.112 80.8437C105.537 87.2318 104.213 94.076 104.213 100.986H109.618ZM133.94 98.2838L106.916 98.2838L106.916 103.689L133.94 103.689L133.94 98.2838ZM138.267 109.272C137.195 106.646 136.642 103.831 136.642 100.986L131.237 100.986C131.237 104.53 131.926 108.04 133.264 111.316L138.267 109.272ZM142.889 116.287C140.911 114.281 139.34 111.898 138.267 109.272L133.264 111.316C134.602 114.592 136.564 117.571 139.04 120.082L142.889 116.287ZM149.792 120.965C147.213 119.882 144.867 118.293 142.889 116.287L139.04 120.082C141.517 122.593 144.459 124.587 147.699 125.948L149.792 120.965ZM157.924 122.606C155.135 122.606 152.372 122.049 149.792 120.965L147.699 125.948C150.94 127.309 154.414 128.011 157.924 128.011V122.606ZM166.056 120.965C163.477 122.049 160.714 122.606 157.924 122.606V128.011C161.434 128.011 164.908 127.309 168.149 125.948L166.056 120.965ZM172.327 116.902C170.488 118.619 168.366 119.995 166.056 120.965L168.149 125.948C171.051 124.729 173.713 123.003 176.016 120.852L172.327 116.902ZM180.774 121.102C179.163 120.195 177.636 118.883 176.282 117.19L172.06 120.565C173.799 122.739 175.843 124.529 178.123 125.812L180.774 121.102ZM186.3 122.606C184.441 122.606 182.566 122.11 180.774 121.102L178.123 125.812C180.675 127.248 183.456 128.011 186.3 128.011V122.606ZM191.826 121.102C190.033 122.11 188.159 122.606 186.3 122.606V128.011C189.143 128.011 191.925 127.248 194.476 125.812L191.826 121.102ZM196.783 116.582C195.319 118.571 193.625 120.089 191.826 121.102L194.476 125.812C197.022 124.38 199.275 122.315 201.136 119.786L196.783 116.582ZM200.256 109.506C199.436 112.193 198.247 114.593 196.783 116.582L201.136 119.786C202.997 117.258 204.445 114.296 205.425 111.082L200.256 109.506ZM201.501 100.986C201.501 103.923 201.075 106.819 200.256 109.506L205.425 111.082C206.406 107.867 206.906 104.438 206.906 100.986L201.501 100.986Z" fill="#1F2024"/>
<g filter="url(#filter10_ii)">
<path d="M155.56 88.0418C155.56 85.1314 157.919 82.7449 160.829 82.7449H192.178C195.088 82.7449 197.447 85.1314 197.447 88.0418V88.0418C197.447 99.6088 188.07 109.094 176.503 109.094V109.094C164.936 109.094 155.56 99.6088 155.56 88.0418V88.0418Z" fill="#1F2024"/>
</g>
<path d="M155.56 88.0418C155.56 85.1314 157.919 82.7449 160.829 82.7449H192.178C195.088 82.7449 197.447 85.1314 197.447 88.0418V88.0418C197.447 99.6088 188.07 109.094 176.503 109.094V109.094C164.936 109.094 155.56 99.6088 155.56 88.0418V88.0418Z" stroke="#1F2024" stroke-width="5.40488" stroke-linecap="round" stroke-linejoin="round"/>
<defs>
<filter id="filter0_ii" x="6.25" y="98.9594" width="167.551" height="145.932" filterUnits="userSpaceOnUse" color-interpolation-filters="sRGB">
<feFlood flood-opacity="0" result="BackgroundImageFix"/>
<feBlend mode="normal" in="SourceGraphic" in2="BackgroundImageFix" result="shape"/>
<feColorMatrix in="SourceAlpha" type="matrix" values="0 0 0 0 0 0 0 0 0 0 0 0 0 0 0 0 0 0 127 0" result="hardAlpha"/>
<feOffset dy="-10.8098"/>
<feComposite in2="hardAlpha" operator="arithmetic" k2="-1" k3="1"/>
<feColorMatrix type="matrix" values="0 0 0 0 0 0 0 0 0 0 0 0 0 0 0 0 0 0 0.25 0"/>
<feBlend mode="normal" in2="shape" result="effect1_innerShadow"/>
<feColorMatrix in="SourceAlpha" type="matrix" values="0 0 0 0 0 0 0 0 0 0 0 0 0 0 0 0 0 0 127 0" result="hardAlpha"/>
<feOffset dy="10.8098"/>
<feComposite in2="hardAlpha" operator="arithmetic" k2="-1" k3="1"/>
<feColorMatrix type="matrix" values="0 0 0 0 1 0 0 0 0 1 0 0 0 0 1 0 0 0 0.25 0"/>
<feBlend mode="normal" in2="effect1_innerShadow" result="effect2_innerShadow"/>
</filter>
<filter id="filter1_i" x="73.811" y="98.9594" width="156.741" height="145.932" filterUnits="userSpaceOnUse" color-interpolation-filters="sRGB">
<feFlood flood-opacity="0" result="BackgroundImageFix"/>
<feBlend mode="normal" in="SourceGraphic" in2="BackgroundImageFix" result="shape"/>
<feColorMatrix in="SourceAlpha" type="matrix" values="0 0 0 0 0 0 0 0 0 0 0 0 0 0 0 0 0 0 127 0" result="hardAlpha"/>
<feOffset dx="-16.2146" dy="5.40488"/>
<feComposite in2="hardAlpha" operator="arithmetic" k2="-1" k3="1"/>
<feColorMatrix type="matrix" values="0 0 0 0 1 0 0 0 0 1 0 0 0 0 1 0 0 0 0.25 0"/>
<feBlend mode="normal" in2="shape" result="effect1_innerShadow"/>
</filter>
<filter id="filter2_d" x="90.0256" y="135.442" width="121.61" height="45.9415" filterUnits="userSpaceOnUse" color-interpolation-filters="sRGB">
<feFlood flood-opacity="0" result="BackgroundImageFix"/>
<feColorMatrix in="SourceAlpha" type="matrix" values="0 0 0 0 0 0 0 0 0 0 0 0 0 0 0 0 0 0 127 0" result="hardAlpha"/>
<feOffset dx="-2.70244" dy="2.70244"/>
<feColorMatrix type="matrix" values="0 0 0 0 0 0 0 0 0 0 0 0 0 0 0 0 0 0 0.25 0"/>
<feBlend mode="normal" in2="BackgroundImageFix" result="effect1_dropShadow"/>
<feBlend mode="normal" in="SourceGraphic" in2="effect1_dropShadow" result="shape"/>
</filter>
<filter id="filter3_d" x="88.6744" y="135.442" width="47.2927" height="43.239" filterUnits="userSpaceOnUse" color-interpolation-filters="sRGB">
<feFlood flood-opacity="0" result="BackgroundImageFix"/>
<feColorMatrix in="SourceAlpha" type="matrix" values="0 0 0 0 0 0 0 0 0 0 0 0 0 0 0 0 0 0 127 0" result="hardAlpha"/>
<feOffset dx="-4.05366"/>
<feColorMatrix type="matrix" values="0 0 0 0 0.133333 0 0 0 0 0.133333 0 0 0 0 0.133333 0 0 0 1 0"/>
<feBlend mode="normal" in2="BackgroundImageFix" result="effect1_dropShadow"/>
<feBlend mode="normal" in="SourceGraphic" in2="effect1_dropShadow" result="shape"/>
</filter>
<filter id="filter4_d" x="164.343" y="135.442" width="47.2927" height="43.239" filterUnits="userSpaceOnUse" color-interpolation-filters="sRGB">
<feFlood flood-opacity="0" result="BackgroundImageFix"/>
<feColorMatrix in="SourceAlpha" type="matrix" values="0 0 0 0 0 0 0 0 0 0 0 0 0 0 0 0 0 0 127 0" result="hardAlpha"/>
<feOffset dx="-4.05366"/>
<feColorMatrix type="matrix" values="0 0 0 0 0.133333 0 0 0 0 0.133333 0 0 0 0 0.133333 0 0 0 1 0"/>
<feBlend mode="normal" in2="BackgroundImageFix" result="effect1_dropShadow"/>
<feBlend mode="normal" in="SourceGraphic" in2="effect1_dropShadow" result="shape"/>
</filter>
<filter id="filter5_ii" x="152.857" y="9.77893" width="60.8049" height="60.8049" filterUnits="userSpaceOnUse" color-interpolation-filters="sRGB">
<feFlood flood-opacity="0" result="BackgroundImageFix"/>
<feBlend mode="normal" in="SourceGraphic" in2="BackgroundImageFix" result="shape"/>
<feColorMatrix in="SourceAlpha" type="matrix" values="0 0 0 0 0 0 0 0 0 0 0 0 0 0 0 0 0 0 127 0" result="hardAlpha"/>
<feOffset dx="10.8098"/>
<feComposite in2="hardAlpha" operator="arithmetic" k2="-1" k3="1"/>
<feColorMatrix type="matrix" values="0 0 0 0 0 0 0 0 0 0 0 0 0 0 0 0 0 0 0.25 0"/>
<feBlend mode="normal" in2="shape" result="effect1_innerShadow"/>
<feColorMatrix in="SourceAlpha" type="matrix" values="0 0 0 0 0 0 0 0 0 0 0 0 0 0 0 0 0 0 127 0" result="hardAlpha"/>
<feOffset dx="-16.2146" dy="5.40488"/>
<feComposite in2="hardAlpha" operator="arithmetic" k2="-1" k3="1"/>
<feColorMatrix type="matrix" values="0 0 0 0 1 0 0 0 0 1 0 0 0 0 1 0 0 0 0.25 0"/>
<feBlend mode="normal" in2="effect1_innerShadow" result="effect2_innerShadow"/>
</filter>
<filter id="filter6_ii" x="0.844727" y="0.320312" width="224.978" height="152.688" filterUnits="userSpaceOnUse" color-interpolation-filters="sRGB">
<feFlood flood-opacity="0" result="BackgroundImageFix"/>
<feBlend mode="normal" in="SourceGraphic" in2="BackgroundImageFix" result="shape"/>
<feColorMatrix in="SourceAlpha" type="matrix" values="0 0 0 0 0 0 0 0 0 0 0 0 0 0 0 0 0 0 127 0" result="hardAlpha"/>
<feOffset dx="10.8098"/>
<feComposite in2="hardAlpha" operator="arithmetic" k2="-1" k3="1"/>
<feColorMatrix type="matrix" values="0 0 0 0 0 0 0 0 0 0 0 0 0 0 0 0 0 0 0.25 0"/>
<feBlend mode="normal" in2="shape" result="effect1_innerShadow"/>
<feColorMatrix in="SourceAlpha" type="matrix" values="0 0 0 0 0 0 0 0 0 0 0 0 0 0 0 0 0 0 127 0" result="hardAlpha"/>
<feOffset dx="-16.2146" dy="5.40488"/>
<feComposite in2="hardAlpha" operator="arithmetic" k2="-1" k3="1"/>
<feColorMatrix type="matrix" values="0 0 0 0 1 0 0 0 0 1 0 0 0 0 1 0 0 0 0.25 0"/>
<feBlend mode="normal" in2="effect1_innerShadow" result="effect2_innerShadow"/>
</filter>
<filter id="filter7_ddi" x="69.0813" y="40.8569" width="38.5098" height="33.1049" filterUnits="userSpaceOnUse" color-interpolation-filters="sRGB">
<feFlood flood-opacity="0" result="BackgroundImageFix"/>
<feColorMatrix in="SourceAlpha" type="matrix" values="0 0 0 0 0 0 0 0 0 0 0 0 0 0 0 0 0 0 127 0" result="hardAlpha"/>
<feOffset dx="2.70244"/>
<feColorMatrix type="matrix" values="0 0 0 0 0 0 0 0 0 0 0 0 0 0 0 0 0 0 0.25 0"/>
<feBlend mode="normal" in2="BackgroundImageFix" result="effect1_dropShadow"/>
<feColorMatrix in="SourceAlpha" type="matrix" values="0 0 0 0 0 0 0 0 0 0 0 0 0 0 0 0 0 0 127 0" result="hardAlpha"/>
<feOffset dx="-2.70244"/>
<feColorMatrix type="matrix" values="0 0 0 0 1 0 0 0 0 1 0 0 0 0 1 0 0 0 0.25 0"/>
<feBlend mode="normal" in2="effect1_dropShadow" result="effect2_dropShadow"/>
<feBlend mode="normal" in="SourceGraphic" in2="effect2_dropShadow" result="shape"/>
<feColorMatrix in="SourceAlpha" type="matrix" values="0 0 0 0 0 0 0 0 0 0 0 0 0 0 0 0 0 0 127 0" result="hardAlpha"/>
<feOffset dx="10.8098"/>
<feComposite in2="hardAlpha" operator="arithmetic" k2="-1" k3="1"/>
<feColorMatrix type="matrix" values="0 0 0 0 0 0 0 0 0 0 0 0 0 0 0 0 0 0 0.25 0"/>
<feBlend mode="normal" in2="shape" result="effect3_innerShadow"/>
</filter>
<filter id="filter8_ddi" x="172.45" y="40.8569" width="38.5098" height="33.1049" filterUnits="userSpaceOnUse" color-interpolation-filters="sRGB">
<feFlood flood-opacity="0" result="BackgroundImageFix"/>
<feColorMatrix in="SourceAlpha" type="matrix" values="0 0 0 0 0 0 0 0 0 0 0 0 0 0 0 0 0 0 127 0" result="hardAlpha"/>
<feOffset dx="2.70244"/>
<feColorMatrix type="matrix" values="0 0 0 0 0 0 0 0 0 0 0 0 0 0 0 0 0 0 0.25 0"/>
<feBlend mode="normal" in2="BackgroundImageFix" result="effect1_dropShadow"/>
<feColorMatrix in="SourceAlpha" type="matrix" values="0 0 0 0 0 0 0 0 0 0 0 0 0 0 0 0 0 0 127 0" result="hardAlpha"/>
<feOffset dx="-2.70244"/>
<feColorMatrix type="matrix" values="0 0 0 0 1 0 0 0 0 1 0 0 0 0 1 0 0 0 0.25 0"/>
<feBlend mode="normal" in2="effect1_dropShadow" result="effect2_dropShadow"/>
<feBlend mode="normal" in="SourceGraphic" in2="effect2_dropShadow" result="shape"/>
<feColorMatrix in="SourceAlpha" type="matrix" values="0 0 0 0 0 0 0 0 0 0 0 0 0 0 0 0 0 0 127 0" result="hardAlpha"/>
<feOffset dx="10.8098"/>
<feComposite in2="hardAlpha" operator="arithmetic" k2="-1" k3="1"/>
<feColorMatrix type="matrix" values="0 0 0 0 0 0 0 0 0 0 0 0 0 0 0 0 0 0 0.25 0"/>
<feBlend mode="normal" in2="shape" result="effect3_innerShadow"/>
</filter>
<filter id="filter9_ii" x="104.213" y="48.2887" width="102.693" height="79.7219" filterUnits="userSpaceOnUse" color-interpolation-filters="sRGB">
<feFlood flood-opacity="0" result="BackgroundImageFix"/>
<feBlend mode="normal" in="SourceGraphic" in2="BackgroundImageFix" result="shape"/>
<feColorMatrix in="SourceAlpha" type="matrix" values="0 0 0 0 0 0 0 0 0 0 0 0 0 0 0 0 0 0 127 0" result="hardAlpha"/>
<feOffset dx="10.8098"/>
<feComposite in2="hardAlpha" operator="arithmetic" k2="-1" k3="1"/>
<feColorMatrix type="matrix" values="0 0 0 0 0 0 0 0 0 0 0 0 0 0 0 0 0 0 0.25 0"/>
<feBlend mode="normal" in2="shape" result="effect1_innerShadow"/>
<feColorMatrix in="SourceAlpha" type="matrix" values="0 0 0 0 0 0 0 0 0 0 0 0 0 0 0 0 0 0 127 0" result="hardAlpha"/>
<feOffset dx="-10.8098" dy="5.40488"/>
<feComposite in2="hardAlpha" operator="arithmetic" k2="-1" k3="1"/>
<feColorMatrix type="matrix" values="0 0 0 0 1 0 0 0 0 1 0 0 0 0 1 0 0 0 0.75 0"/>
<feBlend mode="normal" in2="effect1_innerShadow" result="effect2_innerShadow"/>
</filter>
<filter id="filter10_ii" x="152.857" y="80.0425" width="47.2927" height="31.7537" filterUnits="userSpaceOnUse" color-interpolation-filters="sRGB">
<feFlood flood-opacity="0" result="BackgroundImageFix"/>
<feBlend mode="normal" in="SourceGraphic" in2="BackgroundImageFix" result="shape"/>
<feColorMatrix in="SourceAlpha" type="matrix" values="0 0 0 0 0 0 0 0 0 0 0 0 0 0 0 0 0 0 127 0" result="hardAlpha"/>
<feOffset dx="10.8098"/>
<feComposite in2="hardAlpha" operator="arithmetic" k2="-1" k3="1"/>
<feColorMatrix type="matrix" values="0 0 0 0 0 0 0 0 0 0 0 0 0 0 0 0 0 0 0.25 0"/>
<feBlend mode="normal" in2="shape" result="effect1_innerShadow"/>
<feColorMatrix in="SourceAlpha" type="matrix" values="0 0 0 0 0 0 0 0 0 0 0 0 0 0 0 0 0 0 127 0" result="hardAlpha"/>
<feOffset dx="-10.8098" dy="5.40488"/>
<feComposite in2="hardAlpha" operator="arithmetic" k2="-1" k3="1"/>
<feColorMatrix type="matrix" values="0 0 0 0 1 0 0 0 0 1 0 0 0 0 1 0 0 0 1 0"/>
<feBlend mode="normal" in2="effect1_innerShadow" result="effect2_innerShadow"/>
</filter>
</defs>
</svg>
